<svg xmlns="http://www.w3.org/2000/svg" viewBox="0 0 298.18 626.75"><g id="Layer_2" data-name="Layer 2"><g id="svg2"><path d="M298,295.58c-2.68-8.65-14.43-17.19-16.78-24.45a432.25,432.25,0,0,1-22.4-44.68c-15-35.72-27-35-39.47-66.76-8.18-20.8.47-4.57-9-28.23-4.47-11.17-16.19-27.86-22.11-29-4.12-.78-4.41-1.48-5.3-5-1.4-5.55.35-4.16,1.17-9.21.93-5.72-1.67-15.26,0-19.23,1.35-3.16-3.19-2.91-.28-8.8,2-4-.25-2.68,2.87-13.34,1.48-5.1,1.37-13.13,1-15.94-.28-2.29-.19-2.83.65-3.76C190.39,25,185,17.36,181,15c-10.17-6-7.55-6.8-14.69-9.79-5-2.09-3.44-3.31-7-3.53C156.11,1.46,155.3,0,152.58,0c-4,0-21.64,5-29.36,22-5.25,11.58-7.09,22.84-13.09,39.93-2.8,8-.19,2.18-3,13.5-1.86,7.38-13.89,23.13-22.55,24.67-14,2.5-9.29,3.64-9.68,5.3,0,0-6.31,5.89-11.9,17.18-6.74,13.64-8.34,26-15.47,42.86C18.93,233,30.31,194.56,13.8,247,9.11,261.89-2.87,283.13.63,312.67c1.47,12.4,9.66,6.92,9.51,13.71-.08,3.35,19.93,28.4,52.31,43.85C93,384.8,91.54,371.38,94,387.81c6.63,44.13,9.74,56.35,9.74,56.35.09,1-2.48,24.53,3.93,62.16,1.68,9.91,11.14,57.1,3,63.18-2.49,1.86-.27,2-3.92,8.93-13,24.85-10.83,16.66-20,22-5,2.91-7.6,3.55-8.76,6.06-4.53,9.73,27.86,15.83,35.75,7,5.62-6.27,3.33-8,8.22-14.57,18.44-24.59,12.27,5.85,13.15,9.54.38,1.54,1.68,1.66,2.26,1,0,0,1.81-12.59,4.78-19.36,2.66-6.08,11.87-17.78,1.19-29.32-4.83-5.23-4.86-3.59-4.77-22.8.11-21,1.13-13.26.22-20.49-.28-2.21,0-3.36,1.62-12.44,0-1.07.26-16.93-.83-29-1.54-17.44-5-29.26-4.14-34.69,2-12.9,3.16-2.54,4.45-37.7.44-11.88,2.44-14,4.38,2.66,1.56,13.33,4.09,25.17,10.27,33.28,4.91,6.44,18.46,51.3,18.81,52.3,10.42,30.21,14.14,29.68,14.43,59.29.08,8,1.7,32.72.86,38.94-2.79,20.7-10.52,23.6-8.36,31.51.8,3,2.27,4.17,5.88,4.82h0a13.08,13.08,0,0,0,6.39-.56c36.57-12.44,22.54-30.26,24.37-42.2,1.35-8.91,2-10.17,6.36-2a23.2,23.2,0,0,0,1.84,3.06,1.26,1.26,0,0,0,2-.75c.24-.81-.7-3-1.93-6.2-6.16-16.17,3.23-15.86-5.78-27.6-4.82-6.29-8.05-1.88-10.3-6.61s-1-39.39-1.91-45.76c-.5-3.62-.14-14.49-2.8-26-11.57-50.19-28.52-27.88-15.45-79.52,6.42-25.36,2.59-23.14,12.48-26.87,36.48-13.71,73.37-47.78,88-51.25,3.85-.91,5.52-6.63,6.65-10.45C297.54,298.75,298.56,297.25,298,295.58ZM82,270.07c-15,35.06-15.93,31.34-53.39,42.62h0c-2.78.84-3.55.79-4.3-.26C13,296.6,19.61,296,17.65,284.53c-1.57-9.18,5.61-7.12,23.33-51.13C53.87,201.36,52,213.14,64,195.12,79,172.69,73.16,177.66,79.57,194,93.19,228.9,100,227.72,82,270.07Zm190.14,37.07h0c-4.31,3.08-44.48-24.76-56.19-31.07-12.79-6.9-18.18-8.9-18.18-10.64,0,0-6.33-11.94-7.51-15-1.54-4-.83-7.61-6-14.95-2.93-4.13-2-6-4.94-9.61-5.58-6.72-1.64-1.64-7.31-14.49-1.59-3.59,2.6-6.36,3.71-12.72,1.45-8.25-4.18-8.2,9.69-31.72,4.36-7.4-.41,3.27,26.51,36,2.27,2.77,25.21,36.4,42.4,55.88,10.42,11.81,19.14,15.39,17.43,25.46C270.41,292,275.5,304.74,272.14,307.14Z"/></g></g></svg>