<svg xmlns="http://www.w3.org/2000/svg" viewBox="0 0 187.83 704.67"><g id="Layer_2" data-name="Layer 2"><g id="svg2"><path d="M92.74,704.61c-16.5-1.09-22.26-9.69-15-12.37,4.27-1.58,5.11-2.64,15.7-8.09,3.52-1.81,8.85-6.14,10.61-7.4,12.49-8.91,7.5-17.36,11.61-23.77,3.28-5.11,1.12-3,1.16-11.72,5-17.71,2-55.38,0-61.09.06-4.42-.93-9.84-1.67-19-.46-5.65-3.6-7.42-7.33-14.66-1.85-3.6-2.56-2.24-2-1.07,1,2-.65,1.29-1,6.39-3.91,63.28-8.59,57-10,68.5-.35,2.7.12,12.88-.85,17.11-1.45,6.34-4.1,6.55-4.32,10.6-.2,3.49-2.21,4.62-2.45,9.09S85.8,660.06,85.52,668c-.73,20.7-3.92,10.74-36.41,20.73-10.69,3.3-41.64,3-36.23-6.6,5.23-9.32,7.6-.86,27.53-12.84,8.56-5.15,10.42-4.12,14.36-8,1.89-1.89,5.88-7.5,5.38-11.1-1-6.83,5-9.38,3.66-19.36,0,0,1.44-11,2.39-42.83,1-36.82,8.78-34.12-1.58-75.59-22.48-90.06-7.88-108.51-8.53-112.53-.3-1.68-3.47-7.71-4-12.62-.68-7-3.11-5.07-5.68-14-1.44-5-3.48-3.4-2.21-8.34,1.18-4.54-1.14-2.14-4.8-13.28-3-9.28-5.34-.22-7.55-14.5-5.68-36.77-1.12-29.63-4.57-45.17C20.68,262,22,258.51,40.39,227.63c3.57-6,1.24-1.18-8.74-17.67-6.47-10.67-6.31-8.62-11-20-5.42-13-4.88-9.53-7.63-15.75-3.25-7.36-1.67-8.41-5.36-12.05-3.4-3.35-5.29-7.42-4-13.71,1-5-1-4.63-1.19-10.59-.21-5.81-2.14-4.58-2.33-10-.14-4.14,1-4.17,1-9.67,0-.12-.62-6.21-.66-12.76C.4,92.07,1.06,94.17.12,88.72c-.85-4.91,3.1-4.28,3.93-6.86,0,0,.69-7.06,1.79-14.66C8.7,47.56,2.87,55.88,7,41.68c3.33-11.49,4.35-12.14,7.32-16.11C21.39,16.11,24.9,10,26.81,11.89c.82.81-.15,2.12-1.29,4.22-1.88,3.49-1.23,5.33,4.19-2.48C39.26-.11,36.4,9.26,41,5.25c3.07-2.65,4-.33,3.66,1.12-.43,1.89-5.26,9.08-3.43,9.08,1,0,8-8.73,8-3.17,0,2.21-7.37,11.06-10.13,13.42C31.26,32.38,29,32.43,29,39.57c2.56,2.3,5-3.06,9-4.35,9.51-3-7.07,13.59-8.64,14.64-4.59,3.09-7.06,3.48-7.92,5.75-.6,1.59,0,21.63,1.17,25.81,2.06,7.11,7.14,45.2,7.14,45.2,2.91,6.64-.23,8.14.24,11.29.31,2,2.36,2.43,3.94,3.92,4.53,4.27.83,8.63,4,16.56,3.8,9.44,6.11,6.23,7.45,12.6,1.89,8.94,23.26,27.82,26.09,28.21,5.28.72-.63-5.93-2.1-24.62-.85-10.73,1-4.3,4.57-19.54,1.39-6,5.94-17.7,11.5-24.84,2.21-2.83,3.39-3.24,7.79-5.22,13.56-.09,7.3,2.69,15.06,1.82,24.12-2.7,19.06,28.87,25.46,53.53,1.91,7.37,10.06-12.93,10-16.85-.08-6,1.76-4.66,3.83-12.25,1.21-4.43,3.1-3.32,3.69-9.09.32-3.2.63-4.3,4.35-6.45,2-1.16,4.52-4.74,3.69-7.92-.69-2.43-3-4.77-2.79-8.5.25-4.53,2.15-8.94,2.41-14.57.33-7,2.75-5.34,3.22-13.18.34-5.51,1.55-5.84,1.93-16.46.29-8,1.76-3.13,2-10.25.24-7.69.66-3,.53-18.23-3.53-7.56-11.23-1.08-23.78-11-4-3.21-6.07-3.24-5.74-4.75,1.06-4.85,13.14,4.48,15.28,2.31,1.16-1.16-1.85-4.7-3-5.82-2-1.94-4.1-3-6.38-4.74-1-.76-11.92-11.59-12.65-12.57s-.74-1.86.2-2.49c2.67-1.8,13.25,10,11.58,5.17-.21-.6-5.38-9.18-5.72-9.93-.92-2.09.68-5.13,5.08.38,10.58,13.26,3.16,1.12,3-.79-.06-.89.18-1.44,1.24-1.44,3,0,12.34,18,13.24,13.2.23-1.21-2.35-6-1.3-7.09,3.06-3.06,4.33,9.78,13.48,14.65,1,.53,8.39,6.65,11,13.52,1.35,3.51.8,2.74,1.07,14.11.27,11.73.49,6.31.8,13.43.64,15.22,5.43,7.55,3,15.5-1.15,3.8-.27,5,.26,10.71,1.23,13.2-2.84,27.55-3.35,28.88-.88,2.28-1.36,3-.65,5.72,4.5,17.4-4.58,16-4.57,19.83,0,1.08,2.78,3.05,2.54,5.18-.32,2.85-4.62,1.52-5.56,5.6a134.72,134.72,0,0,0-2.9,17.92c-1,10.46-2.07,6.17-2.33,13.72-.12,3.3.06,4.57-2.55,6.63-4.66,3.67-16.15,39.51-19.21,44.64-2.42,4.08-12.15,14.57-13.89,23-1.48,7.23-1.7,2.42-8.6,20.47.11,3.29.6,6.36-2.55,13-6.64,13.93,2.43,17.44-.29,34.68-1.3,8.25-.07,4.58,0,10,0,2.9-.33,2.19,3.1,5.67,5.42,5.52,2.61,4.2,9.75,13.06,1.91,2.36,1.27,3.2,4.23,8.85C164.64,411.6,147.24,424,146.11,479c-.44,22.62-2.85,37.15-2.32,44,2.81,36.62,13.24,42.8,8.56,77.84-9.43,70.51-16.17,60.16-11,79.1,3.94,14.5-4.85,13.06-10.43,14.47-10.17,2.57-11.78,7.67-19.46,9.34-1.65.36-7.49.3-10.83.64a54.16,54.16,0,0,1-7.86.2Z"/></g></g></svg>