<svg xmlns="http://www.w3.org/2000/svg" viewBox="0 0 158.07 580.98"><g id="Layer_2" data-name="Layer 2"><g id="svg2"><path d="M81.52,580.91c-9.59-.81-21.25-4.43-19.46-13.74,1.45-7.56,12.1-.72,21.92-12.74,34.19-41.86,12.71-71.78,12-125.6,0-2.73.35-12.5-2.38-12.5-1.94,0-.77,11.09-2.65,23.45-3.42,22.45-12.88,38.32-18.39,50.78-8.24,18.65-12.47,19.41-6.17,25.9,5.9,6.08,6.25,12,5.06,15.54-1.83,5.35-6.71,9.17-8.92,26.83-.18,1.42-.36,4.46-2,3.78s4.91-44.31-24.2-3.26a8.35,8.35,0,0,1-6.43,4,96.75,96.75,0,0,1-12.08.19C-3.85,561.6-.91,550.35,2,548.94c.56-.26.89-.3,3.33-.39,13.49-.5,15.26-6.72,19.4-13.91,5.85-10.18,5.73-9,7-11.88,1.78-4,2.63-1.81,4.48-5.14,18-32.45,19.57-76.75,24.85-102.58C64,401,61,411,55.51,391c0-15.23.35-11.63-2.34-27.57-2.15-12.7-1.41-12.74-6.07-11.81-10.21,2.05-22.57-3.22-26.3-3.22a2.73,2.73,0,0,1-2.66-1.54c-1.43-3.3-7.24-2.38-8.68-3.9-1.24-1.29.42-8,11.87-82.78,10.83-70.71,12.94-58.3,16.8-73.23.45-1.75.22-2.69-1.9-2.61-7.32.27-7-1.47-10.49-.24-3.22,1.13-5.53-.17-8.38-1.93-3.65-2.27-5.27-1.38-5.63-6-.6-7.75,2.62-19.7,9.62-21.36,3.24-.77,22-14.6,28.44-24.71,9-14,15.92-18.92,26.51-27.21,4.49-3.51,5.54-3.68,7.1-6.2,2.55-4.13,4-1.68,4.76-7.21.26-1.87,1.31-13.31,1.33-14.57,0-1.68-.1-2.09-1-3.15-1.69-1.9-5.71-10.51-6-18.89-.54-18.32,2.14-13.07,2-22C84.41,20.49,94.79,5,103.12,2.16c16.4-5.47,33.39-.7,39.1,15.87,3,8.67,18.41,12.21,15.49,32.45-1.86,13.09-1.88,16.59-1.88,23.71,0,13-2.28,10.34-.79,19,2.31,13.43-2.15,4.24-.63,13,1.37,7.86,5.24,13.46.82,9-4.77-4.8-.7,3.13-4.08,11.6-1.64,4.13-2.88,6.41-3.8,7-.7.48-.74.53-1.22,1.65-1.06,2.47-.94-.3-2.32.89-1.18,1-1.77.83-1.06-1.25.94-2.73-.05-2.88.36-6,.21-1.6.74-5.5.43-6.75-.36-1.45-1.13-2.3-1.72-1.92-1,.66-4.3,14.53-6.13,12.7a11.29,11.29,0,0,1,.07-5.32c1.82-4.31-2.49-1.16-1.52-4,1.27-3.73,1.2-4.39-3-32.14-2.14-14.13,4-28.68-2.37-24.71-16.23,10.12,10,25.51-.77,65.12a344.17,344.17,0,0,1-11.48,34.15c-1.51,5.87-4,4.31-3.68,9.71.25,4.59-3.38,3.85-2.37,10.92.51,3.5-2,1.09-2.2,5.41-.17,3.66-1.16,2.2-1.55,7.51-.33,4.58,4.22,15,5.15,19.17,4.18,18.68,18.53,20.84,26.83,79.21.34,2.4,2.7,17.74,5.41,29.7,2.6,11.44,3.92,17.36,3.44,18.36-1,2.16-15.11,1.89-18.63,3.37-2,.81-1.29,2.83-2.61,3.53s-3.86-.37-5.33,2.25c0,26.41,3.17,20,4.84,38.85.65,7.28-2.79,8.88.74,19.54,15.12,45.51.71,75.39.19,99.37-.38,18.3,9.24,11.46,9,27.34-.12,7.46-3.75,9.37-7,19.2a82.08,82.08,0,0,0-2.9,14.84c-.32,1-3.26,2.78-2.51-4,3.26-29.2-13.88-9.09-18.36.13-2.3,4.72-5.68,8.68-16.18,10.05a45.41,45.41,0,0,1-7.34.2Z"/></g></g></svg>