<svg xmlns="http://www.w3.org/2000/svg" viewBox="0 0 243.72 599.28"><g id="Layer_2" data-name="Layer 2"><g id="svg2"><path d="M243.7,198.74c-4.9-14.6-2.82-18.62-12.58-36.28-19.4-35-22.47-59.44-54.23-65.47-4.19-.8-5.78-4.79-5.47-8.51.55-6.77-3.54-28.47-3.95-41.24-.3-9.45-1.89-22.32-5.7-30.93-3.61-8.18-7.26-11.45-16.21-14.56-3.59-1.26-8.83-3-13.34-.46-3.92,2.2-5.11-1.52-9.37-.19-5,1.57-18.39,10.51-20.38,16.83a19.67,19.67,0,0,0-.61,6c0,3.67-.11,4.65-1.68,15.57-6.75,46.9,18.6,36.45,3.6,52.06-7.38-.14-3.66,2.09-8.1,3.16-2.11.51-9.2.75-11,.13-7.38-2.6-6.79,4.72-12.25,8.21-10,6.39-10.88,8.9-52.58,50.65-5.19,5.2-9.57,9.27-9.57,9.27-1.06,1.45-.22,4.23-4.43,7.1C-17,185.64,33.71,239,38.72,249.78c.92,2,1.13,2.38,7,3.08,5.14.62,4.66,2.82,9.91,4.26,20.67,5.63,16.08,3,13.67,19.15-2.63,17.58,0,37.17,23.19,67.28,5.89,7.63,4.47,2.64.27,30.11-3.31,21.57-11.21,44.68-9,50,1.17,2.8-1.29,4.19-.22,8,0,0-14.18,47.53-6.52,105.06.63,4.8-1.1,7.43-.1,15,2.25,16.65-15,34.36,13.72,33.83,14.32-.27,22-5.09,26.57-2.8,1.77.88,1.16,3.1,2,6.37,1.12,4.39,5.35,9.43,10.21,10h0c3.89.44,24.26.56,27.06-5.33,2.33-4.91-9.25-4.32-3.28-6.18,5.26-1.64,4.62-5.45,4.08-6.45-1.24-2.29-2.5-.77-10.49-4-3.16-1.27-2.91-1.44-2.19-7.29C146,559.38,152,538.66,151.07,533c-1.73-10.44,29-98.42,34.42-112.85,3.22-8.56,4.24-11.49.28-24.42-3.61-11.82-4-15.26-14.82-37.44-12.33-25.4-8.78-13.92-5.93-40.41,1.28-12.06-.38-24.24,1.33-26.18.88-1,13.84-9.26,16.51-12.81.89-1.19,3.59-7.68,3.78-7.88.7-.78,1.93.35,3.28.26,4.84-.35,35.39-30.31,36.39-31.18,8-7,5.94-12.25,15.28-32.68C244,202,243.7,201.91,243.7,198.74ZM108.23,77.63c-.78,1.24-3.16-3.45-2.17-3.45C106.62,74.18,108.51,77.19,108.23,77.63ZM91.52,189c-3.39,12.53-2,10.83-2.41,25C88.6,230.89,66.4,221.22,74.2,242c-1.44,1.94-9.12.69-10.46.23-2.46-.84-2.26-1.72-7.22-7.9-6.62-8.24-2.51-13.78-8.18-15.09s-3.65-5.73-8.41-12.18,1.81-4.8-4.28-14.09c-2.89-4.41-1.86-6.55,1.77-9.12,8.68-6.15,14-17.08,15.25-18.39,2-2.13,17.13-12.08,19.15-14.07,7.74-7.61,8.35-5.91,13.07,4C86.31,158.36,96.07,172.15,91.52,189Zm54.39,229.82c-1.27,4.19-3,2.89-3,5.33,0,1.23-.17,1.69-3.48,9.73-13.77,33.48-10,38.27-13.93,60.51-.71,4-4.7,19.8-2.64,24.47a9.15,9.15,0,0,1-.65,8.26c-2.16,3.72,1.31,5.66-1,7.69-.78.7-8.72,4.74-9.88,5.63-3.55,2.73-2.5,10.86-1.31,13.88.57,1.44.71,2.14.53,2.62h0c-.15.4-.45.45-.89.14-12-8.42,7.43-120.25,12.13-128a7.43,7.43,0,0,0,1.25-3.31c.84-5.78,11.94-28.35,14.43-26.7C139.67,400.49,147.27,414.3,145.91,418.77Zm71.31-213.93a22.21,22.21,0,0,0-3.95,4.19c-2.15,3.1-4.92-.91-11.41,14.09C199.77,228,194,226.81,191,233.76c-2.74,6.27,4.21,1.06-10.12,13h0c-2.2,1.85-2.65,2.11-2.95,1.75-1.14-1.43,17.25-61.29,19.8-64.71,4.36-5.85,3.94-12,6.86-6.67,9.34,17.29.77.48,6.3,17.44C213.46,202.44,221.1,198.73,217.22,204.84Z"/></g></g></svg>