<svg xmlns="http://www.w3.org/2000/svg" viewBox="0 0 233.39 678.05"><g id="Layer_2" data-name="Layer 2"><g id="svg2"><path d="M148.85,667.73c-2.53-8.13,12.46-23,2-37.18-6.16-8.31-3.91-30.57-11.21-43.95-5.84-10.7-4.85-32.74-10.52-43.78-.88-1.71-2.88-1.9-2.89-5.31,0-5.23-3.39-4.63-3.61-14.64-.16-7.73-1-6.27-.07-9.94.46-1.85,3.43-22.93,3.1-26.13-2.26-22.21-1.22-20.62-4.16-25.13-2.53-3.88-2.32-3.94-6.47-1.67-17.79,9.73-18.76,20.42-35.6,28.58-3.43,1.67-2.68,3.87-5,6.16A60,60,0,0,0,67,500.89c-5.81,5.73-5.57,3.94-5.25,7.63-1.23,1.39-1.47,1.57-1.7,2.87-.76,4.2-3.74,4.87-1,9.16C74.32,544.27,72.14,566,74.72,575.13c.33,1.19,4.42,21.61,3.91,28.69-.39,5.43,1.67,6.22,2.57,12.2,5.32,35.33,2.89,33.74-29.51,40.87-20,4.39-45,2.2-48.44.51-5-2.46-4-7.68,1.27-11.53,6.82-5,17.32-6.34,30.13-14.68C46.47,623.48,47.11,623,45.22,621s-.58-4.89-.56-11.3-2.71-5.94-4.5-14.95C36,573.5,32.69,574.2,22.8,552.32c-1.38-3.06-9.18-22.85-9.24-23-1.34-2.65-2.24-1-5.3-8.66-5.48-13.62-3.69-17.29,7-41.57,8.18-18.54,30.37-60.11,43.14-71.77,3.46-3.16,2.05-4.28,5.59-6.77,1.88-1.32,2.32-2.91,5.18-6.78,3.47-4.71,4.32-5.44,1.49-6.44-13.05-4.63.3,3.64,2.9-99.83.53-19.95,5.73-11.19-21.86-52.17-4.23-6.28-9.07-17-9.07-20.95L22.51,127.32c-7.22-32-1.05-64.15-3.68-79.46-.81-4.77.77-13.49.9-16,.12-2.33.18-3.79,2.71-5.18,5.64-3.1,5.44-3.64,8.06-3.91,4.13-.43,3-3.74,8-2.27,4.66,1.38,4.32-2.63,9.12,2,15.57,15-12.84,18.58-8.67,38.06,1.82,8.47,1.39,19.25,3.74,28.92.8,3.31,11.71,33.38,12.71,37.83,2.29,10.23-2.2,17.35,6.13,29.71,7.31,10.84,17.27,38.78,24.17,42.43a2.59,2.59,0,0,1,1.63,2c.63,2.76,2.39.69,4,3.86,2.07,4,3.38,1.48,6.65,2.65,4.15,1.5,2.26-4.71.69-8.81-1.23-3.2-4.15-13.3-4.17-13.34-1-1.51-2.72.58-4.51-1.26-1.63-1.7-2.08-5.17-3.55-8.11-4.9-9.81.7-28.19.8-29.2.55-5.34,6.57-10.22,7.35-12.25a10.35,10.35,0,0,1,7.7-6.95c8.72-2.49,9-5.72,18.76-2.46,15.29,5.12,25.37,14.78,27.35,35.76.45,4.73-.56,2.31-3,8.91-.53,1.4-1.92,4.37-1.93,4.38s-.6,9.73-2.34,16.07c-4.07,14.93-2.13,11.11,2.84,7.42,22.56-16.77,26.9-44.88,30.39-53.71,6-15.28,6-2.75,12-30.28,2.08-9.54,1.22-13.4,11.65-36,7.41-16.07,13.22-40.52,13.36-41.52,1.17-8.34-8.67-16.65-10.64-22.54-.09-7.69-.85-11.78,3.32-13.71,2.7-1.25,3.89,1,5.75.94,1.41,0,3.41-1.12,5.31-.53,0,0,3.8,2.82,11.58,5.06,13.56,3.89,2.85,32.89-.9,54.19-6.45,36.58-27.44,98.15-27.44,98.15-8,45,.55,36.53-7.15,49.62-8,13.61-9.64,33.6-9,38.25.77,5.71-.32,17.84-.1,20.14.95,9.57.89,2,1,20.94.42,51.76,8.9,76.69,2.8,84.64-1.67,2.18-1.5,3.58-1.51,8.33,0,10.93-1.72,13.35-2.06,26.44-.48,18.57-7.39,43-7.88,45-.7,2.85.18,7.43-1.4,10.39-5.54,10.36-4.67,22.82-6.75,29-4,11.87-.25,16.21-2.93,34.75-1.68,11.61,9.74,30.49,9.26,55.34-.26,13.23,2.62,11.14,4.68,29.17,1.47,12.83,2.53,2.37,2.5,16.5,0,16.18-5,10.77,3.28,24.26C202.41,682.52,154,684.25,148.85,667.73Z"/></g></g></svg>