<svg xmlns="http://www.w3.org/2000/svg" viewBox="0 0 228.07 614.53"><g id="Layer_2" data-name="Layer 2"><g id="svg2"><path d="M227.7,317.65c.92-2.52,0-10.26-1.07-12.36-2.17-4.51-16.87-6.83-18.11-14-.05-.28-5-12.24-6.61-18.84-3.72-14.85-1.88-19.82-11-48.44-8.88-27.76-9.63-27.65-10.38-37.37-.56-7.09,0-41.3,1.11-49.67.82-5.93-.78-5.09-.78-9.75,0-3.51.34-3.28,0-5.86-.54-4.18,1.16-4.16.39-7-.72-2.67-3.19-6.77-3-8.62.32-2.92-.05-3.51-.47-4.59C175.37,95,174,69,175.42,60.9c1.9-11-5.15-27.2-5.53-29.23-.83-4.36-2.55-4.63-7.27-8-6.17-4.44-7.63-1.71-10.47-3.07-5.89-2.8-3.39-11.8-16.39-15.57-4.79-1.39-21.12-8.68-32.2-2.7-7.8,4.22-5.4,4.8-11.73,10.61-4.08,3.76-5.34,7.78-7,10.14-4.9,7.12,2.81,13.34-3.58,19.56s-2.3,5-.58,8.36c.18.35-.14,11.1-.14,11.5,2.91,7.86.14,11.34,4.73,13.26C92.8,78.88,97.23,77.11,102,84c2.91,4.17,3.48,4.28,3.68,8.08s-.52,4-3.11,5.26c-5.5,2.74-3.71,4.45-7.21,5.09-12.85,2.38-23.81,21.55-26,34.4-1.22,7.24-9.43,6-11.57,16.77-2,10.19,2.49,12.16-.41,18.24-9.9,20.8-9.06,27.55-14.94,34.47-11.08,13.05-13.19,31.87-26,54.19-5.67,9.85-.27,4.8-10.29,20.82-3.13,5-.45,4.59-1.23,13.09-.75,8.1-1.41,6.89-1.63,11.21-.44,8.66-5.88,8.12-1.75,13.21,6.08,7.49,16.77,28.91,44.4,33.77,19.81,3.48,19.81-5.81,4.89,31.57-11.09,27.77-10.38,26.15-4.17,39.19,8.14,17.06,3.12,6.16,14.12,45.88C74.5,518.7,75.85,515.5,76.11,541.43c.15,14.29.93,14.71.34,17.14-.71,2.92-1.83,2.54-1.24,6.49.51,3.38.05,6.24.12,12.74,0,1,.19,3.14-1.82,3.75-5,1.54-3.37,3.93-15.1,4.93s-8.1,11.69,1.07,14.6c5.22,1.66,2.08,2.53,3.59,7s6.29,5.8,11.11,6.29h0c11.84,1.22,24.39-8.8,26.85-11.17,5.78-5.56,1.37-17.67,4.67-22.21,1.23-1.7,11.64-7.2,8.78,15.65-.13,1-.5,4.19.27,4.88,2.3,2,2.67-3.22,3.06-5.73.37-2.32,2.87-14.89,5-14.07,1,.39,1.44,2.53,2.62,2.62,2.34.17,1.18-2.47.23-4.49-3.63-7.69,10.43-11.65-2.43-28.2-11.37-14.62,19.58-63,11.18-114.8-.91-5.58-.25-8,.73-12,2.5-10.1,2.61-7.72-.86-40.87-.66-6.32,1.63-10,1.63-17.45,0-7.89.91-7.15,10.24-4,26.38,8.9,43.29-2.47,55.55-9.57,16.05-9.28,12.63-13.51,14.24-15s3.87-.2,7-4.83c1.75-2.56,2.77-3.4,2.77-5.21,0-2.27-1.55-4.69-.48-6.78C225.9,319.91,227,319.58,227.7,317.65ZM27.9,284.24C26.66,273,24.55,279.65,40.3,256c5.33-8,7.28-11.75,8.17-10.87C50.07,246.75,29.28,296.84,27.9,284.24Zm72.64,171.42c-.93,9.89-1.6,13.38-3.24,3.48-3.8-23-15.66-29.53-12-44.53,1.27-5.17,6.18-14.47,8.22-12.34.6.63,7.89,27.77,8.68,29.58C103.29,434.25,102.68,433,100.54,455.66Zm58.38-366c1.11,4.95-1.26,4.2-2.14,2.5C154.58,87.9,156.53,79.07,158.92,89.68ZM145.64,68.35a1.69,1.69,0,0,0,1.57-1c3.57-8.73.72,11.57,6.82,23.29.71,1.36.9,1.39.43,2h0c-.68.88-4.84-1.15-8.18-2C139.79,88.86,130.86,68.35,145.64,68.35ZM193.39,298.8h0c-.67.66-1.52.17-4.71-2.72C169.81,279,169,279.76,167.55,273c-5.34-24.38-18.11-50.65-18.44-51.65-2.09-6.21.35-7.43-1.55-10.09-6-8.36-.38-7.54,1.76-14.48,1.17-3.75-1-4.92,0-10.12,1.63-8.86,3.78,6,4.76,14.69,1.15,10.11,2.22,17.24,8.28,27.3,7.91,13.14,5.26,16.2,24.45,47.91C191.84,284.82,194.4,297.8,193.39,298.8Z"/></g></g></svg>