<svg xmlns="http://www.w3.org/2000/svg" viewBox="0 0 172.7 624.86"><g id="Layer_2" data-name="Layer 2"><g id="svg2"><path d="M161.65,318.61c-1.11-12.16-1.56-14.59-6.46-36.65-2.94-13.22,4.47-10.59,7.48-44.37.76-8.62,2.17-7.29,2.26-13.78.29-20.82,13.06-67.34-.19-97.69-4.75-10.87-6.89-20.26-20.35-23.78-16.17-4.23-13.59-6.76-14.86-12.7-.47-2.15-.13-9.56.49-10,.88-.65,3.13,4.18,1.08-3.1-9-32.14-4.71-74.85-38.49-74.85L89.39,0H86.55c-7.14,3-7.17,2.87-10.06,5.17C60.39,18,66.23,15.54,61,36c-6.2,24.35-1.23,14-2.54,35.63-.43,7.08-1.4,5.93-1.76,12.38-.47,8.51-6.3,19.91-8.15,21.17-3.88,2.64-13.87-.39-22.21,14.67C14,142.22,18,183.65,15.09,206.21c-6.45,50.45-2.33,46.78-.33,75.53a34.8,34.8,0,0,1-.27,9.8c-1.14,7.31,1.54,7.82.16,14.11-3.22,14.68-3.19,14.54-2.93,16.06C12.64,327,0,378.5,0,381.94c0,4.08,22.62,10.44,34,12.32,6.56,1.09,4.67-.56,7.92,14.3,8.44,38.64-6.35,12.9,2.12,105.63.77,8.41,2.5,19,2.78,22.49.49,5.85-.55,11.08-.5,18.81l0,4.64c-6.7,21.42-6.15,25.59-13,30.41-3.37,2.37-9.71,8.1-8.51,13.4,2.21,9.79,6.05,9.1,12.57,8.86,9.62-.36,18.27-4.34,18.95-14.07.25-3.61,3.35-15.58,5.74-16.19,3.53-.88,1.32,15.81,4.35,15.81.85,0,.89-.16,1.22-4.27.58-7.21,1.24-11,2.59-14.94,3.19-9.26,5.35-9.81,5.35-15.78a26.48,26.48,0,0,0-6-16.05c-1.71-1.88-2.68-3.54-2-10.76.9-9,.45-10,2.66-23.1,10.65-62.87,3.18-49.87,5.59-70.67,1.41-12.11,6.32-14,6.32-29.32,0-9.72-1.36-11-1.19-17.79.15-5.81,1.31-5.26,6.54-4.25,13.91,2.69,12.63-2.13,15.46,11.92,11.57,57.3,10.9,35.62,7.28,84.68-.78,10.67,1,33,.94,45.63-.06,10.24.77,11.2-6.17,29.43-6.19,16.24,4,16.43-1.53,33.08-4.93,14.69-3.44,27,12.19,28.59h0a17.54,17.54,0,0,0,6.21-.44c6.38-1.52,8-13.75,7.85-16.67-.41-6.28-2.83-8.26-3.1-13.94-.55-11.25-3.94-16.72-.84-22.94,1-2.07.32-1.54.32-10.63,0-23.49,17-35,21.5-95.76,2.89-39.61-7.6-19.6-2-67.8,1-8.29.77-8.05,6.44-8.05,11.06,0,1-5,11.53-6.25C182.39,380.11,167.09,378.68,161.65,318.61ZM41.09,220.77c-1.87,6-5.51,27.88-6.75,29.77h0c-4.4,6.78,4.86-37.92,5.29-41.81C40.9,197.07,44.52,209.67,41.09,220.77Zm101.07,13c-1.88,1.87-10.09-19.2-8.71-22.88,4-10.54.34-15.26,4.44-23.35,1.91-3.79,1.57,2.6,2.65,19.68C142,229.42,143.86,232,142.16,233.73Z"/></g></g></svg>