<svg xmlns="http://www.w3.org/2000/svg" viewBox="0 0 128.92 586.14"><g id="Layer_2" data-name="Layer 2"><g id="svg2"><path d="M62.89,586c-2.3-.34-8.75-1.1-10-1.48-8-2.45-6-10.53-4.27-12,4.91-4.21,15.28,1.23,29.66-26.68,1.46-2.85,1.25-4.39,3.11-7,1.44-2.06,1.22-2.08,5-14,5.49-17.13,5-13.41,5-54.84,0-55,2.69-38.92-5.4-54.77-6.33-12.43-1.94-14.75-9.5-31.07-11.2-24.2-10-25.76-12.59-23.23-5.05,5-16.14,29.61-14.36,40.18,6.36,38.64,8.09,31.6.66,95.83C48.88,508.79,49,509.1,58.79,516c10.05,7.08.06,20.16,2.62,36,.9,5.68,1.21,6.71.68,7.48-4.1,6.1-2.48-28-14.39-16.81-10.19,9.59-5.78,23.37-17.61,26.79-5.8,1.69-21.16,1.74-27.27-2.32-4.39-2.93-3-7.08-.39-8.23,2.14-1,7.67-1.69,12-4,3.81-2,4-3,4.38-6.92.16-1.72,3-22.7,4.06-24s1.28-1.74,2.06-7.61c5.76-43.62-1.07-53.31-5.17-104.92-.81-10.09-7.44-14.13-8.62-22.18-.73-5,7.6-36.59,7-42.13C17,336.54,38.05,292.46,23.71,235c-6.8-27.31-.23-48-2.24-67.15-.92-8.79-2.2-9.55-2.19-15.21,0-14.31,6.86-14.43,17.3-26.34,30.64-34.91,21.2-24.25,24.13-30,1.86-3.65-.83-16.1-1.3-17.19-2.75-6.42-10,2-15.09-26.22-1.86-10.33,1.8-10.82.4-18.24-.49-2.63-.12-3.45.7-6.49,9.8-36.6,33-27.07,37.7-26.83C94.24,1.86,97.84,8.18,100,12.44c10.34,20.52,3.69,8.88,8.1,24.17.94,3.25,4.21,16.81,1.85,14.35-4.45-4.63-.13,16.25-3.06,23.14-.62,1.47-.73,2.26-.41,3.18.75,2.18-1.22,6.5-.48,11.14a91.69,91.69,0,0,0,2.07,10.46c-.81,2.12-1.24,2,.26,5.27,11.38,24.52,1.43,38.74-7.08,75.52-6.3,27.26-12.27,20.83,2.45,44,22.93,36,24.09,49.49,19.34,70.82-4.28,19.21,14.77,51.9.53,58.76-3.36,1.62-3.6,1.22-4.53,3.23.21,81.37,13.68,77.94,5.46,119.42-4.81,24.33-18.7,46.51-11.42,54.5,12.59,13.82,1,25.69-1.51,36.23-2,8.29-1.16,12.72-2.83,13.27-4.21,1.39.41-18.08-4.19-19.32-2.36-.64-7.13,5.31-8.41,7.47-7.53,12.68-5.21,14.4-14.93,16.68-4.69,1.1-14.79,1.8-18.3,1.28Z"/></g></g></svg>