<svg xmlns="http://www.w3.org/2000/svg" viewBox="0 0 249.24 601.71"><g id="Layer_2" data-name="Layer 2"><g id="svg2"><path d="M249.22,197.08c-.49-11-21.65-40.18-29.17-48.53-6.17-6.84-12.84-20.22-19.5-28.1-9.84-11.65-10.78-9.17-11.11-14.38-.58-9.23-9.71-5.35-17-6.45-3.22-.51-1.84-3.12-4-4.82-5.63-4.41-6.24-21-3.88-27.84,1.51-4.42,1.57-3.95,1.41-10.83-.06-2.42,1.27-3.52.61-9.22C162,7,150.25,3.3,138.28.5c-5.7-1.36-12.93.43-14.63,1-6.5,2.11-11.21,9.23-13.94,15.46C104,30.08,97.18,61,96.59,65.28c-5.36,38.87-14.79,13.09-27,24.94-3.89,3.77-3.13.71-10.56,8C10.6,146,15.59,142.46,4.88,159.37c-8.07,12.76-4.48,5.83-1,39.82C4.5,204.75,2.1,214.14,24.67,237,38,250.54,35,253.88,40.6,254.36c4.06.34,1.75,1,6.15,5.34,2.77,2.74,5.45,4.86,6.47,6.19,10.2,13.4,9,5.63,4.87,15.23C42.91,316.27,40.63,397.35,39.82,402.19c-.6,3.55,1.06,3.54.44,7a13.07,13.07,0,0,0-.14,4,2.89,2.89,0,0,1-.16,1.86c-1,2.26.83,1.75,1.14,6.36.39,5.91-1.46,5.48-.2,7.79a7.33,7.33,0,0,1,.84,3.77c0,14,15.84,74.76,16.25,80.75.46,6.75,3.75,6.64,3.42,10.43-.24,2.8-.57,4.2,1.75,10.24,1.93,5,1.19,6,3.53,14.71,1.69,6.3,2.86,4.31,3.41,9.73,1.18,11.91,1.91,11.72-1.81,12.62-2.78.68-4.08,1.24-4,4,.16,3.53,2.55,4.7,8.86,7.06,6,2.24-5.4,5.69-6.88,10.46-1.73,5.78,5.25,8,11.08,8.59h0a19,19,0,0,0,4.82-.18c5-1.05,11.71-4.69,14.33-11.09,1.12-2.73,1.74-2.61,2.85-2.31,7.69,2.11,19.87,9.18,28.84,6.15,4.57-1.54,2.16-7,3.4-14.54.92-5.55,3.28-15,6.76-19.41,4.83-6.17.05-4.69,2.74-9.07,13.09-21.3,21.25-58.13,21.52-59.48,7.61-38-2.27-55.71-.26-79.18,4.84-56.42,15.13-95,12.4-121.84-1.84-17.81,2-6.62,15.36-22,5.39-6.22,5.06,3.73,11.3-5.11C208.94,253,250.1,215.43,249.22,197.08ZM61.72,267.61h0c-1.16,1.49-3.68-2.93-2.66-3.57C59.89,263.51,62.73,266.33,61.72,267.61Zm8.66-35.89c-2,2.85-2.59,6.18-4.18,7h0c-4.29,2.19-7-2.92-10.41-7.36-9.19-12.09-9.45-10-8.63-12.43,2.91-8.46-4.39-11.72-6.43-15.75-2.24-4.47-2.85-12.29-4.85-15.2-1.4-2-4.35-2.12-4.84-4-1-3.62-7.41-6.56.34-6.91,2.79-.12,3.56-.18,5.4-2.76,4.49-6.31.18-8.09,6.06-12.45,2.11-1.56,17.81-16.57,18-16.68,4-2.14.08,9.44-.29,19.12-.59,15.42,3,14.94,3.14,23.53a57.9,57.9,0,0,0,3.95,19.43c3.06,8.35-1.41,8.65,1.73,14.9C70.47,224.33,72.21,229.13,70.38,231.72Zm50.06,295a19.72,19.72,0,0,1-1.4,7.51c-2.83,7.27.49,3.88-5.31,11.88-3.93,5.42-1.68,8.56-5.25,12.38a9.08,9.08,0,0,1-5,2.82c-5,1,.15-3.91,1.21-9.31,1.42-7.23-10.43-11.63-12.51-15.79-1-2.07.43-4,.43-7.76,0-5.26-1.81-4.9-1.74-11.34.08-9-2.42-7.69-1.28-11.33,1.82-5.78-.48-7.83-.75-17.34C88.14,465,86,455.69,78.68,430c-.5-1.77-2.09-7.54-1-9.61s-1.09-2.59.49-5.11,1-4.1,2.94-6.76c1.78-2.5.29-2.17,1.49-6.69,3.32-12.51,2-11.39,16.27-39.76,7.87-15.58,9.06-17.72,10.17-16.23.75,1,12.84,92.29,17.37,98.47C132.23,452.22,120.22,525.76,120.44,526.76ZM210,205.7a105.82,105.82,0,0,1-6.81,15.47c-3.43,6.13-3.36,10.71-6.73,12-2.26.85-6.92.16-6.92,7.24,0,2.93-.08,2.33-3,5.82-6.82,8.16-7.35,9-12.2,9.65l-2.2.31c-2.31.43-2.7-1.95-2.83-3.76-.5-6.71-4.79-7.23-.24-12.92,7.49-9.38-2-12.63-3.23-18.37-.79-3.6-1-14-1.44-19.08-1-12.23.27-5.47,2.33-19.85,1.08-7.55,6.18-16.22,10.8-22.8,3.55-5.06,4.13-5.5,5.81-4.37,14.23,9.59,14.43,31.52,29,38.59,2.57,1.25,3,1.63,3.63,2.94C218.35,201.79,212.18,202,210,205.7Z"/></g></g></svg>