<svg xmlns="http://www.w3.org/2000/svg" viewBox="0 0 145.77 694.15"><g id="Layer_2" data-name="Layer 2"><g id="svg2"><path d="M145.16,21.57c-1.94-1.36-4.85,9.6-7.25,9.6-4.65,0-.53-21.8-4.65-22.63-3-.59-.68,15.93-3.12,15.65-2.23-.27-1.82-21-4.67-21.45-1.12-.18-1.56,1.08-2,2.08-.12,13,.15,14.88-.76,14.88-1.6,0-4.79-11.6-6.83-13.73-1.2-1.24-2.75-.39-2.47,1.77.56,4.21,5.82,19.81,6.06,22.86.2,2.4-.67,10.51-4.87,8.51-5.71-2.71-6.57-6.72-11.89-7-2.48-.13-2.55,1.37-1.38,2.23,3.34,2.46,4.57,3.75,9,9.65,6.48,8.57,9.52,8.29,9.5,13.14,0,8.63-7,48.43-8.18,64.68-.24,3.34.26,16.47,0,18.34-.66,4.8-1.81,1.4-1.47,10.68-1.66,4.84-1.89,5.48-3.43,10.32-.19,4.08-.38,6.6.16,9.86,1.3,7.8-3,23.24-3,28.37,0,1.84-.76,4-2.52,4.83-2.29,1.06-1.57-1.55-1-3.95,1.89-7.44.59-12.9-1.7-19-6.28-16.79-5.08-34.93-20.2-34.93-5.67,0-6.21,2.07-11.28-.33-10.79-5.1-18.4,6.58-34,39.55-1.33,2.83-2.43.66-2-2,.37-2.13.15-4.05-.85-7.64-1.14-4.09,1-4.11,1-7.36,0-2.77-3.91-10.52-1.75-16,1.56-3.92,1.57-4.29-.57-10.11-1.41-3.84,1-5.72,1.24-14,.39-13.21-.66-72.38-.73-72.79-1.33-8,1.75-8.64,4.3-15.25,2.19-5.68,4-9.91,6.41-13.15C43.36,23.39,39,22.1,34,29.11c-1.29,1.8-4,5.74-6,4.79-7.18-3.49,2.06-19.76,2.06-31.62-4.24-3.79-4.41,9-6.58,9-1.34,0-.31-8.83-1.12-10.39-.63-1.2-2-1.42-2.86.42C17.74,4.94,18.62,19.22,16,15.48c-1.19-1.72-.85-6.57-1.71-8.16-1-1.89-2.89-.3-2.89,3.54,0,4.9,1.33,7.17.47,13.89s-3.19,3.06-5.67-3.13c-2.11-5.25-3.52-3.5-3.05-.07C4,27.86,6.86,31.29,7.3,35.78,7.73,40.06,10.49,49,14,54.89c2.45,4.13,2.29,5.11,0,14.25-1.94,7.66-1.74,9.49-3,11.12-2.08,2.64-2.62-.05-2.84,5-.25,5.8-2.63,11.79-3.23,20.92-.42,6.44,1.21,9.83.22,13.43-.66,2.4-3,4.59-1.95,12.12C3.7,136,2,138.44,1.62,142.72.69,152.31,3.23,155,1,158.28c-2.76,4.06,1.14,4,1.81,7.91,1.42,8.13-5.57,25.12,7.49,60.11,4.66,12.5.69,15.43,1.56,29.65.69,11.19-2.26,15-.2,23.78,1,4.49-1.52,17.57-2.4,22-11,56-1.88,29,5.09,43.17v2.85c0,3,1.78,7.4-.92,7.4-1.47,0-.59,3.63-1.25,6A57.44,57.44,0,0,0,9,369.56c-1.51,5.31-.57,5.48-1.75,14.82-5.72,45.29-10.11,36.18-1.68,83.13,1.08,6,9.16,59.77,7.47,65.83-.57,2-.28,3.12-1.27,14.31-4,45.5,5.72,63.12,5.78,79.62,0,3.09-.73,10.5-.21,12.19,1.14,3.74,5.53.14,5,5.46-.54,5.67,1,11.19.9,14.24-.19,3.87-4.83,11-7.89,13.47s-9.59,5.54-10.65,7.94c-4.45,10.06,25.7,16.92,29.58,4.63,2.87-9.07,11.88-4.86,8.68-17.08-3.48-13.29,3.32-8.64.51-21.15-2.23-9.91,6.54-4,0-17.19,0,0,2.63-13.48,2.44-81.59a4.49,4.49,0,0,1,2-2.46c3.15-1.87-.54-2.73,1.12-5.87,5.92-11.16,1.29-36.81,8.79-78.15,1.06-5.86,2-6.39,2.76.65.1,1,8.17,65.14,7.6,70.14-.23,1.94-1.12,3.18-.78,6.2.42,3.66,4.14,6.22,3.88,11.24-1,19.44-3.92,26.14-5.35,40.85-1.09,11.23-.64,24-2.46,28s-.83,6-1.54,12.43c-1.39,12.32-4.4,18.2-3.23,25.44,1.4,8.63-4.22,15.71.37,21.76C64.84,686.1,57,693.59,69,694h0c9,.31,21.77.77,21.77-8.89,0-5-7.37-7.76-10.57-14.69-2.7-5.86-2.92-7.47-1.4-10.44,3-5.88-1.19-9.68,6.56-21,4.91-7.14,2.73-8.7,6.14-18.31,17.78-50.21,14.85-83.23,13.15-87.85-1-2.59,7.33-53.84,10.47-66.35,10.46-41.66,7.08-34.84,2-76.62-.75-6.08.51-5.5-1.82-10.44,0-1.23.11-5.24-.06-6.25-.5-2.72-2.11-7-2-9.16.17-3-.68-.83-4.73-6.89-2.14-3.19-4.39-7-.53-7,2,0-.71-.47-1.56-2.23,2.45-11.57,9.19-20.46,9.19-44.74,0-6.2,3.41-9.8,5.61-22.81,1.8-10.68-.26-22.62,2.07-35.39s15.36-30.06,11.32-73.46c-.6-6.39,2.58-7.71,2.58-11.21,0-1-.21-7.22-1.34-9.67-2.16-4.69,1.29-5.07,1.29-8.14,0-3.54-3.2-9.07-1.39-13.26,1.23-2.84,1.46-4.06,1.71-8.83.67-13.23,2-10.31.31-18.58-1.05-5.34-1.65-8.47.27-16.38,1.87-7.72-2.36-1.59-3.51-12-2.08-18.85,4.66-12.14,6.08-32.87C141.07,33.13,147.79,23.41,145.16,21.57Zm-49,183.78h0c-3.19,2.23.53-6.2,1.16-8.1C100,189.06,100.71,202.16,96.12,205.35Z"/></g></g></svg>