<svg xmlns="http://www.w3.org/2000/svg" viewBox="0 0 241.68 605.51"><g id="Layer_2" data-name="Layer 2"><g id="svg2"><path d="M239.53,130.54c2.92-8.78,2.24-22.88,1.55-25-1.17-3.58-4.26-1-5.15-4-.75-2.47-1.73-3-3.29-5.66-3.09-5.36,4.85-20,2.13-21.42-7.56-3.92-6.48,35.48-18,20.09-5.12-6.84-8.73-19.94-11.39-14.73-1.65,3.3,7.55,22.29,7.92,23.3.12.28,3.22,20.35,4.93,26.41,2,7-5.79,22-7.14,29.78-2.58,15-6-3.33-16.84-30.47-3-7.57-6.15-10.11-7.27-12.37-2.45-4.9,3.62-3.58-13.33-9.92-1.3-.49-4.07-.62-4.39-10.34-.23-7.16-2.72-9.91-.65-17.25,1.55-5.72,4.52-3.33,2-27.06-3.75-35.84,6.79-24.3-12.31-42.29-7-6.61-10.57-5.95-13.88-8.13C141.87-.18,140.69,0,138.3,0c-26.15,0-35.44,24.55-39.61,50.06-9.54,58.26-20,25.41-45.65,51-9.53,9.53-50.53,64-51.42,78C1.31,184-.86,186.15.38,190.62c9.38,33.77,21,44.62,30.18,52.12,12.27,10.08,8.71,17.41,15.2,17.41,4.22,0,2.57,3.62,12,9,4.06,2.29,4.57,1.63,15.42,15.06,1.75,2.18,1.1,1.51-1.18,5.83-13.33,25.38-29.59,65.53-30,66.53C24.17,403.38,30,408.93,33.42,418c6.19,16.31,28.61,94.68,28.87,99.4.18,3.39-1.64,3.31,1.52,12.8,2,6.07,6.75,31.58,9.1,37,6.63,15.38-7.11,7.9-10.66,15.67-2.57,5.66,4.08,8.49,10.39,8.26,1.57-.05,3.74-.26,3.2,1.32-.77,2.26.79,8.07,8.35,10.65,4.82,1.65,34.4,1.92,36.13,2.21h0c2.33.39,5.37,0,12.44-1.73s12.71-1,20-2.45c12-2.45,7.65-11.18,7-17.41-.28-2.91-1.64-17.65.36-19.93,3.48-3.94,11.24-54,10.43-83.88-3.41-20.33-3.65-21.15-3.14-23.25.89-3.88-3.38-2.86-2.1-9.3l.36-1.82c-3.25-15.09,5.87-76.56,8.36-81.62-.31-5.55-.28-1,2.28-12.32,15.56-68.76,1.8-83.72.78-100.47-.84-13.7-9.75-12.48-12.47-18.1-2.59-5.33,4.36-2.73,4.74-9.24.53-8.45-3.13-1.82-4.44-15.63-.73-7.64-6-5.12-5.9-12.18a14.08,14.08,0,0,0-.83-6c-1.51-4.62,1.24-4.58,4.44-9.22,16.39-23.73-2.11-18.53,31.09,26.4,2.08,2.82,17.3,14.3,25.92,14.3,7.66,0,9.3-11.93,16.8-29,2.91-6.59,2.66-8.86,2.5-15.72-.1-4.47,2.46-7.34,1.05-12.7-1.52-5.77-4.59-3.65-.64-16.86C244.32,130.79,235.65,142.22,239.53,130.54ZM52.14,230.25c-3-6.48-5.69,0-6.89-6.32-.74-4-1.68-6.68-4.51-8.44S36.64,210.11,37,208c.66-3.77-.38-4.28-2.31-5.21-3.29-1.58-1.83-4-4.6-7.74-1.58-2.14-.9-4.19.44-4.88,5.23-2.67,5-12.85,7.89-15.92,2.54-2.66,9.59-16.55,12.2-15.57,1,.36.86,2.73,1.25,7.55,2.16,27.2,7.32,9.45,20.34,69.92,1,4.6.78,6.65,2.68,10.73.6,1.29,1.18,2.22.43,2.84h0c-.48.4-.32.4-2.2,0a24.84,24.84,0,0,0-4.44-.43C57.65,248.89,55.47,237.29,52.14,230.25Zm20.15,45.57c-2.56-5.29,4.63,4,4.35,4.65h0C75.91,282.1,73.07,277.41,72.29,275.82Zm63.12,265.89c-.57,4-4.67,4.08-3.55,11,.7,4.32-1.84,2.69-1.55,7.77.34,6-.58,2.54-2.5,8.09-3.1,8.95-8.34,8.21-37.57,20.9h0c-3,1.32-4.2.59-1.21-2.9s3.06-5.45,2.37-8.78c-1.7-8.13.08-19.8,6.89-28.93,3.2-4.3,2.79-3.74,6-13.21,0-1.67,1-5.28-5.19-8-2.92-1.28-3.69-2.42-6-3.7-5-2.7-1-5.35-2.79-9.27-.47-1.06-.75-2.27,0-4.83,2.92-9.54-1.61-4.87-4.15-39.05-1.86-25.09-7.15-35.4-11.93-47.95-1.42-3.73-1.53-4.08-1.62-5.22a8,8,0,0,0-.85-3.16c-2-3.88,9.1-26.79,18.66-37.18,35.8-38.93,13.23-45,32.58,49.94.36,27.95,5.69,18,8.32,32.93.18,1,5.6,66.23,3.48,71.7C133,536.51,135.91,538.13,135.41,541.71Z"/></g></g></svg>