<svg xmlns="http://www.w3.org/2000/svg" viewBox="0 0 209.07 631.64"><g id="Layer_2" data-name="Layer 2"><g id="svg2"><path d="M136.23,213.91c4.38-11,3.82-.36,16.83-24.94,23.29-44,34.54-31.42,51.43-92.84,5.65-20.59,9.84-16.45-11.33-38.67-16.5-17.32-32.91-27-41.9-36-2.14-2.15-2.33-2.3-3.67-3-6.43-3.42-6.82-6-16.86-14-3.62-2.9-3.11-3.25-14.13-4.28-5.07-.48-11.43-.08-14.24,4.12C97.82,11.05,102.07-1,86.3.86,77.81,1.86,69.12,5.51,63,11.73c-1,1-64.35,50.25-63,61,.36,3.06,8.69,23,13,31C23,122.09,39.68,141.59,44.84,144c6.22,2.89,8.13,10.53,8.67,12,2,5.46-8.48,22.71-6.91,36.36,6.54,56.62,8.81-18.63-16.76,188-1.13,9.05-1.42,8.9,3,9.54,9.63,1.4,6.84,1.9,16,2.57,5.91.43,20.41.45,22.62.76C75.37,408.22,79,410.4,88.23,440c5.73,18.3,6.42-.31,7.09,41.5.38,22.75,5.12,52.48,2.36,68.57-4.66,27.15-5.24,14.69-7.5,21.65-.7,2.14-1.24,2.54-5.91,10.31-5.13,8.55-7.18,13.35-16.39,16.16C65.07,599,54.72,597,59.63,607c2.36,4.82,9.28,4.62,14.6,3.78,7.79-1.23,3.08,2.42-.58,3.16-3.33.67-10.35-1.09-9.63,4.73,1.25,10.15,12.73,12.25,22.87,12.85h0c3.84.22,4.78.1,8.08-1s5.64-2.43,8.4-7.36c6.61-11.81,24.17-29.87,22.15-.43-.2,3.11-.45,4.31.28,5,3.83,3.84.14-9.72,8.77-27.22,1.85-3.74,2.86-5.35,2.59-9.7-1.21-19.49-15.67-1.25-.88-47.64,20.07-62.93,4.92-70.85,8.2-87.26a33.93,33.93,0,0,0,.06-8.89c-2-18.14,3.36-28.44,4.13-53.85.08-2.43-.06-4.35,1.16-5,1.63-.94,17.67-3.46,19.41-4s1.75-1.43,3.52-2.68c2.75-2,2.09,1.62-6.36-41.66-7.72-39.52-6.73-24.56-15.91-58.62-4.27-15.84-15.62-34.8-17.78-40.4-2.07-5.33.44-7.35.62-16.44C133.48,217.42,133.41,221,136.23,213.91ZM100.94,18c.77,4.29,1.18-.63,2.41-2.7,5.82-9.69,23.45,5,6.3,10.17-2.37.73-4.32,1.43-6,3.54-.34.42-1.6,1.93-2.14,2s-1.2-.21-2.26-1C95.33,27,89.09,27,86.79,24.73,80.74,18.67,98.78,5.93,100.94,18ZM91.42,55.19c-4,5-14.7,14.35-10.82,26.36,1,3-4.49,24.67,8.59,37.76,6.7,6.7-.3,11.91-3,12.3h0c-5.9.82-.44-4.84-7.15-9.24a5.29,5.29,0,0,0-2.21-.3c-2.75-.12-3.23-.32-5.83-2.45-12.06-9.86-4.84,4-33.84-30.82C26.87,76.5,25.89,77.91,34.67,64.86c4.73-7,26.14-31.54,33.79-34.23,6.87,0,23,.42,29.32,3,9.48,3.82,5.57-7.35,27.32-4.47C137,30.71,136.39,27.75,155.2,48c6.73,7.24,17.54,22.45,24.68,30.61,1.93,2.2,3.86,4.33,2.59,7.52-.4,1-21.54,38.61-23.2,33.51-1.61-4.84,6.46-32.82-9.85-41.18-2.6-1.33-4-4.35-6.57-4.94-1.5-.35-1.91-.9-2.61-3.48C135.21,51.36,104.2,39.28,91.42,55.19Zm39.27,79.89c-4-2.29-3.79-5.27-4.24-10.81-.78-9.53,1.63-4.67,8.68-12.72,4-4.54,3.83-2.13,2.42,3.66-3,12.22-2.13,19.41-3.91,20.32C132.74,136,132.12,135.9,130.69,135.08Z"/></g></g></svg>