<svg xmlns="http://www.w3.org/2000/svg" viewBox="0 0 209.69 608.92"><g id="Layer_2" data-name="Layer 2"><g id="svg2"><path d="M202.39,243.48c3.66-16.66,3.47-21.62,5.24-28.38,4.25-16.27,3.87-24.79-20.32-89.35-7.39-19.74-9.26-19.39-12.05-28.81-4.06-13.68-3.8-15.3-22.36-17.53-6.83-.83-37.56-.15-41.94-1.68s-5-3.2-8.06-5.16c-1.86-1.22-2-1.5-2.59-4.33s-.58-3.65,0-5.11c2.32-5.57-.1-15.8,3.32-19.87.85-1,1.8-2.06-.46-7-1.38-3.07-4.1-19.19-8.51-24.11-2.71-3,1.52-4.11-8-7.39-2.65-.9-3.78-.41-5.44-1.81-6.2-5.2-24.12-2.44-28,.5C37.41,15.32,42.75,16.67,39.72,20c-3.58,4-.59,6.4-1.15,12.9C37.62,43,56.42,76,57.17,77.06c1.31,1.76,10,8.72,7.63,13.37-6.22,12.23-51.52,12.6-50.57,32.66.47,10.09-3.44,16.09,0,20.87,2.83,4-.11,2.76-.82,16.51-.57,11.25-3.15,4.56-5.67,23.2-1.62,12,.2,8.64-2.24,15.3-1.91,5.19-.24,8.07-1.83,13.25S5.45,219.5,2,225c-2.48,4-3.5,6,1.84,16.87,5.86,11.89,18.38,51.06,24,60.71,2.78,4.82-5.82,23.19-1.75,24.49.53.16,23.33,3.69,23.53,4,.77,1.26,3.24,20.19,3.44,21.19.42,2.07,2.19,4.32,4.63,6.9,1.59,1.68,2.28,1.89,2.77,9.72.62,10.24,3.1,10.53,3.93,16.82.77,5.88,3.31,4.44,4,11.34.37,3.52,8.6,20.67,6.68,25.94-.9,2.49.84,3.38,1.38,7.25a13.82,13.82,0,0,0,1.5,4.93c2,4-1.75,1.75-.43,5.82,1.95,6,1.52,38.59,4.55,56.59,1.73,10.34-3.28,7.77.58,28.94,1.1,6-2.65,8.73-.61,13.74,1.54,3.78-.64,6.3.19,8.28s4.54,3.39-6.55,14.11C59.83,578,49.84,573.32,44.55,583.87c-2,3.91-1.28,12,17.09,10.1,16.58-1.72,43.73-11.6,45.46-12.73,5.3-3.45,3.06-8,4.66-15.81,4.06-19.83.17-14.14.5-19.9.7-12.4,12.79-83.06,6-113.54-.37-1.67,2-25.42.53-31.21-2.73-10.36-1.43-34.31-1.59-41.31-.34-15.24,9.75,18.26,11,66.5,2.72,13.55,2.51,13.3,4,14.48,7,5.62-1.24,13.13,6.42,64.27,4.75,31.71-2.59,32,5.53,44.18,5.28,7.9,2.39,8.8,3,12.56.53,3.33,3.47,10.68,3.47,14,0,7.39-2,9.63.17,13.85,3.76,7.41.89,18,15.62,19.56h0c5.3.38,17.73-.86,21.27-6.34,7.43-11.49-14.56-14.37-13-33.08.43-5.27,1.93-5.33,1.72-12.93-.26-9,1.21-7.34.09-13.75a172.13,172.13,0,0,1-1.29-19.35c1-5.11.18-11.1.82-13.9.46-2.05,5.08-39.39,1.16-55.26-.42-1.71-.94-4.28-.21-6,2-4.54-4.54-3.5-2.18-9,1-2.24,1.1-2.52-.75-5.13-2-2.77,2.88-4.27-.13-8.22s.8-4-.76-10c-2.39-9.23,4.38-2.91,2.11-18.11-.62-4.39,3-52.27,3.51-57.57.4-4.14-.63-3-1.16-9.77a60.45,60.45,0,0,1-.35-13.34c.37-4.87-.36-12.05,2.86-8.75,3.84,3.93,7.45-3.4,11-4,21-3.62,18.6-4.12,16.44-10.9C196.59,259.38,196.42,270.67,202.39,243.48Zm-162-221c-.39.72-1-.39-.43-.63C40.31,21.78,40.6,22.2,40.43,22.52Zm-1,223.54a42.11,42.11,0,0,1-4.19-6.77,45.8,45.8,0,0,0-1.62-12.2c-1.76-5.11,1.18-26.66,5.76,15.2A26.9,26.9,0,0,1,39.47,246.06Zm136-30.75a4.5,4.5,0,0,1-.66,2.13c-.42-1-5.6-32.28-5.83-33.29-.38-1.66,1.5-2.57,2.27.08a36.08,36.08,0,0,0,2.63,5.14c0,1.39,2.24,6.3,4.13,9.08C178,208.16,175.71,211.63,175.42,215.31Z"/></g></g></svg>