<svg xmlns="http://www.w3.org/2000/svg" viewBox="0 0 195.17 604.83"><g id="Layer_2" data-name="Layer 2"><g id="svg2"><path d="M113.14,604.77c-2.79-.36-5.1-1.71-6.41-5.61-1.82-5.44,1.58-7.15,3.48-8.4,8.3-5.44,9.5-9.09,15.82-13.27,12.78-8.45,10.61-13.63,11.91-18,1-3.5.32-5.25-.63-8.14V540.13c1.25-3.73.79-2.34,2-6.06.25-8.08-.45-5.06-1.85-17.17C135.86,502.76,137,504,135.62,500c-2-5.55-7.88-49.21-7.73-50.24.33-2.31-1.58-2-2.49-5.53-1.28-4.89-6.07-6.16-8.58-16.42-5-20.24-5.71-9.64-7.29-27.86-.91-10.56-7.42-19.08-8.43-31.08-1.44-17-11.46,20.24-15.95,27.72-3.33,5.52,2.11,7.24-.23,14.84-1.1,3.56-.5,4.08.26,8,1.1,5.67-1.71,1.64,2.45,13.94,1.89,5.57-1.18.41,4.42,14.37,4.13,10.27,6.79,22.06,5.89,34.21-.75,10.13,2.84,32.33,3.08,38.73.71,18.59-4,12.8-1.77,30.12.51,4-1.43,2.75-1.44,8.91,0,16.94,12.25,14.65-2.83,29.16-7.51,7.22-57.1,16.84-65.28,11.34-4.32-2.9-5.06-10.16,5.67-16.18,17.08-9.58,24.59-13.14,28.32-23.2,2.37-6.36,1.8-6.59.85-7.69-2.35-2.71-.9-6.78,1.16-9.49,3.15-4.14-.46-2.57-.71-9.63-.31-8.24,3.13-12.29,1.31-16.37-3.16-7.12-13.08-61.43-14.95-65.27-.06-10.8-4.09-4.15-5.61-12.76-.71-4-2.69-2.72-4.57-7.44-4.21-10.61-7.12-7.76-7.07-27.11,0-10.51,1.25-18.35-.41-27-1-5,1.3-23.49-.33-30.7-2-9,8.48-98.94,2.23-92.38-.94,1-1.87,3.84-5.82,13.47-4.21,10.27-4.65,21.29-7.07,29-2.58,8.15-8.89-.31-5.62,8.49,2.22,6,2.58,8,1.26,14.7-.94,4.84-.13,13,1,15.11,1.6,3.07-2.54,2.64.35,4.56,2,1.34,3.21,2.54,1.13,3.71s-.44,3.18-3.92,2.66c-2.84-.42-3.37-.25-3.37,2.05,0,2.48-.91,1.78-2.6.3C3.22,342.25,3,337.25,2.36,333.7,1,325.61-.15,326.46,0,322c.13-3.55,3.85-19,3.67-22.85s-2.42-1.82-1.21-8.37l19.86-109c8-31.49,1.88-.81,7.61-36.23,1.55-9.6,2-5.11,2.25-12.82.2-7.07.67-7,2.06-14.89,2.19-12.55,3.86-14.7,7.75-16.6,20.06-9.79,28.22-5.64,36.44-13.17,6.88-6.3,1.78-8.27-.88-24.93-.81-5.06-16.6-43.31,10.7-59,3.08-1.77,1.3-.28,6.24-1.76,21.57-6.52,22.66,1.62,32.32,6.36,3.37,1.65,8.29,5,8.63,8.68.31,3.37,3.17,3.23,2.79,18-.12,4.91-1.89,4-.6,9.35.58,2.47.9,5.24-1.37,6.52C131.44,54.07,127.46,66,126.05,68c-4.62,6.46-.45,10.6.77,12.25,4,5.31,3.35,6.58,29.74,13.54,38,10,31.62,21.22,35.33,48.51,1.49,11.11,1.3,29.22,1.3,29.22.6,4.37,2.37,3.6,1.19,12.25-1.37,10.09,3,16.27-.75,43.62-.92,6.71.19,7.93-1.72,14.57-5.37,18.64-11.68,64-11.23,68.28,1.07,10.42-1.22,6.46-4.05,7.07-3.9,1-.39,5.52-2.2,19.87-2.21,17.6-.86,14.58-9,18.82-3.79,2-3.6,1.91-5.51,2-5.85.24,0,9.62-2.06,20.15-.36,1.88-.15,9.91-.42,11.94-.64,4.75-3.27,8.43-.71,12.88,2.66,4.62,1.77,20.35,4.32,23.53.8,1,11.65,23.65,10.17,63-1.86,49.76,1.42,6.12.58,49.36-.2,10.18,0,10-.42,11.31-1.42,4.1-4.32,3.49-4.62,12.21-.42,12,9.9,15.19,1.48,23.15-3.16,3-6.2,3.62-12.35,7.77-17,11.48-29.95,10.78-33.45,11.37-1,.16-8.25.26-9.34.12Z"/></g></g></svg>