<svg xmlns="http://www.w3.org/2000/svg" viewBox="0 0 224.97 603.46"><g id="Layer_2" data-name="Layer 2"><g id="svg2"><path d="M215.18,182.61c-2.16-11.38-22.05-76.29-22.53-82.49-.72-9.4-4.33-9.93-9.16-11.36-26.15-7.72-42.89-2.19-49.6-7.55-7.13-5.69-7.16-2-8.09-9.72-1-8,.58-4.28,1.12-11.89.52-7.29,2.26-6.8,2.7-12.51.31-4,1.49-3.94,1.64-6.06.07-1-4.72-20.94-9.44-26.16-.55-.62-3-4.45-2.44-5,.23-.26.83-.33.83-.61,0-2-5.35-3.26-6.35-3.51C107,4,104.26-1.85,95.88.59c-6.37,1.85-9.89-4.33-25,10.8-4.67,4.67-.35,7.25-3.67,9.66-3,2.16,1.19,1.4-1.08,3.3-1.37,1.14-1.61,1.51-.47,3.6s-.3,1.91.14,7C67.17,51.33,84,71.39,86.06,81.33c2,9.66,2.45,10.9-43.25,23.56-16.73,4.63-14.42,11.3-15.54,19.2-1.76,12.46,2,11.31-.84,16.21-4.6,8-.43,16.07-7.77,23.74-2.31,2.41-4.7,5.49-6.46,15.07-1.52,8.31-3.67,9.06-6.39,18.31-6.57,22.33-9.79,30,2.59,52.4,22.71,41.06,30.52,48.2,31.71,54.59.21,1-.11,19.7.26,21.13,1.18,4.43,6.35.35,14.05,1.29,7,.86,6.82-9.82,11.8,11.31.35,1.42-.27,4.37-.3,7.12-.06,5.22,4.24,8.12,4.92,11.53,1.48,7.32-.42,10.15,3.49,19.72,4,9.79.16,6.44,0,19.69-.12,12.63,5.91,10.18,5.91,16.56,0,3.17.72,5.61.17,7.45s-1.86,3.2-2.24,6.58c-.66,5.94,2.36,7.42,1.22,11.79-1,4-3.36,1.75-2.63,7.79,0,.08-1.34,16.73.07,27.64,2.74,21.39,2.76,33.44,2.76,33.44.66,4.74,2.48,6.49,1.76,10.9-.91,5.58-1.83,17.61,1.85,21.91,1.3,1.51,1.5,2,.34,5.67-3.88,12.18,1,10.16,1,17.47,0,11-11.9,12.77-14.78,20.91C64.62,599,80.15,598.45,86.68,599.36c18.59,2.59,13.85-10.62,16.09-16.85a134.16,134.16,0,0,0,3.9-15.08c.71-1.39,1.88-1.14,2.23-3.3.66-4.11,3.56-6.1,3.84-12.46.25-5.78-3-25.13-2.92-28.29.15-4.27,3.49-5.91,4.4-14.37,4.84-45.2,2.53-27.5,3.8-68.31.22-6.58,3.21-3.75,5-6.77.52-.89,1.1-2.46,3.2-7.73.06-4.71-.38-22.45-.34-22.62.21-.84,1.79-20.25,1.79-36.73,0-5.74.82-3.51,4-11.32,1.39-3.4,1.84-4.95,3.36-2.14,6.73,12.48,7.2,32.3,13,40,2.16,2.89,1.75,5,3.68,10.91,2.36,7.26-2.34,5.49.59,9,2.45,2.92.38,6.51,2.71,13.48,1.44,4.32-1.33,4.06.69,8.51,1.35,3-1.88,2.13-.45,4.87.89,1.72.49.38-2.12,17.6-1.33,8.82-3.23,22.34-1.63,34.09,1.14,8.41,1.61,9.16.6,12.63-4.81,16.45,1.24,23.55.36,31.14-.84,7.28,6,8.18,3.49,13.27-2.2,4.5-.58,9.46-.21,10.88-1.15,27.12-7.9,25.46,12.53,34.63,13.81,6.2,11,7.92,22.1,9h0c15.35,1.48,21.09-12.12,13.33-15-13.6-5-19.17-15.24-21.46-29-1.75-10.47,4.78-9.54,4.78-25.71,0-5,10.23-92.16,10.23-92.16-1.71-1.92-.06-1.45,1.79-5.92,3.45-8.33,2.56-8.89,1.08-11.06-2.43-3.56-.5-2.52-.21-9.5a27.41,27.41,0,0,1,1-6.77c1.59-7.07.88-45.29-.5-50.19-1.28-4.62,4.35-6,1.22-17.15-1.3-4.6.17-12.14-1.49-19.5-1.17-5.15,1.11-4.35-.5-8-.83-1.92-.86-4.45.62-5.65,4.36-3.54-.74-8.21,3.06-10.79,2.75-1.89-.78-4.18,5.54-4.72,3.59-.3,3.4-.13,4.51-6.59C228.51,197.73,228.56,253,215.18,182.61ZM56.81,229.26c-.15,4.34.19,3.72-4.75,13.28-.91,1.75-3.1,7.77-3.39,8-.9.63-1.37,0-5.55-7.33-8.36-14.67-13.63-16.13-6.87-18.3,8.11-2.6,6.56-20.28,9.27-24.86,4.35-7.34,4.66-16.14,6.71-8,.86,3.41,1.31,4.39,2.77,6C62,205.8,57.06,222,56.81,229.26Zm127.62,19.88h0c-4.9,3-9.11-39.59-9.11-44.63,1.32-2.69,3-3,3.4,2.41C179.63,219.48,193,243.91,184.43,249.14Z"/></g></g></svg>