<svg xmlns="http://www.w3.org/2000/svg" viewBox="0 0 203.14 604.56"><g id="Layer_2" data-name="Layer 2"><g id="svg2"><path d="M146.56,604.45c-32.3-.67,2.43-21.15-7.83-42.52-3.33-6.92-1.37-7.94-2.7-11.67-7.15-20-1.9-20.12-2.19-27.9,0,0-8.47-30.35-9.7-39-1.78-12.53-1.06-17.48-2.7-21.71-1.52-3.94.15-6.15-.83-8.84-4.4-12-3.63-2.39-6-14.67-8.61-45.63-3.63-24.81-7.61-49.43-.81-5-7.6-30.23-8.61-30.75-1.4-.72-.9,1-6.66,20.63-1.42,4.83-3.21,9.45-3.27,34.59,0,8.18-2.05,12.2-3,21.13a11,11,0,0,1-1.93,5.9c0,43-13.1,83.54-15.52,89.41-2.73,6.64,1,6.25-4,20.24a7.6,7.6,0,0,0-.33,4.77c2,6.88-4.71,13.16-5.21,20.62-.64,9.63-2.38,7.13-17.13,10.94-9.94,2.56-14.36,7.53-26.55,10.09-7.12,1.5-13-2.07-14-3.61S-.91,585.05,3,582.15c3.27-2.41,11.06-4.38,17.23-9.37,2.9-2.35,15.71-14.36,13.93-19.65-1-2.85.57-4.37,1.07-6.22s-.65-4.5-.35-7c0-.16,1.39-4.27,1.79-6.45,1.34-7.39.74-16.91,2.52-21.95,3.37-9.52,3.06-34.34,3.59-39.91.22-2.31,2.74-23.38,2.74-23.4-.07-1.16-.61-3.15-.61-3.43,0-1,1-1.23,1.48-2.17.64-1.36-.32-2.73-.84-4.26-.63-1.83,0-6.84-.44-8.59-.94-3.67,3.35-2.19,1.41-7.58-1.66-4.61.93-4-.9-11.47-1.08-4.39-.95-6.4-2.27-9.51s-1.28-11.31-2.1-13.69c-4.55-13.19-2.93-28.28-5.17-36.61a47.11,47.11,0,0,1-.9-16.11c.43-2.89.37-10-.1-11.1a4.37,4.37,0,0,0-2-1.85c-6.65-3.72-3.43-13.45-.32-36.47,11.72-86.68,14.11-79.59,7.42-80.55-8.48-1.23-9.74-2.38-12.79-2.23s-2.81,1.66-6.59,1.48c-4-.18-9.4-3.27-11.31-7-2.56-5-1.6-8.41-3-15.53-.82-4.11.38-3.37,2.28-10.83,3.38-13.32,6.26-16.66,8.62-20,6.36-8.94,5.95-12.56,8-15.87,1.83-2.89,1.7-4.6,1.31-5.8-.87-2.71,2.42-3.24.64-6.89-1.33-2.74.56-3.72.57-7.08,0-3.21-3.2-10.6,2.74-13.57,9.18-4.6,29.38-5,32.08-4.87,9.62.34,8.93.71,13.1-2,11.57-7.42,13.19-9.16,8.67-23-5.79-17.73-6.72-20.56-7.2-27-.53-7.06-1.67-11.38-1.1-15,.64-4.22,3.33-13.27,6.68-15.95S85.47,8.05,91.08,5c1-.54,13.93-6.31,18.63-4.77,3.7,1.23,4.84,0,7.14.55C120.68,1.62,126,7.2,129.51,9c9.21,4.71,6.08,7,8.22,11.64,4.17,8.88,1.64,21,2.41,25,.19,1,.68,6.08-.57,6.55-1.66.6-1.74.33-3.15,3.21-6.73,13.76-20.41,24.87,6.63,39.21,5.6,3,3.38-1.44,18.93.45,24.78,3,24.82,4.06,24.76,16.83-.06,10.34.51,4.19.55,10.43,0,2.15-.25,3.83,2.62,8.39,3.45,5.47.87,4,5.7,10.38,3.26,4.34,5.63,7.39,6.44,12.92,2.68,18.26.1,21.27-4.28,25.54-4.64,4.52-4.66,8.68-21.44,8.65-3.28,0-3.25-2.21-6-2.21-18.4,0,6,65.07,7.46,114.84.39,14.18,6.13,15.72-9.54,18.43-3.66.63-4.18.55-5,4.38-.47,2.11-.09,9.07-.69,11.15-1,3.43,3.15,13.95-1.41,19.5-2.25,2.73-6.86,35.94-6.54,46.36.17,5.57.94,4.74,1.26,8.51.6,7.27-2.73,5.24-2.15,12.08.74,8.77,2.08,10.16,1.12,13.47s1.58,1.22,1.59,7.38c0,7,3,3.26,3.11,9.6.06,5.45.72,1.87,3.45,18.17,2.51,15,2.3,45.1.78,52.55-1.32,6.45,2.21,7.38,4.08,26.59,2,20.2-6.75,21.3-1.22,33.89,1.6,3.66,1.44,3.59,1.51,15.73-2.7,6.88-14.36,6-21.51,5.86Z"/></g></g></svg>