<svg xmlns="http://www.w3.org/2000/svg" viewBox="0 0 193.21 586.06"><g id="Layer_2" data-name="Layer 2"><g id="svg2"><path d="M181.34,101.68c-5.28-1.81-2.13-5.38-2.78-11-2.35-20,5.47-2-3.65-55.32-3.13-18.3-13-34.18-23.69-32.9C147,3,147.82,0,142.74,0c-10.1.1-19.71,10.34-21,12.81-1.41,2.72-1,4.27-1.67,6.77-1.27,4.82-6.88,14.87-9,23.45-2.33,9.54-.61,36.43-1.38,39.25-.48,1.79-5,11.19-7.3,15.06-5,8.49-7.87.54-16.31,7.17-6.38,5-6.7,3.67-12.44,9.4-11.88,11.85-11.55,16-19.78,24.17-1,1-17.84,19.19-20.93,21.65-4.37,3.48-2.22,4.51-4.53,10.19-8.63,21.24,13.8,21.82,18.94,25,2.69,1.68,2.61,1.45,4.79,1.45,7.2-3.5,7.83-3.9,9.15-2.75,2.82,2.48-2.5,6.32,5.1,8.41,4.44,1.23-1.34,15.05-2.07,28.43,0,1-1.5,17.27-1.16,19.11.48,2.55,2.15,1,2.44,6.49.26,5.16,2.51,3.43,2.51,7,0,.78-.79,7.73-.75,10.76,0,2.11,1,3.32.56,5.37-.23,1-3.27,7.72-3.53,10.68-.37,4.18-5.76,26.07-4.27,40.73.11,1,3,78.8,5.28,83.24,1.32,2.63-.25,1.87-.25,5.88,0,4.37-1.69,1.34-2,9.22-.28,7.11-4.15,25.35-4.37,26.35-3.74,17.19-7.05,72.74-10.53,74.49-2.62,1.3.61,3.14-.55,6.84s-.34,7.69-3.66,12.62c-2.08,3.1-15.61,14-33.08,20.57C3.17,572.78,3.24,572.16.51,577c-2.39,4.26,4.06,8.16,10.32,9h0a33.92,33.92,0,0,0,6.28-.06c13.38-1.74,8.89-6.25,43.6-9,22-1.72,6.46-15.49,12.3-26.76,1.89-3.64,0-9.18,3.18-11,1.1-.64,1.4-1.07,2-2.87,7.43-22.25-2.75-6.95,9.62-39.46,6.52-17.14,9-35.06,10.85-52.71.5-4.76.53-6.08,1.66-7.47,2.13-2.61-1.48-2.37.79-4.64,1.93-1.93-.12-1.72,1.95-7,9.13-23.2,1.44-26.31,12.43-66.79,3.17-11.66,2.5,4.62,15,33.93,5,11.79,6.47,30,12.55,39.9,4.09,6.63-.17,18.61-.17,72.5-6.27,16.39,1.19,6.45-2.37,20.34-3,11.7-4.59,9-4.59,14.53,0,4.06,1.19,4.07.45,6.83-.85,3.16.44,3.7-3.12,12.67-2.85,7.17-4.46,7.52-6.29,15.09-1.62,6.73,1.55,7.47,8,8.27,8,1,20.34.67,24.34-5.87,2.79-4.57.87-5,.85-13.79,0-8.11-2-7.09-2.05-11.73-.06-8.83,31.63-82.28,20.94-120.52-2.4-8.6-.66-7.89-2.31-10.49-1.95-3.05-1.22-11.63-1.15-12.63-1.33-2.56-2.44-4.07-1.27-15.72,2.7-27-1.12-26.15,4.34-66.31,5.79-42.6,0-33.62-2.9-57.17-2-15.94-4.31-11-4.58-19.52-.08-2.49,0-5.16-2.39-8-2.21-2.61-5.34-10-5.34-10.54,0-1.79,4.62-2.71,5.73-3.56,4.07-3.1-1.31-16.24-.41-19.72a43.56,43.56,0,0,0-.26-15.08c-3-11.59,11.36-26.25,13.77-29.91,4.48-6.79,2.53,1.37,6.1-12,1.3-4.86,1.83-8.15,2.46-9.69,2.06-5-.51-5,1-9.66C195.41,119.53,192,105.36,181.34,101.68Z"/></g></g></svg>