<svg xmlns="http://www.w3.org/2000/svg" viewBox="0 0 223.64 689.83"><g id="Layer_2" data-name="Layer 2"><g id="svg2"><path d="M170,689.75c-4.56-.24-13.63-1.11-15.66-5.22-1.42-2.86,0-4.44,1.72-7.15,2.87-4.53,2.62-6.28,7.34-11.17,6.83-7.08,4.66-12,4.77-14.72.24-6.52-3-3.83-4.57-14.51-1.11-7.56.67-8.61-1.79-16.39-4-12.65-1.06-13.55-4.56-17.9-8.27-10.25-8-31.38-12-35.73-2.14-2.36-.3-4.09-1.88-6.39a9.66,9.66,0,0,1-2.22-4.87c-.58-4.07-4.09-3-4.51-9-.72-10-5.76,3.34-1.36-33.7,2.46-20.75.76-15.49,1-22.43.63-16-.48-10.56-5.1-20-2.78-5.65-1.6-2.7-13.65,3.45-2,1-1.78,2.37-7.4,8.11-5.29,5.38-6.55,8.54-11.86,11.79-6.8,4.15-4.44,4.22-13.35,13.49-6.71,7-4,6.8-8.53,15.7C74,528,74.49,525.64,81,544c4.67,13.16,4.6,27.61,5.41,45.76,1.37,32.74,9.76,64.58-.25,69.72-5.11,2.62-57.66,16-68.47,8.06-1.82-1.34-3.55-4.81.23-8.42,10-9.56,15.09-5.25,32.17-17.82,9.19-6.76,9.34-7.14,7.58-8.82-3.58-3.4,1-13.2-1.4-17.45-3.76-6.73-3.48-20.15-3.8-21.15-4.61-14.27-15.07-40.25-17-55.14-.56-4.39-3.37-2.13-3.8-6.66-.78-8.25-3.05-3.62-3.29-13.66-.18-7.45-.86-6,.31-9.34,7.25-20.82,28.45-77.23,44.09-92.74,4-3.91,11.09-16.65,15.42-21.13a10,10,0,0,0,2.63-3.87c0-1.35.09-2.39.14-3.74,6.5-13.39,5.76-2.37,11.53-11.5,1.32-2.08-.48-2.53.2-6.73.78-4.75-4.32-5.23-5.7-10.6-.73-2.88,3-13.72,2-15.64-1.93-3.62-4.44-3.84-6.25-6.54-2.66-4-2.91-.39-5.56,7.32a60.81,60.81,0,0,0-3.44,16.58c-8.56,7.2-7.09,29.39-25.35,40.71-7.39,4.58-9,7.19-18.87-6.46C12.55,357.29,22,363.24,10.27,336,1.81,316.31.66,315.62.2,310.35c-1.79-20.32,9-19.12,15.15-22.21,9.69-4.91,7.39.1,11.29,4.23A16.41,16.41,0,0,1,30.82,301c.25,3-4.29,10.82-6.22,13.3-4.23,5.42,2.66,14.3,9.35,25.71,2.52,4.31,3.33,6,4.64,5.28.64-.33,3.27-5.55,3.74-10.76,1.45-15.36.58-18.61,7.28-34.33.92-2.15,7.88-19.65,12.63-23.44,9.83-7.86-2-12.65,7.56-19.37a30.63,30.63,0,0,0,4.57-4c3.29-3.28,5.76-4.11.37-13.13-2.6-4.35-9.07-12.95-11.07-14-.6-.3-.84-.34-2.84-.43-10-.45-9.74-3.43-12.56-7.52-2.16-3.14-2.23-2.86-3.87-8.82-3.18-11.58-5.46-15-5.46-21.41,0-2.18,2.06-8.14,1.33-11.66s3.49-6.43,4.57-9.05c1.31-3.17,1.33-1,5.26-5.54,3.64-4.15,4.17-4.63,9.62-5.2,2.9-.3,18.47-4.94,32,10.88,6.38,7.44,6,8.21,8.06,14.19-.38,4.7-.6,4.14,1.54,8.43,7,14.06,2.35,25.68,9.32,25.66,3.65,0,3.87-5.07,7.14-7.25,3.57-2.38,1.18-4,5.29-8.51,2.52-2.77,4.07-7,7.25-9.5,2.94-2.28,2.5-4.39,4.56-5.43,3.5-1.78,8.42-9.7,11-11.73,9.22-7.26,14.66-22.64,22.12-31.44,16.19-19.1,8.93-15,12-39.68,2.1-17,7.55-36.26,7-61.74-.32-15-11.74-17.16-12.23-25.15-.22-3.59-5.39-12.82,0-14.88,2.6-1,3.09,1.66,6.16.19,4.3-2.06,5,1.89,14.84,2.47,11,.65,12.26,14.52,10.75,25.45-.14,1,.13,13.93,1.18,27,7,87.06-16.47,102.07-22.35,128.07-1.32,5.84,4,13.86.82,18.71-1.36,2.1-16.89,16.45-14.23,25.54,1.16,4,20.09,42,22.48,48.4,6.8,18.21,6.22,32.61,18.69,61.67,5.34,12.45,1.86,6.39,8.19,32.48,1.43,5.91,3.22,13.35,1.85,21.2-1.53,8.75,0,8.57-4.36,9-2.83.29-3.32.43-3.15,3,.46,7.05-1.63,14.34-1.63,19.77,0,13.85-8.36,32.52-12.29,41.23-2.54,5.63-.07,7.4-3.25,12.67-1.7,2.8-2.44,2-4.76,6.85-3.9,8.13-3.9,13.7-6.26,20.56-2,5.8-4.09,7.25-4.37,14.47-.2,5.23-1.24,4.72-.52,7.47a18.88,18.88,0,0,1-.37,9.87c-4.22,11,12.07,22.68,13,61.15.32,13.2,2.9,9.81,5.55,27.47,1,6.58-.41,23.64-3.21,29.69-2.27,4.89,2.19,5.93,1.23,14.12-2.27,19.32-6.63,20.87-20.33,20.94-3.58,0-7.38,0-8.44-.07Z"/></g></g></svg>