<svg xmlns="http://www.w3.org/2000/svg" viewBox="0 0 195.81 604.77"><g id="Layer_2" data-name="Layer 2"><g id="svg2"><path d="M128.09,604.7c-11.77-1.05-19.32-4.45-9.92-11.79,5.56-4.33,2.63-3.57,9.92-9.43,14-11.27,9.58-12.81,11.15-17.48,1.49-4.48-1.82-7.08-1.47-11.26,3.27-38.55-6.25-56.16-7.35-85.24-.19-4.74-3.11-12.6-3.12-14,0-3.63-3.33-5.22-4.71-8.14-.13-.27-14.39-55.37-14.74-60.56-.23-3.32-1.83-5.8-2.74-6.24-1.46-.69-1.79,1-4.27,5.92s-2.35,4.36-2.92,7.15c-2.7,13.36-7.82,14.75-6.7,20.61,2.34,12.2-2.4,11.93-3.31,21.92,2,5.92,1.14,9.36,2,14.83,5.85,36-1.58,41.46-3.15,71.82-1.3,24.84-8.24,19-6,27.48a11.26,11.26,0,0,1-.34,6.27c-1.18,3.48-.2,4.67-.44,7.49-1.2,14.82-1.19,14.9-7.87,18.24-14,7-69.66,22.08-62.91,2.94,1.81-5.18,6.54-3.38,14-9.25,7.63-6,16.73-9.5,22.25-16.24s-4.21-4.51,2.06-13.86a19.08,19.08,0,0,0,2.69-12c-.83-6.17,3.78-10.52,2.65-14.53a10.24,10.24,0,0,1-.15-4.89,47.05,47.05,0,0,0,0-10.76c-1.57-19.33-1.39-18.95-1.7-44.34-1.41-3.82,1.88-6.7-1.4-8.55-2.29-1.3-2.19-3.19-2.16-4.66.09-4.46-.63-1.16-2.17-8.83-1.75-8.69-4.24-3.49-4.29-13.66,0-6.39,1.49-10.5.89-14.17-.66-4,.8-5,1.05-6.53l-1.07-51.21c-.19-3.34.81-2.89.84-6.72A27.74,27.74,0,0,1,45,333.8,6.69,6.69,0,0,0,45.9,330c-.31-5.15-4.8.3-6.58-5.36s6.91-64.73,7-65.74c3.74-26.28,2.92.16,1.61-33.38-.21-5.42.2-5.42-5.54-6.82-8.46-2.07-8-3.56-12.06-4.27-14.41-2.51-28,9-30.3-14.63C-2,177.89,37.57,147.22,33.43,134c-.86-2.76.94-4.09,1.42-6.33,3-14.83-6-16.53,30-22.1,6.92-1.08,17.15.64,22.58-7.18C94,89,90.61,92.47,89.23,79.6c-.47-4.32-2-3.62-4.38-12.54-1.57-6-2.67-3.67-3.61-7.62-.7-3-1.53-2.61-2.38-7.87-1.27-7.81-.21-5.52-1.09-12.78-.55-4.42-.86-11.29,2.16-14.54s3.46-8.95,6.83-11.78c2.84-2.4,1.74-4.53,6.34-6.53a35.24,35.24,0,0,0,6.43-3.65c20.18-8.52,38,9.11,39.38,14.2,2.35,8.81,5.31,7.22,6.12,14.12.24,2,1.09,8,.46,11.25-.56,2.92.24,5.3.16,9.21-.13,6.66-4.42,3.14-9.34,20.09-2.15,7.42-2.94,8.18,5.76,16.14,3.08,2.8,9,6.65,14.24,5.17,3.71-1,20.86,1.13,23.55,1.89,16.68,4.77,13.37,19.34,15.18,30.14.36,2.24.45,18.62.45,18.63.67,2.25.2,3.13-.71,5-2.23,4.52-.47,7.52-2.3,12.92-2.65,7.82,1.57,8.91-7.07,21.79C177.22,195,167,199.16,169.64,208.35c1.42,4.84,3.83,31.64,3,37.34-1.36,9.46,5.2,66.79,4.12,70.15-.78,2.4-1.94,2.25-1.17,4.79,1,3.41-1.4,2.11-4.82,11.77-.47,12.21-3.89,9.08-4.23,14.3-.38,5.42-3.12,6.22-.43,11,2.13,3.77-3.28,1.25-3.56,7.28-1.38,26.83,0,20.92-1.87,27.45-.78,2.74-3.25,18.1-2.92,20.88.25,2.2,2.88,2.51,1.89,8.38a18.37,18.37,0,0,0,.9,8.61c1.16,3.68-.58,2.53,2.3,9.56,8.77,21.41,10.59,50.14,7.36,70.45-1.68,10.6,3.07,16.81,1.73,34.63-.34,4.58.64,4.4-.38,9.3-1.18,5.68-2.59,1.83-3.6,12.57-.63,6.76-1.47,5.36-.92,7.39.84,3.14,1.13,2.05,1.11,5.12,0,9.72-11.57,18.85-12.57,19.85-4.7,4.73-7.28,5.32-13.52,5.54-3.22.11-12.86.14-14,0Z"/></g></g></svg>