<svg xmlns="http://www.w3.org/2000/svg" viewBox="0 0 237.36 610.8"><g id="Layer_2" data-name="Layer 2"><g id="svg2"><path d="M233.5,596.46c-4.85-3.05-16.42-4-29.73-30.12-1.41-2.77,1.27-2.05-.29-5.86-2-4.8.27-6.32.92-10.25.52-3.16-.68-8.26.09-10.9.4-1.37.9-3.38.37-7.65-.57-4.5,1.78-24.32,2.66-33.1A280.3,280.3,0,0,0,209,463.13c-.36-9.54-1.36-9.22-.17-11.44,1.61-3.06-1.57-3.11-1.57-7.76,0-3.22,1.48-2.63.83-6.48-1-5.94-2.51-5.23-1.24-7.5.84-1.51,1-67.82,2.91-68.86,1.6-.86,12.75-9.48,15.14-21,1.29-6.26,4.14-8,5.07-12.46.81-3.8-.9-58-3.76-71.31,1.83-34.83-9.17-67.14-10-92-2.27-67.42-18.42-51.75-34.77-66.63a8.07,8.07,0,0,1-2.62-5.47c-.65-5.85-1.79-4.84-.64-7.34.9-2,.6-5.84,2.18-2.87,1.49,2.81,1.4-.73.92-4-.46-3.1,0-14.35-1.08-22.81a64.29,64.29,0,0,1-.41-14.91c.53-4.16-.69-2.88-.75-7.06s1.74-7.1-3-15.4c-.58-1-11.42-12.32-16.1-14.78-14.27-7.52-35.61-1.89-43.61,24.8-5.38,18-3.9,38.55-8.44,52.6C102,98.52,106,91.11,92.1,97.52c-3.46,1.59-4,1.79-7.8,1.4-12.83-1.33-8.3,1.85-13.65,4.93-3.21,1.85-44.25,47.48-59,69-15.52,22.69-12,22.46-9.34,29.93,3.41,9.73,17.48,36.74,22.86,43.15,6.32,7.53,13.73,9.72,20.92,22.82,4.18,7.61,3.26-.77,8.54,5.05,9.56,10.55,24.74,12,23.43,19.78-2,12-5,10.6-5,29.23,13,39.61,11.68,58.27,15.6,80,1.13,6.24,4,24.73,1,30.73-.4,81.63,12.21,68,14.5,100.86.94,13.49,7.67,12.89,10.39,22.12,2.08,7.07.19,5.08,2.42,11.15a9.49,9.49,0,0,1-.26,8.33c-1.23,2.84-.61,3.48-2.83,9.14-1.73,4.41-3.38,10.31,1.28,12.41,5.57,2.52,29,5.22,30.51.12a15.87,15.87,0,0,0-1.88-9.81c-1-1.72-5.82-22.3-4.82-25.89.7-2.52.61-8.63-2.36-12.46-1.38-1.78-.59-4.18.29-6.08,1-2.1,1.31-2.2-1.22-4.91-2.87-3.08-2.67-3.65-2.71-10-.33-48.09-11.39-78-5-85.83,3.15-3.81-.5-4.16.69-7,.42-1,13.78-87.67,15-90,2.93-5.76,22.74,91.65,22.87,92.65.44,3.32,1.92,1.18,2.19,6.36.2,3.7,1.94,5.24,2.33,10.76.67,9.71-3.49,21.83-1.1,48.78.78,8.84,2.41,11.71,2.39,20,0,9.51,1.8,5.54,2.63,15.92.84,10.61-1,9.19,1.33,15.48,8.33,22.62-12,38.07,12.28,41.86,20.6,3.23,24,12.18,34,13.15h0a31.92,31.92,0,0,0,7.86-.39c3.25-.46,4.34-.86,5.34-1.93C238.47,605.54,237.7,599.12,233.5,596.46ZM81.87,221c-5.55,17.18,4.79,14.17,1,28.12-1.28,4.66.59,3-.15,8.12-.57,4,.12,5.4-1.16,5.94h0c-.54.23-.59.22-2.25-.15-4.8-1.08-16.28-3.2-21.21-18-2.6-7.82-4-8.06-5.56-8.29-6.6-1,.19-7.95-7.44-12.19s.86-7-5.92-13.35c-3.48-3.24-.62-5.57-4.41-8.61-2-1.61-1.93-4.29,1.46-6,8.59-4.46,10-12.69,14.68-21.84,3.13-6.12,14.27-13.06,18.95-18.85,8.57-10.61,8,7,14.7,20.95,2.26,4.7,4.25,25.33,4.23,29.74C84.58,214.94,83.62,215.58,81.87,221ZM210,330.16c1.1-2.64,5.1,0,1.8,1.59h0C210.25,332.5,209.52,331.41,210,330.16Zm-1.48,8.55c.24-1.67.74-2.18,2.89-3,5.31-2,4.47,7.08-.19,9.53-1.18.62-1.88.58-2.39-.14S208.27,340.71,208.56,338.71ZM212.09,350c.64.92-1,4.38-1.93,5.23-.52.49-.82.52-1.19.13C206.87,353.12,210.88,348.27,212.09,350ZM194.41,248.17c-3.69-3.11.61-5,.61-.92C195,247.64,194.69,247.91,194.41,248.17Zm2.48,12.1c.83,0,1.39,4,1.8,6.38,3.22,18.31,7.26,19.23,8.06,31.54.72,11.07,2,11.74.66,13.29a.85.85,0,0,1-.8.38C205.61,311.63,193.2,260.27,196.89,260.27Z"/></g></g></svg>