<svg xmlns="http://www.w3.org/2000/svg" viewBox="0 0 154.68 697.92"><g id="Layer_2" data-name="Layer 2"><g id="svg2"><path d="M122.25,274.38c2-9.19,3.86-8.75,8.18-17.77,5-10.37,3.9-14.06,11.28-29.58C147,216,145,215,149.09,208c10.22-17.35,3.32-68.31,3.32-73.53,0-4.44,1.43-2.26.8-8.86-.53-5.59.26-12.82.32-29.65.31-81.42-9.55-61.32-15.27-77.09-.91-2.51-3-8.57-5.07-6.91-1.41,1.14,2.9,9.42.08,9.42-3,0-10.71-14.42-12.77-15.4-7.77-3.69,8.43,18.44,0,11.68-3-2.4-8.71-11.89-11.12-11.22-2.17.6-.45,3.59.68,5.54,4.85,8.32-4.14-1.56-6.81-1.26-5.58.63,10.66,14.69,11.76,15.46,2.44,1.71,4.85,3.58,5.8,6.78.64,2.22-1.35,2-3.66,2-6.82,0-5-2.26-9.74-2.91-1.31-.17-3.15,0-3.15,1.24s2.39,2.22,5.34,4.84c2.25,2,6.33,3,10.25,3.59,18.69,2.92,16.45-6.58,11.41,60.75-1.93,25.6,4.32,3.62-4.08,64C126,175,123.85,177.08,123.41,184c-.19,3-.52,4.7-3.58,7.91-2.23,2.34-4.3,6.4-10.87,6.4-5.36,0-5.68-1-6.6-4-1.29-4.18-3.5-5.49,3.21-23.85,5.11-14-2.42-45.75-23.53-46.52-6.76-.25-14.29-.28-21.25,9-.75,1-6,10.08-6,15.25,0,11.58.72-.12-1.38,13.7-.41,2.82.94,10.67,1.41,11.6,1.1,2,5.26-1.62,7.77,16.26.65,4.58.23,7-6.92,3.55a14.92,14.92,0,0,1-6.31-5.89c-1.9-3.2-2.86-2.1-4.42-4.68-3-4.95-3.62-5.51-4-7.63-1-6.42-4.43-8.27-7.54-22.25-5.86-26.39-4.26-23.44-1.92-42.43.42-3.12-3-52.83.51-66.06.82-3.11,5.43-2,15.08-7.11,7-3.76,5.47-4.13,8.61-6.17C58,29.61,58,28.5,57,27.84c-2.69-1.76-6.24,2.69-11.31,3-5.33.31-.49-8.11,4.33-10.56C67.55,11.37,70.64.51,59.61,8c-4.57,3.1-5,1.92-1.48-1.74,5.68-5.86,3.37-10-5.66-1.16-4.95,4.83-4.95,3.77-.76-1.51,2.42-3.06.06-6.67-9.14,4.49-1.71,2.07-8,6.8-9.69,5.11-2-2,4-9.18.11-8.09-2.11.59-4.18,4.78-5,6.81C26.2,16.29,17.18,23.82,17.15,38.6c0,11.83-1.27,4.21-6.82,38.67C-.17,142.39,6,114,6.77,143.64c.24,8.46,3.7,48.46,12,59.2,4.17,5.41,5.92,20.82,6.5,26.83,1,10.17-3.37,26.47-.86,41.33C29.21,300.23.76,432.43.53,433.44c-1.23,5.36-1.21,5.87,10.17,8.78,9.7,2.47,6-1.25,10.44,27.54,4.74,30.44,5.89,26.58,5.7,39.8-.17,11.7-2.69,9.49-3.25,25.18-.31,8.62-1.18,27.52,0,40.41,3.54,37.56,4.64,37.73,3.5,46.66-1.49,11.62,1.61,8.18-1.19,21.2-3.08,14.32-2.59,14.72-5.26,18.13-4.51,5.77-10,12.73-7.87,18.41,5.44,14.46,23.47,3.36,25.14,1.7,3.1-3.08,2.14-7.08,4.13-13.37,1.46-4.61,1.09-5.08.29-6.22-1.21-1.73-.38-4.26.72-4.59,1.45-.45,1.39,7.22,2.05,9.57.51,1.83,2.72,2.2,2.34-1.38a47.55,47.55,0,0,1,4.55-22c4.47-8.91-.61-18.51-3.75-21.62-7.37-7.33,8-44.39,9-69.14,2.25-52.32-2.33-17.1,5-47.24,3.11-12.72-1.87-18.64,1.87-46.2,1.31-9.65,1.38-11.33,3-12,1-.42,7.86-.28,8.87,2.12,0,0,4.26,30.41,11,51.29,1.41,4.36,2,3.16,3.2,9,2.58,12.88,4.36,11.16,5.43,21.31,4,38.64-.07,22.85,3.53,56.28,3.83,35.52,5.62,13.74-3.17,70.54-1.7,11.07-8,18.82-10.12,25-1,3-.47,14,9.22,15.22a37.39,37.39,0,0,0,6.59-.2c24-3.59,8.63-27.38,18.17-41.43,4.25-6.27-.21-8.45,2.13-11.09,1.73-2-.72-1.07-1.72-1.59-2.12-1.11-2.17-5.17-2.49-7.68-3-23.33,19.08-47.8,12.57-100.86-2.26-18.42-9.62-11.22-5.46-45.69,4.82-39.95.7-35.29,11.79-37.12,9.34-1.53,9.9-.56,8.58-8.5-2.07-12.56-1.3-18.11-10.13-60.54-4.35-20.86-6.07-19.83-7.22-33.42-.91-10.8-4.48-17-9.76-48-1.69-9.93.3-6.09.68-15.85C119.17,278.91,120.7,281.65,122.25,274.38Z"/></g></g></svg>