<svg xmlns="http://www.w3.org/2000/svg" viewBox="0 0 234.67 584.54"><g id="Layer_2" data-name="Layer 2"><g id="svg2"><path d="M234.48,100.68c-5.43-68.77-1.07-52.3-1.07-62.77,0-3.4-3.72-15.9-8-11.78-3.35,3.25-.88-3.36-7.6-3.27-4.11.07-4.24-2.34-6.29-1.3-1.78.9-2,3-4.2,1.86-2.43-1.23-3.55,0-4.41,2.35s-.92.11-11.53-.42c-20.21-1-16-10.07-31.26-13-4.77-.92-6.08.65-11.78,1.5-4.43.67-3.92,1.83-13.57-7.6-9.91-9.67-14.35-5.07-28.45-5.48-3.74-.1-8.7,3-11.4,5.47C92.1,8.87,88.77,8.53,86,11c-1,.9-2.39,7.09-1,9.71.54,1,1.48,1.79-.11,11.07-.48,2.82-.36,4.77-8.32,5.15C61.18,37.67,61.39,38,56.92,38c-5.27,0-5.75-1-10.5-1s-13.25,3-14.32.7-3.41-3.08-6.19-3c-6,.25-3.86-4.87-8.24-2.56-6,3.16-10.25-2-11.81,3.92a8.71,8.71,0,0,0,0,3.73c1.22,4-11.3,9.09-2.9,24.37C11,78.84,15,124.52,59.59,132.63c4.4.8,3.83,1.32,1.22,4.84-5.32,7.15-3.55,20.09.37,28.23,5.05,10.49,2.71,10.61-3,46.79-.63,4-20.87,140.43-18.41,141.51,1,.43,9.74,2.15,13.94,1.55,5-.72.48,4.14-.57,21.07-.3,4.77-2.51,14.36.77,27,1.39,5.36-1.19,5.73-1.54,22.07-1.23,58,4.91,78.25-1.5,96.61-1.77,5.08-4.4,25.51-7.7,29.08-2,2.19-7.7,4.85-11.31,8.38-4.79,4.69-3.83,15.33,9.36,14.09,21.18-2.16,21.07-8.93,22.17-15.43.49-2.9,7.1-18.55,9.61-13,1.89,4.17,1.35,15.67,3,16.5,2.25,1.15,2-3,2.07-5.61.51-21.53,11.31-23.67,4.1-38.19-5.51-11.1-8.65.5-3.39-28.55,7.64-42.22,6.43-20.43,8.17-48.17,2-32.53-5.18-26.44,2.29-42.84,6-13.19,7.92-26,13.58-34.87,7-11,4.61-10.24,14.26-10.78,10.21-.56,4.28-2.14,16.75,23,9.29,18.75,5.14,22,12.84,33.53,4.45,6.68,4.79,2.18,5.1,9.8,4.14,103.9-1.57,76-9.77,123.84-1.71,9.93-5.31,16.4-10.87,25.61-3.5,5.77-3.74,14.64,10.21,15.71h0a41.37,41.37,0,0,0,8.14-.25c17-3.61,10-17.64,15-32.58,1.9-5.64,3.7-4.77,5.88-9.37,1.41-3,.55-4.79,1-6s3.67-2.48.33-3.06c-2.51-.44-2.52-1.33-4.91-8.38,0-25.05,27.38-54.3,19.32-103.68-1.2-7.39-8-34.54-8.69-38.67-.76-4.9-1.33-34-1.23-34.6.46-3.08,6.57-1.93,9.65-4.39,10.63-8.47,11.1,11.16.73-40.6-15-74.6-31-73.68-42.79-102.26-2.46-5.95.84-4.81-3.07-8-4.23-3.45,4.32-2.81,2-12.38-1.92-8.09,3.72-11,5-13.62,3.14-6.56,13.64-22.87,14.51-24,2.82-3.53,1.44-1.63,14.09,3.52,22.25,9.06,29.19,2.16,46.13-1.58,3.37-.74,4.79-1.35,6.64-5C233.62,130.58,235.28,110.78,234.48,100.68ZM98.6,91.6c-4.4.61-22.74,11-35.9,12.7h0a115.93,115.93,0,0,1-12.2.18c-2.29-.48-3.56-2.06-4.91-3.81C27.06,76.49,6.71,60.19,15.55,58c2.58-.65,4.08-1.7,6.35-4.46,7.73-9.38,4.56-8.86,11.76-8.93,14.06-.14,17.58,2.79,25.52,1.45,9.69-1.63,8,1.63,6.12,7-1.07,3.05-3.11,15.08-2.11,15.08.27,0,2.86-10.06,3.2-10.58.56-.84,1.22-.82.83,1.39-.41,2.39.78,1.25.86,5.31.13,6.39-1.65,9.48.16,10.6,1.54,1,.67,4.21.18,5.93-2.75,9.68.22,11.84.12,7.14a17,17,0,0,1,.58-4.58c1.37-5.86.91.91,1.91,1,.75.13.56-5.4,1-6.55s1.57-1.63,2,1.33c.13.82.52,2.63,1.37,2.63,0,0-1.3-10-.82-12.16,2.74-12.34,3.76,9.6,1,12.35a20.89,20.89,0,0,1,1.47,4.63c.84-3.31,1.46-14.13,1.72-18.36.58-9.44,5.24-23.68,5.83-15.74.28,3.7.42,1.36,1-.75,1-3.86,1.37-2.21,5.53,10.56s12,12.77,13.15,18.16C106,88.35,103.32,90.94,98.6,91.6Zm115.91-8.32c-1.27,12.09-1.78,10.28-3.25,25.32-.84,8.7-1.19,11.35-2.57,12.13-.73.41-1.53.41-3.61,0-15-3.07-23.35-14.24-32.41-18.93-4.48-2.33-5.58-7.48-8.8-8.54-1.37-.46-11.24.27-13.92-1.08-1.7-.86-2.5-1.91-5.56-3C135.17,86,136,63.6,137.73,61.06c3.2-4.81,4.57-2.48,7.92-9.14,3.14-6.24,2.54-8.37,4.72-11.24,4-5.21-7.41-15.36-2.17-18.6a6.41,6.41,0,0,1,8.53,3c5.82,11.49,3.74,38.16,3.74,38.16,1.65,1.37,2.64-13.27,2.63-15.13-.14-16.66,4.73-5.06,11.21,3.57,7.43,9.91,5.92,7.38,7,3.75.32-1,.37-2.29-1.39-4.18s-2.75-5.12-7.91-13.87c-2.39-4,1.95-1.37,2.13-4.09,1,.07,2,0,2.78,1.22,1.07,1.75,2.33.18,6.41,2,8.24,3.79,6.68-3.24,18.73-3.38,4.44-.06.68,7.76,7.38,12.48,4.17,2.94,4.65,5.1,5.06,7.68C214.88,55.63,214.83,80.25,214.51,83.28Zm11.31-53.12h0a.37.37,0,0,1-.65,0C224.85,29.34,226.06,29.5,225.82,30.16Z"/></g></g></svg>