<svg xmlns="http://www.w3.org/2000/svg" viewBox="0 0 199.82 591.47"><g id="Layer_2" data-name="Layer 2"><g id="svg2"><path d="M192.93,34.83c-9.6-1.17-8.13-.37-21.78-.2-16.68.18-5.7.32-26.84,4.2-3.06.56-6.57,1-9.31,2.88s-4.25-.41-8.89-.43c-6.09-.05-6,.91-6.14-3.88-.51-15.47-4.18-36.68-19.45-34-7.14,1.24-6.87-8.09-22,0C69,8.38,59.38,34.67,56,39.29c-2.48,3.39-9-.35-14-.73-13.79-1.06-11.39-2.74-17.34-1.77C11.76,38.91,9.3,34.82,3,43.71c-5.77,8.11-3.82,32.11,12,58.9,5.26,8.94,5.46,6.36,0,16.37C9.23,129.36,6.9,136.4,4,141.27c-4.46,7.33-4.42,13.7-2.3,22C7.21,184.83,3.51,198,4.82,213.13c1.55,17-.69,19.8,5.93,19.76,9-.06,6.84-8.29,11.74,5.7,3.53,10,5.78,7.44,5.14,15.55-.25,3.09,1.54,2.13,3.65,8.5,1.43,4.29,2.65,4.46,4.1,6.64,2.88,4.35,1.41,5.32,7.1,16,4.76,8.89.3-2.68.3,40.57,5.13,37.07,7.78,31.43,5.35,40.63-18.19,68.82-2.78,57.24,1.87,71.79.85,2.67,2.81,3.51,4,5.24.09.13,8.46,15.84,11.11,19.89,3.43,5.25,3.19,5,3,9.06,0,.57-.47,54.52-1,61.57-.19,2.35-1.74,2.46-2.19,4.08-1.82,6.51,3.16,15.32-10.47,24.1-7.11,4.58-12,11-20.14,13.45-7.82,2.36-7.61.92-12.29,4-5.48,3.66-2.3,7.8,1.26,9.56,4.39,2.18,17.1,2.13,18.1,2.17h0c1.17.05,2.42.07,2.77.05,13.31-.6,10.68-3.12,27.46-3.39a64.76,64.76,0,0,0,11.27-.77c4.67-.54,5.93-2,8.22-1.59,2.88.5,3.43,2.54,6.59,3.57,2.88.94,9.47.81,11.14.3,11.11-3.46,11.56-11.64,12.26-17,2.49-19.23,12.35-25.73,12.35-34.53,0-7.48-4.12-7.73-9.4-13.2-4.38-4.55-9.62-29.84-16-52.15-3.46-12.16-2-7.4-1.32-43.17.14-7.69,1.83-5.65,1.61-17.47-.27-13.95-3.61-24.71-2.35-38.19.67-7.15,15.79-31.05,20.92-42,3.4-7.3,11.08-24.62,13.37-35.84,4.61-22.6-8.78-55.35-19.21-67.14-1.72-1.93-1.6-2.48-1.74-5.15-.51-10.25-7.16-6.23-8.64-11.39-.18-.61,0-1.07.79-2,3.89-4.41-2.32-10.51-3.8-14.94-.75-2.24-1.34-7.93.17-9.93s1.94-6.51,4-6.51c1.44,0,1.42-.66,1.53-2,.66-7.72,5.4-10.85,6.7-21.81,1.75-14.83-.69-9.7,9.75-16.43,2-1.3,2.19-.52,1.4,1-1.31,2.62.89.5.63,3.38-.11,1.18.17,1.56,1-1.11,4.57-15-1-7.37,6.86-16.66,6.47-7.61,11.17-10.05,17.19-16.85,9.18-10.4,35.49-40.72,41.23-53.19C201,49.21,200.75,35.79,192.93,34.83ZM49.1,83.67c-2.52,1.14-3,1.64-3,3.26a1.35,1.35,0,0,1-.79,1.43h0C41.56,89.69,32.05,72.7,30.23,69.09c-4.85-9.62-1.21-2.65,13.13-4.18,9.59-1,6.91,1.62,8.12,9.53C52.75,82.81,51.69,82.49,49.1,83.67Zm7.46-6.3h0c-1.59,1.84-2.51-4.86-.9-6.68C57.86,68.21,57.74,75.9,56.56,77.37Zm40.7,477.69c-.48,4.32-.34,15.09-2.81,17.46-1.64,1.37-2.52-1.42-3-3.5-1.53-6,1-18.14,1.06-19.76.08-4.91,1.67-4.75,2.08-8.31C94.94,537.59,98.69,541.88,97.26,555.06ZM135.58,80.18c-4.72,2.36-6.17,7.06-9.11,8.18-2,.77-3.16.27-3.91-1.68-.38-1-4.17-12.41-1.14-15.68,5.08-5.5,7.22-13.37,14.19-9.85,4.77,2.4,17.75-.15,17.75,1.91S138.6,78.67,135.58,80.18Z"/></g></g></svg>