<svg xmlns="http://www.w3.org/2000/svg" viewBox="0 0 186.51 561.5"><g id="Layer_2" data-name="Layer 2"><g id="svg2"><path d="M20.69,551c-.39-7.41,11.57-3.33,18.46-9a4.32,4.32,0,0,1,2.32-1.25c4.14-.64,2.42-9.61,10.18-19.12,14.3-17.54,1-69.61-3.74-98.26-1.2-7.31-1-7.63-4.32-8.79-58.81-20.4-44.59-13.22-34-127.78,6.07-65.39-.38-58.91-1.94-84.2-.42-7,.76-37.39-2.31-50.48C.05,129.7,11.41,128,22.83,115.05c23.82-27,32-18.83,35.78-51,.43-3.7.32-4.06-1.92-5.92-7.2-6-.07-20.24,2-26.21,3.21-9.29,5.64-4.41,7.85-13.23,3-11.86,34-34.56,54.81-1.59,5.47,8.66,1.07,16.17,5,20.06,3,3,1.59,3.19,5.63,8.46,5.18,6.76,7.54,15.41,5.47,15.74-2.23.36.13,10.24-1,17a44.9,44.9,0,0,0-.33,13.49c.53,4.44-.92,6.84.27,12,.29,1.26.31,1.37-1.3,3-3.69,3.78-.51,4-.08,15.41.13,3.7.35,5.22,1,7.14.54,1.56.59,2.42.2,3a7.59,7.59,0,0,1-2.55,1.61,1.43,1.43,0,0,1-.32-.77c-.4-1.93-1.52-1.58-1.54.34,0,2.54,2.26,8.82.15,6.8-3.87-3.71-2.81,5.09-5.42,10.15-2.13,4.13-4,3.31-3-.06,1-3.21,1.8-12.21,1-13.67-2.66-5.15-8.52,15.14-4.89-3.88.22-1.19-.15-1.72-1.63-.18-1.14,1.17-4.89,8.79-5,8.89-1.71,1.71-.35-4.12-1-7.28-.8-4,1-4.56,1.54-10.84.25-3,.47-2.68.06-3.05-1.45-1.3-4.91,5.34-2.05-1.9L110.32,91.2c-1.23-6.85,12.34-46.45,5.92-38.37-5.14,6.44-3.88,10.49-10,14.64C94.91,75.23,95,69.48,92,76c-3.23,7.08,2,16.07,3.73,21.41,5.69,17.83,2.35,13.73,1.24,24.46-.68,6.46-1,8.15-4.91,16.74-2.8,6.15-7,22.6-9.9,24.77-1.35,1-1.88,1.55-1.32,4.47.09.43.15,6.69.29,8.2.35,3.93-4,7-3.38,13.78.41,4.87,4.37,3.43,6.15,11.16,2,8.63,21.51,31.43,24.6,49.17,3.19,18.32-3.75,26-2,36.45,8.33,49.17,16.7,44.52,1.68,46.34-27.53,3.35-25,.31-27,8.31-.25,1-11.88,32.95-7.09,46.22.9,2.49,3.82,1.79,35.3,17.68,26.13,13.19,24,14.8,31.38,8.39,4.57-4,11.66-6.36,18.89-2.61,14.07,7.3,28.54,3.21,24.3,7.16-.46.42-.63.44-5.35.69s-6.66.56-8.44,1.44c-3.92,1.91-4,6.54-2.44,9.7,3.86,8,17.53,10.32,18.69,19,.74,5.46-4.19,24.62-13.16,26.87-13.95,3.5-4.25-25.46-18.57-23.35-2.16.31-5.18-2.24-9.39-3.23-4-.94-3.1-1.91-5.16-3.4-11.46-8.36-55.6-22.3-57.42-19.51-.66,1,.34,6,.7,10.61,1.13,14.66-5.2,67.12,2.57,72.8A17.33,17.33,0,0,1,93,524.17c-.2,7-6.88,11.18-8.73,27.67-.79,7.16-2.37,6.06-2.88,4.7C80.76,555,84.65,526,69,541.33c-14.36,14.08-7.57,22.08-33.4,19.78C24.71,560.87,21,555.85,20.69,551Z"/></g></g></svg>