<svg xmlns="http://www.w3.org/2000/svg" viewBox="0 0 185.16 608.99"><g id="Layer_2" data-name="Layer 2"><g id="svg2"><path d="M116.64,608.91c-17.67-1.24-13.2-10.6-8.59-14.47,3.82-3.2,3.14-4.39,9.23-10.9,4.58-4.89,7.29-10.89,6.37-14.42-.42-1.62.3-4.67,0-6.27-.21-1-6.53-19.28-2.31-35.57,1.68-6.45-1.59-4.61-2.66-18.22-.58-7.24-6.19-23.28-6.44-43.58-.1-9.17-.12-4.15-2.59-13.12-1-3.41.82-3.55,0-6.23-.94-3-4.65-4.66-5.45-6.7-.29-.72-.31-1-.39-5.27-.11-5.12-.09-5-1.28-8.61-2-6.15-4.62-19.08-7.16-28-4.3-15.1-1.33-16.91-3-23.72-1.93-8-5.76-5.8-8,2-3,10.39-5.67,10.3-7,19.17-1.1,7.34-4.24,10.8-4.36,14.08-.12,3,1.31,4.3,1.09,8.7-.29,5.67-3,8-2.76,12.21,0,0,7.3,30,8.09,39.28,1.38,16.34-.77,10-.84,44.27,0,14.72.62,25.34-3.75,33.09-2.18,3.86,2.28,7.48.8,12.6-1.2,4,.8,2.71.32,10.19-1,15,4.68,17.62-7.77,23.51C59,597.29,40.39,604.06,24,604.43c-12.52.3-22.69,2.79-23.79-3.56C-1,594.22,3.25,591.25,11,587s5.82-4.35,11.62-7.26c27.21-13.62,17.68-22.91,17.61-24.19-.28-5,3.59-8.14,3.57-10.81a64.21,64.21,0,0,1-.51-7.28c-.45-15,3-2.91.2-28.24-.11-1-7.1-53.29-6.37-56.09.62-2.41-.27-3.54-1.55-4.77-2.59-2.5-4-13.77-8-18.86-3-3.86-2.6-26.85-2.05-29.84,1-5.6-1.2-12.79-.63-17.85.83-7.42-.25-10.05-.39-16.82-.28-12.77,1.27-1.87-.48-20.81A59,59,0,0,1,25.21,336c1.51-5.76.84-11.38,1.64-17.34,2.62-19.78,2.64-9.42-7.63-54-2.12-9.23-10.26-40.07-8-56,.13-1,6.6-32,6.84-44.21.19-9.48,1.45-7.31,2.34-10.83.48-1.92-.25-7.86,1.27-11.66s-1.17-3.31.79-11.47c3.5-14.51-5.22-17.23,16.1-26a166.21,166.21,0,0,1,19.81-6.25c9.23-2.09,16.18-9.86,16-13.22a32.72,32.72,0,0,0-3-12.51c-3.26-7-2.25-10.16-4.15-13.47-3-5.16-5.07-25.91-3.73-31.69,1-4.17,3.43-4.37,4.39-8.33.73-3,2.76-3.47,3.93-6a2.08,2.08,0,0,1,.69-.65c3-1.78,1.39-6.86,13.31-9.86C92.44.79,92.13-.66,96.35.31c4.41,1,3.89.07,7.76,2.56,2.33,1.5,9,4.49,12.67,7.49,3,2.43,2.67,5.07,3.17,6.07.26.49,3.39,4.35,3.75,4.83,4.25,5.7,1.41,19,2.61,23.28,2.57,9.2-5.15,4.53-7.72,17.44-1.88,9.41-4.27,6.61-4.31,13.3-.1,15.51,35.16,17,51.62,24.29,8.27,3.64,10.63,7.37,12.54,16.12,3.8,17.38,14.78,63.74-3.62,110.45-6.64,16.85-19.22,23.52-15.22,40,.3,1.27,5.09,40.77,4.74,46.34-.76,12.8.62,12.5-3.56,13.59s-2.67,1.89-5.5,5.53c-2.1,2.68-1.67,7-.88,10.32,2.5,10.61-4.05,4.79-5.16,13.6-.76,6,.24,6,.1,12.12-.29,12.63-4,15.08-4.81,18.48-1,4,1.3,6.7-.22,12.51-2.29,8.79.92,5.92,1.17,11.19.19,3.66-1.06,4.31-1,7.5,0,14.34,18,36,8.93,96.15-.77,5.15,2.72,24.92,2.42,32.22-.58,14.61-1.41,6-3.63,22.75-.31,2.3-.32,2.33-1,3.61-2.42,4.67,4.05,9.29,2.15,16.3-3.84,14.23-5.17,18.57-22.18,20.12a124.36,124.36,0,0,1-14.5.42Z"/></g></g></svg>