<svg xmlns="http://www.w3.org/2000/svg" viewBox="0 0 208.64 609.4"><g id="Layer_2" data-name="Layer 2"><g id="svg2"><path d="M208.55,212.13c-.25-18-.31-7.55-4.82-28.87-1.75-8.22,2.63-3.79-3.75-20.1.22-6.5.26-8.43-1.42-11.8s-2-8.6-4.77-16.94c-2.22-6.64-.88-11.3-1.6-17-1.8-14.81-1.91-19.86-39.74-27-32.7-6.16-20.83-16.41-17.69-27.34,2-7,1.47-3.36,4.39-8.81,1.89-3.53,2.95-1.74,3.83-4.49,1.15-3.61-1.65-7.52-.35-10.73.85-2.11-.07-11.86-.32-13.08-1.4-6.89-4.57-6.88-5.29-10.54-.48-2.46-1-4.2-5.65-6.84C127.55,6.42,116.43-2.86,108,.88c-3.74,1.65-12.62,2.3-15.63,7.92-.54,1-14.37,15.81-12,26.7,2.15,10-1.19,5.35,4.17,23.21.7,2.34,1.28,1.11,2.15,5.72.23,1.24,5.17,17,3.55,20.15a61,61,0,0,1-7,6.66c-10.31,6.63-25.21,4.12-43.05,12.93-9.21,4.56-3.85,12.77-8.3,22.62-3,6.71,1.51,9.38-.9,15.87-.51,1.38-1.39,4.28-1.81,5.68.06,5.42.47,6.75-3.15,10.83-3.46,3.89-6,20.32-6.2,23.26-.9,11.23-9.08,29.91-13,60.36-8.27,65-8,61.16-4.28,63.21,5.34,2.92-2.71,18.64,2.22,31.3,1,2.47.75,4.47,2.47,9,2.35,6.27,3.8,2.76,8.67,9.15.79,1,4.83,5.16,5.91,4.23s-.61-3.76.18-4.76c1-1.23,3.51,0,3.74-2.79s1.87-2.83,2.61-6.46c.68-3.31,0-1.24-.17-13.65-.13-10.52.1-10-3.78-17.77-4.69-9.4-.6-5.58.94-9.08.87-2,12.37-68.35,19.3-83.67,7.87-17.41,4.9,29.59,1.71,48.46-.17,1-8.15,59.18-7.35,61.48.7,2,1.28,3.88-.08,14.92-.74,6,1.63,9.61,1.63,19.51,0,9,5.56,34.16,5.74,35.16.39,2-.11,4.68.42,6.26,1.54,4.64-.06,10.26,2.15,18,1.87,6.56-1.19,7.8,1.49,9.76,5.16,3.8,1.08,6.72,4.78,13.83.82,1.59.06,2.31,1.18,4,0,0,4.61,39.19,9.06,57.28,2.76,11.2,0,3.53.25,18.58.09,5.68,0,6.6,1.93,8.84,2.16,2.48,2,3.92.52,6.58-2.64,4.67-1.38,5.49-1.1,11.3.15,3.33.22,3.23,2.52,6.14-.41,23.58-30,23.9-36.84,35.23-2.93,4.88-1.27,8.75,1.75,10.22,2.66,1.29,13,1.16,16.55.25,4.64-1.19,5.91-2.88,14.08-6.15,25.09-10,32.36.55,34.68-15.14l1-78.26c-.73-2.93,0-3.59.52-9.54,3.2-33.3-4.9-48.35-4.9-61.35-2.31-6.62,4.08-13.94.55-21.65-.82-1.8-.85-1.09,1.36-13.92.21-8.27.1-8.79,1.29-12,4.18-11.52,1.55-18.82,4.48-18.82s8.65,20.53,9.35,26c1.21,9.41,8.95,35.7,8.95,39.41,0,10.56,8.12,8.91,6.48,16.51-1.14,5.31,2,3,2.87,15.63,1.81,25.72,6.61,31.54,8,43.79a31.71,31.71,0,0,0,2.5,9.5c2.6,6.34-2.42,4.69-.71,22.43.48,4.94.48,4.81,1.13,6.3,2,4.55-.64,4.74,3.38,13.93.84,1.91-.23,4.23,1,7.15,1.29,3.12-1.52,10.65-4.44,14.31-5.32,6.66-4.46,6.51-7.31,12.38-3.82,7.89-1.24,10.8,6.72,11.46h0a38.58,38.58,0,0,0,9.32-.46c10.4-1.6,13.38-7,18-14.05,8.52-12.93,2.69-17.34,4.43-21.27.83-1.9,1.69-1.06,2.13-7.13,1.15-15.93,2.83-5.17,1-23.72-.9-8.87-4.57-20.87-3.1-27.45,4.43-19.79-.84-66.91-5.16-72.52-2.06-2.67-.49-6.75-3.45-10-1.14-1.25-1.1-1-1.1-4.86,0-9.66-3.08-2.89-1-16.66.36-2.32-1.3-4.26-1.87-7.27-.74-3.92.66-5.07.14-9.19-1.72-13.75,3.7-10.69,3.48-31.45,0-4.4-.9-13.85,3.06-12.2,1.47.62.19,3.44,3,3.44,3.87,0-2.89,7.73.66,7.73.17,0,14.08-5.17,16.85-5.12,1.17,0,2.44.19,3.54-2,1.51-3,3.63-1.65,5-4,8.7-15-3.35-39.9,8.22-37.83,1,.18.89.16,1.44-.39C202.32,277.45,209.54,279.07,208.55,212.13ZM22.63,344.45c.39,1.12.44,2,.13,2.1h0a1,1,0,0,1-.34.08,11.37,11.37,0,0,0-3.77-2.84c-1.66-.64-2.36-1.35-2.57-2.63a29.15,29.15,0,0,1,.8-6c.78-1.73,3.07-2.93,4.07-2.15C22.56,334.24,21,339.84,22.63,344.45Zm147.87-79c-.1.48-.4.76-.71.65-3.1-1.12-2.43-34.91-3.57-43.92-.73-5.84,1.4-13.71,2.9,16.17C169.36,243.5,170.84,263.83,170.5,265.46ZM177,318.07c-.5.5-1.09,0-1.09-.93s-1.14-3.35,1-4.14c3-1.08,1.07,4.07.08,5.07Z"/></g></g></svg>