<svg xmlns="http://www.w3.org/2000/svg" viewBox="0 0 85.86425 103.83061"><defs><style>.cls-1{fill-rule:evenodd;}</style></defs><g id="Layer_2" data-name="Layer 2"><g id="Layer_1-2" data-name="Layer 1"><path class="cls-1" d="M29.60065,1.8897c.9843.4345-.26179-.9004-.209-1.4698,1.0683.542,1.1679,2.0518,1.8886,2.9395.8692-.5303-.2793-.9814,0-2.0996.3204.831.8262.3818.8399,1.2588.6172-.0137.7812-.4785,1.0508-.8399.3691.6573-1.4864,2.9785,0,3.5703.2011.0782.21091-.4707.209-.6298.5781.498-.336,1.2714.21091,1.8877.22069-.9971.57809-2.2911,1.04879-4.4073.6153.1778-.125.6758,0,1.0489.6328-1.0723.416,1.0742,1.0488,1.2597.6661-.4541-.8359-1.9707-.2089-2.9385.4726.087.0058,1.1133.4199,1.2588.77341-.6152.3613-2.0898.6308-2.7285a1.91971,1.91971,0,0,1,.8379,1.0488c-1.0879-.0097-.36129.8584-.6289,1.8897.5391-.0156.3008-.9775.8399-.4199-.4375.4345-.3535.9355-.6289,1.8896a4.66993,4.66993,0,0,0,1.2578-1.6797c.5019.25-.3281.9102-.4199,1.2598.0586.4424.5605-.3047.8418.21-.1407.8115-.002.747-.211,1.2597.4883-.3593,1.3281-1.459.83991-2.0986.33789-.5537.75189-.1953,1.04879-1.0508.2207.9951-.8809,2.4756-1.4707,3.3584.7695-.5898.4844.9893,1.0508,1.6797.7187.1582.2675-.8525,1.0488-.6289-.1875.7207-.9063.9121-.8398,1.8887a8.17041,8.17041,0,0,1,1.8906-1.8887c.6738.5176-.7969,1.4199,0,2.0986a4.56531,4.56531,0,0,0,.6289-1.6797c.498,1.7647-.8653,2.1084,0,3.7793.4472-.5341.2422-1.7168.6308-2.3095.2579.4463.4922,1.5468.209,1.8896.7051.2158.3282-.6523.4199-1.0498.4375.1182.4454.3281.211.6309,1.1953-.7451.6406-2.3662,0-3.3594.1738-.4277.5742.6641.6308,1.0488a5.184,5.184,0,0,0,.629-1.6787c.5234.5537.4785.8994.6289,2.0996.0918-1.3789,1.2031-1.7373,1.0507-3.3594.42.0713.6563-.0429.6309-.4199.2441.0342.1758.3819.209.6299.789.1602.1445-1.1143,1.0488-.8398-.6055.2353-.1426,1.5361-.8398,1.6797.2187.1699,1.0625-.5752.8398.8398a5.41266,5.41266,0,0,0,1.8887-3.3584c.5859.3975-.0371,1.3437-.209,1.6787.3477.1279,1.41411-.8174,1.6797-1.4687.8379.6533-1.22659,1.5947-1.89059,2.0976.06639,1.1865-.37111,1.8672-.209,3.1494.61329-.0849.68159-.7177,1.05079-1.0498-.6289-.4013-.1543-.6015-.4219-1.2597.36911.1914.3847.7363.6308,1.0507a4.60216,4.60216,0,0,0,.8399-2.3086c.5937.6075-.2031,1.6065-.211,2.3086a1.49314,1.49314,0,0,0,.4219-.6308c-.0996,1.3408-.8496,2.2344-.8418,3.9892,1.1367-.2627.8184-1.9814,1.4707-2.7285-.0703.8447.5313.4385.8399-.4209.6152.4287-.2852,1.0996-.4199,1.4697.6933-.0058.5117-.8857,1.0488-1.0488-.4336-.7666.0547-1.1611-.6289-1.6806.0468-.3018.625-.0723.6289-.419.3164,1.2568.13081,1.8223.83981,2.7285a1.19524,1.19524,0,0,0,.62889-1.2588c.5723-.1504-.1484.9893.42.8399-.3067.6006-1.0313.7871-1.25789,1.4687.84379.1455.51569-.8838,1.25789-.8388a4.68817,4.68817,0,0,1-.42,1.2588c.6582-.0479,1.6836-1.5323,1.4707-3.1495.2461.0342.1758.3838.209.6299.4981-.1308-.0332-1.291.4199-1.4687-.01949-.458-.041-2.6192.211-1.4698-.0996,1.1602.2969,2.8155-.4199,3.3594.5918.0322.5253-.5947.8398-.8408-.2422,1.2305-2.1172,2.6406-2.9395,3.9893.8165-.2334,1.0918-1.0088,1.4707-1.6788.2442.0342.1758.3819.209.629,1.15241-.1065,1.0059-1.5127,1.8887-1.8887a16.94905,16.94905,0,0,1-1.4687,4.1982c1.041-.2881,1.3476-1.3115,2.5195-1.4687a13.91983,13.91983,0,0,1,1.6797-3.7803c-.3282,2.5723-2.1641,5.1846-3.9903,6.9287.9961-.75,2.2481-1.459,2.7286-1.8896,1.3027-1.1641,1.2558-2.2315,2.5214-3.7793.23251.6601.0977.5547-.2109,1.0507.40041-.0888.9043-.0771.8398-.6298.8399.6142-1.0918,1.625-1.0507,1.2588-.2461,1.1669-2.3965,2.0214-2.7286,3.7793a1.48454,1.48454,0,0,0,.42-.6309c.6562.3389-.4297.666-.42,1.0508.8028.0332.6836-.8574,1.0508-1.2608.5235.0274.6563.4014.8399-.209.4316.9971-1.2442,1.6915-1.4707,2.7295A7.84654,7.84654,0,0,0,65.29,12.1758c-.0781,3.001-4.8183,3.1582-6.0879,5.6689.1914.5743.7363-.372,1.0488.21.5-.9814,1.25791-.4131,1.4708-1.6797.6269.1367-.2012.4483,0,.8389.414-.1445.5585-.5596.6289-1.0488-.043.872.5937.499,1.0507-.211.68951.7051-.7207,1.0899-.8418,1.6797a.931.931,0,0,0,.8418.4209c.7696-.0703.1856-1.4932,1.0489-1.4707-.3926.9424.09961,1.4434-.211,2.0996,1.4707-2.0195-1.1347-4.4805,1.4688-5.459.334.7198-1.9317,2.4258-.2071,2.9405-.6289.4218-.4863,2.0127-.2109,2.7285a4.696,4.696,0,0,0,1.25981-3.1485c.60739.336.25389.7842,0,1.2588,1.00189-.0459.57029-1.5283.83979-2.3086.6641.3809.1641.8164.209,1.6797.6465-.3164.541-1.9775,0-2.3095.3594-.3428.2207-1.1788.8398-1.2598.1231.7529-.2441,1.0156-.4199,1.4697,1.2676-.2724,1.4512-1.6289,1.8907-2.7285.5839,1.6387-1.4668,2.4492-1.4708,4.1982.8418-.708-.4531,2.8008-1.0488,3.3584.1895.5674.5059-.4433.6289-.6298.5117,1.54.0274-.9327,1.2598-.8399V15.7451c.8906-.0088.2598,1.502.2109,1.8887.5117.2022.6934-.9433.42-.8389,1.8105-.6142.7285-2.8984,2.3085-3.5703.12111.6826-.1445.9776-.21089,1.4707.99019.2539,2.22849-1.4775,1.25979-2.7304.3574-.0772.3965.165.4199.4209.19531-1.3887,1.3398-2.2237,1.8906-3.7793.2149,1.582-1.6035,2.4433-1.4707,4.1992.3867.4385,1.1836-.4844,1.4707-.8408-.4101,1.8789-2.6367,2.4814-3.98829,3.9892.69539.4082,1.52149-.8486,1.88679-1.4687.5605.8467-1.0235,1.3476-1.2579,2.0986.629.1328,1.4786-1.3164,1.8887-2.0986.3086,1.1513-1.26559,2.2285-1.8887,3.1484.7012.001.7168-.6826,1.4688-.6299-.1523-.6416.2148-.7656.2109-1.2588.27541.0733.3301.3692.6289.42.1446.5644-.4336.4052-.6289.6298.2559.6387.8008-.3076,1.0489.209-1.2598.4317-2.4239,1.6065-1.8887,2.0996a4.68292,4.68292,0,0,0,2.5195-1.2588c.42971.6348-1.3359,1.7979-1.8906,1.4698.3945.3984.0234.5263,0,1.0488.2812.6484.9336-.3916,1.2598.21-2.4981.539-3.4786,1.3818-5.668,2.3086.0019.4179.5723.2666.4199.8398-.9453.1758-.5527-.9873-1.6797-.6299.4571.9678,1.2598-.2031,1.2598,1.6797-.5469-.1562-1.2617-.7754-1.8887-.21a4.15267,4.15267,0,0,1,.8399,1.0498c1.1054-.4648,1.31831-.7304,2.5195-1.2587-.1309-.1875-.2559-.376,0-.42-.0664-.2851-.5273-.1748-.8398-.2109.0292-.458.5273-.4512,1.0488-.4199v.6308c1.0664-.4726,1.2207-1.8593,2.3086-2.3105-.9239,1.2461-1.5782,2.7607-3.1485,3.3594,1.8633.8037-2.3496,1.5048-2.7285,2.7285-.2851-.0645-.17379-.5254-.2109-.8389-.707-.081-.8945.3633-1.2598.6289a3.68306,3.68306,0,0,0,4.6192-1.2588c.8086.586.9589-.3164,1.8886-.4199.2246.7832-.7871.333-.62889,1.0498.18949.5684.77349-.1767.83989-.4199.1484,1.1055-1.4961.9287-1.04889,2.9385a3.01639,3.01639,0,0,0,1.46879-2.0987c.6836-.0547,1.0098.2491,1.0488.8399.60941-.792.1582-2.6406.8399-3.3594.4687.0889.164,1.1133,0,1.2598a3.95086,3.95086,0,0,0,1.8886-1.0498c1.17391,1.0498-2.6797.9091-1.6777,2.5185-.625-.0439-.7402.749-.4199,1.0508-.084-.5225.97651-.9141,1.0488-1.8896.418.6376-.3164,1.916-.6289,2.5185.9531-.1445,2.3848-2.1055,2.09961-3.5684.46879.0899.084,1.0352.209,1.4698a3.30961,3.30961,0,0,0,1.46869-2.5196c.2872.0655.1758.5264.211.8399,1.2168-.2705,1.2695-.9893,2.5176-.8399-.6348.834-2.0938.8428-2.9375,1.4698.0937.1875.1836.3759.4199.4199-1.4453.4443-1.5684,2.2109-2.7285,2.9385a4.04185,4.04185,0,0,0,1.6797,0c2.1699-.2549-4.2793.4629-2.9395,2.5195.4082-.2051.6445-1.0371,1.2598-.4199.8574-.2041-.1993-1.0225.6289-1.2588.373.1533.0312.3808,0,.6289.7441.0449.414-.9844,1.2597-.8398-.2636.7871-1.0703,1.0302-1.4707,1.6806.916.0078-.5488,1.0147-.6289,1.8887,1.9727.4433,1.9883-2.2901,2.7285-3.3584.1524.6416-.3613.6172-.2089,1.2588a3.07888,3.07888,0,0,0,1.0507-3.3584c1.1289.0849.4922-.9737.8379-1.2598.3711.0508.4805.3613.42.8389.3945-.374.97261-.5664,1.2597-1.0488-.07809,1.0908-1.2519,1.6191-1.8887,2.7285.0918.1865.18361.3759.42.4199-.0508.3701-.36139.4795-.8399.4209-.2597.6787.6797.1601.4199.8389a5.3893,5.3893,0,0,0-2.3085,1.8896c.1894.1768,1.289-.5176,1.2597-1.2588,1.2695.1807,1.85941-2.0283,2.9375-2.7285.2051.9082-1.3379,1.876-1.8887,2.7285.4961.3447,1.4082-.6836,2.0997-.8408-.334,1.4775-2.1036.665-2.7286,2.0996.6524.7744,1.0332-.4902,1.6778-.4199v1.0498c1.1933-.1377.748-1.9111,1.8906-2.0996-.2012.4287-.4297.831-.63089,1.2597.56059.2022,1.30079-1.2138,1.88869-1.6796.69731.206-.2324.415-.209.6308.7539.7383.7598-1.0498,1.2598-1.2607.5488,1.0468-1.0274,1.7676-1.2598,2.7295.7559.1269.6192-.6416,1.2598-.6299-.0527.9277-1.0254.9346-1.6797,1.2607.041-.1718.2109-.2099.2109-.4209-.6113.1826-.2363.3145-.2109.8399.5938.1738.543-.2959,1.0488-.211-.5898.7403-1.6191,1.042-1.88859,2.0996.06439.2862.52539.1748.83979.211a16.90084,16.90084,0,0,0,1.2598-1.8897c.44141.4571-.4629,1.3467-.8399,1.6787.1192.4747.3262-.2539.6289.211.4063-.085.0196-.9619.8418-.6309-.1015.9502-.9609,1.1406-1.4707,1.6797.1367.2149.4824.2178.4199.6299-.7382-1.0137-1.2187.5723-2.09959,0-.24411.5498.64849.9033-.20891.8398.75.669,1.2793-.6699,2.3085-.4189-.6152,1.0635-2.6914.668-3.5703,1.4697.5703.4736,1.1094-.2939.42.6289.041.169.2109.209.2109.4199.3769.0264.4434-.2568.83981-.2099.23829.1152-.77541.75-1.47071.6299a2.59371,2.59371,0,0,0,2.9414-.42c.293.0743.0176.3692-.2109.42.4141.3994.9551-.8535,1.6797-.8399-.2383.4619-.7012.6983-.8399,1.2608.1836.6201.1661-.6368.8399-.211-.707.9014-2.2207.9971-2.72849,2.0987-.09961.2187,1.13859.0439,1.25969-.21.5704.7227-1.0683,1.0244-1.6796,1.2607.0566.4942.7812-.0195.8398-.2099.5332.3457-.4336.9492-.8398,1.0488.7714.2774,1.125.9736,2.3085.8399-.1367.2138-.4824.2167-.4199.6298-.6093-.4082-.5449-.6923-1.46869-.4199a1.62448,1.62448,0,0,0,2.09759.4199c.8047.2911-1.01559.7549-.4199.8399a11.82537,11.82537,0,0,0-7.13669.4199c-.12311.5,1.25389-.5977,1.04879.4199-2.0722.5596-4.1953-.8008-5.8769-.2109-.0371.5976,1.373-.2529,1.0488.6308a1.78362,1.78362,0,0,0-1.2598-.2099c.5332.6572,1.1992,1.1806,1.6797,1.8896.7539.1729,1.0156-.4736,1.4707,0-.0332.3877-.7109.1289-.8398.42.3926.6054.5351,1.79,1.4687,1.2587-1.1953,1.5801,1.67581,1.0967,1.6797,1.8907.3399-.6143.5176-.2315,1.2598-.211-.8438.6719-1.5469.208-2.7285.419-.334-1.0811-1.45319-2.0293-2.0996-3.3574-.5411.0507.2871.3603,0,.8388a1.18827,1.18827,0,0,0-.8418-.2099c1.207-.753-1.1524.0273-.8379-1.0489.5527.3535.4433-.5039,1.0488.21a10.16589,10.16589,0,0,0-1.88869-2.0996c-.52341.4023.72069.8047.62889,1.4687-1.1523-1.1552-1.7383-2.8798-3.9883-2.9384-.2812.9648,1.7618.6865,0,.8398.7051.9736,2.1993,1.1602,2.5196,2.5195a.57665.57665,0,0,0,.63081-.4209c-.83591,1.3428,1.40629,3.0703,3.14849,1.8907.1347.457-.5957.667.209.6289a4.468,4.468,0,0,1-2.0996.2099c.45111,1.0889,1.8593,1.2207,3.1503,1.4688-.416-.1543-1.914,1.29.209,1.2617.9199.29-1.3398.1279-.4199.418-.0644.4443-.7285-.2198-.6289-.6289-.5625,0-.457.663-1.0508.6289.1719.5293,1.10741.2939,1.4707.6308-1.2988.7686-2.7148-.5722-3.98829.21.70319,1.1904,2.16209-.1904,3.14849.6289-.27349.2793-.2774.7812.209.8408-.1778.4932-.9219-.1748-1.2598-.21,1.541,1.0967,3.0059,3.8672,4.4102,3.7784-.3633.7998,1.2753,1.1787,2.3085,1.2597-3.5273,1.0801-4.3066-4.5498-7.9785-3.5693a4.30625,4.30625,0,0,0,.6309,1.2598c.19921-.3584.6973-.4229.8398-.8399.48641.2344-.4082.8311-.6308,1.0498-1.4785-.542-1.836-3.1142-3.7774-2.5195a4.07956,4.07956,0,0,0,1.8887.8398c-.0586.4317-.5605.419-.8398.6299.7558.4082.7871.2363,1.05071,1.0498-.68361-.6797-2.09961-.2051-1.89061-1.0498-2.039-.1924-3.5918,1.1299-5.039.8399-.02539.3769.2578.4423.2109.8398-.916-.2324-.7656-.4424-1.8906-.21a1.47869,1.47869,0,0,0,.6308.42c-.3144.6933-.5136-.4366-1.0508-.21-1.13469,1.3936-3.4355.7647-5.2461,1.4697-1.2128.4717-2.2539,2.5606-3.9902,3.7784-1.1523.8085-2.31639,1.0341-3.14839,1.6796-5.21681,4.0469-4.91021,6.4971-4.19921,13.6456.5703,5.7236.44921,13.1494,2.9394,17.8437,4.3067,2.041,15.38481-.08887,17.84381,3.14844-.56061.60644-.45711.2041-1.05081.21094-16.3457.19922-34.9961-.14942-51.0117,0,5.9863-4.08985,18.5586-1.59375,25.6113-4.61817,1.28121-5.47951.95121-12.05271.4199-17.84371-.5508-6.0186-4.3848-8.3223-5.668-13.4366-1.7285-1.8125-.3652-4.4629-.2089-7.1367-.3282-.4512-1.9786-1.5576-2.3106-.6308-.1406-.92-1.5469-.5069-1.0488-1.0489-.3399-.0595-.3613.1973-.6309.21.2246.1953.0664.7734.6309.6289-.06639.2852-.52539.1748-.8418.21a1.24177,1.24177,0,0,0,1.4707.2099c-.32229.9727-1.11129.1778-1.6777.211a1.02356,1.02356,0,0,0-.4219,1.0488c-.5176-.2451-.7735-.5488-.209-.8389-.0293-.5527-1.9941.4307-.8398.419-.3458.2685-1.1387.5439-1.4708.2099a7.5102,7.5102,0,0,0-.4179.8399h-1.2598c-.10739.625,2.5371-1.9971-.4199-1.4688-.6231-.5019,1.6953.169,1.4687-.6308-1.7441.3535-3.4023-.5254-5.248.4209-.252-.2764-.082-.3311,0-.6309h-1.0488q-.05865.687.6289.6309c.0898.3408-2.0098-.2803-2.5196-.211.0899-.4687,1.0352-.0849,1.4707-.2099-.0859-.8233-.998.208-1.4707-.42.4981-.4824,1.8848-.0752,2.7305-.2099-1.3711-1.3301-2.8906-.5362-4.8301-.419.9493-.5088-.373-1.1191-1.0488-1.2607a10.365,10.365,0,0,1-1.0488,1.2607c.75.9971.5429,2.9541,2.0976,3.1485-.8613,1.1367,1.8184,2.0019,1.6797,3.7783-.459-.0303-.4512-.5283-.4199-1.0498-.2051.0068-.1621.2568-.209.4209-.4648-.4063-.3125-1.1485-1.0508-1.6797-.6035.1016-.9882,3.1953-1.0488,1.2588.47071-.2285.3691-1.0293.8398-1.2588a37.04993,37.04993,0,0,1-2.3105-4.6182c-1.34959,1.4493-1.3555,3.5196-2.7285,4.4082.04691-1.0039.7734-1.3271,1.0508-2.0996a1.51055,1.51055,0,0,0-.62889-.4199,2.34705,2.34705,0,0,0-.63091,2.0996c-.4727-.8506-1.36909,1.5176-3.3594,1.0488.0059-.2041.2559-.1621.4199-.2089.0665-.5567-1.1777.1962-.8398-.6299a7.4309,7.4309,0,0,0,2.0996.2099c.4453-.5879,2.3633-1.7627,1.2598-2.5195a4.5459,4.5459,0,0,0,1.4687-2.3086c-.789.1192-.8476.9717-1.4687,1.2588-.0625.5615.8144-.5576.6289.4199-.5352.0244-1.08009.0391-1.0488.6299a6.96582,6.96582,0,0,0-1.6797-.8398c.2539-.3057.9179-.2012.6289-1.0489.3769-.0263.4453.2559.8398.21-.1562-1.2236-.8496-.6406-1.2597-1.4707-.2461.0342-.1758.3838-.209.6308-.3301-.0917-.1797-.6611-.8399-.4199.1289-.5009.9141-.3457.6309-1.2607-.5039-.083.1152.956-.6309.6308a4.76825,4.76825,0,0,0,.4199-1.2607c-.6035.5869-.8964,1.4844-2.09959,1.4707,1.70319-.7715,1.69539-2.1846,2.51959-3.5684-.43359-.2832-1.086,1.004-1.6797,1.2588-1.83989-.5351-2.7617,2.6514-5.2481,1.4688.336-.5879.9453.2949,1.6797,0,.60351-.5967.0664-.4111,1.0489-.6299-.8946-.3652-2.0879-.4307-2.9395-.8389,1.25-.4199,2.9277,1.2891,3.9883-.2099-.6446-.6143-2.8223.3047-2.9375-.8399.7168.0528,1.0078.5313,1.8887.419a.57069.57069,0,0,0-.42-.628c.2871-.4755.8653.5176,1.2598.628a10.54331,10.54331,0,0,1,2.0996-.628c-.05079-.581-1.1836-.0761-1.04879-.8408.709.3369,1.02539-.6592,1.46869.4199.5528-.2177.7071-.833,1.2598-1.0498-1.31249-.2314-.8066-1.1064-2.0996-1.4687.7793-.5596,1.4082.8232,2.0996,1.0488.3027-.2558.3184-.8008.6289-1.0488.8359.5518,1.6465.0019,1.4707-.6309.71091.8291,2.2305.0196,3.3594,0a13.37656,13.37656,0,0,0-3.7793,0c.2949-.8242,1.9902-.247,2.9375-.4199-.8633-1.1865-4.6289-.8496-6.0879-2.0986.1777-.4951.9219.1738,1.2598.2109.4043-.0224-.3243-.7832.2109-1.0508a2.02126,2.02126,0,0,1,1.6797.8399c.5371-.8086.3301-.3487,1.2597-.21a.78937.78937,0,0,0-.8398-.8398c-.4219-.5117.9902.0869,1.0488.4199.0528-.5801.4414-.3779.8399.21.5351-.6758-1.80079-1.1846-1.25779-1.8897-2.54891,1.792-2.60551.8701-5.459,1.0498.15039-.5039.51359-1.3515,1.04879-.8398-.0059.2041-.2559.1631-.4199.2099.0644.2852.5254.1758.8398.211.2598-.6807-.67969-.1612-.4199-.8409-1.7109.168-2.96679.9747-4.1992,0,.8633-.5615,1.7812.7237,2.93941,0-.03321-.246-.38281-.1767-.63081-.2099.21481-.5889.8926.0586,1.2617,0-.041-.9131-.3672-.3818-1.0508-.419.8594-1.4326-1.57809-.7841-2.0996-1.4697a2.64446,2.64446,0,0,1,1.8887,0c.5254-.1455-.3887-.5605-.209-1.0508.8477.7285,1.2832,1.3633,2.5195,1.2598.0762-.3564-.164-.3965-.4199-.4189.2246-.4776,1.3184-.0801,1.8887-.21.1133-.6572.9199-.6211,1.2617-1.0488-.6523-.7207-.8047-.0078-1.6816,0-.6661-.1768.373-.2784.6308-.211-.1582-.4111-1.5527-.3125-1.4707.211-.625-.0049-.7129-.5469-1.2578-.6299.3223-.625.9316.7744,1.4687,0a3.9925,3.9925,0,0,0-1.2597-.8408c-.6856.1709-1.7754,1.163-2.3086.2099.4883-.4023,1.1308.1817,1.88871-.2099-.11921-.6504-.98831-.5518-1.05081-1.2598.6172.084.7129.6894,1.2617.8408.543.0547,1.8672-.8818.8379-1.0508-.082-.5029.957.1162.6308-.6298.4766.1025,1.0723.4169,1.4688,0,.0605-.3389-.1973-.3614-.209-.6299-1.793.4209-2.7148,1.7021-4.6191,1.4697-.127-.8281,1.1523-.2471,1.67971-.4189-.18951-.9249-2.61921.58-2.51961-1.0508-1.3457.5898-2.1328.5224-3.9883.4199,1.2364-1.0488,2.0137.0098,3.3594-.4199-.1953-.3116-1.5117-.3379-.2109-.42-.543-.5966-3.207.8516-3.1485-.4189.7286-.1689.8086.3125,1.4688.21A2.079,2.079,0,0,0,.212,36.3184c1.0312-.0791,1.8262-.211,3.1484-.4199.3203-.9502-.8066-.4551-1.0508-.8399a5.76621,5.76621,0,0,1,2.0997,0c.1035-.6592-.7247-.5547-.209-1.0508.4394.3301.6679.8731,1.2578,1.0508.5703-.2002-1.1797-.7558,0-1.0508-.211-.4179-.9278-.33-.8379-1.0488.6641.2451.9199-.1299,1.67971.21.69529-.0645-.89851-.7285.209-.6299-.04111-.2949-1.37311-.1328-1.25981.4199-1.2481-1.0244-3.4668.1455-4.19919-1.4697.72849.1123,1.11909.5625,1.89059.6308.5293-.2119-.5723-.5244-.6309-.8408.19731-.2959,1.9141.4619,1.4688.8408.998-.2031,1.0273-.5439,1.8906,0a3.55842,3.55842,0,0,0-.8398-.6308c.291-.4121,1.084.4414,1.67971.4199-1.04691-1.3975-3.30471-.5693-4.19931-2.3086.8516-.4248,1.3848,1.2695,2.7305,1.0498a4.14074,4.14074,0,0,0-1.8906-2.3096c1.3515-.1582,1.98441,2.2129,3.35941,2.7286-.05471-.8604-1.91211-1.7237-2.30861-2.9385,1.0332.4512.414-.3213.4199-1.0498.7871.8213.6348,2.584,1.67971,3.1494.55859-.3086-.08991-1.1524-.63091-1.0508.3008-.6357-.0996-1.1172-.4199-1.6797.46681-.039,1.4141,1.2422,1.8887,1.8897.3965-.8369,1.0527-.1153,1.4707.2109.7129-.1426.205-.6973-.209-.8398a10.32769,10.32769,0,0,0,2.9375.2109c-.0059-.2061-.2578-.1641-.4199-.2109.0351-.2461.38281-.1768.63081-.21A22.06041,22.06041,0,0,1,7.76855,27.71c1.0801-.4424,2.78131.8955,3.77931-.21-.58011-.4648-1.125-.3418-1.89061-.209-.0313-.9746-2.668-1.7422-3.35739-2.0996.08009-.8506-.57421-.9668-.84181-1.4697.9277.0566,1.9629,1.8145,3.1504,2.3096.2832-.8828-.9571-2.0742-.8399-2.9395a3.34328,3.34328,0,0,0,2.0996,1.2608c.6934-.3145-.7031-.2481-.4199-.8399.7598.4404.8985.208,2.09961.209-.74021-.6592-2.27541-.4971-3.77931-.8398.6758-.5625,1.3809.1513,2.0996-.209a1.48838,1.48838,0,0,0-.6308-.4209c-.3653-.5655.7051.373,1.2617.2109.0527-1.126-2.9258-.7803-3.7793-2.0996-.2051-.8496,1.4707.5391.418-.4199.6504-.293,1.4687,1.0459,2.7304.8398a5.11281,5.11281,0,0,1-1.6797-2.9385c.9493.7295,1.0469,2.3125,2.3106,2.7286.4727-.085-.1133-1.2305.8379-.8409-.62109-.7783-.9414-1.8574-2.0996-2.0986.0332-.5215.7109-.0615.8398,0,.0508-.8906-.0156-1.6621-.6289-1.8887a11.65,11.65,0,0,1,2.7285,1.0498c.3692-.5195-.5957-1.497-.8398-2.0996h.8398a1.98688,1.98688,0,0,0,.8399,2.0996c.3105-.2617-.50979-.6113.209-1.0498.1601.1436.666.8848.6308,0,.502.3682.4102,1.0498,1.0488,1.6797.4942-.0664.125-.9961.8399-.8408a2.99623,2.99623,0,0,0,.6308,1.4707c.50791-2.5-3.5273-4.0078-5.248-5.6689.96291-.2891.6953.332,2.0977.6298-.543.5401.1757.8897.6308,1.0499-.0605-.5889-.8027-1.002-1.0488-2.1006a4.01827,4.01827,0,0,1,1.4687,1.8906c.5196-.2031-.289-.8067,0-1.4697.6153.0146.7793.4795,1.0489.8388.3711-.1845.34761-.9306.8398-.4189-.3496-.418.0195-.2676,0-.8408-.11519-.583-.8105-.5869-1.2598-.8379.1895-.7032.4707-.1846.8399,0,.2695-1.4258-.9199-3.1123-1.6797-4.2002.2109-.6465.56841.2344.6309.4199.541-.0508-.2891-.3613,0-.8398a1.968,1.968,0,0,1,.6289,1.8906c.33-.7735.9511-.1514.4199.4189,1.0625-.6172.5019-2.8564,1.67971-3.3584-.336,1.2032-.80861,2.2705-1.04891,3.5694.1368.2138.4825.2168.42.6298.2031-.0068.1621-.2578.209-.4209.5742.1934-.293.6563,0,1.2598,1.00391-.6064-.0508-2.165,0-3.1494.7187.6123.6113,2.0488,1.0507,2.9395.3731-.7832.6914.039.6289.8408.2129-.1367.2168-.4834.6309-.4209-.0664-.6895-.4863-1.7198,0-2.3086.5098.3291-.0879,1.7666.6289,1.8887.4512-.3145-.1504-.5127.2109-1.0499.6387.3038,1.0723.0362,1.0489-.8388,1.1718.4277,1.7129,1.3066,2.3086,2.7295a11.49256,11.49256,0,0,0-.42-3.9903c.6739.168.4766,1.2061,1.0508,1.4698.2832-.0645.1739-.5254.211-.8399.248.7627,1.0019.5615.6289,1.0498a1.45853,1.45853,0,0,0,.6289.4199c-.2676-.2412.3379-1.8574-.6289-2.0996.8183-.3642.1621-1.4765-.4219-1.6787.8086-.792,1.1348.6748,1.2617,1.2598a1.51708,1.51708,0,0,0,.4199-.6299c.4883.75,1.1895.0391,1.0489,1.2588a.57615.57615,0,0,0,.4199-.6289,2.82273,2.82273,0,0,1,1.0508,1.6797,1.49181,1.49181,0,0,0,.4179-.6309c.2676.4326.3164,1.085.6309,1.4697.27931-.2109.7812-.1972.8379-.6298-.1875-.7061-.4668-.0225-.8379-.419-.3496-1.248.73831.1123.8379,0,.27341-.3037-.7949-1.9306.4219-1.2607a11.29226,11.29226,0,0,1-2.7286-4.1983,1.36548,1.36548,0,0,1,1.0489.21c-.1211-.7178-.7032-.9775-.6289-1.8897.5879,1.6163,1.582,1.6905,1.6797,3.5704,1.0117-1.3623-.2032-1.9405-.8418-2.7295m33.1699,17.2138c.3691-.1201,1.2324.2539,1.2597-.2099-.5703.1504.1504-.9893-.4199-.8389-.3281.3008-.7304.5283-.8398,1.0488m7.3476-.2099c.6543-.2324.752-.1348.42.4209,1.5058.3086,2.59571-.8985,2.3086-1.6807-.4922.8369-2.1602.499-2.7286,1.2598m-1.4707,2.0996c-.0019.2764-.3672.1914-.4179.4199.6328-.3242.5507,1.0859.2089,1.0498.0645-.2558-.6054-.7246-.6289-.2109.1622.0468.4141.0068.42.2109-.1621.0469-.4141.0049-.42.21,1.3047-.0948,2.5391-.2608,3.1485-1.0508-.3321-.8106-1.99419-.0977-2.3106-.4199.1172.0019.2403-.17,0-.209m3.7793,8.8164c.20711-.3379.5606-.4824.8399-.209.1445-.7041-.3516-.7685-.8399-.8398.2735.5205-.6152.8711,0,1.0488m9.6582,3.7793c.1387,1.0098-.5507.7373-1.0507,1.4697,1.082-.1084,1.4902-.8906,2.09961-1.4697-.02931.248-.37311.4756,0,.6299.082-.5157,1.41789-1.6533.41989-1.8887a1.49429,1.49429,0,0,1-1.4688,1.2588m-8.3984,22.2539c.3496-.2813,1.3379.0752,1.2598-.6309a.79036.79036,0,0,0-1.2598.6309M9.02835,57.5215a2.54817,2.54817,0,0,1,1.4707,1.8887c-.3066.1152-1.0859-.2451-1.0508.2099.5938-.1728.543.2959,1.0508.21.2852-1.0586,1.8555-1.5273,1.6777-1.8887-.6777.4551-2.1445-1.2051-3.1484-.4199m.4199-16.7949h-.4199c.457-.5635-.625-.9297-.8399-1.4697-1.7812.7148.459,2.1103,1.2598,1.4697m-1.2598-3.1494c-.248-.0323-.5957.0361-.6308-.21h1.0508c-.0469-.3965.2363-.4629.209-.8389-1.1915.1387-2.0918.5655-2.30859,1.6788.62689.5224,1.35929-.1944,1.67959-.6299m.629-5.877c.1171-.956-1.4063-.2724-1.4688-1.0498.7031.0518,1.32421.4512,1.6797-.2109-.7188-.2686-1.9863-1.085-2.51949-.8389.832.6836.25389,2.2881,2.30859,2.0996m21.414-26.6621c-.4844-.3545-.2773-1.4014-.8398-1.6787-.1875.8975.53121,1.9717.8398,1.6787m1.6797.4199c-.3926-.4463-.3437-1.3369-.8398-1.6787-.25.959.58,1.9229.8398,1.6787m15.9551,1.0489c.2734.6523-.0586.6005,0,1.4707.5879-.1202,1.2109-1.292.6289-1.8897-.0547.2949-.4609.2393-.6289.419M49.755,9.0274c.1367-.9932.2441-2.7295,0-2.7295-.5762.7509-.9805,2.2021,0,2.7295M36.95025,7.3467c.5195.1484.88861-.8965.4179-1.0488-.0879.4004-.5996.3799-.4179,1.0488m.6289,2.0996c.3926-.7959.6211-1.7568,1.67971-1.8887-.19731-.1787-.13871-.5166-.211-1.2597H38.419c.0528,1.2197-1.8066,2.3672-.8398,3.1484m-1.2598-.4189c-.0254-.9102.3574-1.3916,0-1.6807-.2207.2188-.4336,1.5,0,1.6807m9.4473.4189c.4648-.6182-.0059-1.7041-.4199-2.0996.5332.7666-.375,1.6689.4199,2.0996m-13.8555-.21c.2422-.1494.918-1.4833,0-1.4697-.0625.6924-.7266,1.0498,0,1.4697m15.3242-.6298c-.7461-.3252-.1269.7138-.6308.6298-.293-.6025.5722-1.0654,0-1.2587-.05469.3828-.7539,1.1757-.2071,1.4687.0508-.2949,1.043.1953.8379-.8398m3.3594.8398a.81077.81077,0,0,0,.6309-1.2588c-.2012.4278-.4297.8301-.6309,1.2588m-22.6738-.21a1.0493,1.0493,0,0,0-1.0489-.8388c.002.5566-.1171,1.2353.42,1.2597.0351-.3144-.0743-.7753.2089-.8408.1094.0821.3106,1.0205.42.4199m7.5586.8409c-.002-.375.5644-1.2217,0-1.4707.0019.3759-.5664,1.2216,0,1.4707m12.8047-.8409c.1171.3741.1093.8721.4199,1.0499.2441-.46-.2461-1.4454.6308-.629-.0703-.4902-.2148-.9052-.6308-1.0507a.57712.57712,0,0,1-.4199.6298m-3.77739,2.3106c.61329-.3848,1.53709-1.666.62889-2.3106-.1543.6924-1.082,1.7061-.62889,2.3106m-21.832-.8408c.13279-.5742-.26761-1.6651-.63091-1.0489.5977-.038-.2539,1.3721.63091,1.0489m23.72259,1.0508c-.1894-1.0674,1.7598-1.625.6289-2.3106-.1972.6514-1.1484,1.6406-.6289,2.3106m7.5567-.4209c.2539-.67,1.0605-1.4014,0-1.8897.0722.5801-.6035,1.4736,0,1.8897m-32.959-.209c-.15429-.4776.3769-1.6387-.4199-1.4698a2.77371,2.77371,0,0,0,.4199,1.4698m13.2246-.211c.6445.3213.6445-1.3701,0-1.0498Zm11.9668,1.8897c.7695-.0938,2.6269-1.5313,1.4707-2.7285a30.42273,30.42273,0,0,1-1.4707,2.7285m7.3477-.21c-.0157-.6299.6171-1.0644,1.0488-.6308-.1153-.3037.2461-1.084-.211-1.0489.0762.7852-1.5175.9873-.8378,1.6797m-8.8165-.8388c.3653.7431-.1406.5156-.21089,1.2587.78519.2247.59959-.5214,1.25979-.4199a1.72321,1.72321,0,0,0-.4199-1.2597c-.0547.2949-.459.2392-.629.4209m-27.7128.8388c-.0508-.2285-.3457-.5039-.42-.2099.6231.1484.334,1.207,1.0508,1.2597-.664-.3076-.0195-1.7558-.41989-1.4697-.04691.1621-.00591.4141-.21091.4199m29.8105,1.0498c.8867.1075,1.5527-1.0967,1.0508-1.6806-.293.6181-1.02539.7949-1.0508,1.6806m-32.1191.42c.2793-.0313.7812.706.8398.2099-.3066-.1836-.666-.3144-.6309-.8408,1.4415,1.1211-.4668-.9453-.2089-.21.541.0508-.2891.3614,0,.8409m34.2187,1.6796c-.125-.4355.25981-1.3789-.2109-1.4697-.1719.4717-.8555,1.5088.2109,1.4697m9.2363.42h.8399c.2344-.4883-.0449-.5625.4199-1.0508-.69529.0742-.9102.6289-1.2598,1.0508m-12.1757,1.0488c.0293-.8711.1386-.042.4218,0,.1153-.3897.5703-1.5039.2071-1.6797-.0528.5879-1.1778,1.1846-.6289,1.6797m-31.6993,2.7295c.1836-.7285-.3222-.7207-.6308-.4209-.1856-1.9121-1.5528-2.6436-3.3574-2.9385a3.36125,3.36125,0,0,0,1.6796,2.9385c-.1777-.1328-.6582-.9815-.20889-1.0488.67769.5097.25,2.1259,1.25779,2.3095.03321-.248-.0371-.5967.209-.6308,0,.3691.9863.6123,1.2617.4209a9.01958,9.01958,0,0,1-1.0508-.8409c.6738-.1738.4355-.1777.8398.211m32.5391-1.6797c.2773.0029.19141.3682.4199.4199.1348-.4541.7871-1.3056,0-1.4697.1114.3027-.8183.5127-.209.6308.42-.499-.0937.2325-.2109.419m11.127,0c.1777-.6162.5273.2734,1.0488,0-.002-.916-2.06639-.5684-1.8887-.419.6602-.2412.5098.3291.8399.419m-2.30859,1.4687H54.37205c1.2247,1.1153,1.6719-.7461,2.0997-1.6777-.50589-.0869-.4551.3828-1.04889.209-.12111.6816.14259.9766.211,1.4687M65.501,20.7832c.7891-.4736,2.1387-1.4931,1.4688-2.7285-.1934,1.0703-1.9668,1.666-1.4688,2.7285m-14.9062-2.3095c-.0215.8251,1.2578.747,1.0488-.21-.59369-.1729-.5429.2949-1.0488.21m-8.1875,1.2587c.1738-.3935.7754-1.0898,0-1.2587-.1641.1455-.4668,1.1709,0,1.2587m-27.502-.2099a4.74357,4.74357,0,0,0,1.2598.4209c.1856-.8096-2.0391-1.6319-1.4687-.8399.0117-.1279.0312-.249.2089-.2099Zm44.2969-.208c.3906.1992.7012-.6299.8399,0a1.78652,1.78652,0,0,1-1.2598.208.99.99,0,0,1-.209.6299c.7695-.209,1.7559-.2002,1.8887-1.0489-.3789-.3076-1.6328-.0566-1.2598.211m-2.5195.4179c.418.4375.8965.0079,1.0488-.4179-.5195-.0313-1.01759-.0401-1.0488.4179m11.7558.6309c.8887-.2393.4961-.124.209.4199.6231-.0205,1.334-1.0293,1.8907-.4199a1.47721,1.47721,0,0,0-.6289.4199,4.63941,4.63941,0,0,0,3.3574-.4199V19.3145c-1.0664-.253-3.1153,1.29-1.8887.208-.9512.3096-2.3984.1221-2.9395.8408m-7.1367.4199c.8867.1885.2129-1.1865,1.0489-1.0508.0214.2364-.3047.3272,0,.42.0878-.4727,1.1503.0322,1.0507-.6299-1.3007-.1797-2.0254.2158-2.0996,1.2607m1.6778.419c-.30469.1152-1.084-.2451-1.0489.2109a1.18124,1.18124,0,0,1,.8399.209c.3965-.7236,1.0351-1.2061,1.2597-2.0996-.6308.2803-.8085,1.0117-1.0507,1.6797m-28.5508-.8389h.8418a.44929.44929,0,1,0-.8418,0m19.1055-.2109c-.0508.3007-.3458.3554-.42.6308.4414.336,1.541-.0146,1.8887-.4199-.7012.3535-.7168-.1338-1.4687-.2109M49.126,21.6221c-.0136-.127-.0332-.2481-.2109-.209-.2109.6309.46681.3711.8399.4199.0351-.3144-.0743-.7754.20891-.8398.37109.3965.65039-.2871.83989.4199-.3711.0469-1.0508-.2119-.83989.4199.67189.1787.65039-.331,1.05079-.4199-.0137-.6162-.4804-.7793-.83979-1.0498-.47071.3516-1.05081.6348-1.04891,1.2588m14.4844-.4199c.541-.6221,1.18751.165,1.2598-.8389-.5918-.0518-1.7109,1.2012-1.2598.8389m-52.4824,0c-.6035.0302-1.6367-.583-2.0996,0,.4551.1181,1.7187.5019,2.0996,0m53.9512.4199a2.42836,2.42836,0,0,0,1.8906-.4199c-.541-.4346-1.5176.0381-1.8906.4199m-3.3574,1.4697c.0839-.4043.8125-.165.6289-.8398a1.17639,1.17639,0,0,1-.8399-.209c-.2676.248-.0898.793.211,1.0488m-7.3497,0c-.5566-.5908-1.5214.3154-1.6777-.4189-.0039.3467-.582.1162-.6309.4189.6211.582.52541-.0478.4219,1.2608.8047.0351.4512-1.086,1.2578-1.0508-.0351.3388-.705,1.082-.2089,1.2597a2.59141,2.59141,0,0,1,.8378-1.4697m-.4179,1.6797c.8105.041,1.1269-1.2324.209-1.2588.0058.4942-.3614.6172-.209,1.2588m4.1972-1.0498c.39851-.0469.4649.2373.8399.2109.1699-.3906.2734-.8486.6308-1.0507-.8125-.043-.8203.7197-1.4707.8398m-7.5566.2109v1.0489c.61911-.1494,1.4805-.0577,1.6797-.6289-.4805-.3604-.1875-1.4922-1.2598-1.2608.2813.4649.7031.5654-.4199.8408m9.4473.21c.3066-.3936,1.1504-.248,1.04881-1.0508-.82621-.2519-1.46681.7529-1.04881,1.0508m3.9882-.4209c-2.1035.8389,1.1387.6982,1.2598-.4199-.416.6709-.7148.2021-1.2598.4199m-49.7539.2109c.7774.1172,1.6211.6846,2.5196,0-1.08209.0459-1.7539-.8593-2.5196,0m13.2246.8389c.0547-.6133-.4746-.6445-.4179-1.2588h-.6309a.996.996,0,0,1-.209.6299c1.1602-.2656.01371.5156,1.2578.6289m11.54691-1.0498a1.42179,1.42179,0,0,0,1.25979,1.6797c.3125-.4395-.2109-.7891-.2109-1.0488-.9063.791-.0977-.6817-1.04889-.6309m-27.289.4209a1.70218,1.70218,0,0,0-1.25981.6289.21377.21377,0,0,0-.4219,0c.6524.2705,1.377-.207,1.68171,0a.21181.21181,0,0,1,0-.4189c.414.7129.414.205,0-.21m-2.10161.4189c-.1445.5254-.5605-.3896-1.0488-.2089.1523.9716.9726,2.3789,1.6797,2.0986-.5469-.168.5976-.3506.8398-.4199-.0527.4267.7676,1.0185,1.0488.4199-.8222-.3662-1.205-1.1738-2.5195-1.0498.1465-.3701.2324-.6504,0-.8399m55.4219.42a.98124.98124,0,0,1-.209.6298c.5176.2002,2.0879-.0742,2.0996-1.0498-.5234.0235-.6504.3936-1.0508,0a.4962.4962,0,0,1-.8398.42m-2.3086.6298c.791.0918.9551-.4433,1.2597-.8398a1.48125,1.48125,0,0,0-1.2597.8398m-9.4473.42c.0625-.4278.5684-.4112.6309-.8399a1.17531,1.17531,0,0,1-.8399-.2099c-.2871.2675-.3242,1.0283.209,1.0498m14.2754.6299c.7109-.0674,2.2383-.4073,1.6797-1.0499-.3184.5918-1.2813.5401-1.6797,1.0499m-50.5937.2099a.99543.99543,0,0,0-.209-.6299c.1621-.0468.414-.0049.41991-.2099a1.48647,1.48647,0,0,0-1.47071,0c.4414.2588.8183.581,1.2598.8398m31.4902.21a.86218.86218,0,0,0-.4199-1.2598c-.3985.3945-.02539,1.0918.4199,1.2598m15.9551-.4199c.5898.083.8945-.9551.8398.2099.6621-.0381,1.252-.1465,1.25981-.8398-.91991-.0108-1.96681-.1465-2.09961.6299m-44.9258.6298c-.0567-.7226-1.4473-1.2011-1.8887-.8398.7813.126,1.0293.79,1.8887.8398m33.7988.419c-.5137-.4151,1.0293-.2822.8399-1.4688-1.1622-.4111-1.6289,1.8438-.8399,1.4688m6.0879-1.0488c-.4336.125-1.3789-.2598-1.4687.2099.625-.0566,1.2773.5879,1.4687-.2099m10.916,1.2587c.6172-.0127.7813-.4794,1.0508-.8388-.5547-.6045-1.6758.2627-1.0508.8388m-6.2969.4209c.1153-.3691.8125.4278,1.2598.42.0332-.2481-.0371-.5967.2109-.6299.0645.2842.29691.4013.2071.8408a1.48985,1.48985,0,0,0,1.2617-.8408c-1.0664-.501-2.8047-.7051-2.9395.2099m-51.0136-.2099c.3574.0859-.0449.2705,0,.6299.7363-.3809,1.1738.624,1.8886-.21-.9199-.292,1.3418-.1279.42-.4199-1.0528-.1904-1.56839-.7422-2.3086,0m46.8164.2099c.791-.2255,1.1269-.1093,1.25781-.6308-.69531.2148-.91021-.1192-1.25781.6308m13.6426,1.2598c.69921.2578.5156-1.4199.2109-1.4697.1035.6621-.3789.7412-.2109,1.4697m-48.4922-.4209c-.3262-.0537-.1465-.46,0-.6289-.3985.0459-.4629-.2363-.8399-.21-.01169.4493.48831,1.4434.8399.8389m44.2949,0c.709.0947,1.7344-.5684.8398-.8389-.0664.4932-.9941.1241-.8398.8389m-6.9277.6299c1.041.0244,1.03121-.2051,1.8886,0a.99468.99468,0,0,1,.211-.6299c-.4922.0674-.7871.332-1.4707.21.0019-.1153-.168-.2373-.209,0,.9199.292-1.3399.1279-.4199.4199m4.40821.4209c.07809-.6377-.68361-.4365-1.05081-.6299-.0293.5899.5156.6055,1.05081.6299m-8.39651,0c-.375,0-1.2227-.5654-1.4707,0,.1777.1963,1.3379.4482,1.4707,0m3.5683.4199a5.91889,5.91889,0,0,0,1.8907.6289c.2304-.9414-1.4649-1.041-1.8907-.6289m2.7286.8389c.2695-.3604,1-.2598,1.0488-.8389-1.6153-.0918-.9707-1.0674-2.7285-.4199.9765-.1006,1.1054.5264,1.6797,1.2588m9.2382.8408c.4668-.7236.9453-1.4336,1.4688-2.0996-1.0528.0019-1.5742,1.6367-1.4688,2.0996m-19.3144-1.2607c-.6738.1845-.2871-.6924-.8399-.6299-.0117.1289-.0312.248-.2089.2109v.419c.3945-.0704,1.5292.4863,1.0488,0m17.21481.6308c-.64841-.2754-1.19141.5938-.62891.8389-.0625-.5518.8125-.1651.62891-.8389M71.169,34.2188c.5508-.4346,1.8223-1.2481,1.0488-2.3096-.4687.5801-1.3183.7813-1.6796,1.4697.8281.1875,1.1425-1.2217,1.6796-.6299-.1855.5254-1.3613,1.1436-1.0488,1.4698m.62891-3.5684c-.68751-.3418-.80271.0469-1.67971,0,.0879.8311-1.0781,1.1709-1.2597,2.3086h.8398c.3809-.4482.1895-1.1435.4199-1.2588.2852.0654.4004.2979.8399.209.3262-.7461-.7129-.126-.6309-.6299.211.001.252-.1689.4219-.2099.043.2353.2324.3271.4199.4199-.0273-.5254-.4023-.6572.209-.8389a.21266.21266,0,0,0,.41991,0m-11.12691.209c.5312.9141.9765.7139,1.4707,1.4707.0019-.3486.582-.1172.6289-.4209-.7774-.2109-1.0332-1.7969-2.0996-1.0498m12.8047,1.6797c-.0625-.835.4863-1.0547.4218-1.8887-1.2754-.1709-1.6953,1.7783-.4218,1.8887m-22.461-1.0498a1.60271,1.60271,0,0,0,2.5196.8408c-.5918-.6895-1.6915-2.2031-2.5196-.8408m13.8555.8408c.3965-.0479.4629.2354.8379.209a1.00617,1.00617,0,0,1,.2109-.6299c-.5215-.0312-1.0176-.0391-1.0488.4209m9.2363,1.4697c.0508-.3945.3457.1182.4199-.2109-.6269-.2481.7676-.1817.42-.8399-.5899-.0839-1.1836.8936-.8399,1.0508m.8399-1.8906c-.711.1377-1.6739,1.1152-1.2598,1.6797.2676-.7129,1.1641-.794,1.2598-1.6797M8.60845,33.7998c1.205-.4052,2.5976.2403,3.3593-1.0508-1.2617-.4726-2.5664.4004-3.3593,1.0508m47.02541-.4209c.08389-.4052.96089-.0185.62889-.8398-.6465-.2744-1.1914.5957-.62889.8398m1.04879-.2099c.5254.0351.65821-.3223.8398-.6299-.3047.1152-1.0859-.2451-1.0507.2099.166.0469.246.1758.2109.42m3.9883.4199c.5371-.0234.7363-.3848,1.0508-.6299-.127-.0117-.25-.0322-.211-.21.16211-.0468.41411-.0068.4199-.2099a1.04131,1.04131,0,0,0-1.2597,1.0498m2.7304.2109c.5743,0,1.2364-.9843.8379-1.2607-.4687.4219-.2617.6865-.8379,1.2607m-5.6699-.4209c-.7461-.0478-1.2578.1416-1.4687.6289.6132.5108.7246-.8291,1.8886-.4189-.0468-.3721.211-1.0518-.4199-.8399Zm19.1035.6289c.2696.5264-.1054.6582.211.8409a.8635.8635,0,0,1,1.2597-.42c-.0586-.6113.0508-.7216.42-.4209-.0313-.2783.707-.7802.2089-.8388-.7285.3193-1.1543,1.3437-2.0996.8388m3.5703.6309c.709.2705,1.1114-.8213.629-1.0498.0351.5937-.6309.4892-.629,1.0498m-8.81639,0c.28319.0664.40039.2988.83789.21-.2715-.5215.6172-.8711,0-1.0489-.25389.3037-.83789.2803-.83789.8389m4.82819-.21c-.20119.3057-1.3985.6807-.8399,1.0489.3125-.5157.875-.4561,1.0488-.6289-.1289-.0127-.248-.0313-.2089-.21.1152,0,.2382-.1699,0-.21m-52.6934,1.4698c.2109-.419.9277-.3321.8379-1.0498-.459.0449-1.22269.8525-.8379,1.0498m37.1563.2089c.6386.0782.4375-.6836.6308-1.0488-.3965.0469-.46289-.2353-.8398-.2099-.1524.6416.3613.6171.209,1.2587M9.23735,37.3672c.14451-.6572.56051-.2734,1.0508-.21.7304-.5371.3359-1.5224,1.25971-1.4697-.34571-1.4033-2.71681,1.0098-2.31051,1.6797m14.2754-1.0488a1.25476,1.25476,0,0,0,1.6797-.4199c-.3262-.0547-.14459-.461,0-.6299a17.72981,17.72981,0,0,0-1.6797,1.0498m-14.6953-.6309a.98455.98455,0,0,1-.209.6309,2.636,2.636,0,0,0,1.4687-.8408c-.6426-.1504-.6172.3623-1.2597.2099m-1.4688.8408c.3516-.3505,1.0098-.3896,1.2598-.8408-.7969-.2226-1.59959.6211-1.2598.8408m4.6191,0c-.625.2559-2.2734,1.1133-1.0507,1.8897-.3321-1.2822,1.5976-.2285,1.6797-1.8897-.4571.0372-.668-.1728-.629-.6298-.5253-.0362-.6582.3222-.8398.6298.3906.2012.7012-.6298.8398,0m69.2754,1.0489c1.0039.0947,1.18171-.6377,1.68171-1.0489-.74421-.0234.44529-.6943-.211-.6298-.52541.5224-.90621,1.1933-1.47071,1.6787m-3.5664.4199c.5899.084,1.1817-.8926.8379-1.0488-.1972.4316-.8262.4336-.8379,1.0488m-67.5996.6309c-.5234-.0372-.6562.3222-.8398.6289.3222.2607,1.4804.0839,1.2617-.8389-.3633.082-.541-.3125-.6309,0,.127.0107.2481.0303.209.21m48.7051.8388c.60161.2285,1.5625-.2246.8398-.6299-.0546.3272-.4609.1465-.6308,0a.98346.98346,0,0,1-.209.6299m1.8887,0c.12891.0117.248.0322.209.21-3.0059,1.4023.8906.2187-.209-.21m-51.0137.8399v.6298c1.1602.1163.4609-1.4931.6309-.8408-.0352.2461-.3321.2295-.6309.211m70.5371.2099v.6309h.8399c-.2403-.6612.33-.5117.4199-.8408-.916-.1036-.44729.6474-1.2598.2099m1.4688,1.4697c-.4414-.2792-1.1622-.6787-1.2579.209.5918.1748.545-.2959,1.0489-.209,0,.1163.1699.2383.209,0M19.10455,44.086c.8066.0976,1.9414-.5655,1.4707-1.0498-.1973.6425-1.1641.5156-1.4707,1.0498m-.42-.6309c.5411.1016,1.8731-.0596,1.2598-.4189-.1484.5332-1.1992-.5079-1.2598.4189m-11.3359.4199c.3828.3867,1.1777.1113,1.4688-.2099a1.24115,1.24115,0,0,0-1.4688.2099m42.82621.6309c.10739-.0069,1.375-.4678.41989-.8408.2109.6328-1.1191.1074-.41989.8408m18.47259,0c.5645-.3057,1.3692.0791,1.8907-.6309-.9122-.2002-2.2207.2852-1.8907.6309m4.1993.2099c-1.3125.0313-1.17189,1.0889-1.6778,1.4698a6.99553,6.99553,0,0,0,2.5176-.211c.166-.8633-1.0039-.3945-.8398-1.2588m-1.04889-.4209c-.72851-.1679-.80661.3135-1.47071.211.2363,1.1445-.875.9433-1.2578,1.4687a2.00085,2.00085,0,0,0,2.72851-1.6797m-56.89261.6309c-.1835.6729.545.4346.6309.8389-.3945.0508.1191.3457-.2109.4209-.3067-.1836-.666-.3155-.6289-.8409a4.22449,4.22449,0,0,0-2.7286.21c1.0059.3389.83211,1.668,2.0977,1.0498-.5234-.2666-.6562.1074-.8398-.2099a1.738,1.738,0,0,0,.8398-.8399c.3477.5283,1.4141,1.2256,1.8906.4199-.164-.0468-.414-.0058-.4199-.2099.2773-.002.1914-.3682.4199-.42a1.06083,1.06083,0,0,0,.6289.6299c.1914-.2002,1.4493-.9531.83991-.6299-1.11141.4688-1.65431-.6074-2.30861-.2099.0019-.2764.3672-.1914.4199-.419a.97767.97767,0,0,0-.6309.21m44.7168,1.0488c-.1211-.3691.252-1.2334-.2109-1.2588-.0566.7354-.9297-.3789-.8379.21.6602.0381.26761,1.1299,1.0488,1.0488m8.8164-.4199a1.75645,1.75645,0,0,0,1.4708-.8389c-.4336.335-1.3458.1944-1.4708.8389m7.5586.21c.4336-.5625-.0019-.9971-.6308-.6299-.0469-.1631-.0039-.4141-.209-.419.0137.6153.4785.7793.8398,1.0489m-31.49019-.6299c-.623.1582-1.81051,1.7432-.63091,1.2598-.3789-.7129.6856-.6065,1.2598-.8399-.2988-.0508-.3535-.3457-.62889-.4199M77.046,46.6045c.6894-.3545.9258.1123,1.4687.4199-.3515-.6269-.6562-1.3007-1.4687-1.4697.2168.6856.5312.4453,0,1.0498m-67.3887-.4189c.7852.083,1.2324-.168,1.2598-.8409a1.48208,1.48208,0,0,0-1.2598.8409m69.6992,0c.0449.1621.0039.4131.209.4189-.0918-.7549-1.2539-1.5342-1.8887-1.0498.6875.2744.9903,1.5254,1.6797.6309m-21.414.209c-.26759-.2862-1.0293-.3243-1.0508.2099.5566-.0029,1.2363.1162,1.2597-.4189-.3847.0097-.7109-1.0762-1.0488-.4209.27931.2109.78131.1982.8399.6299m-10.4961.4199c.0507-.2998.3457-.3545.4199-.6289-.2578-.0244-.4981-.0635-.4199-.4209h-.8418c.08,1.0205.4902.4902.8418,1.0498m1.2578-.21a.2137.2137,0,0,1,.4218,0c-.6093-.1123.3223.8174.209.21-.7812-.291.6172-.0313.42-.4199a.92238.92238,0,0,1-.8399-.42c.6426-.1523.6172.3633,1.25981.211.03119-1.003-2.47071-.211-1.47071.4189m22.88471.21c.545.2099,1.40429.3691,1.67779-.21-.334-.3096-1.2813-.0469-1.67779.21M56.05175,47.8643c.78911.1562,1.0254-.2354,1.0508-.8399-.4433-.4179-1.3008-.0664-1.0508.8399m13.0176-.8399c.5781.1221.877.5225,1.4688.6299-.0352-.2842,1.0683-.4199.4199-.6299,0,.3213-1.45119-.7607-1.8887,0m7.1367.21c-.5801-.1035-1.6816-.7676-.8398,0-.65239-.2959-1.4512.3008-1.0488-.4199a1.71539,1.71539,0,0,0-1.2598.4199c.9199-.1523-.168.417.418.4199.0293-.4629.8925-.0888,1.2617-.2099-.0117.2685-.2696.29-.211.6308.6426.1514.7657-.2158,1.2598-.2109.2246.1963.0664.7734.6309.6289-.0254-.8135-1.0391-.6406-1.4707-1.0488.5234-.4043.8632.3203,1.2597-.21m-11.1269.21c-.002-.2754-.5821-.2676-.6289,0a1.46857,1.46857,0,0,1,.6289.4199c-.127.0117-.2481.0312-.209.2109.8594.2285.5371-.7236,1.0488-.8408-.1269-.0117-.248-.0313-.2109-.21H65.29c-.0469.1641-.0058.4151-.2109.42m-7.1367,1.4697c.998-.1514.3476-.8604.4199-1.6797-.6426-.001-1.4434.9209-.8399,1.4697a3.55223,3.55223,0,0,1,.8399-.6289c.1523.5713-.418.4219-.4199.8389m12.8066-1.0498c.4102.7051,2.0117.9804,2.0977-.21-.8165-.3857-1.5176-.5127-2.0977.21m5.8769-.4199c-.1054.8271,1.461.3828,1.2598-.21h-.41989c-.127.0117-.25.0322-.209.21.52739.3925-.34961.0234-.63091,0M40.72755,49.124c.1016-.374.2246.0918.4199.21.0371-.6621,1.1309-.2695,1.0489-1.0498-.5137.127-1.918.4443-1.4688.8398m10.916-.4199c.0039-.2773.3692-.1924.4199-.4199-.39059.0117-.4433-.1621-.2089-.4199-.875.1054-.9258-.6133-1.89069-.4199-.18751.7334.68559.3584.83989.2099.0469.582.666.5938.8398,1.0498m-6.2968-.4199c-.4942.0049-.6192-.3613-1.2598-.209v.6289h.41991c.02149-.6562.27149.0674.83989-.4199m4.82811.4199a1.17682,1.17682,0,0,1-.83991-.2109c.00391.3144-.7793.8594-.209,1.0508.0274-1.1934.8516.9316,1.04891.209-.334-.3389-.08211-.6641,0-1.0489m.62889.8399c.0254-.2569.0625-.4971.4219-.42.0644-.9843-.9707-.5625-1.05079,0,.29879.0498.35349.3457.62889.42m15.95511.8388c.83589.4619,1.15229-.4082,1.88859-.6298-.1191-.5792-.2207-1.1768-1.0488-1.0489.6309.8906-1.2539,1.0635-1.25979,1.2588.25789.0244.49809.0635.42.4199m.63079-1.6787c-.4785-.0595-.789.0508-.83979.4199.27729.002.19139.3672.41989.42.002-.418.5723-.2666.4199-.8399m-24.1426.6299c.01181-.1279.0313-.249.209-.21-.1836.4327.5449.9434.6309.42-.2442-.0362-.2285-.3321-.211-.6299-.4277-.1797-1.3027.1836-.6289.4199m-.8398,1.0488c-.127-.0107-.248-.0312-.2109-.209.2773-.0029.26951-.583,0-.6298-.086.3574-.2696-.045-.6289,0-.0469.1631-.0059.414-.209.4189.0156-.3262-.6114-.1445-.211,0,.8457-.1689.6328.6611,1.2598.4199m27.502.8409a2.76745,2.76745,0,0,0-.8399-1.6797c.2012.6386.2461,1.4316.8399,1.6797m-23.3047-.42c-.3828-1.2968-.4922-.5478-1.2578-1.0507.1523.6162.791.749,1.2578,1.0507m3.9902.42c.6836-.0957,2.20311-.4444,1.4687-1.2608a11.67416,11.67416,0,0,0-1.4687,1.2608m-21.832-.42c.6699-.0517,1.66211-.4521.8379.21.4121.6152,1.6914-.2461,1.0488-.6309-.18359.7022-.6641.2217-.207-.209a1.9964,1.9964,0,0,0-1.6797.6299m38.416.42a9.0737,9.0737,0,0,0,2.0996.4189c-.1836-1.0078-.4883-.9414-.8399-1.4688-.371.3975-.88859.6504-1.2597,1.0499m-27.082.2089c.496-.0039.61911.3614,1.2617.21.416-.5684-.5664-1.1445-1.2617-1.2598Zm-19.9415.8409c.7989.4248,1.209-.3536,1.2598-1.2598-.7324.1094-.9687.71-1.2598,1.2598m10.9161-.4209c.47851.0586.789-.0498.8398-.42-.3008-.0498-.3555-.3457-.6309-.4189-.06639.2832-.2988.4004-.2089.8389m20.3632-.42c.5059.7246.3829,1.2666.8399,1.6797.02341-.2558.0625-.498.4199-.4189-.64449-.8789-.3926-.4502-.209-1.6797-.5234-.0322-.6504.3301-1.0508.4189m-5.4589,0c-.4375-.1123-.7891-.3671-1.0489.21.16411.0469.2442.1758.209.4199.3613-.082.53911.3125.6309,0-.2285-.0498-.5039-.3447-.211-.4199.0508.3223.3457.0312.42-.21m10.0761.42c.211-.001.25.1699.42.2099-.0743-1.2402-1.1622-.1513-.83789.8399.998.2558.81049-.8047,1.25779,0,.0664-.2832.2988-.4004.2109-.8399-.5273-.0429-1.125,1.0244-1.0508-.2099m-11.125.6298c-.6093.1036-1.209-.8691-1.4707-.4199.5625.2451.9297,1.2998,1.4707.4199m-13.4355,1.2598c-.0918.5801.7832.1973.8398.6309-.8125.2314-.748-.7432-1.2597-.211.1054,1.0147,1.0918,1.1475,1.8886,1.4698-.37109.0478-1.0507-.211-.8398.4189,3.5234.1982.7285-4.2432-.6289-2.3086m11.5449.2109c.59771-.1777-.1504-1.5126-.6289-1.8906-.10739,1.0655.64261,1.503.6289,1.8906m28.97071-.4209c.45509.6807-.02541.3916-.209.6299.26759.5362,1.02739-.1943,1.04889.211-.1153-.002-.2364.1689,0,.208.0039-.3457.5839-.1172.6289-.419-1.0157-.4179-2.795-2.1972-3.1485-1.8886-.0195.622.5449,1.8584,1.67971,1.2587M9.65725,55.002a1.361,1.361,0,0,0-1.0488-.21,1.00777,1.00777,0,0,1-.209.6299.9157.9157,0,0,1,.8379.4209c-.416.3486-.2676-.0205-.8379,0-.0567.6133.4726.6435.418,1.2588.39641.0459.4628-.2363.8398-.21.2734-.5215-.6152-.8711,0-1.0488.4785.4336,1.5723.5322,1.6797-.4209-.1758-.4522-1.3379.0781-1.4688-.4199a2.238,2.238,0,0,1,1.67971,0c-.94331-1.5655,2.38279-.1299,2.09769-1.6797a1.70631,1.70631,0,0,0-1.2578.6308c.4179-.9433-.8731-1.3339-1.8887-1.4707.0879.7188-.6289.6309-.8418,1.0498.1875.0616.9199.5674.4199.6299-.4844.0635-.2324-.6054-.6289-.6299-.291.129-.0332.8086-.4199.8409-.0332-.2481.0351-.5967-.2109-.6309-.2559.957.7382.6641.8398,1.2598m.8418-2.7285c-.78519-.084-1.2344.167-1.2617.8388.5078.4473.9297-.4677,1.2617-.8388m16.584.2089c-.125.67.3926.6504,0,1.0498.54881-.1503.7129-.6845,1.2597-.8388-.3125-.1094-.5312-.3115-.8418-.4199.3106.8183-.0488.6689-.4179.2089m19.5215.6299c-.1289-.291-.80669-.0312-.8379-.4189.4297.2392,1-.3301.4199-.4199.1484.5693-.9902-.1514-.8398.4199.5078.374.9277.8193,1.2578.4189m-24.9805,0c.5371.2266.7344-.9033,1.05081-.2099a.58011.58011,0,0,0-.63091.4199c.5723.1533.42191-.416.83991-.4199.04679.1631.00579.4131.20889.4199.0469-.3965-.2363-.4639-.20889-.8399a1.20155,1.20155,0,0,0-1.25981.6299m8.1875.8408c.98831.21,1.8496-.7978,1.2598-1.4707-.4922.418-1.375.4444-1.2598,1.4707m11.7559-.4209a.7837.7837,0,0,1-1.0508,0c-.25979.6797.6797.1612.4199.8409.4902-.3155.9062.0703,1.0508-.211-.3399.1514-.3399-.9902,0-.8398,0,.1162.1699.2383.209,0-.3711-.2568-1.10549-.1524-1.2598-.6289-.002.2763-.3672.1904-.4199.4189a1.02812,1.02812,0,0,1,1.0508.4199m20.1543-.4199c-.5235.0323-.6504-.3301-1.0508-.4189-.1582.9131.8183.956,1.0508.4189M18.89355,55.002c.1699-.7412,1.1074-.7129,1.0508-1.6797h-.8398c-.0762.4297-.7012,1.376-.211,1.6797m3.1504,3.1484c-.0664-.4922-.6504-.4687-.8398-.8389,1.0195.6524,1.1933-.8349.6289-.4199.1289.0108.248.0313.2109.21a.86075.86075,0,0,0-1.2578.4199c.5215.3887.0098.3848-.4219.209.6192,1.0039,2.0703,2.0566,3.1485.8408-.6582-.3506-.8575.7793-1.04889.209.76369-.1309-.56641-1.0606.42-.8389.06249-.4131-.28321-.417-.42-.6299.11719,0,.23829-.1699,0-.2099-.36321.1269.01569.9951-.41991,1.0488m-1.8887-1.6787c.0879-.5957-1.5078-.5684-.6308-1.2598.1523.6172.6543.8858,1.4707.8389-.0996-.9014.5644-.2676.6289-.6289-.2578-.3721-.40819-.8506-.8379-1.0488h.6289c-.4746-2.4883-1.8086.7793-2.7305,1.0488.6446.2061-.2421.5596-.2089.8389a1.48661,1.48661,0,0,1,.6289.4199.57321.57321,0,0,1-.6289.4209c.11321.666.9824,1.665,1.6796,1.0488-.3632-.5107,1.0352-1.0566,1.0489-1.8896.2226.0088.5332-.0977.2109-.21-.61719-.0537-.6465.4756-1.2598.4209m49.1231-1.8906c1.4258.1845.89651,2.3242,2.72851,2.0996-.31641-.9082-1.34571-3.6279-2.72851-2.0996m-47.4453.6308c1.1582.1914.8301-.8798,0-.8388Zm7.1387-.6308a1.94872,1.94872,0,0,0,.8398,1.2617c.0039-.7051,0-1.4004-.8398-1.2617m.8398,1.8906c.0547-.2959.4609-.2393.6309-.4209a2.11552,2.11552,0,0,0-.4219-1.6777,2.11242,2.11242,0,0,0,.2109,1.6777c-.43159-.2402-1.0019.3311-.4199.4209m9.6562-1.2598c.0118-.2685.2696-.29.211-.6308-1.2305.2822.0195,1.5957.8379,1.6797.0566-1.1358,1.4394.6679,1.8906-.21-.291-.1621-1.9453-.0625-1.2598-1.0488-.5215.0312-1.0175.039-1.0507-.4209.166-.0459.416-.0039.4199-.208-.9043-.2754-.25979.999-1.0489.8388m.42,1.2598c.9804.3574-.3907.4902-.42,1.0498.4727.3662,1.5723.1065,1.8907.6289-.7832.0176-.6797.3145-1.0508-.209a2.57494,2.57494,0,0,1-.4199,1.8887c.3613.083.539-.3115.6289,0-.5606-.0615.5586.8154-.4199.6309.5136-.5098-.50789-.5567-1.04889-.6309.11139,1.1533,2.24609,1.3867,2.93949,1.2598a9.45577,9.45577,0,0,1-1.0508-.8399c-.0449-.5049,1.5137.042,1.4707,1.2598.9941.0781,2.8867-.044,2.3105-.8389-.25.5196-.9101.377-1.2617,0a1.179,1.179,0,0,1,.84181.209c-.26951-.9219-1.68551-.6963-1.89061-1.6787.2832.0654.4004.2988.8398.209.00981-.6387-.4433-.8155-.6308-1.2598.7832.0176.6777.3145,1.0508-.209.0625.1289.5214.8076,0,.8389,0-.1162-.17-.2373-.211,0,.418.3496.2676-.0176.84181,0,.01759-1.3467-1.11911-2.249-2.73041-1.6787-.18359.6738.6933.2871.6289.8398-.3731-.1162-.8711-.1093-1.0489-.4199-.1523-.5732.418-.4238.42-.8408-.6602.2412-.5098-.3291-.8399-.4199-.0234.6484-1.4609-.3897-.8398.2109m4.1992-.2109a.21266.21266,0,0,1,.41991,0c-.19531.2246-.77541.0664-.63091.6308a8.125,8.125,0,0,0,2.7286-.2109c.0254-1.0244-1.2676-1.0557-.6289-2.0996-.8926-.6035-2.1602,1.1386-1.8887,1.6797m28.9707,0c.0449-.253.2324-.128.418,0,.1425-1.4707-1.46879-1.1895-2.0977-1.8877.1387.7011.6523,1.0263.8398,1.6777.3907.2012.7012-.6279.8399,0-.1172-.001-.2383.1709,0,.21M65.29,55.002c-.4394-.1211-.5996-.5196-1.2598-.4209-.14639.5869,1.045.8896,1.2598.4209m-49.5449.6299c.6406.0087,1.3828.1211,1.2598-.6299a.79075.79075,0,0,0-1.2598.6299m-1.0488,1.2597c.2597-.3808.9843-1.3789.6289-1.6797-.4961.2334-1.6739,1.1973-.6289,1.6797m8.6074-.6308c-.5352.3603-.7344-.2393-1.0488.2109.25391.0234.496.0635.41991.4199a.75725.75725,0,0,0,.62889-1.2597c.3418.0625.5664-.2832.209-.42-.1836.3711-.666.6133-.209,1.0489m8.6074-.418c-.3262-.2354-.4375-.6836-1.0508-.6309a1.35834,1.35834,0,0,1-.2109,1.0489c.4023.0908.5293.4531,1.0508.4199.1797-.4893-.73439-.9033-.209-1.0488.0488.2285.3457.5029.4199.2109m19.1035.208c.6758-.0449.8887.373,1.6797.21a1.37107,1.37107,0,0,0-.209-1.0489c-.5273.2686-.6582-.1074-.8418.21.6914.3115-.623.3271-.6289.6289m2.0996,0c.5938-.0361,1.4395.1816,1.4688-.4189-.6524.0214-.5996-.6602-1.4688-.42Zm16.1641,0c.125-.6299-.8867-1.1904-1.2598-.6289.6407-.0088.8164.4424,1.2598.6289m-35.0586.21c-.25589.0244-.498.0634-.41989.4199.47849.0596.789-.0498.83979-.4199-.3476-.002-.1172-.5821-.4199-.6289-.082.2988-.252.3544,0,.6289m29.1816.2109c-.2949-.8564-1.8574-1.251-2.31049-.2109.78509-.2237.59959.5224,1.25979.4199.0878-1.0078.0761.251.6289,0,.0488-.1621.0078-.4131.2109-.4199-.0098.2246.0996.5332.2109.2109m1.6778.4199c-.3731.125-.8711-.6152-1.0489,0,.5352.0235.4161.7022.42,1.2588-.8086-.2324-1.7403.4805-1.2598.8408.7637-.6445.3047-.4638,1.8887-.4199.9121-1.5683.0605-3.0976-1.8887-2.7285.3301.6494,1.7051.2549,1.8887,1.0488m.6289,1.6797c-1.3164.6045-4.2461.0625-5.0371,1.8897,1.0527-.418,3.08.1416,3.5683-.8409-.7168-.0742-1.73039.6319-2.0976.21,1.1601-.8789,3.1406.3525,3.5664-1.2588m1.8906-1.2598c.1016-.5517,1.3965.5245,1.6797-.2099-.5566-.6367-1.6387-1.8545-2.72849-1.2588.57419.0508-.46881,1.957.209,1.4687.03509-.3154-.07431-.7744.21089-.8398.457.5332.582.2227.6289.8398m-44.5059.6299c.8672.1006-.2812-.6445.8418-.4199.0801-.3613-.3125-.5381,0-.6299.4727.544.4571-.6601,1.0489,0,.1093-.3105.3105-.5293.4199-.8408-.7012.3545-.7168-.1318-1.4688-.208-.0312.9492-.8613,1.0986-.8418,2.0986m-10.0761-1.8906a2.77915,2.77915,0,0,0-2.0996,1.0508c.2793-.0322.63281.8535.84181.2099-.23641-.0449-.32821-.2334-.42191-.4199a3.72184,3.72184,0,0,0,1.6797-.8408m5.6679,2.3105c.0567-.6855-.8144-.4453-.8398-1.0498.0742-.2363,1.0352-.6035.4199-.8398a1.88781,1.88781,0,0,1-.83979.8398c-.418-.0029-.26561-.5732-.83991-.4199-.36909.4326-.6504.1836-.8398.4199a4.7359,4.7359,0,0,0,2.9394,1.0498m-1.0488-2.3105c-.2441.3164-.7383.8848,0,1.0508.12111-.1279.4902-.9961,0-1.0508m32.74811.4209c-.16211-.0459-.24221-.1768-.209-.4209-.73641-.248-1.46881,1.2803-1.04891.8408.2676-.666,1.0157-.0156,1.25791-.4199m11.96679,1.6787c.9824-.0351.69721-.54,1.6796-.209.0625-.4131-.2832-.417-.4199-.6299.1621-.0468.4141-.0058.4199-.2099-1.9218.3017-4.0918-.5899-5.6679.2099.9043,1.5157,3.5801.0254,3.9883.8389m-33.3789,0c.1152-1.0371.1074.2188.4199.2109.4218-.4287-.09379-.4121-.211-.8398.3926-.2012.70121.6289.8399,0-.2774-.0029-.1914-.3682-.4199-.4199.0644.6562-.6055-.5332-.6289.2099.455-.1445-.711,1.3448,0,.8389m1.6777,0c.4668-.4853.1875-.5615.4219-1.0488h-.8399c-.1523.5722.416.4228.418.8398-.1152-.0009-.2363.169,0,.209m1.8906-.209c.6152.543,1.0332-.5439,1.46881,0-.002.2774-.36721.1914-.418.4199.70119-.0156,1.38669,1.3047,1.88869.21-.3985-.0937-1.26369.2852-1.0508-.4209a1.36431,1.36431,0,0,1,1.0508.2109c-.1368-.6347-.3282-1.2128-1.0508-1.2597-.4414.4658-1.7285.0918-1.8887.8398m-6.7168-.2109c.6113-.0518.7227.3955,1.0488.6308.1133-.7285-.8418-1.4619-1.0488-.6308m2.5195.8408c-.1425-.7842.58011-1.2324-.4218-1.2598a1.71831,1.71831,0,0,0,.4218,1.2598m23.0918-.6299c.4317.4356,1.0645-.0009,1.0508-.6299-.4902.0704-.9062.2149-1.0508.6299m2.0997-.6299a.75567.75567,0,0,0,.6289,1.0498c.0019-.2285,1.01171-.9414.4199-.8398-.127.5039-.32419-.625-1.0488-.21M11.75886,60.6709c1.43159-.2617,1.68159-2.1113,1.04879-3.1494-.04879,1.3506-.7051,2.0957-1.04879,3.1494M49.546,58.5713h.62891c.06249-.4131-.28321-.416-.41991-.6299.12891-.0127.248-.0312.20891-.2109-.77731.0273-.52731.3066-.41791.8408m16.584.209a1.36221,1.36221,0,0,0,.20891-1.0498h-.63081a1.02868,1.02868,0,0,0,.4219,1.0498m-26.2422.2109c-.0235-.5361-.0391-1.08-.62889-1.0498.00579.5537-.19731,1.3145.62889,1.0498m27.9218-.6299c.2266.5362-.9043.7344-.2109,1.0489a.92421.92421,0,0,1,.8398-.419c.0391-.459-.1718-.6679-.6289-.6299m1.2598-.4199h-.8398a.4484.4484,0,1,0,.8398,0m-36.9492.4199a.579.579,0,0,0,.4199.6299c-.1484-.5703.9902.1494.8399-.4199-.6387.0586-.8165-.6738-1.2598-.21m16.375.21c.6641-.1035.0781,1.041.8398.8389a1.7179,1.7179,0,0,0-.4199-1.2598c-.0019.2774-.3691.1924-.4199.4209m11.5469.4199c.2851-.6924,2.0332.3565,1.6797-.8408-.6446.6289-2.7872-.1367-3.1485.2109.7793-.08.5469.8506,1.4688.6299m-15.3243.21c.8067.1826,1.3887.1562,1.4688-.8399-.7754-.0058-1.4473.0928-1.4688.8399m-19.5253.209c-.002.2773-.3692.1924-.42.4199a2.12122,2.12122,0,0,0,1.6797-.4199c-.6816.2422-1.291-.6416-1.6797,0Zm31.9101,1.0508c.75-.0215,1.4414-.0987,1.6797-.6309-.4121.0635-.418-.2822-.6309-.4199.086.7568-.3828.289-.2089-.209-.3145.0351-.7754-.0752-.8399.209.23631.0449.3262.2334.4199.4199-.209,0-.25.1699-.4199.21.1875-.7334-.6855-.3594-.8398-.21-.0352.5254.3242.6572.6289.8408.2793-.5273-.9766-.5107-.209-.8408.2949.0557.2383.4609.4199.6309m-30.0195-.8409c.709,1.1045-.0469.1739,0,1.4698.6601-.2354.4746-.0196,1.2597,0-.666-.7364.7383-1.0186,0-1.6797.0743.8906-.9101.1845-1.2597.2099m7.9765.6299c.4571-.9443-1.9394-.8086-1.25969-.6299.42769.2012.83009.4297,1.25969.6299m12.3868.211c.4668-.1641,1.1386-.1221,1.2578-.6309-.1309-.1162-.6328-.8525-.8379-.21,1.207.251-.5117.3965-.4199.8409m6.9257-.211c.0645-.5537-.289-.6885-.8378-.6299-.0645.5537.289.6895.8378.6299m-7.1367,1.2598c.8418-.0068,2.25-.5391,1.6797-1.2598-.3379.6436-1.9609-.0019-1.6797,1.2598m14.0664-.6299c-.6621-.0996-.8222.2998-1.2597.4199-.086-.6836-.9981-.541-1.4688-.8388.2578.6787-.6816.1591-.4219.8388a2.63182,2.63182,0,0,0,3.1504-.4199m-21.834,1.2598c-.33-.0196-.164-.5362-.6308-.42.2558.375.039,1.2217.42191,1.4698.19919-1.1963,1.56049-.7451,1.88859-1.8897-1.0527.6963-1.334-.624-1.88859-.2099.22259.0879.48629,1.1513.20889,1.0498m2.0997-.21c.248-.0332.5957.0361.6289-.21-.9786-.3007-1.7207.9434-2.5176,1.4698.6836.1543.6308,1.0478.8379,1.6787a1.11093,1.11093,0,0,1,1.6797.8398c.207-1.1592,1.97651-.5361,2.10151.21a3.27781,3.27781,0,0,1,0-1.8897c-.30661-.1142-1.08591.2452-1.05081-.2089.752.1718,1.043-.4473.6289-.8399.9043-.3457,1.1856-.3105,1.6797-1.2598-.9316.1172-1.1406.9571-2.0996,1.0489-.0468.3974.2364.4648.211.8408-.7871-.4453-1.8145,1.5469-2.7305.4189.4941-.0654.7891-.331,1.4707-.2089.76561-.7823-.06839-1.5176-.8398-1.8897m3.5683.6299c.1289.0127.24811.0312.211.209-.6172.0156-.7793.4804-1.04889.8408.58009.8281,1.79489-1.6582.83789-1.0498m-.62889-.8399c-1.02541-.3447-2.77151,1.2081-1.25981.8399-.2285-.0488-.5039-.3467-.2109-.4199.3496.5351,1.3809-.003,1.47071-.42m2.51949,1.0489c.6602-.2393.5079.3301.8399.4209.1328-.7071,1.0215-.6573.8379-1.6797-.7559-.1836-1.0586,1.1611-1.4688.6299.1172.0009.2383-.1709,0-.21-.0664.2832-.2988.4014-.209.8389m8.18751-.6289h1.04889a.98232.98232,0,0,1,.209-.6299,2.08915,2.08915,0,0,0-1.25789.6299m-2.51951,1.6797c-.0469.7666-.2871.8046,0,1.4697,1.6641-.5049,2.2402-2.0977,3.5684-2.9404-1.8262-.2247-2.0118,1.0097-3.5684,1.4707m-4.8281,1.6796c.8203.3311.43361-.5459.8379-.6308.4648.4433-.2676.6211-.209,1.2607,1.2246-.5263,1.38871-2.1123,2.3086-2.9394-.7227-.1455-.5098.2011-1.4688-.21-.25,1.0791-1.3066,1.3516-1.4687,2.5195m-3.56839,1.4678c.92779.1514.72659-1.918.62889-2.0986-.414.4961-.414,1.4053-.62889,2.0986m-3.15041-.6289c-.5078-.4873.3282-.5625.42-1.0488h-1.0508c-.2344.6728.5566,1.3769.6308,1.0488m2.7285.21c-.4355-.0528-.0566-.9219-.4199-1.0489-.5488-.0605-.9023.0762-.8398.6299.793-.3506.957.9766,1.2597.419m2.9395-.419c-.25,4.3662.8418.3242,0,0m-3.9883.419c-.789.2968.4922.1191-.2109-.21a1.25724,1.25724,0,0,0-1.6797,1.4697c.2656.295,1.1094.0118.8398.8409.7012-.1299.7168-.6182,1.4707-.211-.1796-.9394-1.25-.9883-1.8886-1.4707,1.1406-.0908,1.56641.5342,2.3086.8408.3339-.581-.4024-1.4238-.8399-1.2597m1.8906,1.8896c-.2675.8604-1.4062,1.9473-.8418,2.9395.46491-.6426,1.9551-2.0664.8418-2.9395m-3.1503,3.1494c-.4258-.623-.4747-1.6259-1.0508-2.0996a3.09492,3.09492,0,0,0,1.0508,2.0996"/></g></g></svg>