<svg xmlns="http://www.w3.org/2000/svg" viewBox="0 0 88.80268 106.29508"><defs><style>.cls-1{fill-rule:evenodd;}</style></defs><g id="Layer_2" data-name="Layer 2"><g id="Layer_1-2" data-name="Layer 1"><path class="cls-1" d="M54.79288,8.6074c.7657-.1318-.5664-1.0605.42-.8408.03512-.5244-.3223-.6572-.62888-.8389.67378.0889.582.211,1.04878-.6298.6836.2666-.00778.8427,0,1.2597.1367.2139.4824.2168.4199.6299.7852-.0185.5996-.2353,1.2598,0-.3946.4014.125.3799,0,1.0488.6406.1524.7636-.2138,1.2597-.2099-.0175-.3321.1016-.7998-.2109-.8389.6133-.5762.8281.0088.8398.4199.3418.1504.3418-.9892,0-.8408.00592-.2031.25792-.1621.42-.209H60.041a8.24167,8.24167,0,0,0,.41988,2.5196c.5606-.5039.207-.6202.4199-1.4698.3594-.0439.545.3575.6309,0,.3457.2119.2266.8907.4199,1.2588-.1699.1807-.5762.126-.6308.4209.0644.2842.5273.1738.8398.21a.75455.75455,0,0,1-.6289,1.0488c.2227.1953.0644.7754.6289.6309.1367-.3028.582-1.3526.4199-1.2608.4004-.4677.5723.2246,1.4707.211-.2265.8955.05282,1.0293-.2109,1.8886.1816.6202.3144-.4863.8398-.2099-.0586.6904-.5273,1.5801.42,1.6797.4375-.1172-.3125-.6319.41992-.21-.06062-.7793-.23832-1.4424-.83992-1.6797.0508-.541.3614.2881.83992,0-.12892-.1865-.25392-.375,0-.4189-.94342.2988-.32422-1.6983-1.25982-1.0498-.1523-.9229.4512-1.0899,1.04882-1.2608.502,1.0742,1.85938.0586,2.51958,1.6797-.4922.209-.26758,1.1318-1.2598.8399.3887.4043.3848.166.2109.8408.9161.2861.44732-.8135,1.2598-.6309a1.369,1.369,0,0,1,.4199,1.8897,1.49078,1.49078,0,0,1-.4199-.6289c-.248.0859-.0391.997-.4199,1.4677.9473-1.875,2.5898,1.1621.8398,1.8897.2813-.875-1.0547-.1143-1.6797.2099.15632.3965.627.1455.211.6299.0898.3125.2676-.082.6289,0-.0742.8272-.6289-.0586-1.0508.4209a1.48558,1.48558,0,0,0,.6309.419c1.3886-.5606,1.0898-.1573,1.6777.6298.4629-.4472.3437-1.4765,1.0508-1.6787.17382.5928-.2949.543-.209,1.0489.4375.0898.5547-.1436.83982-.21-.17382-.4414-.86522-.8184-.41992-1.2598.5684.2696.6016,1.0762,1.2578,1.2598-.0664-.4922-.33-.7881-.209-1.4697.29112.2676.5957,1.0263.8379.2099.461.2051-.0273,1.212-.207,1.4698.1719.4267.7344-.5049,1.0488-.6289.5137.2607-.6308.6103-.6308,1.0488a1.49668,1.49668,0,0,0,.6308.4199c-.3242.8652-1.68158.6983-1.89058,1.6807.83588.0488,1.56638-.5196,2.73048-.8408-.0274.3769.2558.4433.209.8408-.5879.1103-1.0899.3076-1.6797.4179.4355.8174-2.2129.7637-2.7285,1.6807.2636.8857,1.13672.0713,1.8886.209-.2812.3682-1.7324.7685-1.8886,0a1.46823,1.46823,0,0,0-1.0489,1.0508c.2481.1894.9082,1.0224,1.2598.4189.5215.086.0117.8145-.4219.6299a.7771.7771,0,0,0,1.26172,0c-1.13862-.1865-.082-.5625.62888-.8398-.6328.7978-.1035.5898.209,1.2607-.4375.0879-.5547-.1445-.83788-.21.44138.8321-.75392.5137-1.05072,1.4688.7812.0801.5488-.8506,1.46872-.6299-.73832.3506-.66412.8691,0,1.2598a1.71392,1.71392,0,0,0-.62892,1.2597c.5957-.1035.3027-1.0966,1.2598-.8398-.8301.9893-2.1641,1.4756-3.1485,2.3096A1.99788,1.99788,0,0,0,70.748,29.8096c1.23828.7588,1.31838-.7315,2.51958-.6289-.7969-.7432-.6641-2.416-1.4688-3.1485.0508-.2285.416-.1425.418-.4199-.0059-.6943-.8867-.5146-1.0489-1.0498.5372-.2773.6582.4102,1.4688.6289a4.56987,4.56987,0,0,0,.6309-1.6787c.4355.0537.0585.9219.4199,1.0498.6601-.293-.2891-1.0361.209-1.2607.414.1465.56052.5605.6308,1.0498.0196.6523-.6601.5996-.4219,1.4697.47662-.9395,1.5625.1807,1.4707-.6299.0391-.2383.211-.1152.211,0,.1777.0391.1973-.081.209-.2099.1504.3056.9355,1.6113-.209,1.8896.375.752-.4746,1.8359-.6309,2.7285.3242.5781.3496-.8906,1.25982-.4189-.166-.8653.32228-1.0781.21088-1.8897h.8379c.0117,1.4473.0606,1.0508.6309,1.6797-.916-.3359-.7598.7295-1.2598.21.0039.5752.9902.498,1.2598.2099.4238-.3408-.793.918-1.2598,1.0498-.2637.7481,1.0527,1.0977-.209,1.0489.2559.8623.8086.1211,1.2598,0-.8711-.3828.48832-.4932-.4219-.8389.4551-.8213.7676,1.168,1.0508,0,.1055.626.5371,1.1035,0,1.4688.3398.4306,1.0098.5302,1.4707.8398-.4434.708-.2422.9668-1.0508,1.0498a.9245.9245,0,0,0,.4199.8398c-.52338-.1191-1.3105.418-1.6796,1.0508a3.79614,3.79614,0,0,0,3.3574-.4209c-.5781-.5605.248-.456.2109-1.0488.3477.2119.2285.8906.418,1.2588-.2383-.5137-1.0664.3135-.207.2109-.0235.5127-.6954.044-.6309-.2109-.7031.0654-.2109,1.3281-.8379,1.4697a3.5653,3.5653,0,0,0,.8379.6289c-.1133.3018-1.1836-.1982-1.2598-.6289a.57059.57059,0,0,0-.6289.419c.461.1132,1.0371,1.1845,1.2578.8408.7032.4482-.8281.4101-.6289,1.0488-.8691.21-1.9101-.8398-1.6777.6299-.707-.4434-.5801-.627-1.0508-1.0488-.8164.8662,1.1113,1.3691,2.3106,1.4697-2.0039.8232-3.2657-1.8359-5.67-.6309.211.6992.8477-.0566,1.2598.6309-.2012.5195-.8066-.29-1.4687,0,.3027.4658,1.25.2891,1.6796.6289-.0253.3506-.8964-.2393-.8418.6299-.4707-.8281-.8398-.5996-1.4687-1.0488-.2734.0732-.3301.3681-.6309.4189a1.96323,1.96323,0,0,0,1.2618.8408c-.3965.7129-.7364-.3603-1.2618-.2109-.1679.039-.207.2109-.4179.2109.4297,1.7725,2.1543-.2207,3.1484-.4209-.4805.4297-.793,1.0254-1.6797,1.0498,2.6328.626,5.8887-.8818,8.1875-1.8886-.0058.2031-.2578.1621-.4199.2089-.082.5039.957-.1162.6309.6299-.9336-.5029-1.8985.3623-3.1485.6289,1.1602,1.1299,2.0352-.2627,3.1485-.208-.2676.2481-.0899.792.207,1.0488.0137.7227-2.2676.2364-1.4688,1.0489-.4297.3027-2.375.04-2.3066.8408-.8066.0371-.0762-.1729-.2109-.6309-.5215-.0322-.6504.3301-1.0489.4209A19.15462,19.15462,0,0,1,76.416,49.124c.06638.2852.52538.1739.83978.21-.1914.7051-.3906.1035-1.0507.21-.2676.8271.5761.5459.8398.8398.6543-.3975.8145-1.2871,1.0508-2.0986.5722.5859-.2481,1.5615-.4199,2.0986a4.18994,4.18994,0,0,0,1.6796-.8398c-.0918-.3291-.6601-.1797-.4199-.8399.8867.8985.8574-.3564,2.0977-.2099a1.02157,1.02157,0,0,1-1.0469.4199c-.0605.9707,1.5742.417,1.4688.4199-.0215.001.0253.4111,0,.4199,2.12692-.8135,1.125-7.5117,2.7285-7.9775-.2344.2578-.18358.4316.209.4189a1.48331,1.48331,0,0,0,0,1.2608c-.3399.0595-.3614-.1993-.629-.21.69342.3525-.414,1.8809.42,1.6797-.8379.6055-.0215,1.667-1.0489,1.8896.3086.9327.8106-.2519,1.4688-.2099-.752,1.0664-2.1992,1.4385-2.51948,2.9385a1.94593,1.94593,0,0,0,1.47068-.6299c.4492.4843-.3946,1.4267.8379.8398-1.0918.6973-2.0918,1.1836-3.3594,2.0987a4.00409,4.00409,0,0,0,1.8906,1.4707c-.9355.4677-1.3203-.834-2.0996-.8409-2.2461-.0156-3.0234,3.6524-4.8281,4.6192,1.3613.7226,1.0234-.0762,2.0996.2099.459-.1425-.3985-.6982-.6309-.8388.3633-.5528.9395.4414,1.2598.6289-.2031-.8975,2.7226.4326,2.7305-1.2598,1.75192-.1103,2.416-.71,3.5683-2.0996-.0058-.2041-.2578-.1621-.4199-.21.7031-.4443.5059-.7002,1.0488-1.0498.1778.9473-.4902,1.0489-.6289,1.6797.3828.4385,1.76562.0987,1.6797-.6299.4043.087.166.8145.8398.6299-1.3046.5479-2.0273.3711-3.3593.8418.3398.709,2.5097-.4131,2.5195.627-1.6016.0293-3.33008-.1992-5.041.8418a3.48524,3.48524,0,0,0,2.1015.8388c-1.5234.002-3.6503-.4882-5.039,0a.5765.5765,0,0,0,.4219.6309c-.3399.6543-.6661-.4316-1.0508-.4209a15.66577,15.66577,0,0,1-2.3086.8389c.2793.6591,1.3496-.0577.8398.8408,1.4512-.2783,3.3379-.3418,4.1973-.6299.2461.0332.1777.3828.209.6299.8281-.1992,2.75782.1328,4.1992,0-1.0332.6846-4.082.3135-6.2969.4199-.3711,1.4121,1.7012,1.9336.8399,2.5186a7.15184,7.15184,0,0,0,3.5683.2099c-.5254-1.1699.6055-.0762,1.2598-.6299-.1426.836-1.4609.4981-1.4688,1.4698-.6152-1.3301-2.7343,1.2617-2.7304-.6289h-.6289c-.4942,1.2988-.1465,2.1494-.6289,3.3584.8007-.5284,3.0019.3437,2.93752-1.0508.43548.1181.44528.3281.20888.6308.8028-.0088,1.336-1.0302,2.0997-.4199-.9415.2022-1.1309.961-2.0997.6299.8184.7773-2.3808.8789-3.3574.6289.0391.9131.3653.3838,1.0508.4209a1.03127,1.03127,0,0,1-1.0508.4199c1.7989.9239,2.2617.4522,3.5684,0a.92336.92336,0,0,1-.8418.4199,7.75067,7.75067,0,0,0,6.9297-.6308c-.13478.7041-.7657.914-1.46878,1.0498.36718.333,1.11918.2822,1.67968.4199-.7012.5498-1.793-.2978-2.9394,0,1.0586.7656-2.15628.0283-2.9395,0,.5391.2402,1.752.8955,2.0996.6289.1895.8487-3.8945-.584-3.3613-.8379-1.7832-.334-3.2715.0772-4.1973-.8398-.1699.039-.209.2099-.4199.2099.1094.9405,1.4434.6553,2.1016,1.0489-.2129.5918-.8926-.0576-1.2598,0,.9121.6963,1.5801,1.6386,3.1465,1.6806-2.0528.6514-2.9043-1.7119-4.61718-2.0996.57028.7569.82618,1.833,2.09958,1.8887-.5117.5361.3359.8984.8398,1.0488-1.02138.3467-4.1308-1.4336-5.8789-.8379-.1543.3721-.3828.0284-.6289,0a2.02047,2.02047,0,0,0,2.5176.8379c-.0137.4991,2.4043,2.2002,3.1504,1.2617.2832.0635.1738.5245.209.8389-1.586.0098-2.627-1.5224-3.7774-1.2598.6817.9278,2.002,1.2168,3.1485,1.6797-1.1543.7452-2.1192-1.2041-3.1485-.6298.13682-1.3965-2.03318-.4874-2.0996-1.6797a.98423.98423,0,0,0,.6289.2099,2.96714,2.96714,0,0,0-1.0488-1.0498c.3574.5283-.123,1.0098-.2109.211-.4395.1201-.5996.5195-1.25978.4179.00778.2041.25778.1641.41988.211-2.1445.4433-3.9336,1.2431-6.08788,1.6797.00788-.2041.25788-.1631.42-.21-3.42392.4961-5.99612-1.1397-9.23642-1.4697-2.9765,2.0605-6.8632,3.2138-9.4472,5.6689.3047,6.9336.875,15.5274,1.4687,22.4619.4024,4.69631,4.9512,4.52053,9.0274,4.82815,3.2617.24609,7.6972-.374,11.1269,1.46973-14.5176.97363-30.85938.1455-46.18549.41992-.0996-.66016.2988-.82031.4218-1.25977,4.7774-.88574,11.94731-1.25,17.2129-1.67871a8.06622,8.06622,0,0,0,2.5196-.21094c2.5879-1.25976,1.4179-9.627,1.2597-13.01558-.2324-4.9844-.084-9.5997-1.8886-12.3858-.6055.0254-1.375-.1142-1.6797.21-1.9649-.6865-1.1934-2.6572-2.31059-3.5694-.69531-.5673-2.082-.4951-4.19721-.4189-2.2344.0801-4.1524.1738-5.8789-.6299a4.77618,4.77618,0,0,1-2.7305,1.4688.572.572,0,0,0,0-.8389,13.73585,13.73585,0,0,1-1.8887.4189.92282.92282,0,0,0,.8399.42c-.72659.6074-2.1954-1.209-2.9375,0-.24609-.0332-.1778-.3819-.211-.6299a4.00546,4.00546,0,0,0-1.4687.8408c-.3438-.0254.1992-.8955.6289-.8408-2.03129-1.8467-4.293,1.0283-6.5078-.209,1.5214.5537,2.4082-.6231,3.9882-.6299-.0371-.914-.998.251-.8398-.6308-.9805.1396-1.9082.33-2.9395.4209,1.086-.792-1.6933-.0918-1.8886.4199-.252-.2373-.3809-.5996-1.0489-.4199.6485-.5723,1.9883-.6368,2.9375-.8399a.98286.98286,0,0,1-.2089-.6299c-.377-.0263-.4434.2559-.8399.21.0606-.249.8457-.793.211-1.0488.7382-.1836,1.08,2.2656,2.7285,1.2587-.8399-.9101-2.5508-.9492-2.5196-2.7294.5411,1.2793,1.8946,1.7431,3.14851,2.3095.92769-.2627,1.36129-1.0195,2.09959-1.4697-.0567-.4951-.7813.0186-.8399.2109-.7363-.3593.49031-.4609.6289-.6308a.92078.92078,0,0,0-.8378-.4199c.6757-.3301,1.457.5693,2.0996-.419a9.34694,9.34694,0,0,0-1.0508-.8408c-.0195.3808-.7891.4023-1.6797.8408,1.0625-.5459-.6641-.5127-.62889.208-.21291-.1357-.21681-.4814-.63091-.4189.1426-.6973,1.4453-.2354,1.6797-.8408-.0703-.5577-.5234-.7344-.6289-1.2588-.4043.3886-.166.3857-.8398.2109,1.12691-.7363-1.6602-.1719-1.4707-1.2598.51561.3955,1.5058.3145,2.09961.6289.05659-.7548-.38671-1.0107-.41991-1.6796.664.038.5703.831.6308,1.4707.2832-.0655.1738-.5264.209-.8399.2422.0645,1.0684.7285.209.6299,1.6094.2109,2.7949.4092,2.9394-.4199.8946.6894,1.25-.6133,1.89071-.8408-.51181-.2569-1.10161-.4375-1.25981-1.0489a12.29571,12.29571,0,0,1-7.1367-.4199c-.2344,1.4297-4.2754,1.4131-4.6192,3.9883a11.455,11.455,0,0,1-2.0996-.209c-.373.3955-.6093.9287-1.46869.8398-.38481-.164.125-.2265.41789-.2099.1915-.0576.70711-.7832.211-.8408.207-.587.5605.3047.8398-.21a1.46948,1.46948,0,0,0-.6308-.4189c.9707.0439,1.0468-.501,1.6797-1.8897-1.4864.334-3.3848,1.7734-5.0372.6299,1.0743.0967,2.8575.2226,3.9883-.6299-1.0371-1.1123-2.6816-1.0342-4.1992-.8398-.3809-.459-.3437-1.335-1.2598-1.2598a12.18229,12.18229,0,0,0-.4179-2.0996c.4785.7266.957.1484.6289,1.0498.36131-.9375.8047.4873.4199.8398,1.3613-.1113-.43159-.9804.6289-1.0488-.2559-.3037-.8027-.3193-1.0488-.6299a4.54764,4.54764,0,0,1,.6289-1.8906c.4941-.0039.6191.3623,1.2598.21-.6758-.3721-.6973-1.4014-1.8887-1.2588.6601-.2198.3437-1.2774-.4199-1.2598-.4903.3154-.3204.5137-.209,1.0498C-.24611,56.7764.69719,55.9277,0,55.4219c.87109.2158.63669-1.2276,1.47069-.418-.1074-.664-.959-.582-1.47069-.8418.30659-1.0879,2.04879.6074,2.09959-.8388-.2129.1357-.2168.4824-.6289.4189-.4024-1.2178-.252-1.6973-1.2598-2.3086-.0312-.7519.53911.0205,1.0488-.4199-.1855-.3731-.5859-.5332-.4179-1.2598.4863.0586.4824.5606.209.8389.8769,0,1.3046.3281,2.5195.4209.4043-.085.1641-.8135.8398-.6299-.459-1.7119-2.3183-2.0205-3.5683-2.9395.9453-1.0605,2.3515,2.5499,3.7773.6299.3692.1905.3848.7364.63091,1.0498.86719-.2763-.32621-1.0879-.63091-1.4697-.793-.3037-.4023.5781-1.0488.4199.0586-.375-.1992-.4306-.2109-.2099.1953-.9776-1.1075-1.2998-2.3086-1.4698.1543-.373.3808-.0302.6289,0-.1426-.4873-.5352-.7236-.8379-1.0488.82221-.416-.1153-.6181-.211-1.2607,1.1387-.2979.2871,1.3926,1.4688,1.0508-.3203-.6504-.5137-.6553.4199-.8409-.1387-.6279-.4492.2022-.8398,0,.2695-.5449.4609-.6328.2109-1.2588.6133.2774,1.084-.1347,2.0977,0-.3516-.7607-1.125-.9121-1.4688-2.0996.4043-.4433.9863.3174,1.4688,0-.03129-.3886-.711-.1279-.8379-.4189.1367-.6299.4472.1992.8379,0-.1348-.2139-.4825-.2178-.418-.6309.3301-.0908.17771-.6601.8398-.4199-.1015.9297.2871,1.044,0,1.6797.7383-.0322.50391-1.0342,1.4688-.8398.2597-.6797-.6797-.1592-.41989-.8399,1.10739.0986.705,1.5947.62889,1.8897.45111-.1289.6543.038,1.2597.6308-.5742-.6289.0645-1.1719-.4179-1.8906.7031-.3457.7519,1.7607,1.8886,1.6797.5235-.4024.1524-1.6787-.4199-1.6797-.4101.0908.3418.6006-.6308.4209.1796-.6611.8105-.8721,1.4707-1.0508-.4141-.5654-.4844-1.4736-1.2598-1.6797,1.01951-.2724,1.3144.3555,2.0996-.6289.0527.9971.8086,1.2901.8398,2.3086h-.8398a.98517.98517,0,0,1,.209.6299,2.55213,2.55213,0,0,1,1.2598.8398c.5878.0899-.5254-.7822.2109-.8398.0664-.5557-1.1777.1963-.8399-.6299.377-.0264.4434.2578.8399.21-.9199-.4541.8457-1.4629.209-2.3086-.6426-.1514-.7657.2148-1.25979.209.875-.8633-.24411-.9707-.41991-1.8887.4668.1152.2988-.4014.6308-.4199a.92654.92654,0,0,0-.8398-.42c.3848-.2451.4551-.8046.8398-1.0488-.1543-.374-.3828-.0312-.6308,0-.5274-.0918.3496-.4531.6308-.4209-.207-.5869-.5605.3047-.8398-.2099.1445-.4151.5605-.5586,1.0488-.6299.0918.5664.78711,1.0761.209,1.6806.5586.2325.709-1.3076.8399-.2109a.57136.57136,0,0,0,0-1.0498c.6894.1709.4824-.2568,1.2617-.8398-.8867-.5459-.9668-.9532-1.4707-2.0997,1.0234-.6816,1.3398.5469,1.6797.4209.3574.1368.1308.4825-.209.42a1.6421,1.6421,0,0,0,1.4687,1.2588c-.6113-.7188-.4023-2.2559-1.6797-2.3096.1387-.6279.4493.2012.8399,0v-.419c-.3965-.7138-.7363.3594-1.2598.209.086-.8545.5762-.4951.211-1.2588.0898-.2324,1.4921-.5244.4199-.6299.8086-.5449,1.1426.3545.8379,1.2598.2441-.042,1.2363.3408.6308,1.0488,1.2324-.2373-.8476-1.8828.211-1.8886-.3184-.3838-.9063-.4942-1.2618-.8399.2793-.4023.93361.2403,1.4707-.2099a3.42612,3.42612,0,0,1-.4199-1.4688c.6602-.1015.1563.9619.6289,1.0488.3516-.2089.1504-.9716.63091-1.0488.22459.8194.52149.9434,1.46869.6299.4981,1.0732,1.9219,1.252,2.0997,2.0986.621-.3056-1.0293-1.3203,0-1.4697-.3262-.3037-.5625-.6973-1.0489-.8389.43751-.6904.8848.3536,1.2578.42.0703-.8204-.8339-2.6387.42-2.7305.0781.3584-.1622.3965-.42.4209.5469.7139.0176,2.5019,1.0508,2.7285-.1172.4746-.32809-.2549-.6308.21a11.36256,11.36256,0,0,0,2.7285,3.9892c-.2891-1.04-1.3789-1.2783-1.46879-2.5195a1.00037,1.00037,0,0,0,.63089.21c-.50389-1.5948-1.12889-2.0469-1.4688-3.9883.5508-.0635.1641.8134.83791.6289.125-.8926-1.13281-.4063-.83791-1.4688.3965.0235.1446.6934.62891.6299.16019-.8916-.20311-1.4277-.20891-2.3105.0058.5898-.5723.9931-.6309-.209.3711-.3906.6133.0908,1.04881.209-.57031-.8135.04689-1.2686-.41791-2.7286.6582.8926.45891.5235,1.4687.629a1.95714,1.95714,0,0,0,.2109,1.6796c.4786-.8896.4922.2393,1.0489.42-.0723-.7676-.7188-.96-1.2598-1.2588.3535-.3311.6074-.9639-.2109-1.0489.5918-.291,1.4043.3047,2.0996.2081-.1446-.6563-.5606-.2725-1.0489-.2081.0586-.8525-.0761-.4755-.6289-.4209-.0996-.4472.2989-.4003.6289-.4199a2.27109,2.27109,0,0,0-1.2597-1.0498c.20511-.6416.707.0947.8379.211.4785-.2246-.6016-.6377-.418-1.2608.3965.0235.1465.6944.6289.6299-.0996-.4199.0625-.6279.2109-1.6787.2442.0342.3731-.0459.42-.21.3691.0498.4785.3614.4199.8399,1.1992-.1358-.7207-2.2725.418-1.6797.1894-.6768-.6836-.2949-.8379-.6299.1543-.374.3808-.0303.6289,0,.22851-.0518.1426-.417.4199-.4189.9141.2294,1.0449,1.0468.8398,1.8886a.9928.9928,0,0,1,.6289-.2109c.1133-.7647-.9218-.9414-.4179-1.4697a.9234.9234,0,0,1,.8379.4209,1.70594,1.70594,0,0,0,.41991-1.2588c.46479.0254.08979.8896.21089,1.2588.1875-.1289.375-.2539.42,0a3.07912,3.07912,0,0,0,0-1.6797c.0332-.2451.3828-.1768.6308-.21-.0351-.3389-.7051-1.082-.2109-1.2598.8105.0821-.2032,1.1534,1.2597.8409a1.72269,1.72269,0,0,1-.6289-1.4707c.8106-.0899.7461-.2295,1.2578.2099a1.05378,1.05378,0,0,0-.6289-.6289c.0918-.3115.2676.083.6289,0-.2871-.665-.0449-.7021,0-1.4697.2461.0596.8731.9248.8399,0,.5215.0312.0625.7109,0,.8398.1914.2354.47071-.0127.8398.42a13.79721,13.79721,0,0,1-.4199-1.8897c.2676.584,1.0567.4981.6309,1.2588.21291-.1357.2168-.4824.62891-.4199.18359-.6729-.54491-.4346-.62891-.8389.6758-1.1269.9297-.2676,1.4687-.8398.6348.3174-.17379.9218,0,1.4697.7559.126.61921-.6406,1.2598-.6299-.2305.5635.4453.9287-.4199,1.4697.0664.4932.6484.4698.8398.8399.5-.0625-.2324-.5694-.4199-.6309.1387-.0556,1.7988.3545.4199-.209a.58089.58089,0,0,1,.6289-.4209,11.44131,11.44131,0,0,1-1.2598-2.5185c.6602-.2334.5567-.0986,1.0508.2099V5.669c.22661.0517.14261.416.42.4189.6933-.3145-.4356-.5127-.211-1.0498.3438-.0371,1.0098.79.6309.21.1855-.5655.5859.3632.4199.8398.0703-1.2383,1.1055-1.1543.6289-2.9395.67191.2217,0,.9502.63091,1.4698.11129-.7793.23239-1.8369-.211-1.8897.22269-.6045.63669-.6953,1.25979-.4189.0879.5058-.38279.456-.2109,1.0498a.92278.92278,0,0,0,.4218-.8399c.5215.0313.0606.711,0,.8399.2442-.0342.3731.0459.4199.2099.0235-.3974.502-.6953.42.42.875-.6983.3437-.8135,1.8886-.8409-.0351-.2441.0469-.373.209-.4199-.1367-.2129-.4824-.2168-.4179-.6289.9628.2988.6523.1748.8378-.6299.2735.4961.3516,1.1885.63091,1.6787a7.15561,7.15561,0,0,0,.41989-1.2587c.4317.0576.1973.7822.6289.8388.3887-.0302.1289-.7099.4219-.8388.2832.0644.1719.5254.207.8388a11.48833,11.48833,0,0,1,1.67969-1.4697c0,.3545,1.14462,2.3896.211,2.1006.2695.499.5371,1.001.8398,1.4687a2.49271,2.49271,0,0,0-.209-2.0996c.2442-.5459.9961.7119.6289.8408.3282.3936.7305-.2138.83992.6299.54878-1.2226-.18362-2.2002,0-3.9892.61518.1572.91008.8349.63078-.21.7168.0459.6289.6914,1.0489,0a.78963.78963,0,0,1,.8398.8408c-.5723.0176-.4238-.3515-.8398,0,.7324.2549.207.7891.8398.8379a5.54388,5.54388,0,0,1-1.0508,1.8906c.1524.2002,1.1426.2481,1.0508,1.2588.8301-.0664-.1562-.6494.4199-.8388a5.94012,5.94012,0,0,1,1.2598,2.7285c.5937.1728.543-.2959,1.04882-.21-1.01172.8067.418,1.1104.41988,2.0996m13.0157,11.9659c-.3301.0205-.7285-.0274-.6289.4199a2.09835,2.09835,0,0,0,1.4687-1.4698c-.4121.0625-.416-.2832-.6289-.4199.666,1.0449-.748.5537-.2109,1.4698m1.2597,6.5078c.0118-.128.0313-.2481.209-.21.1231.5615-1.3027.6289-.6289,1.0498.3145-.3857.875-.5244,1.0508-1.0498-.1875-.4551-1.19918.0254-.6309.21m6.0879,3.1494c.5547-.0049,1.3164.1953,1.0489-.6309-.4883.0713-.9024.2158-1.0489.6309m3.3594,7.5566c-.0352.2442-.332.2285-.6289.211-.1348.707.7988,1.4199,1.2598.8398-.56448-.5693.5449-.0371.6289-.4199-.3633-.626-1.2989.3008-1.4688-.211.3399.0625.5645-.2822.209-.4199M81.873,50.8037c-1.02542-.1875-1.01762.6621-1.46872,1.0489A1.908,1.908,0,0,0,81.873,50.8037M75.99608,68.4375c-.2676.6426-1.2012.6172-1.4688,1.2598,1.0156.5566,1.9668-.1221,2.5176.8398.0566-.7363.9316.3799.8418-.209-.9453-.3164-1.082-1.4394-1.8906-1.8906M20.15429,67.3887c-.4024.2969-1.0645.3369-1.2598.8398.5781.0039,1.8926-.3291,1.2598-.8398m-3.1504-1.0508c1.8105,1.3467,4.1035.6582,4.2012-1.0488-.3868.9443-2.168.4922-2.5196,1.4697-.43749-.1182-.4453-.3281-.2109-.6309-.7988.0303-1.31059.0225-1.4707.21M1.67969,52.4824c.8672.4629-.1075.4629-.42,0-.0449.3975.2364.4639.211.8409a.9485.9485,0,0,1,1.2597.2089c.06061-.1289.5215-.8076,0-.8388-.0332.2461.0352.5947-.2109.6299.0899-.5303-.6562-1.2764-.8398-.8409m-.6289-.8388c.3105.1093.5293.3095.8398.4189.8809-.668,1.6836,1.0498,2.3086-.2099.2012.3925-.6289.7031,0,.8408.1035-.3741.2246.0908.4199.2099.0762-.6474,1.0703.5518,1.2598-.2099-.2344-.9688-1.2324.125-1.0488-1.2598a5.52019,5.52019,0,0,1-3.1504-.6299c.5136,1.0957-.2149.5205-.6289.8399m11.3359-15.1153c-.2773-.0029-.1914-.3672-.4199-.4209.3359.8272-.9063.0733-.8399.6309.6016.1084,1.4063,1.0986,1.8907.6299-.10159-.3379-1.51959-.4131-.8418-.8399,0,.1162.1699.2383.2109,0m5.8769-7.3476c-.8652-1.0293.5879-1.3672-.4179-2.0996-.7422.7793-.0098,1.9443.6289,2.5185.5566-.0742.6308-.4228,1.4687-.6289.1231.9258,1.5801,2.2861,2.0996,1.4697-.6445-1.038-2.289-2.1855-3.3574-2.0996.5684.1905-.1777.7735-.4219.8399m2.0997,1.2597c.2832.6973-.1387,2.0987,1.05071,1.8897a1.3824,1.3824,0,0,1,.209-1.0508c-.68941-.0098-.50191-.8975-1.25971-.8389M48.49408,3.9893c-.3437-.0352-.3437,1.2939,0,1.2588-.03708-.8057.1738-.0752.63092-.21-.02542-.5352-.03912-1.0801-.63092-1.0488m-6.71679.2099c.5488-.1738,1.1524.6348,1.4688,0-.627-.3056-.752-.8984-1.2578-.6299.6074.1172-.32429.3272-.211.6299m9.65629,2.9385c.4629.3565,1.2226-.333,1.2597-1.0498-.5214.0234-.6484.3936-1.0488,0,.4512.7813.2481.3887-.2109,1.0498m1.6797.6289c-.7422-.0615.8886-.4189,0-.6289-.1016.374-.2247-.0908-.42-.21.0254.2149-.9062.4249-.2089.6299.0117-.1289.0312-.248.2089-.2099-.15228.3427.418.914.42.4189m-2.9395,2.3106c.15822-.5147.627-.044.2109.2099.7168-.6679,1.7051-.7207.209-1.0508.5235-.0224.6504-.3925,1.0508,0,.2149-.7041-.6523-.3261-1.0508-.4189.1328.5693-.9492.9824-.4199,1.2598M32.539,12.3858c-.18361-.5157-.18751-1.21-.83791-1.2588.0352.6621.1465,1.2509.83791,1.2588m34.00978,1.8896c.9785-.1846-.2891.5449.4219.6299.0449-.46.94532-1.1299.4179-1.4697-.0019.2773-.3671.1933-.4179.4209.5664.3935-.4805-.2891-.4219.4189m-20.1523,0c-.0059.7051-1.13479,1.3721-.6309,1.8897.0469-.1641.1758-.2442.4199-.21.0489.1621.0059.4141.211.4199.2402-.6601-.3301-.5117-.42-.8408a.9841.9841,0,0,1,.6289.2109c-.2011-.3906.629-.7021,0-.8398.002.1172-.1699.2383-.2089,0,.2734-.0039.2656-.582,0-.6299m3.3593,1.6797c.4766.0586.7871-.0508.8379-.4209-.3398-.2461-.4414-1.6504-.8379-.6289,1.0039.0381-.3613.3652,0,1.0498m-4.1992,2.0986c.2988-.6045.1563-1.4062.8399-.6299.0546-.6845-.25-1.0107-.8399-1.0488-.0469.3926-.541,1.3916,0,1.6787m2.0996-1.2588c.8887-.206-.8027,1.125.6289,1.0498.0684-.4931.3321-.788.209-1.4697-.4785-.0596-.789.0508-.8379.4199m2.3086.6289c-.3613-.2685-.2597-.999-.83978-1.0488a1.78012,1.78012,0,0,0-.211,1.2588c.66018-.1436.85938.0244,1.05078-.21m-6.71869.4209c.9824-.0556-.2715.8135.6308.8389.125-.3984.418-1.2236-.209-1.6797-.1093.3106-.3125.5303-.4218.8408m-2.3086.6299c.64451.0537.9433.4561,1.4687.6289a3.58617,3.58617,0,0,0-.8379-1.6797c.2676.8291-.6132.5079-.6308,1.0508m-7.97849,0c.01359-.1289.03119-.249.21089-.2099-.332.5791.5449.9414.6309.4189-.2461-.0352-.2286-.331-.211-.6299-.4277-.1787-1.3047.1826-.63079.4209m13.01748,1.8887c-.0429-.584.75-2.1611-.2109-2.3096a2.488,2.488,0,0,0,.2109,2.3096M27.71289,19.3135c.6582.1035.5527-.7236,1.0488-.21.0371-.457-.1719-.6679-.6309-.6289-.1093.3096-.3086.5283-.4179.8389m13.4336,1.2598c-.0313-.9112.2187-.8985,1.0507-1.2598-.4277-.2012-.83-.4297-1.2597-.6299-.2774.3398-.4531,1.8506.209,1.8897m28.97259-.629c-.2754-.0039-.2676-.583,0-.6308.04492.1631.00392.4141.209.4199-.2344-1.7109-2.1562.7256-1.6797,1.0498a2.34385,2.34385,0,0,1,1.4707-.8389m-12.1777,1.0489c.1894-.3701.7734-.3467.8398-.8408-.2441-.0342-.2285-.3311-.209-.629h-.6308c.8887.6866-.502.8487,0,1.4698m-15.32419-.6299v-.419c-.0118-.1289-.0313-.249-.211-.2109-.0429.2363-.2324.3262-.4179.419-.0254-.2549-.0645-.4961-.42-.419-.0312.5908.51371.6055,1.0489.6299m4.61719.4199c.64062-.001.8691-1.2314,0-1.0498Zm2.9394-.4199a.58116.58116,0,0,0-.6289.4199c.2832.0664.4004.2998.8398.21a1.18062,1.18062,0,0,1,.209-.8408c-.6523-.1797-.9023-.6133-1.46868,0,.248.5175.79288-.4297,1.04878.2109M37.998,21.6221c.10349-.6612-.37691-.7403-.209-1.4697-.248.0332-.59571-.0352-.62891.2109.4278.2705.2207,1.1787.83791,1.2588m20.15428,0h1.0488c.0586-.4776-.0507-.7881-.4199-.8389-.0605.4287-.5664.4121-.6289.8389m9.8672-.6289c-.06248.4131.2832.416.4199.6289.6153-.0137.7793-.4785,1.0489-.8389-.4922.0664-.7872.3311-1.4688.21m-18.4746.8388c-.2441-.0351-.2285-.331-.21088-.6289a.98234.98234,0,0,1-.62892-.2099c-.0899.3994-.4512.5273-.42,1.0498h.42c-.0215-.7696.5468.0547.8398-.211m10.916.42c.5918.042.6055-.9053.6289.2109,1.2891-.1211.2266-1.2363-.209-1.4697.41022.7578-.2812.5683-.4199,1.2588m9.0274-.6299c.4902.0644.9043.4492,1.05072-.208-.27932-.0039-.19332-.3692-.41992-.4209-.0254.3965-.6953.1455-.6308.6289m-16.375,0c-.2344.0449-.3262.2334-.42.4209h.8399v-.6289c-.3613.081-.5371-.3125-.6289,0,.1269.0107.248.0302.209.208m17.2148.8408c.75392.3154,1.6016-.9775,1.0488-.6309-.1445.2002-.955-.1044-1.0488.6309m-11.127.6299V22.252a4.78855,4.78855,0,0,0-1.2597-.42c-.0606.4288-.56838.4122-.6289.8409.4121.0625.416-.2832.6289-.4209a1.49761,1.49761,0,0,1,.6308.4209c-.3613.2695-.8261.4336-.8398,1.0488.7441-.0693.51562-.5772,1.2598-.209.2011-.3916-.6289-.7021,0-.8398.04682.163.0039.414.2089.4199m9.8672-.4199h.8399c.0586-.5489-.07618-.9034-.6309-.8409.0488.3975-.23628.4639-.209.8409m-.6289.2099c-.8242.2637-.65038.1602-.8398-.2099-.0527.2988-.3477.3545-.4199.6289.2461.0332.5957-.0352.6289.2109-.127.0117-.2481.0313-.209.209h1.0488a2.25591,2.25591,0,0,0-.209-1.4697c-.084.3007-.2519.3554,0,.6308m-33.16989.21c-.0332-.2481.0371-.5967-.2109-.6299.0918,1.126-.6563-.7822-.8399,0,.3731.1875.2676.8525,1.0508.6299m13.64451.209c-.32422-.7451.71488-.127.63088-.6289-.1465-.1651-1.17188-.4668-1.2598,0,.3965.0234.1465.6933.62892.6289m-7.55661-.419c-.02539.7256.4102.9893.6309,1.4688.05271-.3262.4589-.1446.6289,0-.3926-.4864.5332-1.6514-.6289-1.6787-.1172.4365-.3282.4453-.6309.2099m-4.1973,1.6797c.50591-.0859.4571.3828,1.04891.21.19329-.6309-1.25981-1.3194-.83991-.8399.6953.2041-.2344.4141-.209.6299m-5.039.419c-.0586-.1905-.7832-.7051-.8418-.209.541.0195.30271.8193.8418.8398.4902-.4814.7773-.9971.209-1.6797-.0469.1621-.0059.4141-.209.419,0-.1162-.17-.2373-.211,0,.168.0244.6368.6953.211.6299m23.51169-.209c.6601-.2412.5098.3301.8398.4189-.1152-.3047.2442-1.0849-.209-1.0488-.0234.3955-.6953.1445-.6308.6299M41.56829,26.6611c-.1464-.5654.4336-.4052.6289-.6289-.1015-.7402-.6679-1.0127-1.0507-1.4697a7.81381,7.81381,0,0,1,.4218,2.0986M37.998,25.8213c.37889-.3604-.06441-.8252-.62891-.8398.08791.4023.0762.9033.62891.8398m15.53518.6309a13.40333,13.40333,0,0,0,.2109-1.4707c-1.1308-.1905-.9785,1.4013-.2109,1.4707M65.5,26.0322c.04688-.164.00578-.415.209-.4199.25188.6768,1.85928-.9053,1.26168-.4209-.4453.1572-2.1094-.0996-1.47068.8408m2.09958-.2109c-1.125,1.2471-3.1934,1.7598-3.7793,2.5195.5156-.5625,1.4375.3682,2.0996-.2099-.0273-.5254-.4004-.6573.209-.8399.666,1.377,2.793-.1406,2.7285-1.4697-.1719-.2666-.73438-1.1963-1.0488-.6299.2285.0498.5039.3457.2109.4209-.9648-.3125-1.2773.1162-.4199.209m6.0879,1.6797c-.4492-.2295.7011-2.624-.6309-2.5195-.2265,1.0664-.0664,2.1533.6309,2.5195m-26.0313-1.6797c.2832.0664.4004.2988.8379.2109v-.8408c-.5254-.0351-.6562.3242-.8379.6299m-22.88469-.209c.1171.3731.1093.8711.4199,1.0488-.0899-.5791.7851-.1962.8418-.6289-.4043-.0859-.166-.8154-.8418-.6308-.0449.165-.1758.2441-.4199.2109m36.94919.6299c.4902.0625.90432.4473,1.0488-.21-.2656-.2861-1.0273-.3252-1.0488.21M43.87689,27.7109c-.0097-.6914.086-1.4853-.6308-1.4687.2363.6582-.209,1.1592.6308,1.4687m10.28711.42c.06248-.4942.72858-.3907.62888-1.0498-1.16988-.084.6836-.6895-.41988-.8389.06838.875-.58982,1.1748-.209,1.8887m6.92578-1.0498c.3711-.1202,1.2344.2539,1.2617-.21-.3144.0049-.8593-.7793-1.0507-.21,1.373.1514-1.0664.1866-.211.42m13.2266.4199c-.23438.0215-.3262-.3047-.4199,0,.3007.0508.35352.3467.6308.4199.1094-.3105.3106-.5283.4199-.8398-.7988.3095-.041-.9385-.8418-.6289-.2265.5361.9043.7343.211,1.0488m-17.6348.4199c.81642.2764,1.4981-1.4141,1.0508-1.0498-.3086.3926-1.1523.249-1.0508,1.0498m-8.3965-.21c.5215-.1064,1.2676.0079,1.2598-.6298a1.1985,1.1985,0,0,0-1.2598.6298m25.1914.8399a2.09828,2.09828,0,0,0-.8398-1.4697,2.10559,2.10559,0,0,0,.8398,1.4697m-21.4121,0c.5918.0322.5254-.5938.8399-.8399q-.9873-.1464-.8399.8399m7.97662.4199c.51558-.0605,1.61128.3604,1.67968-1.0498-.791-.5371-1.9336.2822-1.67968,1.0498m-10.28522-.8398c-1.6836-.8203-1.3554.666,0,0m24.5606,2.7295c.4219-.6289,1.0547-1.9278.6308-2.7295-1.7363.1299-.2226,2.4355-.6308,2.7295M23.30269,29.5996a1.18549,1.18549,0,0,1,.8399.21c-.7188-.6719.3203-.586-.209-1.2588-.2051.6963-.416-.2354-.6309-.21Zm9.8672.4199c-.4648-.7587-.0566-1.1611-.8398-1.6787-.4375.5899.1367,1.5733.8398,1.6787m35.68749-.8388c.5273-.2774.6582.8301.8418.2099-.1289-.0127-.2481-.0312-.2109-.2099.5918.0332.5273-.5928.8398-.8399a7.99383,7.99383,0,0,0-1.4707.8399m-44.08589,0c-.0352-.5967,1.375.2539,1.0507-.6299-.625.2031-1.2793.0547-1.4687.21.2773.0029.1914.3681.418.4199m37.36909.8388c.416.0039.2676.5733.8398.4209-.166-1.2431,1.375.1543,1.2598-1.2597-.4297-.2012-.832-.4287-1.2598-.6299-.6132.5791-.3261,1.1055-.8398,1.4687m3.56842-.8388c-.127-.0127-.24812-.0313-.209-.21.23628-.0439.32608-.2334.41988-.4199-.6172.3115-.7793-.2373-1.0508.4199.2793-.0312.7813.7051.83992.21m-7.97662,1.4697c.9121.0703,1.10162-.5791,1.2598-1.2598-.7754.0635-.7871.8916-1.2598,1.2598m-15.11519-.4199c-.4629-.4639.50781-1.1582-.42-1.2598.0039.5567-.11519,1.2354.42,1.2598m6.71681-.211c.59178.0313.60738-.5136.63078-1.0488H49.334Zm3.35928-.6289c-.1699.8702.6114.7891.8399,1.2598-.127-.5039.2637-1.5234-.209-1.6797.0273.377-.209.4912-.6309.4199m3.5703,1.2598c1.2422.125,1.3477-.8906,1.6778-1.6797-.9863.1328-1.3985.8399-1.6778,1.6797m-40.51749-.4199h.8398c-.1191-.5127-.1797-1.0801-.8398-1.0498-.125.6699.3945.6494,0,1.0498m16.375.6299c-.2383-.4727-.83209-1.6729-1.2617-1.2608.47261.2403.8105,1.6983,1.2617,1.2608m18.89249,0a4.79635,4.79635,0,0,0,1.8907.4189c.05472-.9648-.7578-1.0615-1.0508-1.6797-.0137.958-.5957-.0478-.8399,1.2608m-31.48819,0a.99177.99177,0,0,1,.209-.6299c-.7676.1572-.9766-.6856-1.6797-.211.164.0479.414.0069.4199.211-.9258.2119.9023-.084,1.0508.6299m4.4082,0c.0605-.1299.5215-.8086,0-.8409-.6524.6934.1113-.4355-.6309-.2099.07031.4902.2168.9043.6309,1.0508m23.30079,1.2588c.5683-.5079.621-1.0635,1.0507-1.2588.002-.5069-.7363-1.3418-1.0507-.8409,1.291.4893-.5293,1.7627,0,2.0997m-32.11719-.6299c-.0059-.4942.3593-.6182.2089-1.2588h-.6289c-.0449.6035.05281,1.0654.42,1.2588M67.59958,33.169c.8496.291.664-.4551,1.2578-.419-.1738.6729-.1777.4346.2109.8389-.6836.1865-1.6562-.1944-1.8886.8408.6582.0977.5547-.5654,1.0488-.6299,0,.21.1699.249.2109.4199-.3281.3037-.98038.2793-1.2597.6289.7304.0625-.0176.5674.4199.6299a2.31964,2.31964,0,0,1,1.2578-.8398c.2227,1.083,1.5684,1.5254.4199,2.3096.8028-.2803,1.1543-.669.6309-1.2598.7207-.0479.914-.624,1.04882-1.2588-.36132-.084-.53712.3105-.62892,0,.5918-.3164-.5332-.8848,0-1.0508a3.64991,3.64991,0,0,0,.62892.8408c.03518-.3154-.07422-.7754.21088-.8408.1016.374.2247-.0908.42-.2099.24612.3134.2617.8593.6289,1.0507-.0625-.6572.6074.5332.6308-.2109.4649-1.3828-1.1894-2.7529-.8418-3.7783-2.33.9648-3.7011.9209-4.4062,2.9385m-21.4141-.8389c.35552-.709.6387-1.2539,0-1.8897.2793.7852-.625,1.4512,0,1.8897m20.3633-1.4697c-.0234.3964-.6934.1455-.6289.6289.4102.6142,1.2715-.666.6289-1.0489Zm8.8164.6289h.8399c-.0352-.3135.0761-.7754-.209-.8389-.0196.3291.0273.7275-.42.6289.0118-.2676.2696-.29.211-.6289-.6035-.0439-1.0664.0527-1.2598.4199.4571-.0381.668.1719.6289.6299a1.18114,1.18114,0,0,0-.8398.209c-.0332-.2471.0351-.5957-.211-.6299-.0546.7061-1.121,1.2227-.2089,1.6797-.5293-.2207-.9297.708-.42.8408.1739-1.3408,2.5762-1.9404,1.8887-2.3105m-59.41009.8408c.6523-.5977,1.6093.1133,2.0996-.8408-1.002.249-1.88869-.3955-2.0996.8408m.41991-1.4697h-.83991a1.36874,1.36874,0,0,1-.209,1.0488A1.00177,1.00177,0,0,0,16.375,30.8604m32.33008,1.2588c-.2754-.002-.2676-.5821,0-.6299.0468.164.1757.2441.41992.2109.14448-.5654-.43362-.4062-.63092-.6299-.3379.4639-.4863,1.5156.211,1.0489m.62892,1.4697c.75-.4922.73238-1.6045.42178-2.5186-.1132.8672-.3086,1.6514-.42178,2.5186m6.08788-.6299c1.5039-.1748,2.1933-1.166,3.1503-1.8887-1.8359-.2353-2.1464.8731-3.1503,1.8887m-20.15239-.8398c.0508-.2999.3457-.3536.4199-.6299-.1289-.1201-.9961-.4903-1.0508,0,.48641-.0635.23441.6074.6309.6299m16.375.6308c.06452-.4951.72852-.3916.6289-1.0498a4.73976,4.73976,0,0,1-1.2598-.4209,1.9447,1.9447,0,0,0,.6309,1.4707m-31.28119-.4199c-.0372.3105-.5059.1924-.8379.209.7558-.6407-1.0313-1.2227-1.2618-.8389.7559.5098,1.168,2.4649,1.8907,2.3086a.21253.21253,0,0,1,0-.4199c.34571.0029.1172.583.4199.6308.0234-.3974.6934-.1474.6309-.6308-.9336-.667-.1407-.5498-1.2618-.6299.4336.1836.9434-.5439.42-.6289m2.5214.6289c.375.0273.49031-.208.418-.6289-.7656-.0049-.9414-.5967-1.46869-.8408-.25981,1.2168,1.02339,1.122,1.25779,1.2607-.127.0108-.2481.0303-.2071.209m32.11719-.209c.0157-.6152.7989-.4609.6309-1.2607-.6152-.1065-1.1133.9638-.6309,1.2607m-20.36329.6289c1.2715-.0937.1231-1.3203-.2089-1.6787a3.92952,3.92952,0,0,1,.2089,1.6787m-15.7441-.2099c-.3281-.3028-.4141-.8457-1.2598-.6299-.3046.8135,1.1758.9033,1.2598.6299m39.46679,1.2607c1.1133.0283.582-1.2422,1.47072-.4209-.43752-.8105.66988-.8926.83988-1.6787-.629.1435-1.0665.6816-.63088-.2109a2.51722,2.51722,0,0,0-1.67972,2.3105m4.1992-2.0996c-.6601-.1065-.8203.457-1.2597,0,.0468.3965-.2364.4629-.211.8389.2696.0117.291.2695.6309.2099.1094-.5205.5117-.7471.8398-1.0488m-25.19139.8389a.99887.99887,0,0,1-.209.6308c.5118.209.4473.0684,1.2578.209.084-.8516-.0761-1.4629-.8398-1.4697-.2812.5927,1.1133.5263.41991.8398-.03511-.2441-.33011-.2275-.62891-.2099m38.627.2099c1.3086.1445-1.1172.666,0,1.2598,1.0664-.6455,1.455-.999,1.4687-2.0996-.625.1445-1.2832.2549-1.4687.8398m-19.5235,1.6797c-.039-.9551,1.2012-1.7275.8399-2.3086-.3477.4199-.56448.9746-1.2598,1.0498-.043.6026.0527,1.0654.4199,1.2588m-33.58789,0a3.35147,3.35147,0,0,1-.4218-1.8896c-.3887.2011-.7012-.628-.83989,0,.46289.8535.166,1.913.83989,1.0507-.0996.4102.2988,1.3399.4218.8389m1.8868-1.4697c.2011.3584.6972.4238.8418.8408a.98279.98279,0,0,0-.6309.209c-.0781.7099.3633.8955.6309,1.2607-.1758-1.2402.166-1.2812.2089-2.5205a.67407.67407,0,0,0-1.0507.21m3.1504.6308c-.7383.6944-.4395,2.9746.2089,3.5674.1739-.5928-.2949-.5429-.2089-1.0488.2988.0498.3535.3457.6308.4199.166-.8955-.9551-2.415-.2109-3.1494-.711-.3437-.7481-.8994-1.25979,0-.24611-.5488.64839-.9023-.21091-.8398.0761.7324.1172,2.1142.21091,1.6796.42579-.1337.13869-.9814.63089-1.0488-.002.21.1699.249.209.4199m-13.0157.419c-.3828-.3975-1.2715-1.377-1.6797-1.0498.2442.0351.2286.332.211.6308.7851-.2783,1.2011.8741,1.4687.419m15.5352.6299c.01761-.3301.5351-.1631.418-.6299-1.3633-.3477-1.0352-1.082-2.5176-1.2598.4218,1.1983.1738,1.7754.4199,3.1494a.925.925,0,0,0,.8398-.4209c-.9511-.5576.3106-.8818.6289-1.4687.0332.2471-.0351.5957.211.6299m2.09761.6308c-.72851-.4668-1.15041-2.3427-2.30861-1.6797.9278.1709,2.2012,2.0704,2.30861,1.6797m32.54108-2.3105a1.17894,1.17894,0,0,1-.211.8408,2.5297,2.5297,0,0,0,1.2598-1.0508c-.5938-.1728-.543.2959-1.0488.21M18.68549,35.4785c-.5527-.3242.334-.4785-.8398-.6299,1.0469-.3115,1.1308-.165,1.0488-.8398.416-.1064.48051,1.1582.8399.4209-.295-.0557-.2403-.4609-.42-.6299-1.2675-.3799-1.5586.2432-2.93939.209v.8398c.88079-.0332,1.79879.9893,2.31049.6299m7.9766-.6299c.0137-.4521-.24809-1.6865-.6289-1.0488.3262.0176-.4024,1.251.6289,1.0488m8.8164-.4189c.3066-.1152,1.0859.2451,1.0508-.21-.4297-.0634-.4121-.5693-.8399-.6308a1.17845,1.17845,0,0,1-.2109.8408m11.96679.209c-.0449-.2363-.2324-.3262-.4199-.419-.0625.5518.291.6875.8398.6289-.20118-.3906.6289-.7011,0-.8398a1.48739,1.48739,0,0,1-.4199.6299m14.9062-.419c-.0488.3252-.8086.9786-.2109,1.2588.0039-.3467.582-.1172.6289-.4199-.2363-.0439-.3262-.2334-.418-.4199.5508-.5459.1641.3398.8379.2099-.0351-.3144.0762-.7734-.209-.8398-.0351.2451-.332.2285-.6289.2109M14.48629,36.1074c-.7129-.2422-.7949-1.3496-1.6797-.8388.0117-.2686.2695-.2901.211-.6299-.5391.2275-1.002-.6377-1.2598,0,.2969,1.0127,1.8203,2.3857,2.7285,1.4687m58.57029-.6289c.5078.4473.9297-.4677,1.2598-.8398-.3906.2012-.7012-.6279-.8399,0,.7383.3594-.5273.4228-.4199.8398m-21.2031.8399c-.4863-.3701.1309-1.1944,1.0508-.6299-.0489-.3965.2363-.4629.209-.8399-1.0254-1.1123-2.3711,1.7872-1.2598,1.4698m7.5586.6299c.5703.456,1.0234.3574,1.6777,0-.2929-1.294.95122-1.375.4219-2.3096-.5234-.0332-.6504.3301-1.0508.4199.6426,1.3643-.9551.416-1.0488,1.8897m-9.4473-1.2598c1.0274-.1377-.8379.9473,0,1.2598.0723-.7745,1.2656-1.5235.8399-2.0997-.1914.3702-.7735.3467-.8399.8399M16.79489,37.7871c-.4551.0352-.0938-.7441-.209-1.0488-.3105-.1094-.5293-.3115-.8398-.4199.4726.8476-.125.8105.62891,2.0996-.20511-.7539,1.02339-.4893.62889.2099.3144-.0361.7754.0743.8418-.2099a1.06021,1.06021,0,0,1-.6309-.6309c.4141.0635.418-.2822.6309-.4189-.1192.6787.0625,1.0556.4179,1.2597-.5625-.1455-.4062.4336-.6289.6289,1.0957-.205,1.8946.6778,2.7286-.6289-.9766-.2568-1.2696-.1269-1.2598-1.6796-.7168-.1582-.2656.8525-1.0488.6289.0625-.4268.56831-.4102.6308-.8389-.4922-.4199-.8496-.9707-1.8906-.8389.6094-.3457-.5684-1.0293-.62889-.6308a4.90506,4.90506,0,0,1,.62889,2.5185m5.459-1.2588c.2012-.7617-.9434-.1767-.83989-.8398a.9784.9784,0,0,1,.62889.2109c.252-.625-.8847-.9023-1.0488-.4209.3906.378.293,1.2461,1.2598,1.0498m13.0156,1.4698c-.3281-.9336-.2109-2.3077-1.0508-2.7295a6.41536,6.41536,0,0,0,1.0508,2.7295m33.37889-.8399c.0625-.4287.5684-.4111.6289-.8398-.4629-.166-.2715-.9873-.8379-1.0498.0528.6787-1.23238.1787-1.6797.8388.2461.0332.5957-.0351.6289.211-.1152-.001-.2382.1699,0,.2099.0293-.3457,1.4415-.3457,1.4688,0a3.90655,3.90655,0,0,0-1.8867.6299c.2344.044.3242.2324.4179.419-.1621.0478-.414.0058-.4179.2099.5801-.1621,1.6797-.4385.8379-.8388.3965-.0479.4629.2363.8398.2099m-45.34569-.2099c-.1426-.626-.2539-1.2852-.8398-1.4698a1.47981,1.47981,0,0,0,.8398,1.4698m3.98831-.21c-.541-.0508.28909-.3623,0-.8389-.39841-.0908-.52741-.4531-1.04881-.4209.0664.5762.5019,1.8604,1.04881,1.2598m6.29879.21a1.077,1.077,0,0,0-.4199-1.4698c.2539.375.03911,1.2207.4199,1.4698m28.76169.8388c.75-.0195,1.43952-.0967,1.6797-.6289-.6074-.501-1.248.3076-1.6797.6289m2.7286-1.8877c-.16408-.0468-.2442-.1767-.211-.4209a2.72172,2.72172,0,0,0-2.3086,1.6797c.6953-.5644,1.877-.6416,2.5196-1.2588m-3.5684.8389a1.14583,1.14583,0,0,0,1.0488-1.0498c-.8496-.1494-1.1972.2021-1.0488,1.0498M31.49019,37.9981c.6641.0332,1.2676.0068,1.46881-.4209-.20321-.1299.09369-1.128-.62891-1.2588-.1797.6699.33.6494.41991,1.0498-.211,0-.25.1699-.41991.209a1.46762,1.46762,0,0,1-.629-.419c.1622-.0478.4141-.0058.42-.2099-.666.1005-1.2344-.2491-1.8907-.21.68561,1.4238,1.0762.1797,1.2598,1.2598m-6.0879-1.0498c.3731-.126.8711.6152,1.0488,0-.1035-.2188-.78709-1.2295-.4179-.6299.3262.7461-.7149.1259-.6309.6299m10.4961.2099c.2149-.2764.207-.7744.4199-1.0508h-.8398v.4209c.5684.1309.0371.1075.4199.6299m40.93749-.4199c.16212.583-.6367.5879-.41988.8389.95308-.1807,2.28708.083,2.73048-1.0489-.8379-.6318-.9219.9414-1.8907.8399.1348-.3516,1.3555-1.3936.8399-1.0498-.4395.1211-.5996.5205-1.2598.4199m-10.916,0c.3965-.0938,1.2637.2861,1.0508-.4199h-1.0508ZM21.414,37.1582c-.02731.4639-.89061.0889-1.25971.21a1.14605,1.14605,0,0,0,1.0508,1.0498c-.0586-.9639.3632-.4795.8378-1.0498a3.452,3.452,0,0,0-2.0996-.8399c-.11129,1.2618,1.18171.0254,1.47071.6299m15.95509.21c-.6758-2.2393-.5176,1.9795.62891.8388-.90041-.0683.62309-1.1709-.41991-1.6787-.0352.3135.0762.7744-.209.8399m14.48439-.6299c-.1289.5703.2676,1.666-.209,1.8896.0469-.6757-.373-.8886-.2109-1.6796a8.81165,8.81165,0,0,0-1.4688,5.039c.3301-1.0547,1.7031-1.7637,1.4688-2.7305.4355-.1875.0566,1.4307.4199.6299.084-1.5664,1.1348-2.1836.8398-3.3584-.039.3106-.5078.1924-.8398.21m3.1484,0c-.1621-.0459-.4121-.0068-.41788-.21a2.00347,2.00347,0,0,0-1.05082,2.5196c.3476-.9112,1.0937-1.4268,1.4687-2.3096M36.52929,38.6279c-.2578-.1777.1914-2.0195-.211-1.6796-.4297.5908-.4492,2.0039.211,1.6796m2.3105-1.0507c.0586-.5489-.0781-.9014-.63079-.8389-.06061.5488.07609.9033.63079.8389m8.18559,1.0507c.1015-.541.8457-1.5175.4199-1.8896.082.7226-1.0547,1.3086-.4199,1.8896m-18.26369-.6298c.7852-.0196.5996-.2373,1.2598,0-.27349-.5205.6152-.8721,0-1.0498-.3653.2597-1.4336-.2002-1.2598,1.0498m26.03119.4199c.5215-.5703.3067.1767,0,.4199a.91113.91113,0,0,0,.42-1.6797c.03512.4746-1.0098.9229-.42,1.2598m18.6836-.4199c-.2773-.5264.9786-.5098.211-.8399-.0469.1631-.1758.2442-.4199.21V38.418c.4335.1846.7949-.6924.4199-.6309-.0117.1299-.0313.249-.211.211m-14.0644.8398c-.5352-.3066-.4082-1.2734-1.0508-1.4697a8.17364,8.17364,0,0,0-1.4687,3.5683c.8906.3662,1.5195-.6855,1.8886-1.4697-.2793-.5146-.78118.2315-.8398-.21.1777-.4521,1.3398.0791,1.4707-.4189m-9.8672-.21a.97328.97328,0,0,1,.6289.21c.166-.1465.4668-1.1719,0-1.2607-.1875.3711-.5059.6132-.6289,1.0507m10.49612.21c1.14838-.3135-.32032-1.8066-.83992-1.0508.4786.1524.0625,1.1973.83992,1.0508m6.50778-.8398c-.416-.003-.2676-.5733-.83978-.4209-.03132.248.03708.5966-.209.6298,0-.1162-.17192-.2373-.211,0,.26958.2891,1.25588.3663,1.25978-.2089M21.623,38.6279c.64259.1524.61919-.3632,1.26169-.2099-.0332-.2481.0352-.5967-.2109-.6309-.166.4639-.9863.2744-1.05079.8408m45.76558,3.5674c.4395.1221.5997.5215,1.2598.4209a12.12446,12.12446,0,0,0,1.4707-4.1982,2.69982,2.69982,0,0,0-1.6797-.6309c.086.6406.7578.1494,0,.8408.3907.2012.7012-.6298.8379,0a5.04444,5.04444,0,0,1-2.7285.8389c.3691.1924,1.0488.0723,1.2598.4199-.3301.1602-.3145.666-.8379.6309.5547-.5391-.3692-.3379-.6309-.6309.4141.7442.2735.4151,0,1.2598.3125.0371.7735-.0752.8399.21-.5059.7939-1.2871.1562-1.67968.8388,1.28708.168,1.709-.5293,2.30858-1.0488.1562.6465-.5762.4033-.42,1.0488m-11.7558-1.2588c.0371-1.0859,1.3008-2.0527.8398-2.9384-.584.54-1.4843,1.8662-.8398,2.9384M14.90619,39.0479c.0977-.6582-.5293-.5928-.8398-.8409.0722.4883.1347.9844.8398.8409m18.05281,0c-1.40431.2158-1.74611-.6328-2.93751-.6299.0332.9258-1.2598-.3106-1.4688.6299.127.0117.2461.0312.209.2089.0117.129.0312.2491.2109.21-.1445-.5644.4317-.4053.6289-.6289-.0488,1.418,1.8731,2.1992,3.5684,2.0986-.6074-.1162.3223-.3271.209-.6298-.6582-.2403-.5078.33-.83989.4209-.22261-1.2149-1.53511.1318-2.09761-1.0508.3574-.1309.3457-.6338.6289-.8389.3496.417-.0195.2656,0,.8389.7891.4316,1.5156-.0176,1.46871-.42.28129.21.41409.5684.83989.6299.0039-.6591-.6914-1.1718-.209-1.6797-.8867.2618-1.3496-.1416-1.8906.211a9.30232,9.30232,0,0,1,1.67971.6299m-11.125-.21c-.086.5059.38279.4561.20889,1.0488,1.2422-.1767.336.4912,1.2598.6309-.2812-.5596-.0664-1.6133-.6289-1.8897-.0391.3106-.50779.1924-.83979.21m14.90619.6289c.6719.1846.4336-.5439.8379-.6289.29491.0156.8027-.0469.41991-.21-.65821.1436-.85741-.0244-1.04881.21.6074.1172-.3223.3262-.209.6289m-1.8906.6299c-.8848-.1338-.2735-.9619-.6309-1.2588-.6543-.0967-.6699.4482-.6289,1.0488.53521-.1611.9649.8213,1.2598.21m4.4082.8398c-.6152-.415-.6797-.0732-1.04879-.6298-.15821-.6456.57609-.4034.41989-1.0499-.2852-.0654-.4024-.2978-.83989-.2089-.30661,1.6054.75589,2.4404,1.46879,1.8886m13.01559,2.3096c2.0039-.5117,3.31062-1.4941,2.5195-3.9893-1.625-.2636-2.3164,2.1397-2.5195,3.9893M23.51359,39.4668c-.17959.4277.1836,1.3047.42.6299-.5235-.3887-.0137-.3848.4199-.21-.084-.3613.31051-.5381,0-.6299-.1836.3174-.3164-.0566-.8399.21m46.60549.6299c.6387.3047,1.0723.0361,1.0488-.8399H70.539c.15238.5723-.41792.4229-.41992.8399M19.52539,42.4063c-.4453-.5137.2207.3125.6289.2099.082-.3603-.3125-.539,0-.6289,0,.21.1699.249.209.419-.0411.2675-.6094,1.0283-.209,1.0498.6718-.2452,1.0019,1.6533,2.0996,1.6797.0097-.3936-.1621-.4454-.41989-.21a.99773.99773,0,0,0-.211-.6309c.93749.6514.24219-.4209.63089-.6289.1172.4619,1.2168.2725.6308.8399h.6289c.127-.0117.2481-.0313.209-.211-.59959-.2412.3399-.2412.42,0,.2597-.6787-.6797-.1601-.42-.8388.211.0009.25-.17.42-.21.0605.3076.2168,1.3779.8398.8389-.5078-.1211-.4668-.791-.6289-1.2578a15.17706,15.17706,0,0,0-2.93949.8388c.002-.2099-.16991-.25-.20891-.4199a1.77154,1.77154,0,0,0,1.8867-.6299c-1.0235.4541-1.6153.0498-2.3067.8399a.99006.99006,0,0,0-.2109-.6289c1.0977-.2334,2.2305-.4297,3.3594-.6319.0019-1.4316-1.916.1934-2.31059-.4189.61139-.2285,1.48439-.1953,1.89059-.6299-.88859-1.2188-3.2675.4541-2.9394-1.0498-.3145.0361-.7754-.0742-.8398.21.3417-.2647-.65039.9755-1.0489.4209,1.0664.0361.0449-.709.8399-.8409,2.3535-.3535-.8203.1133-1.2618-.2099-.1992.3906.6309.7021,0,.8408.002-.1172-.1699-.2393-.2089,0,.664.3213.8984,2.1719,1.4707,1.8887m5.2461-1.8887c.4961-.0059.6191.3603,1.2617.21.2344-.9356-.6465-.7559-1.0508-1.0508.0469.3965-.2363.4638-.2109.8408m23.93359,1.2588c.6953-.2842,1.2265-1.5381.62892-2.0996a11.37017,11.37017,0,0,0-.62892,2.0996m-19.31249-.4199c.0859-.6602-.47859-1.7432-.8399-1.2598.5488.1504.1992,1.1992.8399,1.2598m17.42179.2099h.8418c.041-.5898-.90618-.6055.209-.6299v-.8398c-.3613-.083-.5371.3125-.6308,0-.0098-.127-.0313-.249-.209-.21-.3243.7412.1132.9395-.211,1.6797m12.1778-.6299a1.1985,1.1985,0,0,0,1.2597-.6298c-.541-.5157-1.0097.2246-1.2597.6298m5.8769-.2089c.5547.3525.4453-.503,1.0508.2089.3496-.417-.0195-.2666,0-.8398-.5371.0244-.7363.3848-1.0508.6309m-55.63079,0c-.1778,1.0917.34571,2.582.8398,2.3085-.375-.455-.1406-1.1933-.6309-1.0488.0547-.2959.461-.2402.6309-.4209a1.4667,1.4667,0,0,1,0-1.2597c-.7207-.1221.0176.9921-.8398.4209m20.5722.6289c.4961.9355,1.2871.4365,2.3106.4199-.4473-.8838-1.7129-.9453-2.5196-1.4697v.8398c.5352-.1611.9649-.3086,1.2579.21-.5196-.0225-.6485-.3926-1.0489,0m5.459-.21a.57217.57217,0,0,1-.4199-.6289h-.4199c-.0118.2676-.2696.29-.211.6289.5215-.2725,1.0196.4687,1.0508,0m8.3984.4199c.1563-.7871-.2363-1.0224-.8418-1.0488.1895.4414.00791,1.2519.8418,1.0488m6.92579,1.0498c.9707-.0791.8282-1.2705,1.0508-2.0986a1.61872,1.61872,0,0,0-1.0508,2.0986m-16.164-.6289c.1386-.6299.4492.1992.8398,0,.0938-.5332-1.0976-.8369-1.2598-.4209.1622.0479.4141.0059.42.21-.1172,0-.2383.1709,0,.2109m24.56249-.4209c.3066.1836.666.3145.6289.8399-.5899.0107-.5742-.9141-1.0489-.419.30082-.3086.1602-.666-.4199-.6308-.6211.5293-.52728.6816-.4199,1.6796a15.59247,15.59247,0,0,1-1.6797.42c.6836.7187.0078.1132-.209,1.2597a4.69551,4.69551,0,0,1,2.0977.42c.5273-1.0225,2.8535-3.3799,1.0508-3.5694M70.539,42.6162a1.95143,1.95143,0,0,0,.83788-1.2597c-.5254.0468-1.1406,1.0791-.83788,1.2597m-9.65822,2.0996a4.43421,4.43421,0,0,1,1.8887-1.4697c-.2344.3027-.2246.5127.2109.6289-.0488-.9541,1.5528-.417,1.8887-1.4687-.37108-.0479-1.0508.2109-.8379-.419.59182-.0371,1.4395.1797,1.46882-.4209-2.44732-.0566-3.20312.4756-3.77932,1.6797-.0332-.2471.0351-.5957-.209-.6299-.3262.3037-.5625.6983-1.0508.8399-.043.6035.0527,1.0664.4199,1.2597M8.18749,42.8272c.01951-.3311-.0274-.7295.4219-.6319-.0606.5508.0761.9033.6289.8408.3652-1.5019-2.336-1.0029-1.0508-.2089M6.92969,44.085c.0312-.5225-.3301-.6494-.4219-1.0489.2109,0,.25-.1699.4219-.2089-.1563.8007.7714.2373.8379,0-.2442-.0362-.22659-.333-.209-.6319-.791.0401-.9551.377-1.2598.4209.459.1729-.3125,1.3672.6309,1.4688m21.4121-.419c.9726-1.4433-2.6211-2.2763-2.3086-.2099a4.30072,4.30072,0,0,0,2.7285.6289c.15231-.9199-.418.1699-.4199-.419m3.1484-1.4707c-.3691.1221-1.2324-.2519-1.2598.211.3711.1904.3477.7724.8399.8398.2891-.4785-.541-.7891,0-.8398.0508.3222.34571.0312.4199-.211m1.25981.4209c.33009-.0205.72849.0283.62889-.4209H32.539c-.11711.5254-.52731,2.7637.211,1.6797.15229.6416-.21491.7656-.211,1.2608.44139-.0176.79109.4345,1.05079.2099-.88279-.6875.8125-2.5752,0-2.5185-.0351.3125.07621.7734-.2109.8388-.9356-.0215-.1641-.2324-.62889-1.0498M51.85348,44.085c-.0586,1.0381.5879,1.372.8398,2.1006.1211-.4395.5196-.5997.42-1.2598-.1289-.292-.8067-.0322-.8399-.4199.6699-.1797.6504.33,1.0508.4199.166-.958,1.7793-1.5723,1.25982-2.5195-.586.8838-2.04692.8935-2.73052,1.6787m15.5351-1.4688c-.6601.1055-.8574-.4941-1.0488.211.6289.5449,1.4141.7773,1.8887,0-.6504-.2784-1.1641.6211-1.4688,0,.2461-.0342.5957.0341.6289-.211M20.15429,44.2949c-.7969-.3222-.8828-1.3554-1.6797-1.6787-.2969.6612-.8125,1.333-.4199,2.0996.7812.2207.4121-.708.8398-.8408.0547.3272.4609.1465.6309,0-.1856.4336.6914.7959.6289.4199m11.3359-.4199c.0469-.1621.0059-.4141.2109-.4189.043.2353.2325.3261.42.4189V42.6162c-.8086-.1592-1.334,1.1699-.6309,1.2588m2.5195-1.2588c.5762.875.1114,2.6504,1.2598,2.0996.3184-.5.1231-2.1416-1.2598-2.0996m5.459.6299c-.4433-.1865-.6211-.6406-1.25969-.6299-.10941.6143.96289,1.1133,1.25969.6299m25.61139.21c.5351-.0235.7343-.3848,1.0488-.6289a1.36089,1.36089,0,0,0-1.0488-.211c-.0645.4121.2832.417.41992.6299-.29492-.0166-.80282.0479-.41992.21m11.9648.4189c1.7305-.9424,1.8379,1.0254,3.3594-1.0478-.7617.7558-1.9414-.1856-3.1485-.211.0469.626-.7734.7139-.2109,1.2588m-28.5508.6309c.0137-.1289.0313-.2481.211-.211.12692-.0107.248-.0312.20892-.2099-.31052-.0381-.19142-.5069-.20892-.8389.2558-.0234.496-.0635.41992-.4189h-.63092c.2754.7129-.4668,1.4638,0,1.6787m27.293-.8399c-1.2344-.7773-3.6426-.5117-5.459-.2099,2.1055.7685,3.83592-.253,5.877.6289-.0079-.4014,1.1093-1.292.21092-1.2578.375.7861-1.40822-.0635-1.05082.4189.34382-.1533.9141.417.4219.4199m-72.21679.419c.0976,1.0537.7266,2.1054,1.88871,1.4697-.34381.4629.02539,1.1592.41989.6309-.3477-1.1231-1.4082-1.5313-2.3086-2.1006m35.6875.8408c.0644-.9043-.7012-.9785-1.04879-1.4697a3.05553,3.05553,0,0,0,1.04879,1.4697M49.125,46.3945c.17378-1.0859.85348-1.665,1.04878-2.7285-.2676-.0117-.2891-.2695-.6289-.2099.0586.5654-.8066,2.1552-.41988,2.9384M63.61128,43.666c.17972,1.7696,1.2324.5586,1.88872.419-.33792.0722,1.416.5449,1.25968-.419-1.2031-.2617-2.1054.1563-3.1484,0M30.23039,45.1358c-.0918-.3965.2852-1.2657-.4199-1.0508-.2187.1992-.1914,1.083.4199,1.0508m-14.6953,0c-.2343.0439-.32609.2324-.4179.4189.2656.2861,1.0273.3242,1.04881-.209-.55471.0635-.541-.4385-.63091-.8398-.6035.2929-1.0664-.5733-1.2597,0a3.98584,3.98584,0,0,0,1.2597.6299m2.0996-.21c-.34569-.0039-.1171-.582-.4199-.6309-.0332.2471.03521.5967-.2109.6309.1015-.6524-.5645-.7891-.62889-.21.32609.0479.98039.8057,1.25969.21m51.01369,1.2598c.2031-.6387,1.2227-.4571,1.6797-.8399.1836-.6748-.6914-.2871-.6289-.8398.293.0156.80082-.0459.4199-.211a2.62748,2.62748,0,0,0-1.4707,1.8907m3.7793-1.8907c.5488.8155,1.084.7676.8399,1.4698.0585-.1895.7812-.7041.8378-.21-.8105.7979-2.4882.7305-3.9863.8398.168.7286-.3144.8086-.2109,1.4698.4414.1386.9336.5566,1.2597.2099-.455.4375.0254.6787.209,1.0498.6797.2598.16212-.6787.8399-.4199-.461.4434.2695.6201.2109,1.2598-.3086.0019-1.05468.584-.4219.8398.0235-.4004.78322.167,1.0508.21.3145-.2461.2481-.8721.8399-.8389-.25.5879-.3399,1.3369-1.2598,1.2588-.4551-1.0478-2.0859.1973-2.7285-.4199.5.665.375.6474,1.04882,1.0488.35348-.6846,2.27928-.1943,2.93948-.2099-.0567.4335-.9297.0498-.8399.6298.375.1172.8711.1084,1.0488.4209-.2988.0498-.3535.3457-.6289.42-.0312-.2481.0371-.5967-.2089-.6299.0175.5722-.35158.4218,0,.8388-.4082-.6113-1.459.4786-1.0508.6299-.0664-.3701,1.1777-.374.8398.211-.9414-.503-1.3594.5302-2.30858.6308-.03122-.2812.85348-.6357.209-.8418-1.02152.2334-1.58012-.0107-2.72852.8418.1601.6094,1.73052-.1924,1.8906.418-.3066.1152-1.0859-.2451-1.0508.209a1.18557,1.18557,0,0,1,.8399.2109c.0195-1.3828,2.1172-.2666,3.1484-.6299a1.48015,1.48015,0,0,1-.4199.6299c.15432-.6904-.416-.3213-.4199,0,.3965-.0469.4629.2363.8398.21.5117-2.169,4.4375-5.1895,2.5195-8.3975.2676.0127.2911.2695.629.21V46.8154c-.668-.1015-1.2793-.2607-1.4688-.8408.6563.0479,1.1094.9297,1.67972.4199a5.2885,5.2885,0,0,0-3.98832-2.0996m-.4219,5.2491c-.21678-.2217-1.498-.4327-1.6777,0a1.02453,1.02453,0,0,1,1.0488.4199c-.3222.0508-.0293.3457.211.4199.1093-.3105.3105-.5293.4179-.8398m.6309,3.3593c-1.1348-.5625-2.0352.3243-3.1484.42.2714.9834,2.7343.7568,3.1484-.42M76.416,45.5547V44.5059c-.41992-.086-1.55862-.5196-1.88872,0A8.39691,8.39691,0,0,0,76.416,45.5547m-55.84181.21c.6543-.626-.99019-1.2393-1.0488-.21a1.75752,1.75752,0,0,1,1.2597,1.0508c-.2246.4062-.9687.292-1.2597.6289a28.01039,28.01039,0,0,0,3.5664,2.0996c-.7891-1.4951-1.71679-3.1777-2.5176-3.5693m-.6309-1.0489c-.3964.0459-.4609-.2363-.8398-.2099.0371.3134-.0742.7754.2109.8398.0235-.3965.6934-.1465.6289-.6299m3.1485,2.5186c-.4571.5205.1504,1.248.6308,1.4697.0625-.4277.4219-.5586.6309-.8398a15.54865,15.54865,0,0,0-3.5684-3.1485c1.0196.5889.9024,2.3155,2.3067,2.5186m3.5703-1.0488c.0742-.6485,1.0703.5527,1.2598-.211-.3907-.2695.9003-.624.6308-1.4687-1.1641-.1162-2.6191.2217-1.8906,1.6797m39.88669.6298c.6973-.7031,1.57422-1.2275,1.8906-2.3095-1.4492-.1836-1.8066,1.8291-1.8906,2.3095m-55.63089-.2099c-1.6367-.0918-2.1406-.0674-2.7304-1.0508a8.84759,8.84759,0,0,0,2.51951.8398c-.22851-.8906-1.31641-.9218-1.67971-1.6787-.2265.4336-.8574-.2968-1.4687.21.6797.8467-1.1582,1.2822-.211,2.3086.02541-.2559.0625-.4961.42-.419-.7383.6573-.0157,2.3907.8418,2.7286.6914-.418-.5215-.8965,0-1.0498.7753.0634.7539.9238,1.88861.6298.49419.6153-.40431.7803,0,1.0508-.06441-.4853.60549-.2334.62889-.6308a.57286.57286,0,0,1-.41989-.6299c.68159-.2422,1.291.6406,1.67969,0-.5684-.4336.4805-.1826.4199-.4199-1.3262-.6036-1.1035-.5596-1.8887-1.8887M9.02729,49.124c.2949.6045-.57029,1.0674,0,1.2598.3281-.3018.7324-.5293.8399-1.0498-.3965.0478-.4629-.2363-.8399-.21m3.7793-3.7783c-.3711-.1367-1.041-1.0351-1.4707-.4199.332.1758,1.1719.9062,1.4707.4199m24.1426.6289c-.6856-.9609-.7129-.6025-1.4707-1.2588-.1543.9336,1.3633,1.2832,1.4707,1.2588m19.10349,2.3106a19.69368,19.69368,0,0,0,1.6797-2.9395c-.60938-.2305-1.4902-.1894-2.0996-.4199-.7129,1.2529-.5371,2.7217-1.04878,3.7783,1.09178.4512,1.00188-1.3603,1.67958-.6299-.4375-.1113-.4453.8184-.2109.211m8.8164-2.5205c-.5312.5888-1.3789.8593-1.8887,1.4697a4.14594,4.14594,0,0,1,1.4688.6299c-1.0391.1289-1.3418-.4756-2.0977-.6299a8.93385,8.93385,0,0,0-1.8906,1.2598c1.08012.25,3.2539-.5948,3.3594.6298a2.22015,2.22015,0,0,0-1.8887-.2099c.5762.122.877.5224,1.4688.6299.5722-.5577,2.2929-2.0977,1.4687-2.0997a3.58859,3.58859,0,0,0,1.8906-2.3085c-.7675-.1163-1.125-.253-1.47068.4189.39648.0947,1.26568-.2852,1.05078.4199-.6426.3438-.6582.0069-1.4707-.2099m-58.15039.2099c.0957-.6572-.1816-.9365-.8398-.8388.0722.4863.1347.9834.8398.8388m53.53319.4199c.37312.1016-.0918.2237-.21088.4209,1.57808-.1718,2.90428-.5957,3.57028-1.6796-.7949.1357-1.9941.2148-.8418.6289-1.8008-.2745-1.707.7675-2.5176.6298m-35.48039-.2089c.4316.1191,1.5761-.0635.8418-.4209-.3145.8271-.877-.8965-1.0508-.21.2461.0361.22851.333.209.6309m15.7461,0c.0585-.5498-.0762-.9034-.629-.8399-.0605.5488.0762.9014.629.8399m12.59569.8398c.4492-1.3047.1816,1.1289.4199.4189.166-.6142,1.0195-1.6279.63082-2.0986-.29882.9317-1.375,1.0654-1.05072,1.6797m-2.0997,0c.48442-.0654.2325.6055.6309.6289.0938-.6055.7422-.6562.6289-1.4687-.9785.1836.2891-.5459-.4199-.6309-.043.2539-.2324.1299-.4199,0a4.26873,4.26873,0,0,1-.42,1.4707m-37.996.8389c.0449-.3965-.2383-.4629-.211-.8389-.3965-.0947-1.26559.2852-1.0488-.4199.3965-.0479.4609.2363.8398.2099-.1308-.7793-.957-.8642-1.6797-1.0507a2.78611,2.78611,0,0,0,2.0997,2.0996m3.9863-1.6787c-.1621-.0479-.4121-.0069-.418-.211.1289-.0107.24811-.0312.209-.2099a2.21535,2.21535,0,0,0-1.6777.8408c.5625-.5127,1.457-.2266,1.8867-.4199m18.0547,1.0488c.8437-.5098,1.2226.0703,2.1015,0-.1074-1.082-1-1.3799-2.1015-1.4697-.3555.4609-.584,1.166,0,1.4697m22.67379-.209c.2324-.207,1.0312-.9023.4199-1.2607-.0859.3545-.9902.9443-.4199,1.2607m-54.582-.21c.6113-.0537.72461.3955,1.0488.6289.6152-.4101-.666-1.2714-1.0488-.6289m13.22461.21c.24609.0352.22849.3311.21089.6289a.98325.98325,0,0,1,.6289.21c.5156-.2793-.3789-.6328.211-.8389-.002.1152.1699.2383.2089,0-.2793-.5146-.7812.2305-.8398-.21.1172.001.2402-.1699,0-.2099-.002.2773-.3672.1904-.41989.4199m10.916-.21c-.21681.9883.48439,1.0547.83979,1.4698.70121-.002,1.0274-1.0118,1.6797-.4209-.1386-.8116,0-.7461-.209-1.2588-.7148.3633-1.4843-.2656-2.31049.2099m12.17769,0v.419c.0117.1289.03131.249.209.2099.23831-.1787,1.1484.0967.6309-.8388-.3965-.0479-.4649.2363-.8399.2099m29.38869.21c-.0645.2832-.2969.4004-.209.8389.4141-.0635.416.2841.6289.4209.1953-.8858.0078-1.0625.6309-1.6797-.8399-.0694-1.166.375-2.0996.2099-.1934.7168-1.0059.8125-1.0489,1.6788a3.92642,3.92642,0,0,1,1.6797-.209c.0332-.7979.0078-1.3321-.4199-.6309-.0644-.5527.291-.6894.8379-.6289m-20.3633,4.1982c.1563-1.0996,1.5586-3.332.83992-4.4082-.47862,1.1319-1.27742,3.0567-.83992,4.4082m3.3594-2.5195c.43552.336.2598,1.2813.6309,1.6797.0722-.8613.9648-2.583,0-3.1494.0527.7539-.6309.7685-.6309,1.4697m6.9277-.4189c.961.3867,1.7344-.628,2.5196-1.0508a2.4696,2.4696,0,0,0-2.5196,1.0508m6.0879.6289c.8047-.043,1.7754-1.0127,1.4707-1.4698a6.56306,6.56306,0,0,0-1.4707,1.4698m-47.23439-.4199c-1.082.0097-1.9336-.877-2.7285,0,1.30081.2138,1.96881.625,2.7285,0m15.7442,2.0986c-.87889-.8789-.336-1.8906-1.6778-2.3076v.8388c.793.0469,1.7774,1.9063,1.6778,1.4688m2.3105-.418a1.50111,1.50111,0,0,1,.42-.6308c-.0313.8798.1093.5058.4199.2099-.1739.5928.2949.544.2109,1.0498-.4297.0635-.5605.4199-.8418.6299a3.48918,3.48918,0,0,0,.4199,1.4697c2.59771-.4277,1.8575-4.0322-.2089-3.9892.1269-.0117.248-.0313.2089-.21-.6406.2666-1.06829-.7187-1.2597-.2099.7383.1406-.1387,1.2558.6308,1.6806m-6.5078-.8408a.91641.91641,0,0,1-.4199-.8398c-.30469.1152-1.0859-.2442-1.0488.2099,1.0664.3389.5937.501.4179,1.4707.2813.208.4121.5664.8418.6289.2227-.7832-.789-.332-.6308-1.0498a.57423.57423,0,0,1,.6308-.4199c-.0019.1162.168.2383.209,0m.4199.8408c-.31049-.1094-.5293-.3115-.8398-.4209-.1152.8145.9062.4932,1.0488,1.0498-.1367-.7676.4551-.8047.4199-1.4697-.3105-.1094-.5293-.3106-.8378-.4199-.0489.4209.9355.8496.2089,1.2607m-17.2148-.4209c0-.2099.1699-.25.2109-.4199-.7441.0693-.5175.5771-1.2617.21a1.59924,1.59924,0,0,0,2.1016.6308c-.7227-.6162.89651-.501.8379-.6308-.73439-.0577.3789-.9297-.209-.8399-.8809.4971-.4746.5195-1.6797,1.0498m49.96479.8389c.002-.2774.3672-.1904.418-.418-.7051-.1904-.0234-.4707-.418-.8408a.99065.99065,0,0,1-.6308-.21c-.0352.3135.0742.7744-.209.8399.0859-1.0664-.8223-1.1367-1.67968-1.2598.30078.9561-2.31442.377-1.89062,1.2598-.0606.1513.5918.1699.4199.6289,1.4336.2402.13872-1.292,1.0508-1.2588-.4082.4043.2207.8447.209,1.4697a5.9123,5.9123,0,0,0-2.3086.8399c.7187.208.6289-.0889,1.0488.4189.293-.1289.0313-.8076.4199-.8389v.8389a2.54012,2.54012,0,0,0,3.1504-1.4697c-.5351.1094-.8164.3584-.8418-.418a7.38451,7.38451,0,0,1,1.2617.418m3.35752-.209c.63668-.291-.05282-.5947.63078-.8398v.6308a1.40789,1.40789,0,0,0,1.6797-.8408c-.7793-1.291-2.6211.1963-2.31048,1.0498M7.97849,51.4336c-.0508-.2998-.3457-.3535-.4199-.6299.4179-.4385.7343.1543,1.0508.4199-.0567-1.205-.9258-1.5957-1.4708-2.3095-.5292,1.0976.8907,2.7275.8399,2.5195m14.2754-2.0996c-.5938-.0352-.875-.3857-1.4688-.4199-.0664.5722,1.2188.8574,1.4688.4199m3.3594.4199h-.6309c.0742.6953.6289.9112,1.0508,1.2598-.3516-.6582.0215-2.2022-1.2617-1.8897a3.60794,3.60794,0,0,1,.8418.6299m2.3086,2.0987h-.42a.98313.98313,0,0,1,.211-.629c-1.0137-.4023-.6817-1.0927-1.2618-2.0996-.0117.128-.0292.2491-.2089.21-.1289.0117-.2481.0322-.209.21a4.16085,4.16085,0,0,1,.4179,1.8896c.461.0469,1.13091.9463,1.4708.419m24.14249-1.0489c-.4062-.3633.1797-1.7197-.6308-1.6797.0215.7491.0976,1.4414.6308,1.6797M54.373,49.544c.03708.3144-.07422.7744.211.8398v-.6299c.52538.0362.65618-.3222.83788-.6299-.6465-.1562-.4024.5762-1.04888.42m9.23828,1.2597A2.534,2.534,0,0,0,65.289,49.124c-.61522.6807-1.80272.8028-1.67772,1.6797M18.89449,49.544c-.2949,1.1855.9863-.0362,1.0488,1.0488-.7089-.082-2.0039-.5938-2.0976.4209,1.0332.4472,2.4101-.6865,3.3594.2099-.20709-.7812-1.168-1.9043-1.6797-1.6796.51561.705-.2696.1474-.6309,0m-.209,0h-.8398a1.18543,1.18543,0,0,1-.211.8398h.6289c-.1523-.5713.418-.4229.4219-.8398m-.8398,2.0996c.9824-.1368,2.5117.2744,3.1484-.21-.9609-.2519-2.4492-.3623-3.1484.21m16.7929.209c.0821-.7872.0918-1.3702.211-2.5186h-.6309c.168.9424-.5195,1.6768.4199,2.5186m-19.1035-1.6778a1.53639,1.53639,0,0,0,1.6797-.4209,1.78807,1.78807,0,0,0-1.2597-.2099c.3437,1.041-.0235.1191-.42.6308m16.166.8389c-.164-.0479-.414-.0059-.4218-.21.3984-.459-.0586-1.3359-.8379-1.2597a8.00436,8.00436,0,0,0,.418,1.4697c.3925-.2012.7031.6279.8417,0m36.10749-.8389c.5566-.0039,1.2363.1153,1.2597-.4209-.791-.1084-.957-.2656-1.2597.4209m5.248,6.7168c.6367.3301.4375-1.3613.6309-.2109,2.9668,1.0205,3.9472-2.4326,5.6679-4.4073-.33-.0205-.7285.0284-.6308-.4208,1.1601.5341,1.90042-.9903,2.5195-1.6778-.164-.0478-.24408-.1767-.2109-.4209a1.89429,1.89429,0,0,0-2.5176,1.2598c-1.252-.4199-1.4961.1865-2.5195.8389.248.0332.5957-.0352.6308.2099a1.86832,1.86832,0,0,0-1.6797,1.4697c.4766.2891.7872-.541.8399,0-.6504.2481.0312.5284-.4219.8409-.0566-.1914-.78118-.7061-.8379-.211-.1054.46-1.1699,1.7647-1.4707,2.7295m-25.8222-2.5185c-.3965-1.3057.9179-3.2735.4218-4.6192-.11718,1.5127-1.334,3.9971-.4218,4.6192m22.4648-4.4092c-.2969.6699,1.2559.5312,1.25782.2109-.416-.0039-.26562-.5732-.83792-.4209.0098.3926-.16208.4444-.4199.21M24.77149,52.4824c-.6856-1.1338-2.1407-2.6132-3.5664-2.3076,1.29491.5244,1.9863,2.7666,3.5664,2.3076m58.15229-2.3076a1.77645,1.77645,0,0,0-1.2617-.2109c-.3047,1.0605,1.1777.6006,1.2617.2109m-70.53709.8389c-.6602-.0996-.55469.5654-1.0508.6299.3125-.9922-1.2051.5156-1.0488-.6299.6035.043,1.0664-.0537,1.2598-.4209-.375.126-.8711-.6143-1.04889,0,.59959.2441-.33981.2441-.41991,0,.1738.5947-.2969.5449-.2109,1.0508.7714.5586,1.3593,1.3007,2.0996,1.8886.69721-.4511-.2207-1.4277.8398-1.2588-.0234-.5224-.3945-.6503,0-1.0498-.5137-.1396-.76759,1.0196-1.0488.42.0215-.3965.6933-.1465.6289-.6299m52.48239.6299c.5586-.2129,1.1934-.3448,1.2598-1.0508-.9961-.2402-1.6192.584-1.2598,1.0508m1.6797-.42c.7481.3965,1.5859.1934,1.6797-.6308-.8438-.0723-1.5352.0049-1.6797.6308m-60.66989,0c.4883.0918.5625.9268,1.0508.42.0351-.5264-.3223-.6573-.6309-.8399-.0019.2774-.3691.1914-.4199.4199m8.8183,1.2588a15.08258,15.08258,0,0,0-.6308-1.6787h-1.0488c.6132,1.5918.5039.5244,1.6796,1.6787m48.07229-1.0488c.1738.5938-.2949.544-.209,1.0488.8848-.0947.9336-1.0263,1.4707-1.4687a4.74071,4.74071,0,0,0-1.2617.4199m-33.37689.8398c.1992-1.1347.5859.4883,1.0488.42.30861-.4961.4414-.3907.209-1.0498-.918-.1807-1.4297.4492-1.6778-.21-.0449.2539-.2343.1289-.4199,0-.0801.6387.7617.3565.8399.8398m31.27929.209c1.0917.1836,1.5644-.2529,1.6796-1.0488-.8867.0225-1.1992.6201-1.6796,1.0488m5.248-.4199c.36912-.1201,1.2344.2539,1.2598-.2099-.5411-.376-1.0098-.5235-1.2598.2099M16.166,54.582c-.04691.3975.23629.4639.209.8399.39649.0478.46479-.2363.83979-.21-.2539-1.2256.1914-1.916-.83979-2.7295.39649-.0468.46479.2373.83979.211-.0351-.3145.07621-.7754-.2109-.8408-.1563.413-.668-.5694-1.4688-.209-.0703.6504.4864,1.0019,0,1.4697.3145.0351.7754-.0752.83991.21-.24611.0322-.59571-.0372-.62891.2089a1.94255,1.94255,0,0,1,1.2578.8409,1.16853,1.16853,0,0,0-.83789.2089m7.34759-.6298c.3321-.6905-1.498-1.0166-1.4707-2.0996-1.2207.5273-2.5273-.2715-3.3574.2099,1.31451.2539,2.4258,1.4971,3.7774,1.0508-.0821.2988-.252.3545,0,.6289.414.0635.416-.2832.6289-.4189.0215.3291-.0274.7275.4218.6289m29.39069-1.8897c.0605.8565.92972.6035,1.0488,0-.5215-.0215-.6504-.3926-1.0488,0M21.414,53.5322c-1.21871-.1855-2.55271-1.3603-3.35931-1.2588.8066.5967,2.3984,1.5167,3.35931,1.2588m34.21878-.4189a.57376.57376,0,0,1,.6308-.4199c.2383.6601-.332.5097-.4199.8388.6914.5391.7754-.9336,1.0489-1.4697h-1.0489c-.0429.2686-.6113,1.0293-.2109,1.0508m9.65622.21c.05078-.2999.34568-.3545.42-.6299-.25592-.0244-.49612-.0625-.42-.42.31638.2422.88478.7374,1.05078,0-.5937.1739-.5449-.2958-1.05078-.2109-.42572.0625-.41012.5684-.83982.6309.0176-.3272-.6094-.1455-.209,0,.4356.122.6777.4404,1.04882.6299m-51.85151-.21c.6386.373,1.14451.4189.8379.8389.5254-.2676.6582.1074.8418-.21-.2559-.0439-.1309-.2324,0-.4189-.74419-.0713-.5176-.5782-1.2618-.21.35161-.6553-.7793-1.0176-.2089-.6309a1.0089,1.0089,0,0,1-.209.6309m4.1972,1.6797c1.2325-.4776,3.5899.5156,5.25,0-1.9043-.8379-3.705-1.2041-5.4589-2.5196.1328.7754-.2715,2.0909.2089,2.5196m22.043.4189c.0567-.3261.4609-.1455.6309,0a2.357,2.357,0,0,0-1.0508-2.9385c.2695,1.2159.207,2.0528.4199,2.9385M54.164,53.3233c-.04882-.1641-.00782-.4151-.21092-.42v.8389c.5371-.1045,1.25592-1.1074.8398-1.4688-.3105.2491-.3261.792-.62888,1.0499m3.56838-.6299c.18162,1.3759-1.5605,1.9326-1.2598,2.7285.35942-.9697,1.6875-.9707,1.8887-2.0986-1.0371-.1163.2188-.1084.2109-.42-.3964.0459-.4628-.2373-.8398-.2099m8.6074.8388c.3047-.1142,1.084.2452,1.0488-.2089-.5273-.2129.7325-.3643.6309-.8409-.5742-.0175-.4238.3496-.8398,0,.0879.7188-.6289.6319-.8399,1.0498m-30.02149,0c.2266,1.0254.4258,1.0694.6309,2.3096,1.2519-.0469.0449-1.3955.83981-1.6797-.248-.0332-.59571.0362-.62891-.2099.4356-.0606-.3125-.5674.418-.6289.04691.1621.0078.414.21091.4189-.11521-.3047.24419-1.085-.21091-1.0488-.3027.3955-.4687.9297-1.2598.8388m22.67389,0v.8409c-.82818-.2032-1.9825.9091-2.5196,1.6787.9493-.2412,2.2598-.1192,2.3086-1.2588-.0644.4834.6074.2324.6309.6289,1.8242-.3809,1.664-1.8086,2.3086-2.5186-.2969-.3867-1.0196.3291-1.4688-.2099a1.48186,1.48186,0,0,1-1.2597.8388M9.65819,54.582a2.1344,2.1344,0,0,0-.4199-1.6787c-.0118.128-.0332.2481-.211.21-.1269.0117-.248.0303-.209.21.2754.0019.2676.581,0,.6289-.57029.1504.1504-.9893-.4199-.8389-.0508.2988-.3457.3545-.4199.6289.793.6455.14451.4385,1.6797.8398m16.375-1.2587c-.4004-.0909-.5293-.4532-1.0508-.42-.25.6241.8848.9014,1.0508.42m36.94719.6289c.6622.1035.7422-.3789,1.4688-.21.0977-1.5332-1.4746-.5664-1.4688.21m-34.00779,0c-.0058-.502-.8457-1.2305-1.2597-.6289.5234.1054.6992.5585,1.2597.6289m-18.0547,1.2597c-.125.6699.3926.6494,0,1.0498h.8399c.0625-.4131-.2832-.417-.4219-.6308,1.0645.1543,1.0586-.7657,1.6817,0-.0821-.5586-.8555-1.5088-1.2598-1.0489.4004.084-.4707.627-.8399.6299m-1.0507-1.8886c-.1524.6416.3632.6171.2109,1.2587.7285-.1679.8066.3125,1.4688.211-.0118-1.0391-1.0645-1.0342-1.6797-1.4697m-4.1993.4189c-.2148.7061.6543.3271,1.0508.4199-.082-.3613.3125-.5381,0-.6299-.1914.7051-.3906.1045-1.0508.21m60.461.6309a.21325.21325,0,0,1,0-.4209c.03512.2451.332.2285.6308.2099.2149-.706-.6523-.3262-1.05068-.4199-.34182.4629.02538,1.1582.41988.6309M37.998,54.793a.93253.93253,0,0,0,.84179-.4199c-.166-.0469-.2461-.1768-.2109-.4209-.2481.0332-.5957-.0362-.63089.2099.35739.086-.04291.2705,0,.6309m-36.31831.2109c.2011,1.0039,1.5761.4151,1.8906.208-.9492.1016-1.5254-1.2627-2.0996-.8388.4219.0595.9101,1.2382.209.6308m3.77931.627c-.50591-.125.625-.3233.20889-1.0489-.8964.087-1.0683-.4052-1.4687-.2089.2324.4765.4414,2.0634,1.25981,1.2578m26.24209-.8379c.5918-.0371,1.4395.1797,1.4688-.4199-.2793-.2539-1.4434-.211-1.4688.4199m-23.7226,0c-.3301-.5996-1.291-.3408-1.8906-.211.66011-.0302.7226.5381.8418,1.0489-.4864.417-.2344-.0518-.6309-.209a.99539.99539,0,0,1-.2109.6299c1.5273-.001.6093-.5049,2.0996-.4209-.0821-.3604.31251-.5371,0-.627-.3516.8184-1.0508-.9414-.209-.2109m58.57029,0c.6406-.1524.7656.2138,1.2598.2109.3886-.9795-1.334-.7597-1.2598-.2109M48.914,56.2617c.18168-.5478,1.55078-1.3242.63088-1.6797-.1152.5264-.9805,1.3819-.63088,1.6797m14.69728-.6308c.0898-.3985.5996-.3789.4199-1.0489h-.8418c.1172.3741.1094.8721.4219,1.0489m-44.29689-.627c-.7812-.2226-.4121.7061-.8398.8379v-.8379c-.3145.0342-.7735-.0762-.8399.208.793-.1064-.4589.7832,0,1.6797.6504-.0351,1.8282.5244,2.7286,0-.53129.2227-1.1954-.4414-.6289-.6299.4609.2383.6972.7022,1.2597.8399.0195-.3301-.0293-.7276.41991-.6289.54889,1.2002,2.71289.7861,4.19929,1.0488-.295-.6035.5722-1.0664,0-1.2598.0625.2549-.6075.7237-.6309.211.01761-.3321.5371-.1651.4199-.6309-2.1465.0606-3.3515-.792-4.4082-.2109,0-.21.16991-.2491.211-.419-.9786-.0674-1.8887-.0674-2.1016.6299-.0469-.3965.2383-.4639.2109-.8379m18.68361.208c.21879.9463.94529,1.1719.41989,2.0996.03911-.458-.1718-.6679-.62889-.6308.00389.626-.01951,1.2793.62889,1.2617.6036-.3135.5762-2.3535.211-2.9385-.1172.4727-.3281-.2558-.63089.208m28.13088,1.8897a8.28086,8.28086,0,0,1,1.2597-1.8897c-.9394.6055-1.34758-.7949-1.88858.21.52538-.0352.65618.3223.83978.6299-.6523-.4981-1.1426.5683-1.4707,1.0498,1.166.3652.4414-.9219,1.2598-.21-.1172-.001-.2383.1699,0,.21m-32.75-1.0498a1.17411,1.17411,0,0,1,.2109-.8399c-.709.2432-.8945-.1484-1.2597.21.4941.0654.3906.7295,1.0488.6299m20.57419-.8399c-.6406-.1513-.7656.2158-1.2598.21v.6299c.4903.0634.9043.4482,1.0508-.21-.3027-.4639-.5137.2647-.6308-.2109.3711-.3946.6503.2881.8398-.419m9.8672,1.0498c.8281-.4111,1.1406-.0888,1.67972-.6308-.30082-.1934-1.502.0537-1.67972.6308m4.4082,0c.8437-.6904-.9941-1.3535-.8399-.2099.5723.1533.4239-.417.8399-.4209.084.3623-.31248.54,0,.6308m-40.72659-.2099a2.36441,2.36441,0,0,0,2.0996,1.6797c.1543-1.2647-.9941-1.045-.2089-1.6797-.6797.2597-.1602-.6797-.8399-.4209-.05469.4375-.9238.0586-1.0508.4209m44.086-.4209c-.9473.1758-2.67388.4131-1.8887,1.4707-.5469-.21-1.40818-.3701-1.6797.2099,1.6426-.247,3.9531.1739,4.6172-1.0498-.88868-.122-1.375-.1894-1.0488-.6308m-13.0157,2.3115c.5039-.8262,1.38482-1.2744,1.8887-2.1006-1.2422.3945-2.414.4873-2.7285,1.6797-.0059-1.3945-1.2676.249-1.6797.4209,1.3867.041.7676-.0752.4199.6289h1.0489a1.95172,1.95172,0,0,1,.8398-1.2598c.4648.3018-.2637.5127.2109.6309M5.459,58.1504c-1.03521-.1152.21869-.1064.20889-.4189-.41789-.2803-.9082-.4893-1.0488-1.0508-1.4883.4863-1.6289-.6787-2.7285-.419C2.957,57.1533,4.289,59.1416,5.459,58.1504m7.55859-1.6777c.7128-.2754,1.4628.4668,1.6796,0-.2363-.3819-1.5371-.7676-1.6796,0m26.6601,1.2588c.8399.2656.8027-1.419.4199-1.6797-.7734.375-.0957,1.1113-.4199,1.6797m-8.3984-1.0508c.3125.1094.5312.3115.8418.4209-.2422-.6602.3281-.5098.41791-.8399-.55461.003-1.23431-.1162-1.25971.419m-5.4571.8408c.5586.0019,1.1993-.0801,1.46881.21-.07231-.6963-.627-.9102-1.04881-1.2588-.2129.2744-.2051.7724-.42,1.0488m40.72659-.4199c.7148.0146,1.4668.0654,1.6797-.4209a1.18143,1.18143,0,0,1-.8399-.208c.0625.3398-.2832.5664-.4179.208.1152.001.23632-.169,0-.208-.0528.2988-.34768.3525-.4219.6289m-57.10159-.21c-.6425.0176-1.0253-.4648-1.6796,0,.5625-.1211,1.3125.6211,1.6796,0m51.01369.8399a4.70777,4.70777,0,0,0,2.3086-1.0508c-1.0098.1103-2.4023-.1631-2.3086,1.0508m12.8067-.6299c.0468.9179,1.6269.8867.6289.2099.8144-.2314.748.7422,1.2597.21.0352-.5254-.32218-.6572-.6289-.8408a1.714,1.714,0,0,1-1.2597.4209m-66.96879,0c-.2129.9814,1.65821.0439.8398-.21-.6152-.0674-.30459.4971-.8398.21m8.6074,2.0996c-.1093-.7998,1.1543.4092,2.5196,0a1.78028,1.78028,0,0,0-.211-1.2588c-.7285.3926-.7969-.2412-1.4687-.4209.1113.458.5078,1.3584-.211,1.4697-.0507-.2988-.3457-.3545-.4179-.6308.9257-.1016-.043-.7959.4179-1.2588-.53509.0234-.7343.3857-1.0488.6299.1895.0576.7051.7812.2109.8398-.33-.0898-.1796-.6611-.8418-.4209a2.56353,2.56353,0,0,0,1.0508,1.0508m5.0371-.4209c-.2265-.0498-.5019-.3447-.2089-.4199h.6289c-.545.8242,1.3164,1.7675,1.8906,1.4697.0039-.4942-.3613-.6172-.211-1.2588.16411-.0469.41411-.0068.42-.2109-.9688.0879-1.4121-.0059-1.4688.6308a1.3627,1.3627,0,0,1-.209-1.0488c.3125-.0371.7735.0732.83791-.2109a8.037,8.037,0,0,0-3.98831-.21c.7129.1592,1.334-.0439,1.8907.6289-.4785.2891-.791-.541-.8399,0,.4766.0293.81251,1.2647,1.2578.6299m23.51371-.209c.16409-.1455.46679-1.1719,0-1.2598.05269.6231-.83011,1.0362,0,1.2598m27.91988,0c1.2305-.002,1.2598-.2129,1.8907.209-.252-.9277.8632-.2569.6289-.6299-.6719-.0967-.7403-.7988-1.4688-.8389.2129.8555-1.42768.9356-1.0508,1.2598M70.539,57.5215c-.63862.1309-1.81052-.2686-2.09962.21.6348.0117,1.8672.6337,2.09962-.21m4.82618.4209c.6641.0332,1.2695.0059,1.4707-.4209-.5937.0361-1.4394-.1816-1.4707.4209m-48.49409.6289c-.16209-1.1006-2.6446-.9893-3.5684-.6289a22.93734,22.93734,0,0,0,3.5684.6289m24.14249-.6289v.6289c.61142-.4678,1.2618-.1172,1.8907-.8398-1.0098.0673-.7578.1767-1.8907.2109m15.1153.208c.664-.0322.7012.5596,1.4707.4209v-.8398a1.883,1.883,0,0,0-1.4707.4189m-36.31839.4209c-.4277-.2021-.8301-.4297-1.2578-.6289-.1269.6299.8848,1.1904,1.2578.6289m24.56251.209c.49418.0058.61918-.3613,1.25978-.209a.579.579,0,0,0-.4199-.6289c.03712.7187-.709-.0195-.83988.8379m13.43558,0c1.2871-.2569,2.7793.8662,2.93942-.6299-1.82032-.123-1.873.5596-2.93942-.208Zm-35.89849-.209c-.209-.2305-1.1445-.7881-1.4687-.2109a1.79824,1.79824,0,0,0,1.4687.2109m-14.0644.6299c.3125-.0361.7754.0742.8398-.21-.4277-.0615-.4121-.5674-.8398-.6308Zm44.92379-.21c-2.0391,0-.3203.2041,1.4707,0-.6855-.7041-1.0586,0-1.4707,0m4.2012.21c.0176-.5254-1.0528-1.0264-1.26168-.6299.61518.0137.46088.7998,1.26168.6299M2.31049,58.5713c-.2011,1.0049.9434-.1104.8399.4199.1504.5694-.9903-.1513-.8399.4199.2071.4444,1.3203-.4511,1.6778.21-.1758.4522-1.3379-.0791-1.4688.4199.6563.4844,1.7871,2.3282,2.51951.8389-.39251-.2002-.70111.6289-.83981,0,1.1816-.294,3.6973.7744,5.0391-.209-.8672-.3603-1.9161.1084-2.7305-.21a1.50575,1.50575,0,0,1,.4219-.6308c-.0684.3701,1.1738.375.8379-.209-1.30859-.1885-2.0137.207-3.5684,0,.1465-.415,1.1719.0518,1.25981-.4199-.51181-.4961-2.40821.4053-1.25981-.6299-.875-.2217-1.4219.4424-1.8887,0M75.57608,60.25c-.8339-.083-1.91208-1.0166-2.5195-.6289a8.85561,8.85561,0,0,1,2.3086,1.0498c.7637-.8408,2.6465.0986,2.5215.6299-1.8438-.751-3.0039-.0654-5.25-1.6797-.9004.709-2.457.7617-3.1484,1.6797,2.2832.4375,8.1601,1.4473,9.8671.6289-.3027-.4639-.5136.2637-.6308-.21,1.5586-2.2129-2.72458-1.9619-4.1973-2.5185.5684-.1309,1.6641.2656,1.88872-.21-1.37112-.3633-1.90432-.375-2.72852.21.68752.29,1.5664.3916,1.8886,1.0488m-52.48429.4209h.4218c.127-.0137.2481-.0322.209-.21-.3925-.0507.1192-.3466-.209-.4199-.5781.3789.168-.3662.42-.4199-.375-.1162-.8711-.1084-1.0489-.4199.002-.2774.3672-.1924.418-.4209-1.3008.3154.0567,1.1484-.2109,1.8906m17.2168-1.0498c.2519.044.1289.2324,0,.4199,1.06441-.3838.4883.2022,1.2597.4199a1.16624,1.16624,0,0,1,.209-.8398c-.8144.375-.4922-1.4394-1.0508-.6299.795.3574-.455.3457-.4179.6299m-12.5957-.21c.2578-.6982-1.42-.5136-1.4707-.2099.4843.1982.6777.0127,1.4707.2099m25.82029.6299c.6914-.373,1.05082.2237,1.4687-.4199-.3047-.1152-1.084.2451-1.0488-.21-.0117-.1279-.0312-.249-.209-.2099a1.17668,1.17668,0,0,1-.2109.8398m1.6797.6299c.6738.1289.28712-.7568.8398-.21.1641-.7539,1.0274-.9306,1.2598-1.0498a2.1483,2.1483,0,0,0-2.0996,1.2598m5.459-.4209c.0507-1.1748-1.25588.6992-.63088-.4199-.55272-.0625-.68752.291-.62892.8408a1.78088,1.78088,0,0,1,1.2598.209c-.0411-.4336,1.0566-1.3457,0-1.4688-.2012.3907.6269.7012,0,.8389m2.9394-.6289c.25.4014-1.3437.7471-1.4707,1.4697a2.29425,2.29425,0,0,0,2.0996-1.6797c.0645.6553-.6055-.5332-.6289.21m-.2109-.21h-1.8887c.1992.3907-.6289.7012,0,.8389.0019-.2744.582-.2676.6289,0-.418.2119-.8984.3633-1.0508.8408a4.43591,4.43591,0,0,0,2.3106-1.6797m3.9882,0c-.3261.7452.7149.127.6309.6299-1.2441-.1093-1.6894.291-3.1504-.2109-.3144.3154-.8828.376-1.0488.8408,1.8242,2.0313,6.1621,1.1494,6.0879-1.2598-1.0645,1.2168-1.3574-.0459-2.5196,0M8.81829,60.041c.4844.417.2325-.0537.6289-.2109,0,.7656,1.0645.2598.211.8408.8164-.1631,1.791-.168,2.0996-.8408-.7051.248-2.4902.5605-1.6797-.209-.6035-.0439-1.0684.0527-1.2598.4199m8.6075,0c.2578-.6982-1.42-.5146-1.4707-.2109.6621-.1025.7421.3789,1.4707.2109m9.4453.209c-.0606-.4131.2851-.415.41991-.6289-1.40431.1025-1.21881.5156-1.88871.6289.3828.0576,1.1758.7568,1.4688.2109-.4883-.1181-.4883-.6328,0-.2109m-8.8164-.209c-.334.7715,1.5976.9815,1.4707.209-.3457-.2685-1.1407-.543-1.4707-.209m30.65039.8389c-.0332-.5215.33-.6494.41992-1.0498-1.03132-.1963-.84572.6728-.41992,1.0498m-23.72269-.419a3.91267,3.91267,0,0,0-1.2598.6299c.416.002.2676.5733.8399.419.2441-.0655.9902-.6504.4199-.8389,0,.1162-.1699.2383-.2109,0,.1308-.0137.25-.0322.2109-.21m26.45119.419c.3711.1846.6133.666,1.0508.2109.121-.8515-.8633-.667-1.0508-.2109m1.8906,1.0498c.6465-.2617,1.5684-.248,1.4687-1.2588a4.42443,4.42443,0,0,0-1.4687-.21Zm-40.93749-.8389c1.6309.1006-1.4023-.9228-1.2598,0,.3926.4102.7696.0645,1.2598,0m15.3262-.2109c-.0313.5908.5117.6055,1.0488.6299.0469-.1631.0059-.4141.2109-.419.2461.0293.4746.3731.6289,0-.164-.0468-.2441-.1757-.2089-.4199-.7813-.1494-.9024.3574-1.6797.209m29.38859.6299c.81252-.1397.7481,0,1.2598-.209-.0391-1.1846-1.1074-.292-1.2598.209m-16.164,1.8896c1.2656-.8701.89651-1.9316-.6289-2.5195.0136,1.0361.6152,1.4824.6289,2.5195m-27.5-2.0986c-.2227.0107-.166.2685.209.209.6152.1211,3.0429.25,3.5683-.419-1.2226.1075-2.8945-.2353-3.7773.21m21.4121,1.0488a1.13423,1.13423,0,0,0-1.0488-1.2588c-.8204.918.2773.7139,1.0488,1.2588m-22.6738-.4199c-.7813-.1377-1.375-.6943-1.8887,0v-.6289c-1.0742-.1856-2.9492,1.2705-2.3086.4189a19.17794,19.17794,0,0,1-5.459.21c.1758.7344.9649.8545,1.8906.8408.0821-.3613-.3125-.539,0-.6308,1.9043,2.2519,7.0293,1.4853,9.0274-.21-1.1621-.2441-1.586,1.3447-2.5196.6309.709.0791.8946-.3643,1.2579-.6309m10.0781.4199c-.4414-.8535-1.8242-.7803-2.5195-.8398.8183.2314,1.8535,1.1279,2.5195.8398M49.125,64.0293c.53708.1104.73438.2783,1.04878-.21-.3379.0909-.7031-.7822-.209-.8398-.0351.5264.3223.6563.6289.8398a2.53056,2.53056,0,0,0,1.4707-2.0996c-.6465.1573-.4043-.5752-1.0508-.4189-.3164.3135-.0625,1.1963-.8398,1.0488-.1562-.6455.57622-.4033.4199-1.0488h-.6289c-.1426,1.0478-.6387,1.7402-.83978,2.7285m15.95508-2.3096c-.6036.294-1.0665-.5722-1.2598,0a7.02082,7.02082,0,0,0,2.9394,1.6797c.0606-.4287.5664-.4121.6289-.8388-.9394-.2754-2.7285-.3848-2.3085-.8409m-32.959,1.0508c-.1289.0117-.25.0303-.211.209.6621.0322.4082-.8506.83991-1.0498-.72851.6572-1.11141-.6484-1.67971,0a1.91951,1.91951,0,0,1,1.0508.8408m26.87109.419c.1972-.6416,1.0214-.6582,1.04882-1.4698H58.78118c-.0351.3389-.7051,1.0821-.209,1.2598-.0371-.4766.709-1.2227.8399-.8398-.1387.2363-.9746.8134-.4199,1.0498m2.9394-1.2598h-.4199c-.01368-.1279-.0332-.248-.2109-.21-.3711,1.0967-1.5723.6553-2.0997,1.8897.4786.1025,1.0723.416,1.4708,0,.20112-.3906-.629-.7012,0-.8389.0937.9072.99212-.5664,1.2597-.8408m7.9766,1.6797c-.625.0566-1.2793-.5879-1.4688.2099.625-.0566,1.2774.587,1.4688-.2099m0,.4199c1.1855-.0732,2.7617.2432,3.3594-.4199-.3145-.2461-.8594-.2617-1.0508-.6299.9179-.1465.9336.6055,1.6797.6299.123-.4375.4414-.6777.6308-1.0488-1.73628-.3643-3.5859-.6143-5.459-.8409-.15428,1.1309-1.0468.9161-1.6797,1.8897.8223.2412,2.6817-1.4356,2.5196.4199m-47.23439.419c-1.582-2.7198-5.4434-3.1495-8.1875-1.4688.9883.4131,1.25-.9707,1.88871-.209a.57632.57632,0,0,0-.62891.419,3.25311,3.25311,0,0,0,2.5175,0c-1.4433-.5293.7071-.1494,1.4708,0-.0215-.8877-1.0586.2685-1.0489-.8399,1.9551.0723,2.5098,1.5488,3.9883,2.0987m.2109.2109c.7442-.1045,1.2071,1.1543,1.8868.4199-.6856-.2295-1.48049-1.4473-2.0977-1.0498.5527.2461.7305.2617.2109.6299m5.2461-2.0986c.9707-.1231,1.8164.9716,2.5196.4189-.3575-.0869.0449-.2715,0-.6299a6.70727,6.70727,0,0,0-2.0977-.4199c.0606.4131-.2851.416-.4219.6309m12.1778,1.2587a6.72537,6.72537,0,0,0-.6309-1.8896c.0449.7939-.2129,1.8926.6309,1.8896m16.164-1.4697c.6133-.0547.6446.4746,1.2598.4209-.0469-.3974.2363-.4638.209-.8408-.6543.2549-.90238-.1113-1.4688.4199m8.1875.8399c-.7832-.1973-1.8554-.1036-2.3086-.6289-.3164.3847-.8769.5234-1.0507,1.0488.7168.1582.2675-.8526,1.0507-.6299.4434.5361,1.3008.6582,1.4688,1.4688-.52928-.1807-1.1719-1.334-1.6797-.8389.3535.3457.94342.456,1.2598.8389a.92666.92666,0,0,0-.8399.4199c.584-.0772,1.2774.8008,1.6797.2109a1.47692,1.47692,0,0,1-.6289-.4199c.7461.3262.125-.7129.6289-.6299-.123.8916.5645.9736,1.04882,1.2598.19538-.5742.64458-.8955.83988-1.4698-1.1778-.3046-2.3906-2.5312-3.5684-1.4697a1.179,1.179,0,0,0,.8399-.2099c.2871.5908.5781.54,1.2597,1.0498m-40.30659.4199c.2207-1.6641-1.1797-.8818-1.8906-1.2598.2304.8203,1.0468,1.0518,1.8906,1.2598m31.49019-.21c.0098-.1279.02932-.248.209-.2099-.0039.6806.61132-.1631,1.0488,0,.0332.248-.0351.5957.211.6298.68552-.8378-.7364-.9726-1.2598-1.2587.02932.2783-.707.7793-.209.8388m22.8809,0c.0058.4951-.3613.6182-.209,1.2598.8262.0469.9492-1.6992.6309-2.0986a.57928.57928,0,0,1-.4219.6289c-.0078-1.3018-2.4942-.1436-3.9883-.6289.0469.3964-.23628.4628-.209.8388.9395.3106.6446-.6152,1.4688-.4199a.99463.99463,0,0,1-.209.6299c.79692-.042.79692-.8838,1.6777-.8389-.5879.9453.5879.9453,1.2598.6289m-2.30858.4199c.70118.1387,1.02538.6524,1.67968.8399.0605-.8379-1.375-1.6748-1.67968-.8399m-2.72852.42a5.4232,5.4232,0,0,1-2.3106,2.0986c1.75-.2637,4.3653.3926,5.8789.4209a4.82442,4.82442,0,0,0,.8399-1.8906c-1.1973-.8194-2.5469-.8897-4.4082-.6289m4.4082,2.0986c.0859-.4863,1.334-.8867.6289-1.4697-.2422.333-1.0762,1.1435-.6289,1.4697M26.45109,63.1895c1.002.332,1.9454,1.8281,2.7305,1.6787-.7793-.5889-1.3379-3.0264-2.7305-1.6787m7.5586.2099a1.25474,1.25474,0,0,0,1.2598,0c-.1641-.0459-.2441-.1758-.2109-.4199-.51959-.0312-1.01759-.0391-1.0489.4199m-22.2519.6299c.1894-.3701.7715-.3467.8398-.8398-1.1074-.2227-1.1289.6211-.8398.8398m-1.6797.6299c.9551.1152,1.1445-.5342,1.2578-1.2598-.67189.166-1.50389.1748-1.2578,1.2598m17.00391.6299c-1.12891-.2012-1.26561-1.3926-2.09961-1.8897.0645.4834-.60739.2334-.6289.6299.7812.3174,2.5762,1.6953,2.72851,1.2598m1.89059-.8408c.8477-.3428,1.2657.3076,1.8868-.629-.7735-.3046-1.3438.2735-2.0977-.2099-.0488.3965.23631.4639.2109.8389m-20.7851-.419c.1797.8154-.5293,1.0566-.8399,1.8897,1.2227-.3184,2.4258-.6563,2.5196-2.0997-.7774-.1494-.9004.3584-1.6797.21M65.91988,65.499a5.823,5.823,0,0,0,4.4082-1.0507c-1.9023-.2969-3.91408-.8975-4.4082,1.0507m-28.55079.8389c.0645-1.0459-.0137-1.9463-.8398-2.0986a4.27783,4.27783,0,0,0,.8398,2.0986m34.63669-1.4697c-.0312-.3203-1.6172-.5948-1.04878-.209h.41988c-.3125.3105-.0175,1.085.6289,1.0498-.041-.9238,1.0586-.7061.8418-1.2607.9532-.4483-.7578.0253-.8418.4199M35.47849,66.5479a1.36813,1.36813,0,0,1,1.0508.2109c-.125-.9951-.23829-2.002-1.2598-2.0996-.3887.4502.2774,1.1182.209,1.8887m18.26559-1.4688a1.51466,1.51466,0,0,0,2.0996,0c-.2558-.708-1.7539-.4404-2.0996,0M21.623,66.1279c.49609.0049.61919-.3603,1.26169-.2089v-.8399a1.37036,1.37036,0,0,0-1.05069-.2109c.00389.4951-.36141.6201-.211,1.2597m17.84569,1.0508c.3731-.1162.8711-.1084,1.0489-.4199a3.65172,3.65172,0,0,1-1.2598-1.8906h-.8399c.0977,1.0224.92,1.3213,1.0508,2.3105M68.22848,65.919c.9121.2031,2.5469.458,3.1484-.21-.5508-1.2471-2.3261-.1533-3.1484.21m-10.916.6289c1.332-.1368,3.2168.2773,4.1992-.21-.4883-.1406-.5625-.6973-1.0508-.8389-.3594.376-2.2265-.3701-3.1484,1.0489m3.9883-1.0489c1.4003,2.0899,1.2695-.0322,2.0996.8389-.0625-.4121.2832-.416.4199-.6289-.5176-.0908-2.3438-.4902-1.4688.21-.6464.1562-.4043-.5762-1.0507-.42m-53.95319.8389c.5977.7139,1.959-.2959,1.4707-.6289-.0859.6152-1.2324.168-1.4707.6289m23.7227.6299c.5351-.2256.7344.9043,1.0508.2109-.5782-.2724.9043.1885,1.2578-.2109-.3848-1.0117-.666-.4102,0-1.2588a5.33562,5.33562,0,0,0-2.3086,1.2588m7.3476,1.0498c.0469-.1621.0059-.4141.211-.419v1.0489c.3144-.0352.7734.0761.8398-.21-.7851-.5478-.8945-2.8789-1.8906-2.5185.4707.5097-.0312,1.9902.8398,2.0986m11.127-.2109c.168-.8096,1.0645-.8916,1.2598-1.6788-.7793.4278-1.7735.4463-1.47068,1.2608,0-.1172.17178-.2393.21088,0a.21156.21156,0,0,0,0,.418m3.3594-.418c.5722.1523.4218-.418.8398-.4209-.041-.5899-.3652-.8936-1.0508-.8399-.0898.8135-.2285.7471.211,1.2608m-29.39069-.8408c-.666.2451-1.6542.167-1.89059.8408,1.33789.7881,3.65039.3877,3.99029-1.0508-.65629.2539-.90429-.1113-1.4707.4209a.57222.57222,0,0,1,.4199.6299c-.3574-.7539-2.168.1289-1.0489-.8408m27.5,1.4697c.1368-.6436,1.5938-1.0518,1.0508-1.6797-.0918.6895-1.539,1.1094-1.0508,1.6797m15.7461-1.4697a.21267.21267,0,0,0,.42,0c-1.05468-.6036-2.8321.1826-.42,0m1.4688.4199c.9238-.0088,5.1621-.0645,1.6797-.209-.3965-.373-1.3867-.1533-2.0996-.2109-.0117-.128-.0313-.2481-.209-.21-.3262.7471.7129.127.6289.6299m-19.9434,1.0498a1.24417,1.24417,0,0,0-.209-1.4697c-.1757.75-.6796,1.1533.209,1.4697m8.8164-1.0498c1.0313,1.8076,4.4414.3476,5.25-.209a34.379,34.379,0,0,1-5.25.209M17.63469,68.0176c.0235-.3965.6954-.1455.6289-.6289-.3984-.0908-.5273-.4522-1.0488-.4209.11721.374.1074.8721.4199,1.0498m7.3477-.419v1.0489c1.1953.0039,1.543-.835,2.30861-1.2588-.41211.0625-.41411-.2832-.62891-.4209-.4199.7832-.8125.2949-1.6797.6308m12.5957,1.4678c.29491-.8564-.7676-1.9775-1.8887-2.0986a2.19888,2.19888,0,0,0,1.8887,2.0986m31.27929.8408c-.0117-.0849,1.8965.5791,2.5195-.4199-.8886-.1601-1.2226-.875-1.8886-1.2588.0839.7256-.9864,1.378-.6309,1.6787m.4199-2.1005c-1.4707-.8106-2.8808-.4766-4.6172-.8389.5157,1.5137,2.2071,1.8515,3.3594,2.7295.207-.4932,1.0508-.3477,1.0488-1.0498-.5117-1.0293-.7812-.4492.209-.8408m-48.70309.4218c.5019-.1289,1.5234.2627,1.6797-.2109-.4434-.1865-.6192-.6397-1.2598-.6289-.1094.3096-.3105.5283-.4199.8398m13.4355-.6299a.78378.78378,0,0,0-1.05069,0c-.03521.5254.32419.6563.63079.8389.0821-.3613-.3105-.5381,0-.6308.0508.3242.3457.0332.4199-.2081m28.34179.8389c.8438-.1338,2.23252.2725,2.7286-.209-.4668-.6426-2.1856.1446-1.2598-.6299-.5684-.4628-1.25.3047-1.4688.8389m10.0762,1.4697c1.5742-.0351,2.0664-1.1513,3.3594-1.4697-1.1953-1.5801-4.5-.9307-6.5098-.8389,1.0449.6348,1.8242,1.5342,2.9395,2.0987.74022-.0703,1.1445-1.2227,1.6797-.8389-.3438.4961-1.0821.5977-1.4688,1.0488m-20.5742-1.0488c.4316-.3389,1.2226-.3183,1.4707-.8408-.6699-.0274-1.9023.4629-1.4707.8408m9.0273-.8408c-1.1855-.0645-1.8652.3721-3.1484.2109v.8379c1.1758.5518,2.2832-.6055,3.1484-1.0488M22.04289,70.3281c1.293-.038.3594-1.3574.6309-1.6806.3125.333,1.1953.3066,1.0488-.419-.791-.1621-1.0039.2549-1.6797.209-.0351.3135.0762.7754-.20889.8399.06439-.9043-1.23831-.4415-1.67971-.8399-.8965,1.3418-2.07029,2.4092-2.9395,3.7793,1.6543-.165,3.7071.0693,3.9903-1.4687-.7305-.252-1.6329-.3291-2.1016-.8409.72851-.1679.8086.3125,1.4707.21.2461-.5566-.4023-1.2354,0-1.2588.2187.3574,1.9297.9102,1.4687,1.4697m3.9903-.4209c.2812-.6513,2.8203-.7255,1.6797-1.4697-.375.543-2.25389.6758-1.6797,1.4697m26.24019.4209A2.07372,2.07372,0,0,0,54.373,68.8584c-.27732-.0039-.19142-.3682-.41992-.4209-.9219.2686-1.1855,1.1934-1.6797,1.8906m3.9902-1.2617c-.8164-.4394-1.5722.7383-1.89058,1.4707.30468.1143,1.084-.2441,1.04888.211-.293-.0157-.8008.0459-.42.2089.916-.3457,1.6289-.8916,2.5196-1.2597-.1621-.8711-1.1329-1.4776-1.4688-1.0498.1641.0468.2442.1758.2109.4189m11.7559.8408c-1.7246-.0537-2.5781-2.1504-4.4082-.8408-1.5937-1.2461-3.5625.1904-4.6191,1.2617,1.7812.4561,4.1035.3741,5.457,1.2588.7793-.4824.625-.8105.83982,0,.42778-.5898,1.09958-.1386,1.47068-.4209.3731-.5634-.92568-.4052-.2109-.6289.5195.459,1.2481-.1474,1.4707-.6299m-18.4746.6299c-.0625-.8408,1.668-.9775,1.0488-1.6787-.2519.5264-1.5215,1.124-1.0488,1.6787m-23.09379-.4199c1.3731.0703,2.6583-.3711,1.8907-1.0508-.1973.7842-1.5059.4541-1.8907,1.0508m4.8282.2109c-.627-.4023-.002-.7519-.6289-1.0507.1172,0,.2382-.17,0-.211-.7246.2481-.1133,2.0088.6289,1.2617m18.68549,1.4688c.8574-.0401,2.293-.8272,1.2598-1.4688,1.0078.0987.94142-.8779,1.4687-1.2617A3.93817,3.93817,0,0,0,49.334,72.0068c.52928.045.96478-1.1845.63078-.2099M28.55269,70.7481c.1406-.4883.69731-.5625.8399-1.0508-.7051-.1963-1.4063.6728-.8399,1.0508m10.7051.6289c-.21879-.4922-.6953-1.8086-1.04879-1.4698.12689.2471.13469,1.4258,1.04879,1.4698m-10.916,0c1.4551.2451.5078-.7383,1.6797-.211.3222-.3193.373-1.4384-.42-1.2588-.0019.9082-.9902.8291-1.2597,1.4698m12.3847,0c.0489-.7471-.1406-1.2578-.6289-1.4698-.5507.6123.1543,1.2412.6289,1.4698m16.795-.42c.707-.1328,1.9511.2696,2.31052-.2089-1.10552-.1289-1.76762-1.1289-2.31052.2089m10.707-.8398c.0566.6855-.81448.4453-.8399,1.0488,1.2618-.4502,1.709-.4092,2.9395-.8379-.9824.1016-1.3652.2481-2.0996-.2109M25.19139,71.166a.92188.92188,0,0,0,1.4707-.4179.92289.92289,0,0,0-1.4707.4179m-1.4688,0c.3692-.0576,1.0469.5918,1.2598,0-.1621-.0449-.2441-.1748-.2109-.4179a1.02721,1.02721,0,0,0-1.0489.4179m13.2266.8408c-.6738-.0976-.74019-.7998-1.4707-.8408-.02149.6641,1.168,1.1973,1.4707.8408m26.87109,0c-1.418-.0546-3.0234-1.0312-4.1992-.6298a5.00594,5.00594,0,0,0,4.1992.6298m-31.91019,0c.1035.6622-.3769.7403-.209,1.4698a1.3066,1.3066,0,0,0,1.04891,0c.12689-.4326-.33791-1.459.41989-1.2598.1523.6426-.3613.6172-.21089,1.2598a5.95061,5.95061,0,0,0,2.31049-.4199,2.47629,2.47629,0,0,1-.6309-1.6797c-1.248-.1299-1.5117.7265-2.7285.6298m-6.0879.4209a2.28389,2.28389,0,0,1-1.6796.8389c.4062-.5742,1.2968-.664,1.6796-1.2598-2.3164-.4853-4.6211.0704-7.5586.629,1.8438,2.1416,7.3145.8554,8.1875.2109-.9726.1807-.2187-.3311-.6289-.419m14.6954,0c-.4864-.1425-.5625-.6992-1.0489-.8408-.1601.666.8164,1.2588,1.0489.8408m-5.0391.8389a.7877.7877,0,0,0,.8398-.8389c-.6582.0977-.5547-.5673-1.0488-.6308-.168.7275.31251.8066.209,1.4697m14.06639,1.0488c.7012-.8681,3.877-1.4003,2.9395-2.5185-.6641,1.0195-3.0059,1.4687-2.9395,2.5185M28.76169,73.0567c1.0566-.042,2.6387.7666,2.7285-.629-.8945.2256-2.2324.004-2.7285.629m18.47269.2099c-.3477.416.0214.2656,0,.8389a1.90939,1.90939,0,0,0,1.4707-1.0488c-1.1797-.8682-.668,1.373-1.4707.2099m-21.62109.6299c.6796.7461,1.9375-.4717,1.46871-.8398-.58791.3281-1.24411.7138-1.46871.8398m12.8046,0a3.56052,3.56052,0,0,1,1.0508,1.6787c.668.1807.6485-.3301,1.0489-.4189-.3477-.7041-.6192-1.4805-1.4707-1.6797-.002.3467-.5821.1172-.629.4199"/></g></g></svg>