<svg xmlns="http://www.w3.org/2000/svg" viewBox="0 0 78.5151 103.32636"><defs><style>.cls-1{fill-rule:evenodd;}</style></defs><g id="Layer_2" data-name="Layer 2"><g id="Layer_1-2" data-name="Layer 1"><path class="cls-1" d="M53.74221,1.509C51.958,3.53929,52.1675,5.466,51.4346,7.59689c1.6762-.2432.8525-3.417,1.8882-4.8272.5927-.1738.54341.2959,1.0493.209-.272.7461-.4741.7637-.21,1.6797.1875-.0928.3755-.1836.4194-.4189.2486.6709.751,1.373.211,1.6787,1.01071.457.2178-2.1094,1.46971-1.2598-.03271-1.1309-.14351-.8799-.20951-1.8887.17.0391.2076.209.41951.209-.11721-.374-.10841-.8721-.41951-1.0488.2891-.6084.7422.3525.6294.8398.45711.0371.667-.1718.6294-.6299.9566.3428-.4194.8194-.4194,1.4688.8447-.3457,1.7158-.6631,1.6792-1.8897.96,1.0625.4961-.7666,1.6797-.8388-.3013,1.168-1.26079,1.6767-2.1001,2.3086.0639,1.2236-.2002,3.414,0,4.4082.5928-.0371.2627-.9981,1.0488-.8389-.3398.4981-.4702,1.207-.8389,1.6787-.0644.4844.607.2344.63141.6309.49709-.3418-.08741-1.7647,1.04779-1.4707.147-1.0557-.3554-1.4629-.2094-2.5186a2.57306,2.57306,0,0,1,.2094,3.1494c.94-1.1601,1.2359-2.9648,2.73-3.5693-.021.96-.8271,1.1318-.6303,2.3096a5.78328,5.78328,0,0,0,1.2597-1.8897c.3657,1.1416-1.0635,1.6465-1.0503,2.7285.4199-.5078.3316-.2109,1.0503-.4189.0269.375-.2573.4424-.2095.8398.6148-.0156.7784-.4804,1.0499-.8398.3735.1543.0288.3818,0,.6289.56341.1445.4042-.4336.6298-.6289.6158.1787-.2729.5273,0,1.0488.70761-1.0508.8658-2.2519,2.0982-3.1484.5552.6601-.4419,1.1113-.4199,1.8896-.2032-.0058-.1612-.2578-.21-.4199-.2271.0518-.1411.418-.4194.4199.4238.2744,1.1704.2285.8393,1.2588.5445-1.1113.1338-1.8906.8413-2.7285.5279.8291-.35789,1.3525-.21189,2.0986.27739.4014.69039-.4843,1.25979,0,.1758-.456.7929-.4668.8408-1.0488.50241.584-.8105,1.1397-1.0503,1.6787,1.0181-.1015,1.0171-1.2226,1.8892-1.4687-.5918,1.5068-2.1534,2.0449-3.5689,2.7295.086.708.815-.5596.62941.4189-1.30961-.3301-.689,1.2695-1.88821,1.0498.0327.2461.3819.1777.6294.21-.2553.3047-.8384.2802-.8393.8408a.989.989,0,0,0,1.4687-.8408c.4341.0576.0508.9297.62941.8408a1.48168,1.48168,0,0,0,.42089-.6309c2.1524,1.042,2.436-1.9502,3.5689-3.1494a4.46184,4.46184,0,0,1-1.0503,2.3106c.91451.0293-.1973.9804-.6294,1.4697.04.1689.21091.208.20991.418,1.06789-.4004,1.47559-1.4629,1.88969-2.5186.4292.8301.0185,1.374-.6294,1.8897.2051.4589,1.2114-.0284,1.46971-.209.563.374-.63381.748-.84031,1.0488.6758.8281-.335,1.375-.6294,1.8897a5.23709,5.23709,0,0,0,2.3091-2.3086c.4472,1.2197-1.2979,2.0566-1.6797,3.1474,1.165-.3047,1.5171-1.4209,2.5185-1.8887a17.83078,17.83078,0,0,1-3.3579,3.7784c1.4932,1.0039,2.3389-.6084,3.9888-.6289-.20309.7763-1.3145.6445-1.6797,1.2587-.064.6563.606-.5332.6294.21-.03079.8789-1.73579.084-1.8896.8399a2.78065,2.78065,0,0,0,1.4702.4199,10.40768,10.40768,0,0,1,2.0991-1.0489c-.1426.4864-.6978.5616-.8394,1.0489.7842.083,1.19291-.8448,1.6787-.4199.3091.7988-.9375.041-.6294.8408-1.4082.0068-3.4379-.752-4.1987.8379-.5576-.7852-2.3222.1513-2.729.8408.8902-.5537,1.80031.1113,2.0996-.8408.4116.292-.1635,1.3623-.4199,1.6806,1.0459.3418,1.9702-1.2451,3.5684-1.0498-.5137.6748-1.71979.6592-2.3091,1.2598.3696.3848,1.5591.6445.84031,1.4697-.62941-.1387.20069-.4492,0-.8398-.37351.1875-.26851.8506-1.05031.6289.1358.2129.4824.2178.4195.6308.3701-.122,1.23381.253,1.2602-.2109.6084.1182-.3213.3281-.21.6309,1.6211.0107,1.9327-1.2862,2.9385-1.8897-.1767,1.2988-1.7724,1.3799-1.0488,2.5186a21.97128,21.97128,0,0,0,2.0981-2.0996c.2574.7158-.9433,1.5507-1.0493,2.0996.5503.4668,1.1563-.793,2.0996-.6289-.0996.7392-.9897.6894-1.6797.8388.1568.4737,1.1783.0821,1.6797.21-.75.7168-1.83349.3242-2.729.2099.0034.6954,1.1861.2129,1.4688.6299-.6382.583-1.6211.5713-2.7285.8399.3066,1.5234,2.5874,1.2832,3.7797.8388-.4848.7872.3633.0137.6294.4209-.2617.9307-1.2553-.2939-2.1001.42.3965.2548.84821.0224,1.6797.2099-1.0092,1.0664-2.2793-.4551-3.9887,0a1.88449,1.88449,0,0,0,.8403.8389c1.0356-.3047,1.48191.0947,2.519-.209a1.11447,1.11447,0,0,1-1.4702.419c.1372.2138.4829.2177.4199.6308-1.3022.1074-2.4594-1.0332-3.3584-.6308.1382.6289.4483-.2002.8394,0a.57885.57885,0,0,1-.6294.4199c.1768.3135.6758.3047,1.0488.4199-.0327.2451-.3828.1768-.6294.21a2.86437,2.86437,0,0,0,2.729-.21c-.104.959-2.0053.6406-3.3584,1.0498.2852.625,1.4502.3691,2.3091.4209-.373.6719-.93749.5283-1.6797.4189.8638.8418,1.1499.6006,1.6797,1.6797-.2978-.0185-.5942-.0341-.6294.21a11.557,11.557,0,0,0-5.2485-2.9385c-.4351.1162.2827.8115.8389.6299-.0308.458-.5279.4502-1.0489.4189.3291,1.0704,1.315.4209,2.5191.42-.814.9765-2.4141.415-3.5684.2099.2642.5049,1.11571.4229,1.4688.8399.0322.9345-.85109.125-1.0503,0,.083,1.3857,2.09421,1.3261,3.3594.6299.56881.1884-.4791.4687-.4195.8388.8325.2901,1.1485-.1709,1.4697.6309a.57424.57424,0,0,0,.6294-.4199c-.0849-.71-.8139.5576-.6294-.4209.33161-.6797.9629.9179,1.0494-.209.7021.5371,1.1528.0781,1.8891.4189-.7651.3447-1.6948.1983-1.4697,1.0508-.7607.3174-1.9966-.457-2.0981.8389-1.10009-.3985-1.9493.5879-2.9395.4199,1.103-.0303-.5059.8047,1.2598.4209-.04739.3027-.627.0723-.63039.4189.83249.0762,3.16009-.3759,3.35939-1.0498.667.3213.9228.0742,1.6792,0a4.82361,4.82361,0,0,1-3.1494,1.0498c.02681.4639.8911.0899,1.2602.21-.0068.2041-.2573.1641-.4199.21.5776,1.3066,3.5552.2353,4.1977-.42.1514.5235-.9233.8633-.2099,1.2588-.3389.4317-1.00929.5303-1.4688.8408.6949.4063,1.4136-.9589,2.52-.8408-.8886.5899-1.8188,1.0059-2.1001,1.6797a3.2789,3.2789,0,0,0,2.1001.21c-.5717,1.0176-2.0043-.0557-3.1494.2099-.3115.0928.083.2696,0,.6309-1.47309-.5723-.9638.958-2.52,1.0488.2774.5635,1.2612-.4199,1.2603.4199-.9478-.1084-1.6631.0166-1.8897.6309.3579.2627,1.3052-.0947.4195.6289,1.6357-.3213,2.02881-2.1035,3.7792-2.3086-.2719,1.0576-1.8022.8555-2.0996,1.8887.3184.6357.9209-.1738,1.4698,0-.2173.9121-.8911.8096-1.4698.6299.1968.5996-.1303.8447.6294,1.0498,1.9727.5312-.3818.1562-1.2588-.21.0254.377-.7421.6514-1.4697.8399,1.2988.7168,2.4282.0156,3.7788-.21-.5366.8936-.5366.1572,0,1.0498-1.0434.0059-2.3047-.2051-2.519.6299.4936.6719,1.9263.3047,2.729-.21.4028.2696-.4961.4346,0,1.0489.4263-.46,1.5469-.2549,2.31-.8389-.2294,1.0303-1.6938.8262-2.52,1.2597.31351.3643,2.2056-.2822,2.52.6299-.9199-.2871-1.08-.0263-1.8906.21,1.06011-1.2149-2.2646.4248-2.0991-.4199-.2144.1357-.21779.4824-.6294.4199.2949.9492,2.0254-.4981,2.519,0-.3149.3848-.8759.5234-1.0493,1.0488.4937.3858,1.1641-.0644,2.0982-.2099-1.5625,1.7314-4.5508-.6241-6.0869-.21,1.1132.9121-2.5542.9512-2.5191,1.4697a3.71477,3.71477,0,0,0,2.729-.2109c.1543.7324,1.1338.1221,1.67971.2109-.72121.8907-3.06791-.0293-3.77931,1.0498.6187.6055,1.5142-.2949,2.5191,0-.065.2842-.5245.1739-.8394.211.1558.7783,1.0415-.0244,1.4688-.211a.68249.68249,0,0,1-.2095,1.0498c1.3149.4024,2.3984-1.2363,3.5688-1.6806a3.8764,3.8764,0,0,1-2.3091,1.6806c.212.5909.8912-.0576,1.2588,0-.1001,1.1543,2.2793.4034,2.94.6309-1.6489,1.249-4.0904-.6719-6.7178.208-.0142,1.041,1.6953-.3145.8394.8408,1.5009.1074,1.3427-.289,2.519-.6308-.1294.1865-.2539.3759,0,.4199-.352.417-1.2036.3359-1.4687.8408.5288.4141.6801-.1006,1.6787,0-1.0923,1.4053-3.2203.9258-5.0381,1.2588-.1314-.2158-.128-.7227-1.0503-.6299a16.08817,16.08817,0,0,0,1.6797,1.8897c.7798-.0606.5688-1.1114,1.4702-1.0489.164.6377-1.34429,1.0723,0,1.0489-.03129.4589-.52929.4511-1.05029.4209.25589.8515,1.97219,2.0468,2.72949,1.0488.37351.1533.0298.3818,0,.6299a3.91057,3.91057,0,0,0,1.6787-.21c-2.0107,1.667-4.03519-.9922-5.8784-1.4687-.8931.457-.5596,1.0898-1.6792,1.0488.0063-.2041.2573-.1631.41941-.21-1.01021.1524-3.62451-1.4863-4.61721,0-.2759-.0742-.3301-.3701-.6303-.4199-.3116.0918.08251.2686,0,.6299a1.89814,1.89814,0,0,1,2.1001.6299c-.70459.2207-1.4-.7491-1.2598.4199-2.4971-.3682-1.6465-4.4951-4.8291-3.5684,1.334-.7822-.4365-1.0215-.4199-2.3105-.3755-.0264-.4429.2568-.8389.2109a1.48723,1.48723,0,0,0,.6294.4199,1.71483,1.71483,0,0,1-1.25929.419c.292.5488,1.08449.5947,1.67969.8408-.03169.5225-.7109.0606-.8403,0,.1821.3067.3139.665.8403.6299a17.80623,17.80623,0,0,0-1.8892.4189c.0572-.4316.7818-.1972.8394-.6289a9.12064,9.12064,0,0,0-1.0503-.8408c-.6152-.0537-.645.4746-1.2603.4209.0884.4717,1.1143.0059,1.2603.4199-.9102.5362-.2397.0459,0,.8389a1.1784,1.1784,0,0,0-.8394-.21c.3809.669,1.2623.8389,1.6797,1.4698.3999-.0899.5279-.4512,1.0489-.419a.57763.57763,0,0,1-.6294.419c.3183.6357.9209-.1739,1.4697,0-.68309.705-1.8262.6259-1.8892,1.4697a.92086.92086,0,0,0,.8394.4199,6.2575,6.2575,0,0,1,3.1494-.8398c-1.1152.5566-1.4092.4345-2.729,1.0498.5977.5644,1.4634-.7139,2.3091,0-.3443.6845-1.1397-.3848-1.4707.2099a4.24644,4.24644,0,0,0,2.9394.21c.2661.415-.12549.8164,1.0503.6289-.0893.4004-.5996.3799-.4209,1.0508-.7451.3262-.1255-.7139-.6294-.6299-.3379-.0596-.3608.1982-.6294.209.3604.2012.42291.6963.8394.8389.5933.1748.5444-.295,1.0503-.2081.0264-.3769-.2573-.4433-.21-.8398.5049.085.4561-.3838,1.0503-.2109-.0752.2763-.37109.331-.4209.6298,1.5581.0518,2.062-1.4658,3.5684-2.0986.0859.5059-.3833.4561-.21,1.0488-1.0635-.5664-.3843.7666-1.6787.6309a.21266.21266,0,0,0,.4199,0c.2935.0732.0176.3691-.2099.4189,1.3847.0704,2.4008.377,3.5688-.6298.2232.7841-.7871.3339-.6294,1.0507a2.782,2.782,0,0,0,3.1485-.4209c.309.8604-1.4165,1.4385-2.5191,1.0508-.3931.9522.834.2852.6299,1.0489-2.82959-.3829-3.3662.0722-6.2979-.6299-.2465.0342-.1782.3828-.2099.6299-.3257-.3897-2.2949-1.087-2.52-.211-.9595-.5781-1.7803-1.2969-2.729-1.8887-.7056.4532.2763.9639.2109,1.4698a.57432.57432,0,0,0,.6294-.419c-.1445,1.1114,2.2124,1.1944,2.729,2.3086-1.438-.3828-2.2725-1.3662-3.9888-1.4707.1524-.6416-.21429-.7637-.2099-1.2597-.6792-.2579-.1612.6806-.83939.4218.75779,1.4307-2.59471-.2734-3.35891-1.2607A1.344,1.344,0,0,0,51.854,67.008c.5698.3389,1.2378.5811,1.2588,1.4697-.4551-.3144-.4893-1.0498-1.2588-1.0488-.1733.8018,1.0117.2461.8394,1.0488-.84819.0782-.8428-.6963-1.4688-.8408.5523.3018.9409,3.2744,0,.6309-.5259.1445.3887.5605.21,1.0508a4.37183,4.37183,0,0,1-1.2613-2.7305c-.4482.7988-.3779,3.5449.8414,2.7305-.2417.5957-1.08549.7041,0,1.0488-2.646-.4453-.6602-5.2002-1.6807-6.9287-.6231.3056.2759.8193,0,1.4697-.6714-.4482-.13479-2.1035-.8394-2.5186-.4052.3653-1.727-.1875-1.4697.8399a.581.581,0,0,1-.4209-.6299c-2.6367,5.3389-4.8799,11.0752-8.187,15.7451a113.38433,113.38433,0,0,0,0,14.6953c.1313,2.7618-.3745,5.6954,1.2607,6.9268,7.0323.29687,15.8824,1.02246,22.8824,1.46972,2.28711.14551,5.0239-.373,6.0869,1.88965H5.6675c.19871-.85156.9761-1.124,1.2612-1.88965,5.9497-1.36328,16.3194-.19531,22.4614-1.04882a4.48537,4.48537,0,0,0,2.51911-1.25977c.49359-7.83693,1.48529-14.56253.84029-21.41313-.602-6.3955-6.8501-6.9521-8.6069-12.3857-1.6587.6572-2.3477-1.7451-2.94-.2109.0953-1.4952-2.5586-1.3018-3.9882-1.8887-.0977.2773-.0996.5557-1.0494.4199A6.90059,6.90059,0,0,0,17.6338,61.76c-.3623-.4161-.7544.9121-1.6787.6298a.99433.99433,0,0,1,.2099.629c-1.4873-.1797-2.458,3.9794-5.039,4.6181,1.7978-1.4707,2.6274-3.2461,4.4096-5.0371a.21259.21259,0,0,0-.4199,0c.3579-.9639,4.7422-2.5615,5.45751-.21a5.30548,5.30548,0,0,1,1.67879-.4199c-.0894-.3994-.4507-.5273-.4185-1.0498.8228.6924.541-.0488.8403-.8398.2705.6289.8682.3535,1.0493-.209-1.0957.1699-2.5048-.5518-4.1987-.8399.2232-.1962.065-.7753.6294-.6308-.0395-.1699-.2119-.208-.2099-.419-.5533-.0634-.689.2901-.6304.8389-.6519-.2764-.5987.0576-1.4697,0a1.72438,1.72438,0,0,1,1.2597-.4199c-.4614-.583-1.4961.0303-2.0991,0-.1865.8017.3423,1.3408,0,1.6797-.4639-.3496-.5259-.5674-.8394-.6299-.3886-.3701.05421-.6494.4195-.8389-.5454-.8183-1.3604-.4922-2.0991-.2109.0927.1875.1845.376.4209.4199a10.71533,10.71533,0,0,0-3.3594.6299c.9365.168.4194.2607-.4209.6299.1645,1.7734-.9419,2.2763-2.0991,2.7295-.0708-.5576-.7798-.4795-.8394-1.0498.6592-.0987.5542.5644,1.0493.6298.3775.0264.44241-.2558.8389-.2099-.8789-.4893,1.1753-.6592.8408-1.8897-1.1142-.7041-3.3794-.2597-3.9878-1.4697.33351-.1836,1.6831.4072,2.3081.6299-1.0835-.6426,1.1548-.335,1.6797-.6299a.98365.98365,0,0,1-.21-.6289c.9078.0606.59871,1.1104-.2099,1.0498.2363.4893,1.0732-.167,1.2602-.4209-.1372-.2129-.4838-.2168-.4209-.6289,1.0835-.1768,1.1099-1.4102,2.3091-1.4707a2.00954,2.00954,0,0,0-2.0981.21c.0649.2851.5244.1748.83931.2109a4.661,4.661,0,0,1-3.98871.6299,1.4953,1.4953,0,0,1,.6294-.4209,1.82878,1.82878,0,0,0-2.5191.4209c-.6811-.4287.708-.5313.63041-1.0508-1.65721-.1152-3.062.0186-3.77981.8408.2354-1.1865,1.8296-1.334,2.9395-1.0488-.1719-.9336-1.8453-1.627-3.148-1.2617,1.0137-.5596-.7578-.3711-1.0518-.8389.4307-.9521,2.3169.6914,3.3609-.2109a3.96645,3.96645,0,0,0-1.2603-.6299c1.7954.3613,4.5474-1.1026,6.2979.4209.3301-.0908.1802-.6602.8393-.4209-.7763-.7031-1.7802.1133-2.519-.6289-.0664-.3701,1.1772-.375.8394.2099.2143-.205.4262-.414.6303-.6298-1.3613-1.168-4.6699-.1416-6.5073-1.4698,1.4321.0264,3.9312.9678,4.8276-.8388-.26169-.4502-.8613.5215-1.46869.4189.36129-.1973.34279-.7754,1.04929-.6289-.5952-1.0146-2.2207-.9971-3.56929-1.2588,1.05029-.331,3.05559-.1045,4.40869-1.0508a23.57124,23.57124,0,0,0-6.9288,1.2598.58088.58088,0,0,1-.4194-.6299c-.3291.0899-.1787.6602-.8393.4209.04-1.1533,1.5063.0742,1.4687-.8408.7354.9268,1.5923-.1152,2.31011-.4199a1.05359,1.05359,0,0,0-.62941-.6289c.2055-.6436.561.2402.8393.209.4287-.0616.41211-.5684.8394-.6299-.1382-.2119-1.3032-.0889-1.6787-.6299.2055-.5879.561.3047.8393-.209C3.377,44.59389.72021,46.65249.21,44.54509a4.45555,4.45555,0,0,0,3.1484.4199,3.07217,3.07217,0,0,0-1.8896-.4199c.104-.7676,1.7871.3272,1.8896-.8388.688.3623,1.4565,1.0429,2.3091.6289-.8438-.1202-.0396-.9112,0-.419-.1411-1.7519-2.0816-.6308-3.1475-1.8896.03321-.2461.3823-.1778.6299-.21-.0234-1.2197-.8574-.4658-1.2612-.8398.2978.2744.8369-1.1612-.21-.419A1.47422,1.47422,0,0,0,.21,38.66719c.6128-.6475.709-.8145-.21-1.2588.0024-.418.5723-.2676.4199-.8398a3.89064,3.89064,0,0,1,1.0489,1.2587c.2475-.0332.1777-.3818.2099-.6289.52151.5577.168,1.209,1.2603,1.4688-.7954-.5752-.0244-.7852-.6309-1.0488.6338-.7295.7466.0644.8418-1.0498.6777.8613.669,2.4091,1.8882,2.7295.541-.0518-.2871-.3614,0-.8409.6372-.0771.436.6846.6294,1.0498,1.1816-.7343-.5059-1.5537-.6294-2.3086.3115.1084.5298.3106.8403.42.3433-.9327-1.2466-.8457-.2109-1.2608-.064-.2832-.5244-.1728-.8394-.2099a4.30792,4.30792,0,0,0,1.0503-2.3086c.4317,1.3115.0532,2.4677.21,3.3593.1201-.6494.8823-.6572.8403-1.4697.1279-.2627.91651,2.6201,1.4688,1.2598.6548,1.0742,1.1396.9678,1.8891-.211-.33639-.6416-1.6543-.3056-1.4697-1.4687a1.37838,1.37838,0,0,0,1.6797.4199c.2485,1.082,1.1221,1.5371,1.88961,2.0986.43269-.1123.05079-.9931.62939-.4189-.1792-.7314-1.0722-.748-1.6797-1.0508.1382-.6279.44931.2012.8404,0-.5674-.5508-.813-1.4267-1.8897-1.4687.4829-.5088-.2129-1.0205-.2109-1.6797.6641.1074.581.959.8408,1.4687a1.4696,1.4696,0,0,0,.4194-.6289c.1128,1.541,1.2134,1.2647,1.4698,2.3086.3667-.5674.08151-.9492,0-1.6797.9189.1309.5058,1.5938,1.6797,1.4698-.1094.3105-.3101.5293-.4195.8408.6699-.1612,1.0279-.3096.4195.2099.1943.5616,1.1211-.8164.2109-.8408.4463-.6338.7808.6026,1.2588.6309a23.4091,23.4091,0,0,1-2.3101-3.1494c1.0249-.0596,1.90821.7353,3.1494.6308a4.26119,4.26119,0,0,0-2.0981-1.4697c.8042-1.0039,1.4355.5723,2.5181.209-.0181-.9707-1.2525.2558-1.0494-.6299.6407-.1514.76421.2148,1.2588.2109a.99452.99452,0,0,1-.2094-.6308,7.46862,7.46862,0,0,1-2.0987.2109c.6958-.7646-1.8349-.6172-1.0498-1.4697a3.66931,3.66931,0,0,0,2.7285,1.0488c-.4218-.9062-2.0351-.623-2.52-1.4697.5855-.5029,1.1001.8516,2.1006.6299-.3247-.6553-1.7207-.2393-1.6787-1.2608a3.55045,3.55045,0,0,0,2.5181.8409c-2.0479-1.5811-4.5103-.5762-6.0884-2.9385a8.47909,8.47909,0,0,0,3.9897.8388c-.6801-.7197-1.9267-.872-2.52-1.6787.6763-.456,1.3057.9258,2.3106.8399-1.22609-1.3067-2.5259-1.5274-4.4097-1.8897a1.02417,1.02417,0,0,0-.4209-1.0488c.5976-.5186,1.2549,1.582,2.1006.8389-.0332-.2461-.3833-.1768-.6294-.21,1.0268-.6582,2.4638,1.669,4.6181,1.2598.4439-.0645-.2207-.7295-.6294-.6299.2022-.5195.8052.2891,1.4688,0-.5171-.6729-.8193-1.5596-2.0981-1.4688.5131-.2793-.232-.7822.2094-.8408-1.0634-1.1748-3.3589-1.1191-3.9897-2.7285.1704.1797.5757.125.6308.4199.5699-.1933-.56-.3916-.2099-1.0508a4.89529,4.89529,0,0,0,3.3594,2.5196c-.5567-.4229-.58309-1.376-.6319-2.3086.5347,1.2842.8833,2.7568,2.1006,3.3584.53221-.2793-.3081-.9317-.21-1.4688.6915.7012.4229-.1582,1.2588.21-.34859-.6318-1.56-.3984-1.6782-1.2598a11.40393,11.40393,0,0,1,2.0982,1.0498c.247-.0342.1762-.3828.20941-.6308a5.55312,5.55312,0,0,0,2.94,1.6797c-1.24811-1.9014-3.82771-2.4688-5.03811-4.4082.8569.333,1.2866,1.0937,2.09811,1.4697.22559-.2617-.22511-.6104-.20941-1.0498.1865.791-1.2735.1025-.6294-.6299a1.36987,1.36987,0,0,0-1.0494-.2109c.1734-.5918-.2959-.543-.2099-1.0489a7.72838,7.72838,0,0,0,1.4687.4199c-.7949-1.8339-4.4345-1.8076-3.9873-4.1992.458.5899,1.3501.7491,1.4698,1.6797.8105-.4736.8271.3906,1.4687.6299.5498-.4287-1.0854-.4395-.8394-1.2588.4273.0615.4107.5674.8394.6289-.2661-.7822-1.0361-1.0635-.8394-2.3086,1.1109,1.3155.9717,3.2871,3.1485,3.1494.542-.288.0464-1.288,0-1.6796a3.94422,3.94422,0,0,1,1.0503,1.2587c.2671-.0468.2749-.6269,0-.6289.7759-.0576,1.4863.5635,2.3091,1.2588a33.23888,33.23888,0,0,1-1.05029-4.4072c.76849-.084,2.00289.4434,1.05029-.2109.82471-.3995,1.2651,1.3886,1.8881,1.8886.6172-.8359-1.0678-1.1631-.8383-2.3086a6.51509,6.51509,0,0,0,1.4687,1.4698c.6695-1.6075-1.9834-2.7393-1.6806-3.9883.54.8613,1.4399,1.3603,1.6806,2.5185.84621-1.0869-1.0752-2.7695-1.8882-3.5693.4395-.6025,1.4688.5303,1.8882,1.4697.4683-.0302-.2715-.5283,0-1.0498.7754,1.125.9497,2.7959,1.8897,4.1983,1.1538-.4727.3081.497,1.2597.6308-.2207-1.1875-1.1767-2.4824-1.2597-4.1982,1.1958.6924,1.1118,2.666,2.519,3.1494-.0288-.3799.5942-.7998.4194-1.8897.9952.4043,1.18611,1.6133,2.0997,2.0997.437-1.2881-1.1895-1.9141-.6309-3.1504.749.2324.55131,1.4091.84131,2.0996.55219.0635.16459-.8135.83939-.6289a2.20389,2.20389,0,0,0,.6294,2.5185c.3149-.5879.6318-.3457,1.05021,0-.23821-.2021-.70211-1.2304-.84031-.8388-.45069-.3155.1504-.5147-.2099-1.0508.4199.2109.3315.9287,1.05021.8408-.00971-.1406.32819-1.2725.42,0,.66989-.6836-.50931-1.3008-1.47021-1.0508-.128-1.414-1.813-1.5947-2.0982-3.3594,1.1465,1.3907,2.3853,2.8692,3.9878,2.7295.3115-.0908-.083-.2685,0-.6299-.1455-.2802-.5601.1036-1.0493-.2089.4575-.7188-.521-1.4932-1.0498-1.8907.0928-.3046.1855.0215.4194,0-.1548-.6845-.977-.7011-1.0488-1.4697,1.89011,1.4424,2.977,3.124,5.2475,3.3604.0728-1.0537-.9287-1.0313-1.0493-1.8907H35.2695c.1812-.6103.3135-.2363.8394-.2099-1.3794-2.1192-3.6201-3.377-4.8291-5.667a18.62977,18.62977,0,0,1,2.93941,2.9385c.37209-.1846-.54-.8438-.42041-1.4698,1.27641.4034.9527,2.4063,2.1001,2.9385.6426-.4551-.20069-1.1807,0-1.8877,1.0152.8731.6109,3.168,1.8887,3.7783.0205-.3789-.8813-1.6318-1.0493-2.5195.8682.3916.83691,1.6826,1.4687,2.3086.2828-.9033-.3735-1.6758-.6294-2.9385.3975.0235.1455.6934.6294.6299-.6469-.4023-.1635-1.9355-.6294-2.5195.4463-.6338.7818.6006,1.2598.6299-.1103-.6329-.2549-1.9942-1.6797-1.8887V1.09c.6597-.0996.5547.5635,1.0493.6289.0264-.375-.2563-.4423-.2099-.8388.7397.0283.5986.9404.8403,1.4687.8735.0342.5005-1.1797,1.2603-1.2588-.1172.5831.02,1.419-.8404,1.2588.6856,2.8438-.2539,4.4268.6294,6.2989.7134-.5254-.5752-.8086-.209-1.6797a.9217.9217,0,0,1,.42.8388c.5332-.1689.4062-1.6308,1.0488-1.0488-1.2158-1.3564-.5518-2.6308-.8389-5.0391.8257.7139.2364,2.8428.6294,3.9893.53321-.4482.9097.3457.6294,1.4697.7774-.2021.7617-1.1982,1.4697-1.4697-.7011-.4189-.4306-1.8076-1.0493-2.3096.7569-.7422.6255,1.1836,1.2603,1.2598.4629-.0264.0884-.8906.2099-1.2598,1.4366.0674,1.2974,2.4727,2.7276,1.8897-.34039-.918-1.2632-1.2569-1.6787-2.0996,1.1816.2168,1.6455,1.1533,2.0981,2.0996.5093-.1914-.4746-.6192-.2095-1.2588a4.24446,4.24446,0,0,1,1.2598,2.3076c-.1699-.039-.2085-.2109-.4194-.209.1821.6114.3144.2354.84031.209-.126-.8535-.02691-1.9336-1.05031-1.8877.36131-.1992.34331-.7763,1.05031-.6308-.30031-.6084-.50391-1.3155-1.26031-1.4698.2749-.6504-.0561-.5986,0-1.4687a20.33044,20.33044,0,0,0,1.6797,2.7285c.5069-.4541-.44139-1.2256-.41939-1.8897.81249-.1816.34229.917,1.25879.6299.5303-.3965-.1943-.7353.21-1.2588-.28079.2647-.4112.6309-.8394.209.3511-.2773.4473-.8115,1.2598-.6289v2.0996c-.479-.0586-.7896.0489-.8404.419a2.08625,2.08625,0,0,0,1.2603.6299c-.0806,1.165.3388,1.2753,0,1.8896,1.0654-.2627,1.1206-1.5371,1.0503-2.9385.7573-.1992.2915.8272.4194,1.2598.7114-.3731.2188-1.4814-.21-1.8897.2344-.6142.6827.2676.6294.6299.3965-.0234.146-.6953.6299-.6299-.0908-.5654-.7885-1.0781-.2099-1.6796.3115.1777.3037.6757.4194,1.0488.4995-.3408-.085-1.7647,1.0493-1.4688a1.876,1.876,0,0,0,0,2.0996c-.0918.4581-.9267-.3984-.41989-.6308m-.20951,4.4092c-.1304-.9571.7573-2.4619-.2099-2.9395.0927,1.1651-.5821,2.2285.2099,2.9395m16.1646,5.8789c-.41309-.0645-.416.2822-.6294.4199-.21,0-.2495-.1719-.4209-.2109.05121.6962-.417.9111-.2095,1.2597a15.361,15.361,0,0,0,1.2598-1.4687m3.3593,16.583c1.0415-.0879.1182.6299.6294.8408.2134-1.0986.9707.4473,1.2603-.21-.7266-.0498-1.2964-1.7529-1.8897-.6308M56.26221,65.11839c-.998-.0498-2.06051-1.8057-2.93941-.6289.9829.0263-.22859.3056,0,.8398.7631.5,1.8032,1.8291,2.7299,1.4697-.3886-.5.91651-.1523,1.0489-1.0508a.63273.63273,0,0,0-1.0489.211c-.0478-.3965.2364-.4629.20951-.8408M23.9316,60.92009c.1392-.6289.4493.2012.8404,0a8.045,8.045,0,0,1,.8393-1.4697c-.4926-.4951-1.0312.0352-1.6797,0a1.17775,1.17775,0,0,1-.2085.8398c.6602.1006.8204-.2978,1.2588-.4189v.4189c-.2851.1553-1.7661.167-1.0503.6299M7.7681,47.06469c-.2476-.0323-.5967.0361-.62989-.209.26069-.9776,1.44039.209,1.67869-.6309-.8799.1035-1.44869-1.5986-1.8882-.6289.2549.0234.4971.0615.4194.4189-.8544.1387-2.5937.8741-1.6806,1.4698a1.19839,1.19839,0,0,0-1.2588.6299c.8589-.0508,1.229-.5909,1.8892-.8399a1.495,1.495,0,0,1-.6304-.4189c.581.0605,1.5039.8593,2.1006.209m9.2363-11.336c-.4199-.0859-1.5571-.5205-1.8887,0,.7046.2041,1.0459.7715,1.4688,1.2598.1216-.4395.5205-.5996.4199-1.2598M49.124,3.81859c.6363-.0069.20321,1.0566.8404,1.0498.2011-.708-.5621-1.5157-.8404-1.0498M39.0474,6.758a2.43682,2.43682,0,0,0-.8404-2.9394,4.81024,4.81024,0,0,0,.8404,2.9394m6.29781-.6299c-.40871-.8506-1.07761-1.4414-1.46871-2.3095-.9995,1.3496.976,2.4677,1.46871,2.3095M56.8921,4.65839c-.1528.6416.3618.6182.2095,1.2598.9853-.1846.7929-1.8184.6294-2.0996-.3135.2461-.2471.872-.8389.8398m-1.8897,2.5195c.7144-.4736.9219-1.458,1.46981-2.0996-.81161.168-.93411,1.0264-1.46981,1.4698.7056.082-.6606,1.1914,0,.6298M43.457,9.69749c1.37021.0742-.3051-1.4424.4195-1.8907.2519,1.3233,1.102,3.0479,2.7275,2.3096-.3642-.6992.106-.9307,0-1.8887-.9595-.4892-3.4839-1.249-2.5176-2.3095-.6494-.545-1.1264.4277-1.4697.8398.1289.2901.8071.0313.8403.4199-.664.4483.5386,1.1895,0,2.5196m12.3848-2.3096c-.05659-.7891,1.728-1.1455.63041-1.6797.00339.6455-1.30761,1.0576-.63041,1.6797m-2.729.209c.3647-.3897.2705-1.5039-.2095-1.6787.128.5019-.2632,1.5234.2095,1.6787m-7.55759-.419c-.39651-.1777-.95221-1.2695-1.46881-.6298.4219.1611,2.3213,1.166,1.46881.6298M56.6821,9.06759c.0078-.9033,1.1187-1.7158.21-2.3096.0869.8643-.9434,2.1065-.21,2.3096M41.9868,7.38789a1.023,1.023,0,0,0,.4199,1.0488c-.0586-.3681.5909-1.0469,0-1.2588-.0473.1631-.1757.2442-.4199.21m12.1753,1.6797a1.64177,1.64177,0,0,0,1.2598-1.4707,2.38036,2.38036,0,0,0-1.2598,1.4707m3.9888,0a1.87957,1.87957,0,0,0-.4199-1.4707c.166.8525-.2251,1.4638.4199,1.4707m3.7788-.21c-.4717.1612-.0054-1.6338-.4194-.8408.0351.8857-.4707.1445-.6294,0a.99733.99733,0,0,1-.21.6309c.7422-.3692,1.0811.7041,1.2588.2099m-18.6826,1.2588c-.0376-.3135.0737-.7744-.211-.8398-.0122.1289-.0322.248-.21089.2099-.20561-.9287-.03081-.5488.21089-1.2588-1.0688.1162-.3325,1.5889.211,1.8887m10.915-.6299c.1148.3067-.2451,1.085.21,1.0498.20311-1.0791,1.7026-.9365,1.2597-1.6787-.3457.3545-1.13859.2608-1.4697.6289m6.2979,1.2608c.604-.753,2.0791-1.2871.2109-1.8897a3.34825,3.34825,0,0,0-.2109,1.8897m-22.043-.6309c.1304-1.085.4175.4902.8403.4199-.0478-.3965.2373-.4629.2095-.8388-.5937-.0362-.8745-.3848-1.4697-.4209-.0586.4785.0508.789.4199.8398m18.2651,1.6807v-.4209c1.4644.3125.0572-1.711,1.2598-.6289a3.04756,3.04756,0,0,0-1.0498-1.4707c-.2256.4814-.0322,1.4746-.62989,1.0507.14359,1.2168.24069.4395.41989,1.4698m-9.6572-1.6807c.2749.2139.7739.2061,1.05031.4199a1.05237,1.05237,0,0,0-.84031-1.0498.98486.98486,0,0,1-.21.6299m14.4854,3.3594c-.1006-1.2998,1.3877-2.4961.2094-3.5694-.2934,1.502-1.1801,2.8819-.2094,3.5694m1.6796-1.8897c.49131-.5957-.26069-1.8476-.6298-1.4697.0962.2402.0102,1.208.6298,1.4697m-27.081.211a1.14557,1.14557,0,0,0-1.0503-1.0498c-.00339.2763-.3677.1904-.41939.4189.43839,0,.78949,1.1436,1.04979.6309-.2959-.0557-.24079-.4619-.4195-.6309.6739-.1846.2871.6924.8394.6309m10.4951,1.4687c-1.04-.1826.2608-1.1416.4209-1.4687-.3852-.3155-.5234-.877-1.0503-1.0498.3599.8105-.7807,2.8789.6294,2.5185m13.0176-.6308c.01561-.4903.8935-1.1827.209-1.6787-.0166.4902-.8946,1.1826-.209,1.6787m-1.8906-1.2588c-.1299.5683-.8765.5224-.8389,1.2588.3843-.0098.7109,1.0771,1.0498.4209-.9604.166.73-1.2149-.2109-1.6797m-32.7491,2.9394a1.47466,1.47466,0,0,1,1.2598,0v-.4209c.1284-.0117.24851-.0302.21-.209-1.1827-.0078-.7388-1.6406-1.4698-2.0996a11.6428,11.6428,0,0,0,0,2.7295M64.4497,12.427c.1626.0459.4141.0048.4199.208a1.488,1.488,0,0,0-.6298.4209c.6948.0664-.8194.6494,0,.8388.6186-.4521,1.0302-2.0703.6298-1.8886-.00239.2773-.3691.1933-.4199.4209m-10.49749.4189V12.427c-.21.0009-.24961-.1709-.41951-.21-.5591.5508-.3203,1.293.41951.6289m12.38569.8398c.5757-.4736,1.4136-.6865,1.8906-1.2587-.872.0449-2.1929.7373-1.8906,1.2587m-43.2446.6299c.4008-.0244-.24709-.7031,0-1.2597-.4126-.0938-1.2984-.7784-1.6797-.21.834.2148.8794,1.2207,1.6797,1.4697m45.7646,1.0498c.167-.6465.4219-.6728,1.04931-.4199-.56541-1.2432,1.92479-.7412,1.67969-2.3105-1.6963.4365-2.5522.3974-3.9878,1.6806,1.1905.3438,1.70511-1.082,2.30811-.6299-.35541.4239-1.47991,1.167-1.04931,1.6797m-6.5088-1.2607c.5723-.1279.8242-.5762.8408-1.2588-.8803-.1797-.4609.9385-.8408,1.2588m-14.6948.8408c.0786-.6914,1.1914-1.1699,0-1.4697.2896.6631-.52,1.2666,0,1.4697m9.0278,0c.45711-.5205-.14789-1.249-.6294-1.4697.39851.75.0542,1.1523.6294,1.4697m8.607.21a1.94826,1.94826,0,0,0,1.4687-.6299c-.6074-.5479-1.0083.3867-1.4687.6299m4.1987,2.9384c.6777-.581,1.7202-.7988,1.6797-2.0996a2.09615,2.09615,0,0,0-1.6797,2.0996m-1.6797-.6298c-.0298.249-.3745.4765,0,.6298.3276-.791,1.5303-.7089,1.4697-1.8896-1.3339.6152-4.1323.4463-3.9887,1.8896,0-.1162-.17-.2382-.21,0,1.1196.7432,1.8843-.4238,2.729-.6298m-43.4556.2099a.919.919,0,0,1-.83929-.4199c.12689-.0117.24709-.0303.20989-.209h-.6298c-.1255.6309.8857,1.1905,1.2592.6289m33.5894.8408c.3657.629,1.2979-.3017.6294-.6308-.023.3965-.6943.1455-.6294.6308m12.17531.419c.94969.1094,1.51269-.166,1.67969-.8399-.6504.2774-1.1641-.622-1.4702,0,.2544.044.1303.2325,0,.4209.37351.1241.87251-.6162,1.0503,0a1.7145,1.7145,0,0,0-1.25979.419m-1.47021,0c.624.0498,1.6094-.6123,1.26021-.8399-.19431.5059-1.52631-.1269-1.26021.8399m-45.7656,2.5195c-1.3584-.8828-3.545-2.0508-5.0376-2.0996a8.48481,8.48481,0,0,0,5.0376,2.0996m42.8271-1.6797c.7534-.0547.77.6299,1.4688.6289.6474-.8691-1.0889-1.8252-1.4688-.6289m-3.7788.6289c.1416-.2978,1.2842-.6464.6304-1.0488-.2217.2188-1.1172.8164-.6304,1.0488m5.6694-.4179c.5137.3301-.0464.7129.209,1.2588.4429-.336,1.1607-1.4864.8389-1.8897-.0869.4727-1.1504-.0312-1.0479.6309m1.2588.4179a1.74024,1.74024,0,0,0,1.04931-1.0488,1.14628,1.14628,0,0,0-1.04931,1.0488m-4.1982.211c1.1484.1914-.4629.0722-.4199.4199.8149.1006,2.4707.457,2.9375.21-.4229-.6778-2.0982-1.8282-2.5176-.6299m-39.6778.6299c-.5546-.2246-1.1596-1.4864-1.8886-.8409.9487-.1699,1.2436,1.4043,1.8886.8409m43.876,1.4697c.6851.0537,1.0098-.25,1.04931-.8408a1.92355,1.92355,0,0,0-1.04931.8408m-50.3838,1.6787c.5376-.2275,1.0015.6377,1.2603,0-.4707-.4326-2.0474-1.7852-2.1006-1.2588.8877.1572.709.7598.8403,1.2588M68.8579,23.343c-.15669.7988,1.3584.4531,1.04931-.21a1.3661,1.3661,0,0,0-1.04931.21m-49.9643,2.5185c.103-.8125-1.6021-.9023-1.8892-.6299a6.45671,6.45671,0,0,0,1.8892.6299m22.2529,0c.5469,1.5928,2.167-.0273,0,0m2.73,1.8897c.0464-.1641.1758-.2442.4199-.21.0991-.6592-.26319-.8584-.6299-1.0498.1206.3692-.2539,1.2344.21,1.2598m-27.7115,0c-.2495-.9717.8848.3672,1.0494-.4199a3.279,3.279,0,0,0-2.0987-.42c-.0307.6612.5381.7217,1.0493.8399m3.1485,1.8896a1.367,1.367,0,0,1,1.0503-.2099c.1445-.5645-.4331-.4053-.6294-.6299.1255.4355-.9234.7148-.4209.8398m-1.26029,1.8887c.53709.1611.96539.3096,1.26029-.209-.46629-.0908-1.1387-.4834-1.26029.209m3.36039,2.0996c.14261-.7041-.3521-.7676-.84039-.8389-.27391.4248-1.11081.2881-1.25971.8389a.99024.99024,0,0,1,.6304.21c-.044-.9209.749-.0235,1.04931,0,.15329-.5723-.41751-.4229-.42-.8389.67389-.1846.43509.5439.84039.6289m52.2724.21c-.3545-.086-.94279-.9893-1.2587-.42.3525.085.9428.9893,1.2587.42m-47.6552.6308a3.16329,3.16329,0,0,0,2.1006-.6308c-.63819.2715-1.68319.1357-2.1006.6308m-6.7173.6289a5.96984,5.96984,0,0,0,2.1001-.4209c-.458-.6611-2.1001-.5703-2.1001.4209m-2.729,0a3.6908,3.6908,0,0,0-2.0991-.4209c.44481.5909,1.8276.7852,2.0991.4209m12.59571.6299c.664.0332,1.268.0078,1.46869-.4199a.987.987,0,0,0-1.46869.4199m-10.49611.419c.24611.0332.5952-.0362.6294.2099-.1626.0479-.4141.0069-.4199.211a.99253.99253,0,0,1,.6308.2089v-.8388c-.2763-.0283-1.5195-.0323-.8403.209m39.6767,1.0507c-.03759-.663-.1469-1.2529-.8393-1.2597a1.9565,1.9565,0,0,0,.8393,1.2597m12.5967.21c.753.1729,1.0156-.4736,1.4698,0,.1337-1.2334-.7784-.2031-1.4698-.4199a.98921.98921,0,0,1,.21-.6309.9273.9273,0,0,0-.8408.4199c.45851-.0371.6684.1719.6308.6309m-63.1894.6289c-.5235-.2471-.5015-1.0391-.8394-1.4687-.0488.163-.0068.413-.2099.4199.0263.5459.8505,1.3681,1.0493,1.0488m26.0307-.8389c.6382.0079,1.38141.1211,1.2598-.6298a2.0884,2.0884,0,0,0-1.2598.6298M10.9165,39.927c.521.0312,1.0191.04,1.0498-.42-.9043-.0673.0034-2.2705-1.4697-2.7295a1.99334,1.99334,0,0,0-.21,1.8897c.3965.0937,1.2657-.2852,1.0493.4209a.92367.92367,0,0,0-.4194.8389m20.5733-1.8897c.2348-.3252.6821-.4375.6303-1.0488h-.6303c-.1207.1269-.4917.9951,0,1.0488m38.62741-.6289c-.37551,0-1.22171-.5654-1.47021,0,.2485.0332.5976-.0371.6308.21-.1635.0468-.414.0048-.4199.2089.6309.4493,1.3189-.6679.8394.42.5215.082.9214-1.0108.6294-1.0489-.0108.128-.0308.2481-.20949.21m-39.88771.6289c.4053.085.1665.8145.8413.6299-.1211-.3691.2539-1.2324-.2119-1.2588.0664.4834-.605.2324-.6294.6289m2.3101-.21c.1557.6465-.5762.4043-.4195,1.0499.7407.0302,1.4356-1.0684,1.2588-1.2588-.6494.5605-.6758,1.1435-.8393.2089m.8393.8399c.4707-.0889.6694-.4492,1.05031-.6299-.43161-.4346-1.06441.001-1.05031.6299m3.3594.6309c.5366-.0235.7353-.3858,1.0493-.6309-.3115-.3135-1.0845-.0186-1.0493.6309m-7.3482.2089c.6582.0987.5918-.5273.8394-.8398h-.6294c.0464.3975-.2363.4639-.21.8398m-6.0878,0c.4492.1651,1.1738.5108,1.4697.21.03321-.8135-1.25979-.7471-1.4697-.21m1.6796.42h.6294c.0596-.4786-.0498-.7891-.4199-.8389-.0659.2832-.2978.4004-.2095.8389m7.3482.4199c.6025.5771,1.1152-.1192,1.6792-.21.063.4131-.2837.416-.4204.6289.6626-.0361,1.2524-.1465,1.2597-.8388-.1777-.4532-1.3369.0781-1.4697-.42a1.48883,1.48883,0,0,0,.6304-.4189c-1.083-.1045-1.7437.2148-1.6792,1.2588m-4.8281,0c-.5635-.1387-.79979-.6006-1.2603-.8399-.18849.3711-.5068.6133-.6304,1.0508.816-.6142,1.3716-.0049,1.8907-.2109m3.5688,1.6797c.2285-1.3155-.6899-1.3907,0-2.0996-.6182-.5127-.7949.7597-1.6807.6308-.0595.5479.0772.9014.6294.8379.084-.3603-.311-.5371,0-.6299a2.27191,2.27191,0,0,0,1.0513,1.2608m41.3565.2099c.2343-1.331,3.2797-.1963,2.9384-1.6787-1.7646.8291-3.3281-.5312-4.6181.6289.2773.003.1909.3672.4199.4199-.0557-1.4414.8413.379,1.0488-.6298.1533.5722-.4165.4218-.4194.8398.6802.2598.1611-.6797.84031-.4209.27689.5264-.83061.6582-.20991.8408m-49.334-1.4707c-.7266-.1699-.8877.3926-1.2598,0-.3018.6563,1.5605.6563,1.2598,0m4.4087.211c-.0025.3877-1.2779-.7891-1.6807,0,.2783.2812,1.645.3877,1.6807,0m7.9775,1.4687c-.0024-.375.5654-1.2197,0-1.4687-.5225.248-.2124,1.3291-.84029,1.4687.23729-.6592-.06111-.5537.20939-1.0498-.646-.1572-.4038.5772-1.0498.4209.0616-.4287.56841-.4121.63041-.8398-.87261.038-1.02251.7968-1.46971,1.2597.8525-.1972.7275,1.1367.4194,1.4698.5127-.1397.7666,1.0185,1.05031.4189a1.6438,1.6438,0,0,1,1.05029-1.6797m2.0981-.6289c-.1635.0479-.413.0059-.4199.21.272.2978.8682.997,1.0493.2099-.8042.1221.1734-.8642-.6294-1.0498-.082.2998-.2519.3535,0,.6299m-15.1137.4199c.4419.2578.1347,1.2637.6294,1.4698-.03709-.5967,1.374.2539,1.0493-.6299-.3071-.6172-1.1528.5019-1.0493-.6309a.75563.75563,0,0,0,1.0493-.6289c-.71439-.0146-1.46439-.0654-1.6787.4199m-4.6201,1.8887c.0551-.3262.46141-.1455.6303,0-.2383-.9209.001-.6895.21-1.4697-.604.0371-1.3242,1.039-.8403,1.4697m11.9663-.4189c-.0645-.6563.6069.5332.6294-.21-.253-.0459-.1285-.2334,0-.4199-.3052.1152-1.0835-.2461-1.0494.2099.2784.002.1924.3682.42.42m-.8394-.42c-.1304.4981-1.292-.0332-1.4687.42.38621,1.2822-.5127,1.289,0,2.3085,1.3105.1133.7309-.8369.8393-1.0498.6348-.0644,1.6318.2344,1.6782-.4199-.7451.3272-.1259-.7119-.6294-.6289-.3354.5615.1944-.5469-.4194-.6299m9.0264.21c-.1831.7422.539,1.081-.2095,1.2598-.0356-.3145.0747-.7754-.21-.8399-.2451.3145-.2607.8574-.62939,1.0488-.01221-.1269-.03121-.249-.20991-.2089-.1558.4648.77291.8652.8393.4199-.4453-.1582,2.0088-.624.4195-1.6797m-17.42389.8389c.03329-.2471-.03611-.5948.21-.6289-.03761.457.17239.6679.63039.6289.0322-.5918-.5952-.5254-.84039-.8389-.353.2002-.65571.6963,0,.8389m5.87849.6298a.99062.99062,0,0,1,.6294.211v-1.0508c-.6153.2422-.7798-1.0068-1.0503-.4189.3139.8046.812.206.4209,1.2587m-7.9776-.2089c.6128.0576.7212-.0508.4195-.4209h.8408c-.03319-.2471.0351-.5948-.21-.6289-.1269.5732-1.0776.3222-1.0503,1.0498m14.0655,0c.996-.0997.2334.2617.6294.6298.7089-.3359.8969.8907,1.26021.21-1.06351-.0859-.96391-1.8398-1.88961-.8398m-7.3482,1.0488c-.1841-.7432.5391-1.082-.2095-1.2598-.2895.2696-.36469,1.2559.2095,1.2598m5.2481.2099a1.16967,1.16967,0,0,0-.21-.8388c-1.0845.2471-2.7544,1.0176-2.5181,1.8887.2696-.6573.4331-.1075,1.0493-.42a1.18235,1.18235,0,0,0,.21.8399c.7476.0088,1.0933-.7871.4194-1.0498.4795-.2881.7886.541.8394,0-.4814-.2608-.96529-.6494-1.2588,0,0-.21-.1704-.25-.21-.42.5137-.5156.9102.1553,1.6788,0m10.0776-.6289c-2.1392-.3105-.022,1.3028,0,0m-8.187,1.6788c.0019-.2774.3677-.1915.4194-.42-.2539-.0439-.1294-.2334,0-.4199-1.1186.2217-.0532-.4414-.6294-.6289-.0576.4326-.9297.0488-.8403.6289.8945-.5586.6538.3848,1.0503.8399m-12.5957-.209c-.61619-.1787.2724-.5293,0-1.0508-.398-.0469-.4639.2363-.8408.2099-.08939.5303.6572,1.2754.8408.8409m1.25881.4189c.48579-.0205,1.15279-.9228.62939-1.2598-.2012.4288-.4287.8311-.62939,1.2598m-3.14941-.2099c.4545.1357,1.3061.7871,1.4697,0-.5532.0634-.688-.2911-.6294-.8399a.78953.78953,0,0,0-.8403.8399m11.33641.8398a1.05725,1.05725,0,0,1,.62989.6299c.7539.123,1.0156-.2442,1.4697-.4199-.147-1.2393-1.5737-.7481-2.09959-.21m-5.03761,1.8896c.05861-.6396-.67239-.8164-.211-1.2597-.5722.1523-.4218-.418-.8383-.4199a2.00264,2.00264,0,0,0,1.0493,1.6796m-13.2261-.8398c.0713.6572,1.3086,1.5654,1.6792.6299-.39749-.0479-.4634.2363-.8389.2099.2583-.6796-.6792-.1601-.4209-.8398.1988.2178,1.0821.1914,1.05031-.4199-.59421.0351-.87451.3847-1.46971.4199m12.3858.8398c.1435-.7578-1.1133-.5703-.4209-1.2597-1.544.0283-.2408,1.789.4209,1.2597m-15.7442-.6308a5.337,5.337,0,0,0,1.6787.4209c-.1528-.5733.417-.4229.4195-.8389-1.2525.4678-1.5064-.1992-2.0982.418m2.30811.4209c.19089-.3701.773-.3467.84029-.8389-.6171-.1797-1.3637.5674-.84029.8389m60.251.2099c1.05319.6436,2.915.2393,2.52-.8398-.51711.4912-1.55521.0215-2.52.8398m-39.25831,0a4.11042,4.11042,0,0,0-1.4688-.4199c.1172,0,.2388-.1699,0-.2109-.6635.9785.8042,1.208,1.4688.6308m-9.0254-.4199c-.9399-.1699-1.1675.3731-1.26029,1.0489.61329-.2559.96539.9931,1.47029.6298-.2466-.3144-.6075-.5136-.6299-1.0488.2422.5107.9887-.2344.4199-.4199,0,.1172-.1714.2383-.2109,0,.1279-.0117.2485-.0322.2109-.21m-13.856,2.3096c.441-.4121,1.4878-.0674,1.2593-.6309.459.0479,1.13041.9473,1.4697.4209-.4584-.5918-1.2841-.8164-1.6796-1.4697-.1348.6436-1.5938,1.0518-1.0494,1.6797m3.1485-.4199c.2119-.8282-.9409-1.3623-1.0503-.6309a.57406.57406,0,0,0,.8408,0c.03271.2481-.0366.5967.2095.6309m53.1138-.42c.39641.417.9907.1016,1.4687,0,.0645.4844-.606.2334-.6294.6299.4946-.0058.6187.3614,1.2588.21a3.42282,3.42282,0,0,0-.4194-1.4697c-.8858.1923-1.19829-.1299-1.6787.6298m9.8662-.4208c-.5235.4042-.86279-.3204-1.2593.2099.5967.124,1.0649.7774,1.2593-.2099m-62.98,1.2607c.7344-.2949,1.34421.5879,1.6797,0-.7198-.0596-1.2842-.7236-1.6797,0m58.1518,1.0488c.6031.044,1.0669-.0527,1.2598-.4199-.3301-.0898-.1797-.6602-.8403-.4189.2597.6787-.6792.1591-.4195.8388m-32.5395,0c.5224.1133.4282.0196.6294.6309.0444-.2539.2344-.1299.4199,0-.1182-.5117-.1792-1.0811-.83939-1.0508.27689.8311-.83051-.0664-.20991.4199m-25.1914.21c.603.0439,1.0669-.0518,1.2588-.4199-.4326.1279-1.4576-.3379-1.2588.4199m4.4082.4209h-.4195c.0108-.2686.2681-.292.21-.6309-1.5649-.1845-1.8467.7295-2.52.4199v.8399c.66261-.1026.7417.3779,1.4707.209.1831-.6729-.5454-.4336-.6304-.8379.86231.0713,1.3745.2744,1.8892,0m12.8056.208c-.4209-.085-1.5571-.5186-1.8896,0,1.0083-.1992,1.3784.8516,1.8896,0m-22.0419.4209c.8237-.0459,2.0527.5928,2.7275,0-.4878-.6817-2.1577-.4541-2.7275,0m4.6171,0c.5269-.1719,1.8077.4092,1.6797-.4209-.7133-.0127-1.4643-.0645-1.6797.4209m0,1.6797c-1.9379-.4268-4.69669-2.3907-6.5078-.6289,1.6719.3593,2.8648,2.3095,5.2476,1.2588-.4439-.4649-1.6074-.21-1.6782-1.0508-.6475-.1553-.4034.5781-1.0494.4209-.226-.5283-1.60789-.5957-1.0502-1.2598,1.3286.6533,3.5527,1.833,5.038,1.2598m-1.0493-.8399c.66161-.1015.4761.6446,1.2603.419.0815-.3594-.3115-.5362,0-.6289.5234.1054.7002.5586,1.2588.6289-.2593-.6787.6801-.1602.4199-.8389-.9653.0195-.8672.71-1.2593-.2109-.4238.7705-1.539-.1075-1.6797.6308m31.9092.6299c.1943-.3144.3335-1.5166-.209-.8398.4209-.0655-.8247.4443.209.8398m-14.4844.21c.69581.123,1.5196-.7012,1.0493-1.0498-.1723.5263-.7353.665-1.0493,1.0498m8.1875,0c.1944.2246.7744.0654.6294.6299.52591.0351.6563-.3223.8394-.6299-.4116-.0625-.4151.2832-.6294.4199-.2705-.4951.0278-.3906-.21-1.0488.3072-.4883.6651.4091.6294-.4209a1.33764,1.33764,0,0,0-1.2588,1.0498m24.982.8408c-.55469-.5664-.8706-1.3711-1.6812-1.6807.1572.8301,1.04251,2.0293,1.6812,1.6807M26.2417,56.092c.1724-.9287.4736-.7783,1.0503-.4199-.064-.4131.2827-.416.4194-.6289-.5034.1269-1.5239-.2647-1.6806.208.084.1933.2871,1.4492.2109.8408m-7.1382-.4199c-.0229.3965-.69329.1445-.6294.6299,1.4488.9189.2993-2.086.4195-.6299-.001-.1172.1704-.2383.2099,0m8.1885.8408c.3911-.3779,1.1494.6582,1.88821.6289.04879-.7617,1.10349-1.2627.62989-1.8906a3.27017,3.27017,0,0,0-1.4688,1.0508c-.1304-.837-1.5928-.1182-1.0493.2109m11.7554.208c.0009-.1152-.17-.2383-.21,0,.3316.0205.1646.5361.6294.4209-.0674-.9785.6519-1.1689.8408-1.8906-1.0649.2773-.4726.917-1.2602,1.4697m.4194,1.0508c.3262.3457.98.0889,1.2603-.21-.5147-.1582-.044-.6269.2099-.2109.0108-.6875.59621-.8018.4195-1.6787-.3975.0468-.4639-.2364-.8394-.21-.6777.71-.6523,1.8008-1.0503,2.3096M22.8814,56.092H22.252c-.0816.5898.8945,1.1836,1.0503.8389a1.05237,1.05237,0,0,1-.6285-.6289c.127-.0118.2476-.0323.2076-.21m1.2612.4209c-.4175-.0039-.2671-.5732-.8403-.4209-.001.2773-.3677.1924-.4209.4209.1479.1631,1.17281.4658,1.2612,0m-3.7788.6289c.6382-.7295-.89459-.3193-1.0503,0,.5434.6592,2.3686.1563,3.1504-.2109-.3741-.1856-.5342-.585-1.2613-.418-.1831.3057-.1655.8115-.8388.6289m6.5073.209c.34811-.4815,1.1343-.2041.6309.4209.4106.0625.415-.2842.6294-.4209a.21223.21223,0,0,0,.4194,0c-.5254-.1738-.8247-.5742-1.4697-.6299.1118.3027-.8184.5127-.21.6299m-17.6343.4209c.2573-.2998.8018-.4776,1.0498-.21.1348-1.3008-1.6748-.1191-1.0498.21m6.9282-.4209c-1.73579-1.209-1.7822.6572,0,0m2.3091.4209c.3047-.1153,1.0855.2451,1.0503-.21-.3149.003-.8594-.7803-1.0503-.2109.253.0439.1294.2334,0,.4209m17.2149.6289c.2397-.4307-.3311-1-.4195-.419.32471.0547.1446.46,0,.6299a3.32267,3.32267,0,0,0,1.8882,0c.0244.2559.063.4971.4199.4199.1158-1.166-.8891-1.2099-1.2587-1.8896-.4068.2236-.293.9668-.6299,1.2588m30.2295.4199a.92084.92084,0,0,1,.4194.8408c.5024-.1289,1.5239.2627,1.6797-.2109a.92187.92187,0,0,1-.4185-.8389c-1.1406.6592-.6704-.4453-.6313-.4199-.5235-.3408-1.0493-.1143-1.4688-.4199.2881.4502,1.2368.6426.4195,1.0488m-.6294,1.4697c.9594-.1201,1.165.5137,1.8882.6299a4.47558,4.47558,0,0,0-1.2588-1.4697c-.19.6133-.773.0615-.8394.4209.1636.0449.2432.1748.21.4189m5.4585-2.3086c-.4219.0459-.8501-.9365-1.2598-.2099.2783.0019.1909.3672.41941.4199.05759-.7373.78179.5264.84039-.21m-49.545,0a.78789.78789,0,0,0-.8388.8389c.8105.3359,2.5752,1.1426,3.3593.2109-.3305-.0205-.729.0274-.6298-.4199.31391-.0371.7744.0742.8383-.2109-.8042.0381-.0761-.1719-.2085-.6289-1.10689.0781-1.499.6308-2.5205.2099m18.0547.6299c-.0498-.6513-.74309-.6552-1.2602-.8398-.2383.9394.8462.5556,1.2602.8398m11.5454,1.4688c.0396-.3096.5079-.1914.8413-.209.03421-.5957.3843-.876.42-1.4707-.67579.1846-.2886-.6924-.8394-.6289-.00439.3467-.583.1172-.63039.4199.30569.1826.66559.3135.63039.8398-.5268.2774-.6582-.83-.8403-.2109.7783.25-.1548.9102.4184,1.2598m13.4371-1.4688c.5205.2735.8706-.6172,1.0493,0,.083.503-.9566-.1162-.6294.6299.3686-.1211,1.2324.2539,1.2588-.21a2.08863,2.08863,0,0,1-.6294-1.2597c-.6143.0146-1.1841.0762-1.0493.8398M49.124,60.29019c.1768-.7334.70121-1.1181.6294-2.0986H49.124c.4839.8398-.7387,1.2178,0,2.0986m14.2754-1.4697c.251-.624-.8843-.9014-1.0503-.4199.3999.0908.5283.4531,1.0503.4199m-1.4697-.6289c-.0112.1279-.0308.2481-.21.209v.4199c.5367-.2266.7359.9043,1.0503.2109-.54-.0205-.3003-.8193-.8403-.8398m-13.85449,1.6797c.93649.4287.751-1.3272.41939-1.4707a14.1555,14.1555,0,0,1-.41939,1.4707m5.877.4189c-.96831-.1289-1.20811.4717-2.09821.42-.126.6699.3931.6494,0,1.0498.6484-.3887.9429.1894.6294.6298a12.20072,12.20072,0,0,0,2.3091,1.2598c.0122.1279.0322.249.2099.21a1.47,1.47,0,0,1,.4195-1.8897v1.0489c.6308.0576,1.4546-.7647,1.05031-1.0489-.604.583-1.38041-1.9414-1.89071-.8388.1856-.6748-.5429-.4356-.62929-.8409.24509-.0351.22849-.331.20989-.6289-.4263-.0634-.5591-.4209-.8393-.6299-.1138.7432.7431.5157.62941,1.2588M25.8213,59.24139c.1763.9463-.4907,1.0479-.6299,1.6787,1.0249.042,1.7383-1.3633.6299-1.6787m16.3745,1.8897c-.4272-.0625-.41059-.5694-.8393-.6309.0532.7529-.6294.7695-.6294,1.4697,1.1284.2998.02,1.2071.4194,1.6797v-.4199c.3115.1084.5293.3105.8403.4199.0899-.3994.4517-.5273.4199-1.0498-.2461-.0332-.5961.0361-.6308-.21.5732.0186.42331-.3486.8408,0-.3901-1.0224.374-2.1484-.21-3.1484-.0473.1621-.1757.2442-.4199.209-.4028.9092.77641,1.3008.209,1.6807m7.7686-.4209a1.467,1.467,0,0,0-.211-1.4688c.0576.625-.5874,1.2774.211,1.4688m-9.2373-.8389c.2993.0488.3535.3447.6294.4189-.1524-.5732.4174-.4228.4194-.8398-.52-.0313-1.0181-.0391-1.0488.4209m21.4126,0c.6733-.1846.435.5439.8403.6289.0454-.1641.1753-.2441.4194-.21.0586-.4775-.0493-.788-.4194-.8398.1499.5703-.9907-.1494-.8403.4209m-1.2588.209c.3994.0898.52631.4531,1.0488.4199.0664-.6543-.9707-1.1211-1.0488-.4199m-25.8223.2099c.61961.3311,1.3813-.2304.8403.6299.1612.0459.4131.0069.42.211.7529.1728,1.0156-.4737,1.4687,0-.04639-1.0987-.624-.2168-1.2593-.211.44191-.4385-.2759-.789-.6294-1.0488.062.3398-.28369.5664-.4194.209.11471,0,.2363-.1699,0-.209-.0024.2754-.3691.1914-.4209.4189m26.6611.8409c1.0074.2812,3.89851.2128,3.1499-1.2598-.6748-.1299-.2885.7549-.8393.209-.2407.6611.3291.5107.4194.8398a17.36636,17.36636,0,0,0-2.73.211m5.8794-.211a1.2,1.2,0,0,0,1.2588-.6299c-.1631-.0459-.2451-.1757-.2109-.4189a4.63691,4.63691,0,0,1-1.6792,0c.0151,1.0176,1.73141.081.6313,1.0488m-33.16989.4209c.78079.208.54879.4483,1.46969.209-.021-.8203-.8491-.8311-1.25969-1.2598-.23781.6592.06049.5547-.21,1.0508m12.80569.6289c.8335.0655,1.1362-.4033,1.0498-1.2597h-.6304a4.71442,4.71442,0,0,0-.4194,1.2597m20.9936-.8388c-1.2964.3769-2.2837-.6475-2.9394-.211.3974.7608,2.3266.8653,2.9394.211m-50.5947,1.4687c.5488-.1738,1.1528.6348,1.4697,0-.5268-.1738-.6636-.7353-1.05029-1.0498.03319.5215-.32911.6494-.41941,1.0498m20.3633-.21c-.7764.3096-.3623.4493-.8394-.2099-.0351.2441-.331.2275-.6294.2099a5.06494,5.06494,0,0,1,.6294,1.8897c.4033-.4102,2.8208.2539,3.3594.6289-.3486-.4209.0176-1.5557-.4194-1.8896-.2486.3125-.1822.9394-.8404.8408.6558-.9795-1.9668-.9405-1.2602-1.4698m.2099-.2099a7.196,7.196,0,0,0,1.2598.4199V61.76c-.7827.205-1.231-.2334-1.2598.4199m-2.518.6299c-.07279-.5576-.55179-.709-1.04979-.8399v1.2598c.52189.0322.65039-.3301,1.04979-.4199m-3.1494.4199a.579.579,0,0,1,.4199-.6299c.0473.1631.0053.4141.2095.419-.0484-.3711.2124-1.0508-.4195-.8389.044.6142-1.1836.6816-.2099,1.0498m-5.2476-.4199a.78783.78783,0,0,0,.8394.8398c-.1148-.3057.2451-1.0849-.21-1.0498-.03519.2441-.3325.2285-.6294.21m25.6113,1.0498c.7925-.5069-1.3232-1.3389-.8393-.8408.4936.0664.1235.996.8393.8408m-1.0493,2.0996c.062-.4278.4194-.5596.6294-.8408-.8481-.4942-1.0269.3652-1.4687.8408,0-.1172-.17-.2393-.212,0,.5909.6601.5767-.5459,1.0513,0m-1.0513-2.5205c-.0971,1.1435-.12349,1.1074-.20849,2.0996,1.24659.2178.72949-1.7412.20849-2.0996m-15.9541,1.2597h.8404c0-.5068-.7354-1.3418-1.04979-.8388.61029.1826.23629.3135.20939.8388m6.0884,0c.5698-.1494-.1504.9913.4195.8399-.1368-.7676.4541-.8057.4194-1.4688-.1279-.0615-.8081-.5234-.8389,0,.63821.211.2671.3457,0,.6289M26.8711,67.008c.0786-1.25,1.8213-.8379,1.8896-2.0996-.9794.3555-1.749-.7646-3.3593-.4189.0009,1.3281.8603,1.7988,1.4697,2.5185m30.8599-2.3096c.1084,1.1934,1.4975-.0546,1.4687,1.0498a1.94424,1.94424,0,0,0,1.4712-.6298c-1.0869.0361-2.1348-.8467-2.9399-.42m-19.524.8399a13.54122,13.54122,0,0,1,1.8907,1.6797c.62251-.9707-1.2037-2.7158-1.8907-1.6797m-1.6787.8389c-.0107.2177,1.564,1.0234.6294.2109-.4482-.3897-1.2212-1.5567-1.4687-.6289.0644-.4444.729.2207.6299.6289-.44-.1201-.6011-.5195-1.2603-.419.0474.3975-.2373.4629-.21.8389.5469.084.6329.627,1.2603.6289.2725-.5205-.6162-.8701,0-1.0488.0649.2842.2978.4014.21.8408a5.43192,5.43192,0,0,1,3.1479.419c.06741-.2832.2993-.4014.2109-.8399-.8569-.1933-1.1504-.9482-1.8901-1.2598-.0898.7901.6567.7442.8389,1.2598-.7818-.5576-.0132.4043-.4195.4209-.1811-1.0527-1.7461.2207-1.6787-1.0517m-6.0888.2109c.394.0117.4458-.1611.2094-.419.398.0459.4639-.2363.8409-.2099-.0499.2988-.3458.3535-.419.6289h.419c.0117.1279.0317.249.21041.2109-.08591-.5068.38229-.457.209-1.0508H30.6489c.0479.3975-.2363.4639-.2094.8399m20.7851.8408c.065-.2842.2984-.4014.21-.8408-.6607.0996-.5557-.5645-1.0503-.6289-.0386.7363.709.6894.8403,1.2588-.1181,0-.2388.1709,0,.2109m16.3745-.4209c-.18989-.3691-.77289-.3467-.8413-.8389-.5058-.0869-.4551.3829-1.0493.2081.3184,1.1611,1.9956.8271,2.729,1.0517.32571-.832-.7124-1.3662-1.05029-.8408.73339-.1797.729.3301.21189.4199m-38.209.8399c.4947.3085.3912.4433,1.0494.2099-.1148-.3047.2451-1.0849-.21-1.0498-.1968,1.0049.0088.4873-.8394.8399m5.6685.6298c-.064-.4834.6064-.2334.6304-.6298-.417-.003-.2671-.5723-.8404-.419.1153.3047-.2451,1.084.21,1.0488m3.7788,1.4698c-.3721-.7012-.416-.5567.21-1.0489-.4947.0039-.61719-.3623-1.2598-.2109-.1528.9219.4502,1.0879,1.0498,1.2598m-3.9888,1.2588c-.7783.0263-.5288.3066-.41939.8408.52.2724.87109-.6162,1.05029,0-.1304.291-.8086.0322-.84029.4199.59619.3828.61279,1.3467,1.25969,1.6787.53231-.4541,1.6685-1.1621,1.04931-2.0986,1.21239-.2002,1.53469-2.253.20949-1.8897.2564.0235.4971.0625.4199.4199a2.47051,2.47051,0,0,0-2.0981-.2099c-.0244-.2559-.064-.4981-.4209-.4199-.3911.9502.7544.3642.8403.8398-.8305.0674.1548.6504-.4194.8399-.2808-.5147-.7817.2304-.84029-.21.12889-.0117.248-.0322.20939-.2109"/></g></g></svg>