<?xml version="1.0" encoding="UTF-8" standalone="no"?>
<!-- Created with Inkscape (http://www.inkscape.org/) -->
<svg
   xmlns:dc="http://purl.org/dc/elements/1.1/"
   xmlns:cc="http://web.resource.org/cc/"
   xmlns:rdf="http://www.w3.org/1999/02/22-rdf-syntax-ns#"
   xmlns:svg="http://www.w3.org/2000/svg"
   xmlns="http://www.w3.org/2000/svg"
   xmlns:sodipodi="http://inkscape.sourceforge.net/DTD/sodipodi-0.dtd"
   xmlns:inkscape="http://www.inkscape.org/namespaces/inkscape"
   id="svg2265"
   sodipodi:version="0.32"
   inkscape:version="0.43"
   width="67pt"
   height="195pt"
   sodipodi:docbase="C:\foo\wikipedia\transfer"
   sodipodi:docname="Silhouette.svg"
   version="1.0">
  <metadata
     id="metadata2270">
    <rdf:RDF>
      <cc:Work
         rdf:about="">
        <dc:format>image/svg+xml</dc:format>
        <dc:type
           rdf:resource="http://purl.org/dc/dcmitype/StillImage" />
      </cc:Work>
    </rdf:RDF>
  </metadata>
  <defs
     id="defs2268" />
  <sodipodi:namedview
     inkscape:window-height="540"
     inkscape:window-width="812"
     inkscape:pageshadow="2"
     inkscape:pageopacity="0.0"
     borderopacity="1.0"
     bordercolor="#666666"
     pagecolor="#ffffff"
     id="base"
     inkscape:zoom="1.1298716"
     inkscape:cx="61.124515"
     inkscape:cy="116.53524"
     inkscape:window-x="66"
     inkscape:window-y="66"
     inkscape:current-layer="svg2265" />
  <path
     style="fill:#000000"
     d="M 22.574217,241.67349 C 22.224017,241.10685 22.223387,239.11924 22.572827,237.25659 C 23.034967,234.79314 22.608087,232.69372 21.006867,229.55505 C 18.887427,225.40062 18.832317,224.56245 19.524847,207.01596 C 20.239397,188.91152 20.229657,188.78403 18.043027,187.61378 L 15.841927,186.43579 L 16.048517,154.7725 C 16.162127,137.35769 16.205457,121.92805 16.144797,120.48441 C 16.075497,118.83546 14.369517,116.12188 11.556117,113.18556 C 9.0930169,110.61484 5.4394869,105.58204 3.4371669,102.00156 C 0.10170688,96.037191 -0.15588312,95.014611 0.36373685,89.800401 C 0.67567685,86.670247 1.1825869,80.509211 1.4902169,76.109211 C 2.0224969,68.496046 5.6058969,48.704473 6.6391069,47.671261 C 6.9071369,47.403233 9.0182469,46.464702 11.330467,45.585636 C 16.710457,43.540254 30.030647,34.782798 30.796227,32.78773 C 31.117927,31.949394 30.650567,29.203771 29.757647,26.686347 C 26.372107,17.141468 26.488367,14.689315 30.623477,8.4248053 C 34.801117,2.0958521 36.433417,1.3422121 44.111797,2.1972011 C 51.491627,3.0189471 53.880067,4.1457301 54.637287,7.1627611 C 55.495907,10.583749 54.449997,20.593711 53.092047,21.95166 C 52.510387,22.533313 52.036177,25.281711 52.038227,28.059211 C 52.042897,34.358752 54.919477,39.609211 58.366157,39.609211 C 61.690027,39.609211 65.887247,41.904241 70.450297,46.216781 C 74.246387,49.804474 74.387967,50.180384 75.081547,58.51341 C 76.064627,70.32466 79.106487,80.574379 82.259277,82.699188 C 83.460607,83.508822 83.416547,86.067563 82.080007,93.109211 C 81.453647,96.409211 80.745487,100.44993 80.506317,102.08858 C 80.267137,103.72723 79.163137,106.29651 78.052977,107.79808 C 76.942807,109.29966 76.034497,111.18464 76.034497,111.98693 C 76.034497,114.79527 74.768337,116.69549 71.913317,118.17188 L 69.034497,119.66057 L 69.034497,132.69334 C 69.034497,139.86136 69.461257,148.7373 69.982847,152.41766 C 70.504437,156.09801 71.139647,164.90508 71.394417,171.98891 C 71.839467,184.36361 71.769137,184.95175 69.600547,186.98891 C 66.671227,189.74072 65.563847,196.93707 65.919507,210.91039 C 66.107287,218.28802 65.808897,222.17611 64.978097,223.17717 C 64.309117,223.98324 63.761767,226.50137 63.761767,228.77302 C 63.761767,232.39393 64.271887,233.32702 67.898127,236.33919 C 74.685837,241.97743 73.860267,242.60921 59.704787,242.60921 L 47.375087,242.60921 L 48.381047,237.05929 C 49.149427,232.82009 49.053977,230.28126 47.976867,226.30929 C 47.048357,222.88524 46.561227,215.74734 46.550617,205.41004 C 46.540157,195.22853 46.143007,189.31909 45.420627,188.59617 C 44.676577,187.85157 43.182527,187.77198 40.920627,188.35647 L 37.534497,189.23146 L 36.746447,202.17033 C 36.256197,210.21982 36.344987,217.35703 36.981437,221.05765 C 37.802917,225.83421 37.723037,227.43561 36.575947,229.18629 C 35.790267,230.38539 35.009517,233.78359 34.840967,236.73784 L 34.534497,242.10921 L 28.872727,242.40648 C 25.730667,242.57145 22.927587,242.24524 22.574217,241.67349 z "
     id="path2279" />
</svg>
