<svg xmlns="http://www.w3.org/2000/svg" viewBox="0 0 57.1035 106.46862"><defs><style>.cls-1{fill-rule:evenodd;}</style></defs><g id="Layer_2" data-name="Layer 2"><g id="Layer_1-2" data-name="Layer 1"><path class="cls-1" d="M25.4024,1.6777c.1972.9014-.6504,1.3877-.209,1.8897a1.05926,1.05926,0,0,0,.62891-.6289c-.375-.6065.041-2.001-.62891-2.3096.4316-.4863,1.0136.6514.8398,1.4697A6.58637,6.58637,0,0,0,26.8711,0c.0254,2.1709-.3496,3.625-.4199,5.457.5488-.29.5957-1.0839.8418-1.6797a.92759.92759,0,0,1,.4199.8409c.5176-.9961.40041-2.1416.8379-3.5694.6348.3184-.1738.9219,0,1.4698.2168-.2061.4238-.4151.6309-.6309a1.51222,1.51222,0,0,1-.211,1.6797c.1465.6582.56061.2744,1.0508.2099-.3398.502-.334,1.3458-.6289,1.8897.67771.2598.1601-.6787.8379-.4199-.1621,1.2588-1.3653,1.7998-.8379,3.1484a15.58569,15.58569,0,0,1,1.0488-1.4687c.6153.1787-.2734.5283,0,1.0498a4.5018,4.5018,0,0,0,1.0488-2.9395c.78911.7578-.8886,2.9287.209,4.1992.459-.0312.4512-.5293.4219-1.0498-.8945.1211.8984-.9795,0-2.0986,1.2754.3867.4746-1.6856.8379-2.9395.32231.292.5977,1.086.2109,1.4698.1875.5674.5059-.4444.6309-.6299.6601.8105-.7559,1.3349-.4199,2.5195.6718-.4726,2.3535-3.8066,1.6777-1.2607A5.06657,5.06657,0,0,0,32.959,7.9766a.21378.21378,0,0,0,.4219,0c.6015.3506-.3907.8496-.8399.8398.2969.6484-.3086,1.085-.6308,1.6787.1953.375.8437-.7422.6308.6309.5235.2763.65631-.8311.8399-.21-.5391.7608-.7149.7266-1.0508,1.4697.0527.2276.418.1426.4199.42-.0273-.5069,1.36331-.6875,1.2578-1.8897-.5664-.1318-.0351-.1084-.4179-.6299.0351-.2461.3828-.1777.6289-.2109a11.91524,11.91524,0,0,0-.211-2.5186c.6582-.1845.8672-.8144,1.0508-1.4687.5078,1.1543-1.1269,1.5596-.4199,3.1484.5039.083-.1153-.957.6308-.6308-.207.7021-.666,1.1533-.8398,1.8896.6738.0449.5117-.748.8398-1.0488.5997.6162-.75,1.9336-.2109,2.5185.5898-.9941.7031-2.8603,1.8906-3.7783-.3418,2.3867-1.709,3.751-2.3105,5.878.332-.5518,1.039-.7227.6308-1.4698.4161.003.2657.5723.8399.42v-.42c-.0918-.3105-.2695.083-.6289,0,.166-.6465.4199-.6718,1.04881-.4199a1.88462,1.88462,0,0,0,.41989-1.4687c-.50389-.084.1153.956-.6308.6289-.1563-.6455.5761-.4024.41991-1.0489.21289.1358.21869.4815.62889.42a24.6351,24.6351,0,0,1-.418,3.3584c1.6739-.9649,1.1133-3.1827,2.0996-5.0381.7129,1-.6562,1.7168-.4199,2.9384.2129-.1357.2149-.4824.6289-.4199.0059.4951-.3613.6192-.209,1.2608.3692-.1875.3457-.9326.8379-.42-.7773.8301-1.8418,1.376-1.8886,2.9385-1.1426-.6377-1.6211.6192-2.3106.6289.2442,1.7198-1.1816,2.1475-1.8867,2.3096.4941.2627.9512.0176,2.0976,0,.6231-.2168.2696-1.4102,1.0508-1.4687-.1797.7285.0059.7958-.41989,1.4687.96879-.2197.80469-1.5732,1.67969-1.8887-.2734.7061-.2148,1.7451-.8418,2.0996,1.2715-.0761,2.4512-.9472,2.9414.209-2.3086.6328-2.6641,3.2168-4.4102,4.4092.5176.1074.7422.5078.83991,1.2588.52729-.1709.293-1.1065.62889-1.4697.4922.0537.123.9228,0,1.0498.7598.0605.4805-.918.8418-1.2588.6816,1.1221.0449-.8877,1.0488-.6289-.5664.7607.2676.6181.4199,0,.4043.3496-.5332,1.1338-1.0488,1.2588a1.359,1.359,0,0,1,.209,1.0488c.5801-1.3779,2.23241-1.6875,2.3086-3.5693.7539.789-.6348,1.541,0,2.3105-.1777.0371-.1973-.082-.209-.2109-.2871-.2041-1.3047.6464-1.4707,1.2607.8027.1719.81251-.4473,1.0508-.8398.373.1533.0293.3808,0,.6289.9863.1474.7754-.9034,1.47071-1.0498.05859.3398-.19921.3623-.21091.6308,1.37891-.4179.9628-1.6953.41991-2.7304.30859.3935.84179.5576.83979,1.2617a30.221,30.221,0,0,0,1.8906-4.2002c.4668.4844-.3457,1.9785-.4218,3.1494.06641.6963.65041-.8193.8398,0-.7812.4775-1.1855,1.333-2.0996,1.6797.5234.0928,2.1211.4092,2.3106-.211.4863.0586.4804.5616.2089.8409.7559-.8653,1.4473-.501,1.88871-1.6797.36129,1.1328-1.5,1.8564-2.51761,2.3086.43361.747,1.0821-.0879,1.2598.2109-.7246.8565-2.6504-.3926-3.5703-.2109-.9141.0381.2519.999-.62889.8408.10739.7646,1.42379-.1348,1.47069,1.0488a3.25459,3.25459,0,0,0-1.67969-.4189c-.22851.0517-.14261.417-.41991.4189.1386.0811,1.3027.0586.62891.8408,1.207.042.22459-.7988,1.25969-.8408-.2402.9375-.125.2676.42.6299-.7539.6455-2.2676.5322-3.1504,1.0498-.0371.5928.791.4893.2109,1.0498-.3887-.0312-.1289-.7109-.4199-.8398a4.70956,4.70956,0,0,1-1.2598.4199c.1778.6162.5293-.2734,1.0508,0-.0059.2041-.2598.1631-.4219.2099.7403.4249,1.89261,1.0733,2.51961.42-.12891.1875-.25391.3759,0,.4199-.43561.5508-.88481.1113-1.25981.4199.041.1699.2109.209.2109.4199.4766-.3632,1.3418-.3379,1.4688-1.0498.6738.5088.7402.2539,1.4707,0,.10941.5362.2773.7344-.211,1.0498.1836.6202.3145-.4873.8418-.2099-.6738,1.0283.3223.456.209,1.4697-.0508.2275-.4179.1426-.4199.4199-.89449-.125-.4062-.832-1.4707-.4199.5371.2617,1.0254,1.2598,2.0996.8389-.039.1699-.209.209-.209.4199.1211-.7373,1.9043,1.0908,2.0977-.209.2637-.5644,1.0742.6318.6308.8389-.7578.3193-1.7558-.8213-1.8906.2109-.9551-.582-2.0644-1.0146-2.9375-1.6797-.6465-.1562-.4043.5762-1.04879.419.23629.5322,1.03319.5058,1.04879,1.2607.4024-.25-.416-1.2871.8399-1.0498-1.0899.877.3672,1.4238,0,1.6787.7832.2256.5976-.5215,1.2597-.4199-.0781.3574.1641.3965.42.4199a2.60448,2.60448,0,0,0-1.6797.8408c-.1075-.9668-1.8379-1.498-2.5196-2.5195-.6679.0127-2.164.4092-2.3086-.6299.375-.0273.4414.2569.8379.209-.0039-.6094-1.1855-.4951-1.4687-.209.6465.543.8379,1.542,2.0996,1.4688.0605.5498-.0781.9033-.6309.8398.1192.5508,2.5977,1.252,2.51961,0,.84179.2695-.05861.4346,0,1.0508a8.36868,8.36868,0,0,0-2.09771,0c-.0644.5508.8125.1641.6289.8389.5742-.5235.8945-.085,1.46881-.42.42379.4834-.86721.2129-1.04891.42.4297.4795,1.3575.4629,1.2598,1.4697-.3066-.1836-.8125-.167-.62889-.8389-.64261-.1523-.76561.2139-1.26171.208.4258.5235,2.0254,2.2119,2.3105,0,.1543,1.0703.6563.5635,1.8906.6309-.9902.3389-1.7578.6279-2.3105.8389.0234.6054.8945.3652.8398,1.0507.9297.0997,1.043-.289,1.6797,0,.0274.376-.2578.4424-.209.8389.2559-.2334.4297-.1826.418.21a11.96492,11.96492,0,0,1-1.2598-.42c-.6914.3145.7032.2481.42.8399-.2793-.21-.7813-.1983-.8379-.6299-.4981.2031-1.0332.3691-.8418,1.2608.2558.3027.8027.3173,1.0508.6289.6875-.5225,2.455-.002,2.3086-1.6797q.8202.18885.6289-.6289c.6894,1.7402-1.6094,2.3047-2.5176,3.1474-.5274-.5361-.7031-.1211-1.4707-.4189,1.0254,1.0586,2.541.3974,3.3594.8398-.6368.544-.2149.7803,0,1.4697-1.045-.874-.5586-.9931-2.0997-1.4697-.2578.6797.6797.1602.42.8399-.3653-.8116-2.0762-.8389-1.6797-1.2608-.8457.6192-.3262-.8281-1.4688-.209.4141.2842.9766.4229,1.04891,1.0498.37689.0264.44329-.2568.83979-.2099-.1465.7724,2.9981,2.1123,3.7793,1.2597.3867.2442.1465,1.1143,1.0488.8399.24611-.0342.1778-.3838.211-.6309.8047-.0371.07611.1729.209.6309.74211.1123.5175-.7441,1.2617-.6309-.4551.5157-1.0664,1.543-1.4707.8409.8398,1.456,2.5429.7773,2.3086-1.4698.4336.5157.3418,2.291-.42,2.3086a3.451,3.451,0,0,0,4.1993-.6289c.7675,1.4033-2.5664.5078-2.3086,2.0986-.0391-.6455-1.42-1.0283-.8399,0a7.0134,7.0134,0,0,0-2.7304-1.6796c1.0957,1.5546,2.7128,1.6845,4.1992,2.5205-.2793.5517.2246.705.21091,1.2588a3.44309,3.44309,0,0,0,2.93749-.42c.06451.5537-.43749.5411-.8398.6299-.1563.7178.8535.2666.6308,1.0498-.56249-.1377-.7988-.6015-1.2597-.8398-.84179,1.0195-.5704-.2588-1.25979.4199-.53911-.7012-1.22851-.1221-2.09961-.6299.6367.4121.6074,1.4912,1.6797,1.4697.0351.2442-.0469.3731-.209.42.6152.6289,3.9101,1.6953,3.7773-1.0508.6895.2168-.1582,2.2969-1.2597,2.1006.3925.1172.7832,1.0674-.209.8379.0058-.2032.2578-.1612.4199-.208a4.305,4.305,0,0,1-1.6797-.6299c-.0371.7363.709.6904.8399,1.2588a1.18107,1.18107,0,0,1,.8398-.21c-.5215.3691-.3418.3848.209.6309-.0742.2753-.3692.3291-.4199.6289.9648.4257.9257.7392,1.2597,1.8896-.7773.1494-.90039-.3584-1.6777-.2109-.1191-2.1651-1.22069-2.1387-1.8906-3.5674.2773.0723.33.3691.62891.418.05859-.8262-.89651-.6416-.83791-1.4688-.5274.2178-.666.9522-1.0508.2109-.5527.2354.2832.8135.4199,1.0499-.1445.5244-.5605-.3907-1.0488-.21.5312.873.30661.46,1.0488,1.2598.1309-1.0684.3574-.0782,1.25981-.4209.03509,1.0244-.73831.2587-1.04881.6298.4746.8067.8613-.1396.83981.8399-.53911.7178-1.06051,1.4902-.41991,2.3096-.793-.9239-.2168.4306-.8418.8398,1.3379.3799,1.09371-1.0547,2.0996-.4209a3.5447,3.5447,0,0,1-.83789.6299c.03129.3887.709.1289.83789.4209.668-.5313-.7695-1.6221.8418-1.4697.0762-1.2657-1.7461-.6329-1.67969-1.8897.68559.8301.70119-.0684,1.46879-.21-1.3301.9678.3984,1.0274.6289,2.0997,1.1992.2197,1.2304-.7315,2.1015-.8399-.4746,1.083-1.1426.9453-1.4707,1.8887-.3066-.3916-.4023-.9961-1.2597-.8379-.2852.0635-.1739.5244-.209.8379.8125.0449.6758.5166-.211.8408,1.1426.0147.07821.6514,0,1.6797-.832.0771-1.2832-.4932-1.6797.209-.246-.0342-.1777-.3828-.2089-.6299-.2481.0342-.1778.3828-.211.6299-.2461-.0342-.1777-.3828-.2109-.6299-.3672.0518-.4766.3603-.418.8398-2.0722-.3056-2.9844-2.5078-5.039-1.0488.0293.5996.8769.3828,1.46871.4199-.43751.793-1.65041-.0049-1.04881,1.4698-.459-.3799-1.3906-.2901-1.2598-1.2598H43.2461c-.1426-.6982.4336-.3389.6309-.21-.18169-.8691-.9434-1.1562-1.67969-1.4697-.14461.5635.43359.4053.62889.6289-.1367.6299-.4473-.2002-.83789,0a1.47864,1.47864,0,0,0,.62889.4209c-.87889.2442-2.7598-.3174-3.7793-.6299.6016-.5293,2.582.6485,2.9395-.2109-1.3575-.2051-2.6114-1.0225-3.9903-.209.086.709.8164-.5596.6309.4199C33.7324,62,31.834,66.1211,28.1309,68.4365c.205,6.0528.7636,12.3741,1.4687,18.2647.7188,5.9814-.5859,12.4121,1.26171,17.63474,5.98049,1.085,14.61919-.48632,19.31249,1.8877-12.0546.48828-29.9082.07129-43.0351.21094,4.6972-2.01953,13.373-.0625,18.2637-1.88868-.1075-4.5898.1152-10.1074-.209-17.0059-.2617-5.5029,1.00191-11.332,0-14.6943-.3672-1.2285-1.95509-1.583-2.7305-2.5195a2.58115,2.58115,0,0,1-2.30859-.6309,5.16084,5.16084,0,0,0-3.15041,2.0996c-.5683-.3144.336-.9052.4219-1.2588-1.31249.5069-1.9844,1.6553-3.3594,2.0996-.5683-.1904.4805-.4697.41991-.8408a4.2528,4.2528,0,0,0-1.25971,1.2617c-.9004-.9541,1.71871-1.6914,2.3086-2.5205.123-.7519-.6211-.6386-1.2598-.6298-.3867.0576-.877,1.7539-.8379,1.2597-.0176.211-.9687,2.3379-1.4707.6289.2051.0069.1641.2588.209.4209.8262-.5752,1.0391-1.7607,1.6797-2.5205-.6778.5108-1.49219.8887-1.4688,2.0996-.7597-.6523-.5996.9551-1.4707.8408.1934-.8584.99031-1.1093,1.0508-2.0996-.0391-.1699-.2109-.2099-.209-.4199-.8476.2031-1.1836.918-1.6797,1.4697-.4863-.3652.4024-1.123.8379-1.2597-1.1816.0088-1.9238,2.2715-2.5176,3.5693-.8925.1221-1.3339-.2051-1.4707-.8389-1.4765.8614-1.9062-.9013-3.35739-.2109.39059-.4951-.86911-.6875-.41991-1.8887.3281.0889.1777.6592.8398.42.1543-.6465-.5781-.4043-.41989-1.0508-.05861-.4405-.56251.3037-.84181-.21a3.62194,3.62194,0,0,0,0-2.0986c.4649.166.2735.9853.84181,1.0488.91989-.8232,1.22659-1.5693,2.93749-2.3096-.4062-.7373-1.7636-.3271-2.5176-.2089-.3925.9521.83211.2851.629,1.0488-.8145.1728-.8321-1.5303-1.2598-1.0488-.584.0947.164-1.1446-.4199-1.0508.4882-.8037.3066.79.83981.6308.58789-.3642.19729-.5498.21089-1.2597,1.7793.3271,4.1582-2.0479,4.6192-4.4092-.1914-.8193-.7735.6963-.8418,0,.1328-.707,1.1641-.5147,1.2598-1.2588-1.4004.2793-2.6348,2.541-4.1993,3.3584.0489,2.834-.5722-.1201.211-.8389-.6582-.0986-.59179.5274-.8399.8389-.6425.1523-.7636-.2139-1.2597-.21a.21261.21261,0,0,1,.4199,0c1.6875-1.1816,3.334-2.4043,5.039-3.5693-.0917-.3105-.2695.083-.6308,0,.6055-.0254.1094-1.1504.8418-1.0488-.3516.416.0176.2676,0,.8408.5625.3721.4043-.9258.62891-.2109,0-.3457.39259-.4561.83979-.8399-.039-.3389-1,.3418-.83979-.6299C7.7149,58.6885,4.73631,57.915,3.9902,60.25c-.6406-.6435-.6015.4648-1.0507.6289-.53319-.8213,1.0097-1.3623,1.2597-2.0996-.9941.1943-1.1484,1.2305-2.0996,1.4707.88671-.8242-.1074-1.251,1.47071-1.2607a5.018,5.018,0,0,0-3.35941-.21c.0176-.2978.0352-.5937-.2109-.6289.332.2539,1.3359-.3564,1.4707.21.8477-.6133-.1816-1.4063,0-2.3096,1.0352.8144.2637,2.1338,1.6797,2.5205a1.50184,1.50184,0,0,0,.41991-.6309c.03519-.455-.74611-.0957-1.04881-.2099a1.02664,1.02664,0,0,1,1.04881-.4209A4.16417,4.16417,0,0,1,2.5215,55.4219c.5352.5117.84181,1.2549,1.4687,1.6797.627-.1407-.2011-.4502,0-.8409.7129-.1552.3457.7745.8379.8409.5254-.1465-.3886-.5616-.2089-1.0508.2285-.4824.3476.8926.6308,1.0508,1.0215-.4473,2.6719-.2666,3.7774-.6309-.0938-.1865-.1856-.376-.418-.4199a3.22822,3.22822,0,0,0,3.3574-2.0986c-.2969-.544-1.3027-.378-1.0508-1.4707.1328.7363,1.6094.916,1.2598,1.4707.6113-.1827.2363-.3155.2109-.8409.8535.1787,1.6035-.54,1.0508-1.6787.2129-.6523.2051.5957.418.6299a7.14189,7.14189,0,0,0,2.7304-1.6797c-.7441.2803-.6855-.4453-1.67959-1.0498-.75981.0098-.04891,1.4902-1.05081,1.2598.4043-.2959.38081-1.0196.63081-1.4697-.80461.0351-.20311,1.4755-1.25971,1.2597.3574-.2012.459-.6592.6289-1.0498-.5508.2178-1.36919.169-1.2598,1.0498-.6738-.3008-1.3652.1963-1.4687,1.0498-.2032-.0068-.1621-.2568-.211-.4199-.47069.0879-.0039,1.1133-.4199,1.2598-.373-.1553-.0293-.3828,0-.6299-.63479-.0069-.2031,1.0556-.8379,1.0488.3223-.4043.4805-2.4824.6289-2.7285-.9902-.2695-3.0762,2.6416-4.1992.4199.7773,1.0049,2.7676.0195,2.5215-.6299-.7656-.6064-1.58009.0762-1.8906-1.0498.8359,1.0303,1.5293-.1748,2.51951-.2099-.47271-.626.30469-1.2852-.42191-1.4698.3828.4727-1.5742.6016-1.4687-.4199.5234-.0322.6504.3301,1.0507.4199a7.46845,7.46845,0,0,1-.2109-2.0996c.7617.2188.834,1.128,1.25981,1.6797.84959-.7666-.11141-1.5429-.209-2.5185.59179.5273.78319,1.4541,1.88869,1.4697-.1328.4248-.9805.1377-1.0489.6289.6153.6064.9961-.625,1.2598-.209.5703-.1914-.5605-.3906-.2109-1.0508.3808.2002,1.2285.2608.6308.8409.3711-.1895.6114-.5069,1.0489-.6299-.02539-.4639-.8907-.0889-1.2598-.211,1.0508-.832-.1817-2.1894,0-3.1484.0019-.4932.5723.0762.4199.4199.2813-.3154.0664-.9053,0-1.2597-.3769-.0264-.4434.2568-.8398.2109.1445-.416.5586-.5606,1.0488-.6309-.1777-.6152-.5274.2735-1.0488,0,.0781.5801-.7754.7227-1.2598.8409-.6211-.3038-.1816-.4698-.41989-1.2608-.39851.0908-.52741.4531-1.04891.4199.17191-.5927-.2968-.5429-.2109-1.0488a.58107.58107,0,0,1,.4219.6289c.416-.0019.2656-.5723.83791-.4189.084-.503-.95511.1152-.63091-.6299.8613.54.9551-.6748,1.2617.4199.6094-.1826.2364-.3154.209-.8398.9668.3515,1.0176-.6661,1.4707-.211-.1308-.1865-.2539-.375,0-.4189-.9531-.5879-2.5312-.5489-3.9902-.6299.1855.7246.8379.9814,1.0488,1.6797-.8867-.1631-1.1172-.9805-1.2578-1.8897-1.2129.1641-1.3066-.7939-1.8887-1.2597.3477-.4541.5625.834,1.2578.2099-.4218.4287.0938.4121.211.8399,1.6035-.4483,1.0234-.2998,1.8887.2099.2753-.3574-.9239-1.0254-.629-2.0986.2911.6406.9922,2.5527,1.6797,1.4697a1.45915,1.45915,0,0,0,1.6797.8389c-.164-.2764-.957-1.6221,0-1.6797-.5156.832.5567,1.6035,1.2578,1.8897.5254-.1456-.3886-.5596-.2089-1.0489.6308-.2129.371.4668.4199.8389a9.10351,9.10351,0,0,1,2.0996-.4199c.03511-.4551-.7461-.0957-1.0508-.211.1152-.4384.3691-.7881-.209-1.0488.4375-.6904.8848.3545,1.2598.4199.418-.0039.2656-.5732.8398-.4199a7.71658,7.71658,0,0,1-.4199-1.4697c-.5039-.083.11521.956-.6309.6308-.0585-.3408.1993-.3623.211-.6308H14.0664c-.28709-.4131-.2012-1.1992-.4199-1.6797.7832.751,2.2305.2607,3.1484-.4199-.0644-.2842-.5254-.1729-.8398-.21.6308-.5586.6269-1.3603,1.2598-.4189-.0645-1.2461-1.5938-.8389-2.0997-.21-.082.502.95711-.1172.6309.6289-.7812.5361-1.0176-.917-.83979-.8389-.31641-.1406-1.25591.4102-1.89071.21-.9004-.2852-.5507-1.9717-1.6777-1.0508.0996-.8887-2.68159-.2832-2.09959-2.3086.34959.2803.32419.9326.62889,1.2598.8457.082.9336-.3906,1.2598.21a2.84018,2.84018,0,0,0,.4199-1.6797c.7656,1.0752,1.4883,2.5146,2.7285,2.5185-1.0039-.7402-.2246-1.6728-.6289-2.7285.6016,1.0117.1309-.5996,1.04881-.4189a4.09148,4.09148,0,0,0-.209,2.9384c.27149-.3789.10159-.7705.209-1.6797.5.4805.86329,1.0977,1.89059,1.0499.086-.9961-.7167-1.1036-.6308-2.0997a.57722.57722,0,0,1,.4199.6299c.6367-.2588-.2266-.7226,0-1.2588.4492-.0986.4004.2989.4199.6289.67.1807.6485-.33,1.0508-.4189-2.5312-.0322-2.4062-2.1846-3.7793-2.9404a.99127.99127,0,0,0,.209-.6289c.6406-.0801.3574.7627.8398.8398.1133-.0596.209-.9248.42,0,.2832-.043.3925-.8721.4199,0,.61521-.1787-.125-.6768,0-1.0498.3691.3018.4785.1924.4199-.4199a.57893.57893,0,0,1,.4199.6299c.3047-.3272.6973-.5625.8399-1.0508.375.1553.0293.3828,0,.6299.7734-.2041,1.0918-.8672,1.8906-1.0489-.2285-.1445-1.8809.0703-2.0996.6289-.5371-.4003-1.4102-.8906-.6309-1.4687-.8398-.0303-1.5175.8476-2.30859.21.17779-.6163.67579.1259,1.04889,0-1.5801-1.1661-6.0723.2246-5.2481-3.3594.3106.1777.3047.6758.4199,1.0498.6426.1523.7657-.2149,1.2598-.21-.6172-.6904-1.541-2.0312-1.2598-2.9385a7.23938,7.23938,0,0,0,5.459,4.8291c-.5039-.5468-1.166-.9345-1.47069-1.6806a4.61686,4.61686,0,0,1-1.67971,0c.6289-1.0274,1.9844-.0401,2.9395-.6299-.1094-1.7803-3.1856-.5928-3.3594-2.3096.5254-.0361.5117.4707.8418.6309.5879.0898-.5273-.7832.209-.8399.5469.086.1269.9258,1.25981.8399-.02541-.7109-.91211.0254-.42-1.0498a2.56868,2.56868,0,0,1-2.09961-1.2588c.7012-.5498.7774,1.3125,2.09961.8389.91019-.9112.05279-.8516-1.25971-1.4698-.0742-.0341.3203-.2978.4199-.2099-.2051-.6426-.707.0937-.8398.2099-1.0235-.5859-2.10939-1.1103-2.3106-2.5185a4.41482,4.41482,0,0,1,1.4707,1.6797c.2461-.0352.1758-.3838.209-.6309.4101.291.64651.7549,1.2617.8399a1.191,1.191,0,0,0-1.4707-1.0499,4.75479,4.75479,0,0,1-.4199-1.2587c.6328-.2129.373.4668.4199.8388.73051-.6767-.5937-1.0742-.209-2.0986a.57774.57774,0,0,1,.418.6289c.5976-.7959.1348-1.498.8398-2.3086.6582.5449-.31829,3.7481,1.2598,4.4082.1152-.7432-.7422-.5156-.6289-1.2588.4394.1299.7891,1.0762,1.04881.21.52349.0303.06249.7109,0,.8388,1.03129-.4531.92389.0069,1.89059.21-.0683-.4922-.332-.7871-.2109-1.4687a3.895,3.895,0,0,0,2.3086,2.5185c.377.0625.01371-.8144-.418-.6299.1446-.414.5586-.5605,1.0489-.6299-.3028-.9101-.4688.2208-1.2598,0-.959-1.7636-1.9902-1.7832-2.5195-3.3593.164-.4658.12111-1.1377.6308-1.2598-.3086-.6807-1.2051-1.6269-.8398-2.3086a4.13963,4.13963,0,0,1,.6289,1.4707c.707-.1904.0254-.4707.4199-.8408.5859.8154.6875,2.1123,1.2598,2.9385.0273-.3926.5156-.708.2109-1.0489.2344-.6132.6817.2666.6289.6299.543-.2881.0469-1.2871,0-1.6787,1.1778.1524.209,2.4492.8399,3.1475.4824-.5655.0742-2.0235.2109-2.9395.4121-.7929-.0508,1.003.418.8408.6445-.915-.9883-2.2929-.418-3.1494.3867-.1972.12891,1.2022.418.4209a10.42136,10.42136,0,0,0,1.0508,3.1485c.5058.0859.455-.3838,1.0488-.21-.7012-.3271-.4746-.2812-.4199-1.2588.6699,1.0362,1.1015,1.2266,1.2597,2.5186-.39649-.0235-.14649-.6944-.6289-.6309-.1523.6426.3613.6172.209,1.2598.6777-.2393.541-1.416.6289-1.6787,1.3164.3349-.64449,1.7675.2109,2.3095.418-.9316,1.4512-2.7861-.2109-2.5195.4141-.3926.1231-1.0107-.6289-.8398.9609-1.1553-.6738-2.6368-.6309-4.1983.418.002.2676.5723.8418.4199-.81249.8448.4942,1.7989.418,3.1495.4649-.6358-.3633-1.1016.6309-1.0508a8.41011,8.41011,0,0,1-1.0489-2.7285c.6368-.0069.52351.7363.6289,1.2587,1.0801-.5166-.4433-1.1337-.2109-2.0996,1.1348.4688.125-.3535.6309-.8388.25.8008.8769,2.1045.6308,2.7285,1.1465-.25.1856-1.6709,1.0489-1.8897m3.5683,2.3106c-.293,1.3154-2.1191,2.8603-1.2578,3.9883.48441-1.0069.084.4482.209.4189,1.0117-.6006,1.7246-3.4912,1.0488-4.4072M43.0371,30.6484c.7207-.0468.9141-.624,1.0488-1.2587-.6757.0937-1.2187.3203-1.0488,1.2587M12.3867,70.7461c-.0976-.6592.5645-.5547.6289-1.0508a1.71835,1.71835,0,0,0-1.2578.4209c.4824-.0635.2324.6065.6289.6299M5.25,67.8076c-.3183.8721-1.4336.9463-1.67969,1.8877.88479.1953,2.65629-.376,2.93749-1.4678A4.736,4.736,0,0,1,5.25,67.8076m1.2578.21c.3281-.3037.98051-.2813,1.2598-.6299-.4844.0645-.2324-.6074-.6289-.6309-.3067.5352-1.2735.4073-1.4688,1.0508.3946-.0478.461.2364.8379.21M17.0039,35.6875c-.1172-.456-.6094-1.6094-1.0488-1.0498.3867.3145.5234.877,1.0488,1.0498m1.8906-7.7676c.5723.0186.4219-.3486.8399,0-.1797-.8974.1348-1.0703-.6309-1.4697-.7519.2969-1.7383,1.2441-2.3086,1.0498-.123.6699.3946.6494,0,1.0498.1309.0615.8086.5215.8399,0-.8008.1553-.2383-.7734,0-.8398.582.5732.1972-.3067.6308-.42-.02729,1.0264,1.2442-.7646.6289.6299m1.46881-13.6445c-.29691-.8936-.35551-2.0244-1.46881-2.1006.3321,1.3174.8907,1.2481,1.46881,2.1006M16.7949,9.0264c.5782,1.4463.795,1.9873,1.8887,2.3086-.6328-1.1338-1.7852-2.3955-2.7285-3.7784-.1699.9893.40821,2.3409.8398,1.4698m10.918.8388c.9355.0538.2402.7569.6289,1.0508.1934-.7099,1.3399-2.4912.4199-2.9394-.3906.5898-.6836,1.2754-1.0488,1.8886m-7.7695-.4189a2.33892,2.33892,0,0,0,1.0508,1.4697c-.6993-.9609-.2715-1.7969-1.0508-2.7295-.0215.502.8711,1.791,0,1.2598M31.07031,10.916c.89649-1.5312-.10541-1.7285-.209-2.7295-.89641,1.6455-.57811,1.6729.209,2.7295m-9.65621-.4209a1.72365,1.72365,0,0,0,.4179,1.2608,14.18718,14.18718,0,0,1,.4219-1.4698c-.4512-.249-.4902-.9101-.8398-1.2597-.461,1.2402,1.1328.9023,0,1.4687m-8.1875.6309c-.1914-.5801-.0645-1.4746-.4199-1.8897-.0508.9287-.3985,1.5147.4199,1.8897m16.373.8388c.4531-.5439.9238-1.4843.211-2.0996.3105.9229-.9649,1.7432-.211,2.0996m-9.0254.6299c.6504-.2099.8164,1.1172,1.2578.42-.5683.1503.1524-.9903-.4179-.8399-.0196.4063-.8184-.3623-.8399.4199m.6289-.8388a10.79265,10.79265,0,0,1-2.0996-1.6807c-.0566.8262.0821,1.459.6309,1.6807.0312-.2471-.03709-.5957.209-.6299.1191.5107.1816,1.0801.8398,1.0488.002-.2773.3672-.1914.4199-.4189m5.8789-.4209c-.2109.6318.4668.373.8399.4209V11.126a1.17867,1.17867,0,0,0-.8399.209m-2.7285,1.2597c.043-.2529.2324-.1289.418,0v-.4199c-.209.001-.2481-.1699-.418-.21-.0488.1631-.0058.4141-.2109.4209-.1152-.375-.1074-.873-.4199-1.0507-.3692.3955.2617.9726.6308,1.2597m-1.2617,0c.1016-.6601-.2598-.8574-.6289-1.0498-.4355.4336.002,1.0645.6289,1.0498m7.3496,1.4698c-.0605-.9317.9141-2.3477-.2109-2.5196a6.43553,6.43553,0,0,0,.2109,2.5196M14.48631,12.8057c.04689-.1641.00589-.4151.209-.42-.14841.7862.66209.9219,1.05079,1.6788.6934-.6905-.5644-.502-.4199-1.2588.5312.3769,1.1894-.4004,1.4687.4189C15.709,14.29,17.9824,15.5,18.6836,16.1631c.0371-.3135-.0742-.7734.2109-.8389a1.78382,1.78382,0,0,1-.2109,1.2598c.75.6807,1.1992.5225,1.8906.8398.2539-.999-.8047-.8105,0-1.2607-.7207.0117-1.6191-.8858-1.2597-1.2588.373.1875.2675.8525,1.04881.6299-.78131-2.3809-3.82031-2.8535-5.877-3.3594-.03121.2481-.373.4756,0,.6309M28.1309,15.1143a4.00527,4.00527,0,0,1,1.2617-1.8897c.0879-.4629-.6309-1.1582-.8418-.6299a.57332.57332,0,0,1,.4199.6299c-.1289-.0615-.8086-.5224-.8398,0,.4101.2197-.7774.6035-.6289,1.2608a.57631.57631,0,0,1,.6289.4189c-.1172-.001-.2383.1699,0,.21m5.039.2099c.6231-.1963.4805-2.2705,1.0489-1.2597-.1016-.6778.9804-1.2403.4199-1.6788a4.75067,4.75067,0,0,0-1.4688,2.9385m-4.4082,0c.0508-.5801.7793-.4795,1.0489-.8388-.4336.0156.4355-1.4873,0-1.4707-.2637.7226-1.4434,1.6279-1.0489,2.3095m6.0879-.4199c.8692.2959,1.0918-1.1279.6309-1.4697,0,.7002-.6836.7168-.6309,1.4697m-3.98829-.2109a1.17232,1.17232,0,0,1,.83789.2109c.045-.6025-.0527-1.0664-.41789-1.2598-.08991.4004-.60161.3799-.42,1.0489m-8.60741,0c.3848.4052.711-.1778,1.0488-.418-.39639.0459-.4609-.2373-.8398-.2109a.97829.97829,0,0,1-.209.6289m.209.6308a.92407.92407,0,0,0,.4199.8389c.0489-.3711-.2109-1.0508.4199-.8389.0372.6846-.4921,1.0108.42,1.0498-.2012-1.0078.8515-1.3779,0-1.8886-.1465.5507-.98439.4121-1.2598.8388m-1.2598.8389c.2676-.0108.2911-.2676.6289-.21a.91858.91858,0,0,0-.4179-.8388c-.05079.2998-.3457.3545-.4199.6298.16211.0469.414.0059.4199.209-.2246-.0088-.5332.0987-.211.21m8.8184-.6289c.2715.5195-.4688,1.0195,0,1.0498.8281-.7178.7324.7998.83981,1.0488.52149-.1328.211-1.6543.83789-1.0488.1856-.6738-.3222-.6572-.62889-.8399a.579.579,0,0,1-.41991.6299c-.0918-.4668.6484-1.1386.21091-1.2597-.03121.3877-.71291.1279-.83981.4199m-5.459,1.2598c-.0156-.7823-.3144-.6778.209-1.0499-.2988-.0498-.3516-.3457-.6289-.4199-.0332.6641-.0078,1.2676.4199,1.4698m4.8301-.21c-.11129.3105-.3125.5293-.4219.8398.4102-.165,1.93361-.289,1.4707-.6298-.37109.3896-.6133-.0918-1.0488-.21m-7.7695,1.4687a.78711.78711,0,0,0,.8398-.8388c-.2988-.0518-.3535-.3457-.6309-.4199a1.77083,1.77083,0,0,1-.2089,1.2587m5.248,2.0987a1.78012,1.78012,0,0,0,1.2598.2109,10.71958,10.71958,0,0,0,.4199-1.4697c.0508.3691.3613.4785.8418.4199-.0371-.5254.3223-.6562.6289-.8389.05081.2276.3457.5039.4199.209a.5713.5713,0,0,1-.4199-.6299,4.26963,4.26963,0,0,0-3.1504,2.0987m-3.1484,0c.2031-.4258.80661-.4532,1.4707-.419-.0098-.9707-.5957-1.3623-1.6797-1.2588.1269.501-.2637,1.5225.209,1.6778m-7.5567-.209c.0235-.2559.0625-.4971.4199-.4209.0586-.4766-.0507-.7881-.4199-.8389-.2968.2744-.7558,1.1114,0,1.2598m20.1524-.21c1.4707.3379,2.289.085,2.7304-1.0498-1.6113-.039-2.0078.044-2.7304,1.0498m-25.8223-.4199c.8418-.0117,2.043,1.4561,3.3594.8389-.9903-.7305-1.7559-1.6328-3.3594-.8389m22.2539.6299c.0879-.4727,1.1524.0322,1.0508-.6299-.3164.0049-.8594-.7793-1.0508-.209,1.2266.0098-1.0723.3672,0,.8389M27.502,22.043h.4199c.23441-.0459.3262-.2334.4199-.4209-.1641-.0479-.4141-.0059-.4199-.21.31441.0352.77341-.0752.8398.21a3.35267,3.35267,0,0,0-.4199,1.8896c.7344-.207,1.01951-2.2773.4199-2.5195.3965-.3037.9297-.4688.8379-1.2598A10.12728,10.12728,0,0,0,27.502,22.043m2.0976,0c.01371-.1299.0332-.249.211-.211.2773.002.1914.3672.4199.419-.0918-.8711.8359-1.8106.2109-2.5186a1.05865,1.05865,0,0,1-.6308.6299c-.15629.6455.5761.4043.4199,1.0498-.6406-.5556-.9004.4815-.6309.6309m5.0391-1.2617c.5683,1.8222,1.6601.9765,2.09961-.419.12109.3701-.252,1.2344.21089,1.2598-.209-.8369.627-.6319.418-1.4707-.875.1787-.9902-.4063-1.6797-.419.1035.8028-.74019.6573-1.0488,1.0489m-13.8555,0c-.4941-.0635-.3906-.7276-1.0488-.6299-.20509,1.1045.8476.7168,1.0488.6299m-2.3086.2109c-.0547-.9004-1.1289-.6367-1.6797-.419.4805.2188,1.2657.1319,1.6797.419m-1.6797.6299c.2676.2861,1.02741.3242,1.0508-.21-.4902-.0644-.9043-.4482-1.0508.21m4.8282,0c-.4356-.4873-.88479.2353-1.25979-.4199a1.178,1.178,0,0,0,.21089.8408c.4258-.3291,1.4629-.3125,1.0489-.4209m2.7304.8388c.5703-.1279.8223-.5761.8399-1.2587h-.8399a1.02739,1.02739,0,0,0,0,1.2587m-6.5078,1.2608c.64261.1318,2.1602.8867,2.51761,0-1.30081-.1377,1.44529-.3379.41989-.8408-.1875.5068-.3262-.7686-.62889-.8379a3.34239,3.34239,0,0,0-2.30861,1.6787m5.2461-.4199c-.2109-.5577-.3437-1.1953-1.0488-1.2588-.6914,1.0283.0332,2.0224,1.0488,1.2588m2.52151,1.2597c-.12891-.0117-.24811-.0322-.21091-.2109.1523-.4902.5742-1.791-.42-1.6787-.0117.6367-.6347,1.8681.211,2.0996.0488-.3945.3437.1182.41991-.21m2.09959,1.8887a1.023,1.023,0,0,1,.418-1.0488c-.1133-.503-.9063-1.3965,0-1.6797.0215.3291-.0274.7275.4199.6289a.66547.66547,0,0,0-1.2578-.4199c-.2442-.4395.0976-.7881-.6309-1.0498a1.87143,1.87143,0,0,0,.4199,1.4697c.0469-.1621.0059-.4131.211-.4199.5527.7675-.291,2.0586.4199,2.5195m6.0879-2.5195c.3672-.1201,1.2324.2549,1.2578-.209-.7148-.2246.584-.0654.2109-.6299-.4961.0049-.6171-.3613-1.2617-.2109.0879.5068-.3808.457-.207,1.0498m9.2363-.209c.3926-.4473,2.0684.5361,2.3086-.6299-.9082-.0615-2.6621.126-2.3086.6299m-26.6621.4199a1.36855,1.36855,0,0,0,1.0508.209c-.0371-.3135.0742-.7744-.2109-.8389-.0547.3262-.459.1455-.629,0a.99646.99646,0,0,1-.2109.6299m15.9551.8389c-.584.0957.1641-1.1436-.4199-1.0498a.57406.57406,0,0,0,0,.8408c-.295-.0166-.8028.0469-.42.209.4786-.2881.78911.542.8399,0m7.7676-.6299c-.1016.8662,1.0234.2998,1.0488,0,.2246.1963.0664.7754.6309.6299-.4942-1.0752.3945-.3389.41991-1.0498-1.07621-.1201-1.291.8564-2.09961.4199m-6.7168,0c-.1797.6601-.795.8867-.8399,1.6797.4375.1142.7891.3691,1.0489-.21-.2461-.0322-.5957.0371-.6309-.2099,1.0527.2753,1.8105-1.7227,1.6797-1.2598ZM20.15431,26.6611c.90429.0362.72459-1.7998.41989-2.3105-.8164-.1045-1.1172,1.3896-.6308,1.8906.0625-.1865.5683-.9199.6308-.4209.1524.5733-.416.4229-.41989.8408m-2.09961-.4199c-.0586-1.2197-2.1777-.5459-1.4688-1.4697-.1269-.1211-.996-.4922-1.0507,0a1.06362,1.06362,0,0,1,.6308.6299c-.4785.2881-.789-.542-.8398,0a3.55218,3.55218,0,0,0,2.7285.8398m-.4199-1.0498a1.94464,1.94464,0,0,1,1.2597.8389c-.1523-.6416.3614-.6172.209-1.2588-.9121-.0049-1.1621-.3711-1.4687.4199m21.832.6289c.6406.0235,1.4336-.8711,1.6797,0-.3066.1826-.6641.3154-.6289.8408.80271.0332.6816-.8584,1.0508-1.2597-.9942-.0635-2.2735-.9395-3.1504-.4209.8515.1035.5957.0498,1.0488.8398M21.2031,26.8711c.4004.4404.5723,1.1074,1.4707,1.0488-.3632-.6093-.3281-2.6562.6289-1.8896.0997-.6592-.2617-.8565-.6289-1.0498a3.53666,3.53666,0,0,0-1.4707,1.8906m10.918-.6299a.9968.9968,0,0,1,.209-.6308c-.5059-.2647-2.2363-1.0743-1.6797,0,.2578-.3819.582.5927.8398.4199-.1953.2246-.7753.0654-.62889.6308.82039.1211.53519-.8632,1.04889-1.0507.0332.247-.0352.5957.2109.6308m2.7285,1.8887c.9024.2158,1.7324-.7149,1.2598.4199.6914-.0068.8008-.5967.8398-1.2598-.6074-.2617-1.1582-1.3671-2.0996-.6289-.07029.6504.4863,1.003,0,1.4688m-6.2988.6299c.9531.3935.2871-.834,1.0488-.6299-.3867.3711.05671.6504.4219.8398.05081-.2998.3457-.3545.4199-.6299-.5488-.5341-.45509-1.3681-1.2597-.6298-.0489-.3702.7734-1.2403.2109-.8389-.4766.7637-.3164,1.0371-.8418,1.8887m1.4707-1.8887a1.94512,1.94512,0,0,0,.83981,1.2588c.51569-.249-.42961-.793.209-1.0488a.57861.57861,0,0,0,.41989.6289c-.1523-.5723.418-.4229.42-.8389-1.0196.0645-.9258.2812-1.8887,0m8.6074,1.0488a.921.921,0,0,0,.8379-.4199c-.3672.0576-1.0469-.5908-1.2578,0,.3027.4648.5117-.2646.6289.21-.1289.0127-.248.0322-.209.2099M23.3027,27.71c-.2207.5312.709.9306.8399.4199-.3457-.002-.1172-.582-.4199-.6299-.045.1641-.1758.2441-.42.21m11.7559,1.0498c.0488.1631.0059.4131.2109.4199.00981-.2207.2696-.165.211.21.3613.0517,1.2422-.3956.6289-.6299-.0469.164-.1777.2441-.4219.2099-.043-.2363-.2324-.3261-.418-.4199-.0117.1279-.03119.2481-.2109.21m3.1504.2099c-.1348.459.5937.667-.2109.6299v.4199c.2363-.0214.3281.3057.4199,0-.5156-.1982,1.1914-1.0214-.209-1.0498m2.5176.42c-.1895.3632-.7715.58-.8399,0,.2578-.0235.4981-.0625.4219-.42-.7949-.2822-1.0195.084-1.6797-.4199.3067.6035,2.3711,2.2373,2.0977.8399m-27.711.4199c-.5429-.2256-.77929-.7588-1.4687-.8399-.1621.8047,1.0996,1.2627,1.4687.8399m12.59771.8388a2.0914,2.0914,0,0,0-.84181-1.4687c-.0547.6543,1.1836,1.8887.84181,1.4687m11.125-.8388a1.18155,1.18155,0,0,1,.83979.2099c.0625-.1298.5215-.8086,0-.8398-.0586.4316-.7812.1982-.83979.6299M33.8008,30.8594c-.3887-.5772.6816-.3701.8379-.8399.0254.2559.0644.4961.4199.419-.1894-1.7891-2.23629.4033-2.7285-.6289-.0469.1631-.17579.2441-.4199.2099.1679.9336.3613.7422-.42.419.0586.3681-.5918,1.0478,0,1.2607.1446-.6582.5606-.2744,1.0508-.2099.1621-1.0362,1.0274-.543,1.2598-.6299m-6.2988.4199c.1172-.5566.8574-.9775,0-1.2598.2285.5371-.63869,1,0,1.2598m-12.59569-.6309c-.86921.2959-1.62111-.5986-2.09961,0,.7617.1221,1.166.6348,2.09961,0m20.99209.211c.3321.334,1.125.0586,1.4688-.211a1.24,1.24,0,0,0-1.4688.211m-10.496.8398c-.41409-.5019-1.211-1.2744-1.2598-.4199-.2481-.0312-.4766-.374-.6289,0,.4609.1797,1.6523.71,1.8887.4199m4.8281.8389c-.8965.3359-.8399.8086-1.6797.8408.166.0459.2441.1748.2109.419.9825-.1602.8477-1.2422,1.6797-1.0498-.1758-.6739-.1797-.4346.209-.8399-.418-.0019-.2656-.5713-.8398-.4189.2675.6845.30271.4443.4199,1.0488m-9.2363-.4199c.6679.6211,1.5566.7656,1.8886-.21-.47649-.1387-1.7597-.543-1.8886.21m-3.1485-.21c-.02339.3965-.6953.1465-.6308.6299.5527.4971,1.2246,1.2754,1.0507,1.8906.3184-.5205,1.30471-.376,1.2598-1.2607-.41409-.0625-.418.2842-.6309.4199,0-.2109-.1699-.249-.2109-.4199.7461.1025.92771-1.4395,0-1.2598-.2402.6611.3301.5108.4199.8399-.957.2578-.6621-.7364-1.2578-.8399m1.0488,2.7295c.8106-.041.5645-.9902,1.46881-.4199v-.6299c-.75591.084-1.33591.3428-1.46881,1.0498m19.1036-2.5195c-.55279-.3321-.7325-.1543-.211.2109-.709.335-.8945-.8916-1.25779-.2109.377.2138,1.28709.8047,1.46879,0m-2.7286.6299c-1.33.3652-1.9121-.959-2.3105.2109,1.1504.1904-.459.0713-.418.4199.7559.0215,1.6016,1.043,2.3086.419a.57278.57278,0,0,1-.4199-.6299c.26761-.0117.291-.2686.6289-.209-.584.582.38871.6767.4219,1.2588.7812.2246.5957-.5215,1.25781-.4199-.27151-.5743-.86331-1.9248-1.46881-1.4688.5332.3037.5645,1.1152,1.0489,1.4688-.58009-.1192-1.1758-.2217-1.0489-1.0498m-19.5234.4199c.1777.4658.8828,1.4804,1.4688.8398-.504-.3476-.1739-1.3799-.42-1.4697-.0683.4922-.916.2041-1.0488.6299m8.1856,0c.0703.4902.2167.9052.6308,1.0498.1875-.6133.2676-.7237-.209-1.0498.34181.1533.9121-.417.418-.4199-.0313.3886-.7109.1289-.8398.4199m-8.6055.8398a1.186,1.186,0,0,1,.209-.8398h-.83989c-.03511.5263.32229.6582.63089.8398m15.3242,2.3096c.3105.1094.5293.3096.8398.4189.29111-.1279.0313-.8076.42-.8388.0488.8759.74411-.0938,1.2597.4199a1.17381,1.17381,0,0,1,.211-.8399c-.7735.7188-1.0469-.1884-1.4707,0,.1172-.0009.2382.17,0,.21-.1758-.1338-.6563-.9814-.211-1.0498.33011.0898.1797.6611.8418.4209.086-.5059-.38469-.457-.2109-1.0508a2.43794,2.43794,0,0,0-1.6797,2.3096M32.75,35.0586c.7891.1572.709-.5508,1.0508-.8408-.1309-.0108-.25-.0313-.2109-.21h-.42c.0332.5215-.33.6504-.4199,1.0508m4.8281-.8408a1.49548,1.49548,0,0,1,.6309.4199c-.5371.1621-.9648-.8223-1.2598-.209.4922.3486-.0781-.0195-.41989,0-.05271,1.0361,1.25589.0488.62889.8389.3965-.0469.4649.2363.8399.2099.0683-.4902.2168-.9043.6308-1.0488.2715.8301-.6914.4287-.4199,1.2588,1.0918-.0391,1.9531,1.2578,2.3086,1.2598-.6094-.7735.3144-.4082.4199-.6299-.7793-.4815-.625-.8125-.8398,0-.1328-.3574-.6348-.3457-.8399-.6299.5059-.5889-.9726-2.0937-1.6797-1.4697m-2.3086,2.3105a1.3702,1.3702,0,0,0,1.0489.208,1.48247,1.48247,0,0,0-.8379-1.2588c.1719.5928-.2969.545-.211,1.0508m-.2109-1.8906c-.5059.0859-.4551-.3838-1.0508-.209-.1738.4531-.541.7158-.4179,1.4688,1.0722.6455,2.2226.1172,1.6796-1.0489-.2246.1954-.0664.7735-.6308.6289.0039-.4169.5742-.2666.4199-.8398M22.6738,35.6875V34.6377H22.043c.0254.5361.041,1.0811.6308,1.0498m-2.0996.6299c.8008.1875,1.3399-.3428,1.6797,0-.2597-.5108-.1777-1.3633-.8398-1.4688a3.85359,3.85359,0,0,0-.8399,1.4688m-1.8906-.8399c.7109-.0087,1.0742.6221,1.8906.21-.0996-.9951-1.6894-.6894-1.8906-.21m5.6699,1.0508c-.1933-.3672.0059-1.1279-.6308-1.0508-.4219.419.1562.9102.6308,1.0508m4.1973.8389c.6152-.0557.64451.4746,1.2598.4199-.2012-.6387-.2481-1.4326-.8399-1.6797a7.61891,7.61891,0,0,0-.4199,1.2598m-5.668.6299c.18751-.4434.6387-.6211.6309-1.2608-.3692.1211-1.23439-.2529-1.2598.211.8828-.3242.0332,1.0859.6289,1.0498m2.5196,1.0498c-.8848.3232-.0332-1.0879-.6309-1.0498-.3281.1601-.3125.665-.8398.6299.1777-.5909,1.3593-1.6993-.209-1.6797a2.963,2.963,0,0,1-.6309,1.4687c.7676.0811,1.7734,1.0166,2.3106.6309m8.3984-1.2598c-.35549-.0859-.9434-.9892-1.2598-.4199.1016.5137.9317,1.3691,1.2598.4199m2.3086.8399c.37891-.4834-.4883-1.0664-.8399-1.4698.1446.626.2539,1.2842.8399,1.4698m.209-1.4698c.04291,1.2159,1.5781.9395,2.5195,1.2588.3262-.7451-.7129-.126-.6289-.6289.1172.001.23831-.1699,0-.2099-.3555.4072-1.2871-.3809-1.8906-.42M32.541,38.416c-.1172-.373-.1074-.8711-.4199-1.0488-.1426.4883-.6992.5605-.83979,1.0488.85929.0635.48429-.9053,1.25969,0m-18.4746.8408a1.04112,1.04112,0,0,0,.83991-1.6796c-.04691.7929-.66021,1.0195-.83991,1.6796m1.6797-.8408c.6328.4287,1.5703-.289,1.8887-.8388a2.38063,2.38063,0,0,0-1.8887.8388m4.40821-.2099c.41209-.0625.416.2841.62889.4209.0586-.4327.9297-.0508.8399-.6299-.5215.0312-.6504-.3311-1.0489-.4199-.0508.2988-.3457.3535-.41989.6289m8.60739.4209c.2129-.2061.4239-.4151.6309-.6299-.4024-.0908-.52929-.4522-1.0508-.4199.3281.4248.3106,1.4628.4199,1.0498m11.9649,1.0498c.3066-.5303-.8574-2.2959-1.6778-1.6797a5.41559,5.41559,0,0,0,1.6778,1.6797m-23.0918,0c.0996-.543,1.3476-1.0166.6308-1.6797-.0625.4365-.57029-.3115-.6308.4189.7832.2705-.5957,1.1787,0,1.2608m-4.1973-1.4707c-.2109.6386-.3476.2685-.6308,0a9.075,9.075,0,0,0-1.8907,1.8896.69926.69926,0,0,0-1.2578,0c.2774.0029.1914.3682.4199.4199-.0371-.8847.4688-.1435.6289,0,.5391-.5966,2.1602-.5976,1.2598-1.4687.2832.0664.4004.2978.8399.2099.1523-.9209-.4161.169-.42-.4209.4063-.2177,1.459-.0322,1.0508-.6298m28.1309,1.6796c-.0957-.5839,1.1425.1651,1.0488-.4189-.63089-.2861-1.4258-1.5039-2.0996-1.0508.2773.003.1933.3692.4199.4199.6035-.5136.2617.9952.6309,1.0498m-25.8223-.4189c.4316.335.3008,1.2373,1.0488,1.2588-.05859-.8359,1.0586-1.5889.42-2.3096-.5059.7949-.97659.4649-1.4688,1.0508m2.9375.21c.6504-.0508.8164-.585,1.2598-.8409-.3965.0479-.4629-.2353-.8399-.2089-.0898.4003-.4511.5273-.4199,1.0498m10.709,0c.9785.7216,1.748.917,2.0976,1.8886.4122.0625.418-.2832.6309-.4189.1328,1.5469,2.416.9414,2.9375,2.0986.8262-1.3213,2.291-.7226,3.7793-1.2597-.5273-1.2403-4.3691-1.1094-3.5684-2.3086-1.123.0732-1.5156-.585-2.3105-.8409-.1133.3057.2461,1.086-.209,1.0498a1.36312,1.36312,0,0,1-.209-1.0498c-1.3125.2901-2.0742-.2041-3.1484.8409M18.8945,40.7256a4.48766,4.48766,0,0,0,2.9375-1.2588c-1.4726-.6455-2.55269-.1807-2.9375,1.2588m20.5723-.6299c-.0898-.5898.7832.5274.8418-.21-.48629.0645-.2344-.6054-.6309-.6289.0645.6563-.60739-.5332-.6289.21.2344.0439.3262.2324.418.4189-.1152,0-.2363.1709,0,.21m-24.56049-.21c.12109.3692-.25391,1.2344.20889,1.2608.0684-.4932.91611-.2051,1.0508-.6309-.4023-.0879-.9043-.0752-.8398-.6299.1152.002.2383-.1699,0-.2089-.04689.163-.1758.2431-.41989.2089m.62889,2.7295c-.3418.0938-.3418-1.1445,0-1.0498a.58073.58073,0,0,0,.4199.6299c-.0996-.6582.5644-.5547.6308-1.0488H15.1152c-.2363.1982-.3242,2.0107.42,1.4687m14.4863.8399c.8496.04,1.0684-1.2959,1.6777-.8399a4.80158,4.80158,0,0,0-2.9375-2.7295c-.3789,1.0215-1.1133,1.6866-1.2597,2.9385.5175.7588.82031-.9492,1.0488-.4189.1719.747-1.3008.9199-.6289,1.4697a4.43421,4.43421,0,0,1,1.8887-1.4697c-.1719.5937.2968.5439.2109,1.0498m-2.0996,3.1484c.4551-1.3681,2.334-1.9394,1.8887-3.5683a2.45117,2.45117,0,0,0-1.8887,3.5683m13.2246-5.8779c.0117-.2686.2695-.291.2109-.6299-.5078-.1348-.78709,1.001-.4199,1.0508-.0351-.2842,1.0684-.4199.4199-.6309-.0117.128-.0312.25-.2109.21m-27.709.8398c.291-.2675.127-.9912.418-1.2597-.584-.1455-.8867,1.0449-.418,1.2597M25.4024,43.875c1.20891-.3965-.3575-1.2002-.209-1.8896.2988.0507.3535.3457.62891.4199.27339-.9033-.59571-.6641-.83991-1.0488a1.063,1.063,0,0,1,.63091-.6309c-.01561.2949.04489.8027.209.4209-.03911-.5908-.36531-.8945-1.05081-.8408.3926,1.2461-.24019.291-.6289.6299a4.60721,4.60721,0,0,1,1.2598,2.9394m-4.1993-2.5185c.7246-1.0635.5606.8662,1.4707,1.0488a1.18355,1.18355,0,0,1,.209-.8399c-.2461-.0332-.5957.0362-.6289-.2089.127-.3624.9961.0146,1.0488-.4209-.6328-.375-2.7578-.6456-2.0996.4209m1.2598,2.5185c.0508-1.1289-.3223-1.0547-.8398-1.8896-.0547.2949-.459.2392-.6289.4199.0625-.4278.5683-.4112.6289-.8399-.6582.3106-.8575.0088-1.25979-.4189-.53321.4443-1.71681.2412-2.30861.6289a2.14462,2.14462,0,0,0,.6289,1.8896c1.3262-.1894.7676,1.5801,1.47071,2.3096,2.13869-1.3369,3.69529.125,5.24809,1.0488.0058-1.58-.24609-2.3974-.8399-2.9384.9121-.378-.2051-2.1065-1.0488-2.0996-.2617,1.7304.76561,2.1709,1.0488,3.3593-.9668-.1972-.6894-2.2744-1.6797-1.2597.1231-.4737.5196-2.5537.209-2.0996-.3652.4726-.10549,1.5722-.6289,1.8896m-5.248-.8398c-.5274-.6006.7753-.9825,0-1.6787-.0215.538-.7813.3359-1.0489.6289v.6298c.3985.0899.5274.4522,1.0489.42m-2.51959.2099a1.17367,1.17367,0,0,0,.211.8399c.65819-.5909,1.72459.2314,2.30859-.6299-.7012-.167-1.8887-.6348-2.51959-.21m-.83981-.2099c-.03519.6093-.9453,1.4199.2109,1.4687.125-.373-.6152-.8711,0-1.0488.211.2793.1992.7812.62891.8398a1.47921,1.47921,0,0,0-.83981-1.2597m.63081-.42c-.08591-.5058.38289-.456.209-1.0498a1.36142,1.36142,0,0,0-1.04881.21v.8398a4.74151,4.74151,0,0,0,1.25981.42c-.02541-.2559-.06251-.4981-.42-.42M12.8067,44.5039c.0585-.3672-.5918-1.0469,0-1.2588.5703-.1494-.15039.9903.4199.8399-.1524-.6416.3613-.6172.2109-1.2608-.40619-.4258-1.1465.6641-.6308-.4189h-.6309c.2988.9424-.1992,1.5498.6309,2.0986m25.1914-.209c-.1075.6621-.9571.5801-1.46879.8399-.03321-.2471.03519-.5957-.21091-.6309-.4356,1.0635,1.7968,1.0947,1.8906,2.3106-.2109-.001-.25.1689-.4219.2089-.0429-.7343-1.04879-1.5957-1.4687-1.2587.0683.7177,1.7636.788.8398,1.2587.457.7364,1.0957.334,1.6797.6309-.5801.1416-.4785.0371-.8398.6289-.252-.5254-1.2266-1.4189-1.6797-1.0488.1465.5185-.1875,1.0498,0,2.3086-.8672.5312-1.3262,1.4726-2.0996,2.0996.916.6357,1.8652-.6387,1.4687-1.2598.9707.2705.5801-.8222,1.05081-1.0498.38669,1.0283-.87111,1.4922-.41991,1.8887.9433-.9473,2.6133-1.166,2.9394-2.7285a1.49421,1.49421,0,0,0,.4199.6299c1.3692-1.2696,2.1153-1.1807,3.7793-2.5196-1.1093-.6455-1.97069-1.3584-1.8886-2.7285-1.293-.4277-2.4844-1.5185-3.5703-.8398.3906,1.1416,1.9668.0254,3.1484,1.0498a7.42051,7.42051,0,0,0-2.0977-.21c.6368.1416,1.4161,2.2734,2.5196,1.8897v.6289c.6777-.3428.832.2041,1.2578.6298-.8223-.2627-.6504-.1601-.83789.211-.79491.3037-.40431-.5781-1.05081-.4199a1.02794,1.02794,0,0,1-.4199,1.0488c-.1192-.418-.4219-1.0733.209-1.4697-.4824-.3633-1.7774-1.0098-1.4688-1.4698.668.5967,1.793,1.8409,2.5196,1.6797a20.10941,20.10941,0,0,0-3.7793-2.3086m-3.3594-.8398c-.5371-.1729-1.4375-1.0654-2.0977-.4199.8125.1953,1.5274,1.791,2.0977.4199M32.541,44.7148c-.0879.3575-.2715-.0439-.6308,0,.3359.6397-.5625,1.2374-.42,1.8887.3848-.4941,2.1094-1.2754,1.0508-1.8887m.8399,0c-.7578-.3642-.72459-1.5156-1.6817-1.6796.5352.9004.8086,1.8642,1.6817,1.6796m3.9863-.8398c.248-.0332.5977.0361.6309-.21-.7422.1143-.5157-.7431-1.25979-.6298.17379.5937-.29491.5439-.209,1.0498.39259-.0118.44529.1621.209.4189,1.02339.1934-.05271-1.3857.41989-1.2588.0117.2686.2695.291.209.6299m-1.4688.4199c.461-.0312.4512-.5293.42-1.0498a.921.921,0,0,0-.8379.4199.57932.57932,0,0,1,.6289.42c-.2227-.0088-.5332.0996-.211.2099m-21.20309.6289c-.01171-.1269-.03121-.248-.209-.209v.6299c.58989.083,1.18359-.8935.83989-1.0498q-.30765.32235-.63089.6289m2.51959.211v-.8399c-1.4551.7569-2.295,1.8614,0,.8399m11.3359,3.1484c-.0586-.6113.0508-.7207.4199-.4199.1914-.3672.0723-1.0469.4219-1.2598v1.2598c1.7558-.0332,2.1816-3.0342.6289-3.5684-.1191,1.5235-3.125,2.6905-1.4707,3.9883m15.7461-1.4687c1.164-.2657.6308-.0616,1.2598.2089.18161-.8945,1.707.3301,2.3085-.4199a3.8573,3.8573,0,0,0-2.5195-1.0488c.1914.0576.7051.7812.211.8389-.8575-1.462-1.9629-1.2364-3.35939-2.0987.36719,1.4824.83009,1.5655,1.88859,2.3086.295-.6006-.6503-1.1455.211-1.0488.23441.6601.0176.4746,0,1.2598m-9.0274-.8399a1.17639,1.17639,0,0,1,.8399.209c.2031-.7783-.8496-1.3711-1.0508-1.0488.6914.2109.6152.3623.2109.8398m-16.7949.8399c.0528-.6495,1.0449-.3545.8399-1.2598-.5743-.001-1.2364.9824-.8399,1.2598m.209-1.6797c-.7168.0859-.2656.5664-1.0488.2099.0039.5567-.1172,1.2344.4199,1.2588.1738-.5254.5762-.8232.6289-1.4687m-2.5176.8398c.2754.2139.7735.2051,1.0489.419-.2715-.5196.4687-1.0176,0-1.0489-.0684.4912-.9161.2032-1.0489.6299m17.8418,5.0381c.6739-.1689.8457-.8359,1.4727-1.0498-.44919-1.084.4804-1-.211-1.6797.4414-.0127,1.09381-1.793,0-2.0996-.0214.3311.0274.7285-.4199.6309.0664-.2842.2988-.4024.209-.8399-1.9238-1.4521-2.2285,1.0567-3.98829,1.4697.12109.3682-.25391,1.2325.211,1.2588-.02741-.3769.207-.4902.62889-.4199-.1485-.8467.4316-.9697.6308-1.4687.4824.8173-.8008,2.4326-1.47069,2.0996-.11521,1.3945,1.40039,1.3642.83989,2.0986.0586-.4961.5605.2412.8398.209.15431-.5723-.418-.4219-.4199-.8389,1.4219-.0586.418-1.8437.8398-2.0996.5489.5264.3828,1.3027.6309,1.6797.6367-.7227-.6289-1.3086,0-1.8897.3476.7071.2402,1.4073.8379.42.168,1.084-1.2168,1.7129-.6309,2.5195M20.7832,46.6035c.70511.3018,1.375-.3545,2.0996-.6289-.8633.0459-1.9883-.1689-2.0996.6289m-5.668,1.0508a.81135.81135,0,0,0,1.4707-.21c-1.1289-.164.6036-.122.418-.6298-.26759-.293-.9902-.1289-1.2578-.4209.4356.7714-.2324.8056-.6309,1.2607m10.2872,1.2598c-.0645-.4912-.4122-.8682,0-1.2598-1.2383-.626-2.2344-1.3369-3.7793-.6309.4296,1.6866,2.15621,1.003,2.9394,1.4698-.248.0332-.5957-.0362-.6308.2099.4003.0909.5292.4522,1.0507.42.2285-.5372-.6367-1.001,0-1.2598-.0215.3955.2578,1.5303.42,1.0508m24.5625.6289c.5937.2529,1.8203.9668,2.5195.4199-2.16409-.2383-3.709-4.2275-6.5098-2.3086,1.6406-.1719,1.9238,1.0156,3.1504,1.2598.082-.3614-.3125-.5391,0-.6309.584-.0947-.1641,1.1445.4199,1.0498a.571.571,0,0,1,.6289-.4189.98219.98219,0,0,1-.2089.6289M10.4961,47.4443c.0254.5352.3867.7344.6309,1.0489-.6661-1.0157,1.039-.3545,1.0488-1.2588-.7246-.2862-.9883.9433-1.4688.2099.1641-.0478.4141-.0058.42-.2099a.9882.9882,0,0,0-.6309.2099m7.9785.419a.67318.67318,0,0,0,1.0508-.209c-.2695-.2871-1.0293-.3252-1.0508.209M16.7949,49.543c.0528-.251.44141-.9365.8399-.21-.1231-.4795.7793-.9971.2109-1.6787-.4805.2197-.7441.6543-1.4707.6289.11331.667.3555,1.6524.4199,1.2598m5.459,4.6172c.0879-.9561.5781-.8868.209-1.8877-.3379-.291-1.082-.1778-1.2598-.6299.3145-.0361.7754.0752.8399-.21a2.42938,2.42938,0,0,0-1.88869-1.4697c.36909-.1211,1.23239.2539,1.25979-.21-.4922-.4248-.461-2.4697-1.4707-1.6797-.0645.1553-.2344,1.9971-.418,2.7305a8.77811,8.77811,0,0,0,1.2578.8389c-.6621.1025-.7402-.3779-1.4687-.21a4.35356,4.35356,0,0,1,.6289,3.3584c1.0488.0781,2.1386,1.2139,3.1484.6309-.4726.0976.4844-1.1397-.209-1.2617-.0469.373.2129,1.0527-.4199.8418-.1191-1.0635.8555-1.5098-.209-.8418m23.0918,2.3105c-.3691.3291-1.3398.0586-1.4687.6309-.2813-1.1192-1.4668-1.3321-2.5196-1.6797-.2246.7842.5215.5986.42,1.2588,2.4687.2607,3.541,1.917,5.66791,2.5195v-.4209c-.04491-.2344-.23441-.3262-.41991-.4189-.0469.163-.0059.414-.2109.4189.414-1.0361-.5547-1.957-1.4688-2.3086m5.0391-2.9385c-.5508.0586-.9043-.0771-.8399-.6299.2989.0499.3535.3458.6289.42.125-.3741-.6132-.8721,0-1.0498a1.49189,1.49189,0,0,0,.42.6298c.3359-.3974-.18749-1.2089-.6289-1.4697-.0332.2461.0351.5957-.209.6299-.252-1.6836-.7852-1.8701-1.8907-2.5195-.4921.8271.3946.6416.42,1.4697-.211-.001-.25.1689-.42.209-.2851-.3955.2403-.9307-.8398-.8389.043.7754.7148,2.0362,1.2598,1.0498-.002.211.1699.25.209.4199-.8028-.1738-.2461,1.0127-1.04889.8389-.40821-.9902-.45111-2.3476-1.47071-2.7285-.0332.9619,1.2696,1.4092.6309,2.3096.8281.2216.7187,1.3808,1.4687,1.6797.127-.375-.6133-.8721,0-1.0499.1446.4698.6309,1.0518.211,1.4688,1.0058-.2432-.1758-1.5381-.211-2.0986.5176.3125.4707.8632,1.2617.4189-1.0195,1.4736.754,2.4317,1.2579,3.9893-1.3711.3886-1.4336,1.0859-2.7286,1.2597.209-.9394.629-.5771,1.2598-.8388.0918-.5342-.4141-1.5196-.6308-1.0508.3437-.0947.3437,1.1445,0,1.0508a1.20165,1.20165,0,0,0-1.04889-1.2608c.61139.0596,1.24609-.9892.62889-1.2597a.57711.57711,0,0,1-.41989.6298v-.8398c-.57231-.1533-.42191.418-.83981.4199.1543-.5732-.4161-.4219-.418-.8388a.99443.99443,0,0,0,.6289-.21c-.1602-1.1484-1.0078-1.9697-1.4687-1.6797.84961-.6211-.0059-2.4678-.42-3.1484.09961.6591-.2617.8564-.6308,1.0488a4.3367,4.3367,0,0,0-.6289-1.8897c-1.336.3926-1.8946.3135-2.7305,1.0499,1.084.2402,1.5684,1.7441,2.5215,1.4697-.0664.8291.56831,1.251.6289,2.5185.3848.3379.7109-.1933,1.0488.4209-.2988.0821-.3535.252-.6289,0-.1328,1.6026,1.7441,1.1944,2.3086,2.0987-.3145.0361-.7754-.0743-.8398.2099.2539.0449.1289.2334,0,.4199.7851.1416,1.2324-.582,1.25971.42-.36721.0586-1.04691-.5909-1.25971,0,.6152.4355,1.0019,1.9795,1.8886,1.4697-.1816,1.293.5137-.1367.6309.4209-.0254,1.0508-1.0313-.0957-1.05079,1.0488.48239.4287,3.14839-.7226,1.89059.4199.4903-.0712.9043-.2158,1.0489-.6308a.57287.57287,0,0,1-.42-.6299c.3008.0508.35551.3457.6309.4209a9.95364,9.95364,0,0,0,1.4687-3.1494,8.4255,8.4255,0,0,1-1.2597-1.0488c-.291.1279-.0313.8076-.4199.8388a1.05745,1.05745,0,0,1-.6289-.6299h.8398c-.1191-1.0302-.4082-.7998-.4199-1.6787M8.3984,49.1231a1.37022,1.37022,0,0,0,1.04891.2099c-.15631-.6465.72459-.2558.41989-1.0498-.5254.2441-.9434.5967-1.4688.8399m38.627,1.0498c.291-.3399.7422-.5166.62891-1.2588-.46481.0722-1.334-1.0684-1.04881-.4209.5996.4472.0722,1.3945.4199,1.6797M14.90631,49.1231c.50579-.086.455.3828,1.04879.2099-.2871-.4785.541-.789,0-.8398-.13279.4258-.9805.1386-1.04879.6299m3.35929.2099c.377.3233.168,1.2305.8379,1.2598a2.78345,2.78345,0,0,0,0-2.0996c-.1875.3701-.7734.3476-.8379.8398m3.3575-.8398c.6289,1.3965.23821,1.4756,1.2597,2.3105a.98452.98452,0,0,1-.6289-.2109,14.00376,14.00376,0,0,0,1.2598,2.5185c.1367-.4355.7832-1.4355.209-1.8896.0019.1172-.17.2383-.209,0v-.418c1.1484.5537.5254-.0049,1.4687-.4209.0332.5225-.33.6504-.4199,1.0498.2559.46,1.50781-.4297.8399-.8398-.2168-.0742-1.5625-1.9248-2.3106-1.4697a10.75916,10.75916,0,0,1,1.0508,1.4697h-.8399c-.4668-1.2871-.2148-1.4395-1.6796-2.0996m1.8906,4.8291c.2422.457.041,1.3574.6289,1.4687.7598-.6767.0098-1.3076.4199-2.0996-1.3613-.3476-.2656,1.2988-1.0488.6309M10.707,49.333a1.78264,1.78264,0,0,1-.2109,1.2598c.5957.1728.5449-.2959,1.0508-.21V49.543a1.18135,1.18135,0,0,1-.8399-.21m29.6016,2.7295c.4336.3213,1.0723,1.1309,1.67971.6289-.14261.9824.89839.7813,1.46869,1.0508-.5293-1.9209-.7558-4.1445-2.9394-4.4092-1.125.5078-1.0567,1.3789-2.0996,1.0498.6679,1.3516,2.9375,1.4229,4.1992,1.8897-.5996.705-2.6895-.6358-2.3086-.21M18.2656,49.543c-2.5156,1.6845-4.123,4.2763-6.7187,5.8789,1.1289-.2012,2.2187-.4424,2.7285-1.2617.0234.7861,1.8184.1074,2.3105,0-.5117-.3223-.0683-1.4483.209-1.6787a2.41614,2.41614,0,0,0,.209,2.0996h1.0508c-.2188-1.3262,1.5469-2.4727.6289-3.1485-.3457.7031-.1934,1.9053-1.0488,2.0996a5.41945,5.41945,0,0,0,.6308-3.9892m32.959,2.9385c.0449-.8243-.6289-2.0186-1.0508-1.6778.5899.3184.3223,1.4971,1.0508,1.6778M39.2578,53.7422c.06251-1.0254.4121,1.0039.8399-.21.2109.7002-.291.6875-.8399.628.5606,1.1103,2.3457.5537,2.5196-.418-1.2754-.8262-2.5997-2.7168-4.1993-2.5205a7.23943,7.23943,0,0,1,1.6797,2.5205m-2.9394-1.6797c1,.2998.9961.2979,1.8906.6289-.1543-.6855-.7539-.9238-1.2598-1.2588.0645.4834-.6074.2334-.6308.6299m-6.5078.8398a1.02924,1.02924,0,0,1-.418,1.0499c-.3516-.9512-.11329-1.3291-.4219-2.0997-1.6836,1.6534-.3691,3.6797-.209,4.8282a5.60682,5.60682,0,0,1,2.30861-1.8897c.21289-1.2607-.47071-1.6279-1.25971-1.8887m1.8886,1.0499c-.3398-.0635-.5644.2832-.209.4189.0469-.1631.1758-.2441.42-.2109a1.3707,1.3707,0,0,1,.2109-1.0489c-1.2441.2149-.3203-.4326-1.05079-.6298-.04691.164-.00581.414-.209.4208-.07421-.5576-.55271-.7089-1.05071-.8398.3378.9219,1.3261,1.1934,1.8886,1.8897m2.1016-1.2608c.0019-.2773.3652-.1904.418-.4189-.6133.0547-.6446-.4756-1.2598-.42a.78869.78869,0,0,0,.8418.8389M18.4746,54.5811c.6406-.1514.7656.2138,1.2598.2099-.0703-.9092.2402-2.1982-.4199-2.5185-.0723.9756-.9688,1.1308-.8399,2.3086m6.7188-1.0489c.0605-.4287.5664-.4121.62891-.8408H24.9824c.0371.3154-.07609.7754.211.8408m12.8047,1.0489c-.55279-.8467-1.959-.8399-2.3106-1.8897-.6406-.1514-.7637.2158-1.2578.2109-.1973.8526,1.1367.7276,1.4687.42-.25.7588,1.7247,1.2383,2.0997,1.2588m.8398-.21c.209-.9785-.8633-.6768-1.2598-1.0488-.0332.8027.8575.6816,1.2598,1.0488m-5.248-.2109c2.4863,2.4834,1.6796-.2315,0,0m7.3476,1.0507a2.3901,2.3901,0,0,1,2.0996.211,3.04655,3.04655,0,0,0-1.04879-1.4697c.31839,1.0898-.96091.5791-1.05081,1.2587m-7.5566.211c-.8379.3222.541,1.2295,0,1.2588-.75-.3008-.3477-1.7539-1.0508-2.0996-.7461.8779-.666,1.3818-.209,2.5205-.4883-.75-.4473,1.1494-1.05079.208.63089-.2207.41209-1.1416.211-1.6787-.96881.4599-2.93361,1.5888-2.09961,2.5195.0195-.3301-.0293-.7275.4179-.6299-.2695.4951.0293.3916-.207,1.0508.46871.0879.668.4492,1.0488.6289-.6699.1807-.6504-.3301-1.0488-.4209-.0254.6045.1133,1.375-.2109,1.6797a12.24124,12.24124,0,0,0,2.09961.4199,1.066,1.066,0,0,1-1.68171-.209c-.5644,1.003,1.8379.6192,1.68171,1.8887-.53711-.373-.918-.9023-1.68171-1.0498a1.53456,1.53456,0,0,0,2.3106,1.4697,12.23636,12.23636,0,0,1-.62889-1.4697c.41209.0625.416-.2832.62889-.419-.4063.752.082.7686.2109,1.4688.6777.2598.16021-.6787.8379-.4199-.1191.1269-.4902.9961,0,1.0508-.05469-.6856.8164-.4463.8418-1.0508-.48049.0586-.791-.0508-.8418-.419.9668.0498.73631-.9443,1.6797-.2109-1.0332-2.377-.10939-5.46-1.6797-7.3486-.4844.4843.0996.9677.4219,1.2617m3.35741-.8408c-.61521.0556-.64451-.4737-1.25781-.4209-.2676.708,1.0644.8691,1.25781.4209m8.39839,1.6796a4.98985,4.98985,0,0,0-2.0996-1.8896,2.349,2.349,0,0,0,2.0996,1.8896m-10.2871-.8388c-.5625-.1387-.7988-.6026-1.2597-.8408.6015,2.0576,1.4531,3.8652,3.14841,4.8281a4.02126,4.02126,0,0,1,2.09959-.6299c.0352-.5244-.3223-.6562-.6289-.8389-.0254.2559-.0625.4971-.4219.42.2969-1.127-.2793-.7188-.6289-.21a2.76638,2.76638,0,0,0-2.0996-2.5195.92256.92256,0,0,1-.4199.8398c-.10939-.9219-.2949-.9189.2109-1.0488M15.1152,55.002a2.31973,2.31973,0,0,0-1.8886,1.0488c-.0332-.2471.0351-.5957-.211-.6289-1.1406.8877-2.4648,1.5928-2.9375,3.1494.6348.624.461,2.0566,1.2598,2.5185,1.5469-1.8046,3.2305-3.8974,3.7773-6.0878M7.5586,66.3369c1.6953-.3262,2.3418.2383,2.7285-1.0488-.04879.2275-.3457.5039-.4199.209.2168-.7637.957-2.6768.2109-2.5186a8.23861,8.23861,0,0,0,2.7286-3.3584,16.55068,16.55068,0,0,1-2.9395,2.7285c.0508-.6494.584-.8154.8398-1.2588a9.0935,9.0935,0,0,0-1.0488-2.5185,3.34708,3.34708,0,0,0-.41989,1.8877.54136.54136,0,0,1,.209,1.0498c.06049-.5479-.07621-.9023-.63091-.8389-.5683,1.1455-.1347,2.0264.63091,2.0987-.32811.3017-.16411,1.0947-.83791,1.0498.6426-.6407-.4649-.6006-.6309-1.0498.30281.9804-.8769,1.79-.4199,3.5683m13.8555-9.0273a6.18405,6.18405,0,0,1-3.5684,2.5205c-.168.7256.2324.8867.4199,1.2597a3.29168,3.29168,0,0,0,3.1485-3.7802m-4.6192,2.0996a8.01859,8.01859,0,0,1,2.3086-.209c-.1523-1.3086-.90619-2.4336-1.4687-3.9893-1.8672.8379-2.06249,3.0323-3.5684,4.6192a8.63284,8.63284,0,0,1,3.1485-4.8281H15.5352c-.6348,2.3408-2.2305,3.9853-2.3086,6.2978V60.459a7.4926,7.4926,0,0,0-2.7305,3.7793c1.75-.2656,2.752-1.7256,3.3594-2.5186.6836.6368,3.2031-.4023,4.1992-.8408-.6113-.2988-.2891-1.5293-1.2598-1.4697m19.73441-3.1485c.39649.0928,1.26559-.2851,1.04879.42-.7656-.0342,2.1446,2.8222,2.7305.6289-1.082-2.0049-2.9941-2.5362-4.4102-1.8877.504.6426.9922-.1514.63091.8388M18.2656,55.2109a8.1454,8.1454,0,0,0,1.4688,3.5684c.4433-1.0957,1.5-1.5771,2.3086-2.3086-.8711-.0283-.041-.1396,0-.4199-.97269.3594-1.8223-1.0352-3.7774-.8399m5.877.8399h1.0508c.0468-.3965-.2383-.4639-.211-.8399h-.8398Zm24.7715-.21c.373.003.6093,1.1787,1.0508.4199-.43359-.0566-.0508-.9296-.629-.8388-.0039.2763-.3691.1904-.4218.4189m-7.7676,1.2608c.0469-.1651.1777-.2442.4219-.211a.84588.84588,0,0,0-1.2598-.6299c.3691.1905.34571.7735.8379.8409m-15.7441,0c-.0469-.3975.2363-.4639.21091-.8409H24.7715c-.03519.5254.3242.6573.6309.8409m-3.1485,4.1982c-.8281-.083-.4375-1.3838-1.0508-1.6797a2.7925,2.7925,0,0,1-1.4687,1.4697c1.1992.3418,2.6406.4375,3.7793.8399.89261-2.1143,1.416-2.9346.209-5.249-.5078.2646-1.084.6611-.6309-.21h-.6289c-.76559,1.5449-.9531,3.8789-.209,4.8291M4.4082,58.5713a1.732,1.732,0,0,0,1.2617-.4209c-.3437.1523-.914-.418-.4199-.4199.3984.0898.5254.4521,1.0488.4199.0664-.5879,1.6563-.0996,1.8887-1.0488-1.69919.0478-3.3828.1132-3.7793,1.4697m42.1973.8379c-1.9395-.459-2.8516-2.7627-5.2481-2.0996.1465.6924.4473,1.2324,1.4688,1.0508-.9278,1.4882,2.5586,2.9169,3.7793,1.0488M34.6387,60.8789a2.09738,2.09738,0,0,0,1.4707-1.4697c-.7969-.3223-.8828-1.3565-1.6797-1.6787-.5879,1.1133.2148,1.9922.209,3.1484m-5.457,1.4697a1.783,1.783,0,0,1-1.2598-.2099c-.207.8222.4629,1.2187,0,1.6797a5.728,5.728,0,0,0,3.5683,0c-3.0878-.4317-2.3046-4.1787-3.1484-5.878-.3144,1.0967-.39449,2.8037.4199,3.3594-.4629-.4824-.8379.0518-.8398.6299a1.72189,1.72189,0,0,1,1.2598.4189m10.916-4.4082c-.0508.2989-.3457.3545-.42.6309.8418-.167,1.0391,1.3369,2.31061.8379-.91211-.0137-.62891-1.3447-.84181-1.0488-.2695.5869-.4336-.6622-1.0488-.42m13.22461,2.7295c-.26761-.0117-.28911-.2695-.62891-.2109-.1446.5644.4336.4072.62891.6308.10939-.3115.31049-.5302.41989-.8398-.2754-.2148-.7715-.206-1.0488-.4199-.3086.7978.9375.041.62891.8398M5.459,61.2998c.7227-.0576,1.7305-.918,1.4687-1.2598-.3046.6036-1.3203.4991-1.4687,1.2598m18.4727.8389c.6425-.1524.6191.3623,1.2617.2099-.0528-.8574.2031-2.0244-.4219-2.3086a12.7799,12.7799,0,0,0-.8398,2.0987m11.5488-1.0489c.2051-.4931,1.04881-.3486,1.04881-1.0498-.54691.0284-1.36911.8516-1.04881,1.0498M15.5352,62.5586a5.96269,5.96269,0,0,0-1.2598,4.1982c1.38091-.5097,2.9316-1.7275,3.1504-2.7285a.75609.75609,0,0,0,1.2578-.6289c-.2461-.0332-.5937.0352-.6289-.2099,1.0723.6074.3809-2.2715-.209-1.2598.9688.0029-.1816.5449-.4199.6289v-.6289c-.72849-.1699-.8086.3125-1.4707.209.3945,1.1054-.0664.1084-.4199.4199m4.82811-.6289a1.77319,1.77319,0,0,0-1.25981-.21c.127.4336-.2578,1.378.211,1.4698.21681-.5538.832-.708,1.04881-1.2598m-.62891,1.2598c.6894.0791.9258.6123,1.4687.8388.0371-.3135-.0742-.7754.211-.8388.03321.2461-.0371.5947.209.6289a4.18042,4.18042,0,0,0,1.2597-1.4698c-1.6152-.2959-2.416-.1289-3.1484.8409m-5.459-.6309a1.02893,1.02893,0,0,0,.41991,1.0498c-.00781-.6387.44339-.8164.63089-1.2598-.50589-.0859-.457.3838-1.0508.21m1.8906,3.7783c.0606.7315.5664-.0166.6289.4199-.5898.6104-.5742-.3144-1.0488-.4199-.0469.1641-.17579.2451-.4199.211-.5156.4941.3125.3906.209,1.0488-.416-.002-.2657-.5723-.83989-.4199-.18551.373-.58591.5341-.41991,1.2597.88091.1123,1.1738-.3662,1.8906-.4189.0625-.4131-.2851-.417-.4199-.6299.3965.0469.4629-.2373.8398-.2109v.6308c3.9512.2197,5.3887,1.7539,8.6075,2.5186.1425-2.7471.0117-3.8946,0-6.9268-.627-.0039-.7149-.5469-1.2617-.6308a10.47207,10.47207,0,0,1-1.4688,6.5078c-.01759-.3301-.5352-.1641-.4199-.6299,1.0469-1.2061,2.3242-4.1387,1.2597-6.0879-.3906.5898-.9843.9756-1.2597,1.6797-.7422-.2461-2.1973.5957-2.7285,1.2588.2011.2383.54881,1.3857.2109,1.4687-.4727-.624-.53909-.1963-.6309-1.0478-.498.3154-.2109.8847-.4199,1.0478-.459-.789-1.2109-.1933-1.6797.6309a1.77132,1.77132,0,0,0,.209-1.2598h.6309c-.1739-.6396-.0254-1.0683-.209-1.2597-.3281.5126-1.1328.5488-1.2598,1.2597m-2.9394-1.0488c-.0918-.6787-.7071-.833-1.0508-1.2598-1.4316,1.4619-1.957,2.7539-2.3086,5.459.6484-.2734,1.5059-1.4775.4199-1.6797.6797.1192,1.0567-.0644,1.2598-.4199q-.14655.9858.8398.8398c-.5175-.7216.3438-1.5742-.4199-1.8906.9199.1543-.168-.416.4199-.4189.10161.373.22461-.0908.42-.21.0468.1621.0058.4141.2089.4199.59771-.9756,1.55471-1.622,1.0508-3.1494-1.3535.2403-.666,1.7852-.8398,2.3096m-8.6074.8398c.7187-.0039-.0293-.5468.8398-.6308a.99674.99674,0,0,1-.209.6308c.8438-.1445,1.1992.2012,1.8887.209-.1836-.9609.2773-2.3691,0-2.7285-.6758,1.0039-2.2305,1.1299-2.5195,2.5195m14.4843-1.2597a2.6461,2.6461,0,0,0,1.4707-.8399c-.373-.1865-.5332-.5859-1.2597-.4199a1.78425,1.78425,0,0,0-.211,1.2598m-.209.4199a1.02859,1.02859,0,0,0-.4199-1.0498c-.0644.4951-.7285.3906-.6289,1.0498.18361.3066.166.8125.8379.6299.1074-.6553-.4941-1.0166.2109-.6299m10.0762,1.6777c.30861-1.0205,1.3594-1.2978,1.89061-2.0976-1.17571-.6797-2.15231.332-2.51951-.6299a4.29621,4.29621,0,0,0,0,3.1494c.3926-.374-.1699-.5342,0-1.2598.39651.0459.4629-.2363.8399-.2099.22461.5351-.9043.7334-.211,1.0478M8.3984,69.6953c1.5782.1758,1.4532-2.4599,1.4688-3.1474-1.1563.5195-1.3516,2.1591-1.4688,3.1474m4.8282-2.0986c-1.0469-.0889.084-.4492.2109-.6309-.3008-.0488-.3555-.3437-.6308-.4179-.5723.416.0371,2.2002.4199,1.0488M7.3477,68.8574c.5722.0176.4238-.3506.8398,0-.2715-.5224.6172-.872,0-1.0498a4.15231,4.15231,0,0,0-.8398,1.0498M4.8281,71.166c.8926-.9277,1.668-1.9717,2.5196-2.9385-.8711.8106-2.6602,1.8135-2.5196,2.9385m5.8789-1.6787c.2266-.4726,1.3204-.081,1.0508-1.0508-.7851-.2119-1.2812.9414-1.0508,1.0508m5.2481-.2109c-.3301.3554.0234,1.2119.8398,1.0498.1172-.7432.4981-1.749-.209-1.8897-.498.2451-.1894,1.4287.209,1.4698-.8203.332-.43359-.545-.8398-.6299m.2109-.6299c-.5039.4072-2.0019-.1826-1.8906.8408.6426-.1523.7656.2139,1.2598.208-.1563-.7158.8535-.2656.6308-1.0488m2.7285,0a.97858.97858,0,0,1-.6289-.21c.1524.7598-.3632.7598-.2109,0h-.8398v1.2588c.1269-.8789,1.2636-.0351,1.6796-1.0488M6.2988,70.7461c.5293-.251,1.6211-1.0264,1.0489-1.6797-.3555.4229-1.4805,1.167-1.0489,1.6797m2.7286-.6299c-.5-.4385-1.1016.294-1.2598.8408,1.2754-.1933,1.207-.5459,1.47071-1.0507-.01171.1289-.03321.249-.21091.2099m-2.7286.8408a1.169,1.169,0,0,1-.2109.8379h.4199c.0117.1289.0313.2491.211.211.1953-.5743.64451-.8955.8398-1.4698a4.71138,4.71138,0,0,0-1.2598.4209m1.0489,1.6787c1.0332.3174,1.9433-1.4394,1.4687-1.2587-.3457.5615-1.0644.7539-1.4687,1.2587m-3.1485-.2099c.5059.0859.45511-.3838,1.0508-.21q.05565-.687-.6308-.6299c-.1094.3106-.3106.5293-.42.8399"/></g></g></svg>