<svg xmlns="http://www.w3.org/2000/svg" viewBox="0 0 78.55592 108.9892"><defs><style>.cls-1{fill-rule:evenodd;}</style></defs><g id="Layer_2" data-name="Layer 2"><g id="Layer_1-2" data-name="Layer 1"><path class="cls-1" d="M28.77025,9.4473c1.0688-.4922.3267-1.4463,0-2.1006.4658-.1153.2983.4023.6294.4199A13.07152,13.07152,0,0,0,31.70965,0c.63971,1.7676-.0585,4.3144-.63029,5.8769a1.72137,1.72137,0,0,0,.42089-1.2587c.4228.1923.8423,1.4589,1.2588.4199.4848.3633-.252,1.2744-.6294,1.4687a11.86407,11.86407,0,0,1-.21,3.9883c.1875-.4404.582-.6767.8394-1.0478.3398.749-1.5396,1.7812-.8394,2.9384.7783-.0615.0874-1.5918.8394-1.6796.5234.1445-.3902.5605-.21,1.0488a3.56386,3.56386,0,0,0,1.04931-2.0987c.56539.2481,0,1.0938,0,1.4698,1.18169-.8487.83249-3.2256,1.68069-4.4082.6074.5527-.47069,1.1972-.211,2.1006.2662-.3663.71-.5518.6294-1.2618.7134.4307-.8833,2.0069-1.0493,2.9385.07521.3301.3701-.1826.4199.211.5884-.2061-.3046-.5596.211-.8399.3135.4561.2207,1.3174.6284,1.6797.394-.2363,1.0112-.249.8403-1.0508-.00239-.4922-.5732.0772-.4199.4209-.3887-.5176.7246-1.7969.21-2.5185.39651.0224.14451.6933.6294.6289.4062-.0166-.3623-.9786.4209-.419.1103-.7666-.9224-.9433-.4209-1.4707.68011.0899.4184,1.1221.8403,1.4707.5845-.2871-.7031-1.9912.6294-1.8896-.4351,1.9531.3911,2.58.4199,3.5683.72851-.3486,1.1177.1826,1.8897-.209a3.82307,3.82307,0,0,0-1.4688,1.6778c1.2642.1474,1.4175-.8203,2.0982-1.2598-.8018,1.5957-2.4229,1.9346-3.1499,3.1494-.0308.2793.8549.6338.2109.8408-.0835.502.9565-.1171.6308.629a4.825,4.825,0,0,0,.4185-2.5196c.3057-.7558.14111,1.7803.6304.8399.1792.1582-.1367,1.3554.6299,1.4707.3003-.3086.1611-.666-.42-.6309a9.11164,9.11164,0,0,1,1.4683-2.0996,3.54927,3.54927,0,0,1,.6309.8408,3.57164,3.57164,0,0,0,.6289-.8408c-.292,1.3184-1.2227,3.8145-1.6787,5.6689.165.7452,1.1552.6631,1.6787,1.0499.542-.0508-.2871-.3624,0-.8409.9052-.0625.8213.8594,1.47071,1.0508-.10351-1.0176-1.22371-1.0156-1.47071-1.8896.6738-.3477.9101,1.1084,1.05071,0,.46289.0254.08789.8896.21,1.2597.45219-.3799.74219-.5947.62989.42,1.9873-1.835.1074-6.044-1.6797-6.9288-.03119-.2793.8545-.6328.209-.8388.6377-.3487,1.1533,1.2197,1.25981,2.0996.28509-.0645.17569-.5264.21089-.8399.7812.667-.1143,2.1846,1.2588,2.5196.65431-1.4287-.6973-2.6573-.8389-3.9893a1.76067,1.76067,0,0,1,.8389,1.6787c.2851-.0644.1738-.5254.2109-.8398.7656.5049-.0703,1.873.209,3.1504.5039.082-.1172-.9571.6289-.6309-.0801-2.1767-.625-3.3662-.6289-5.0381a3.30365,3.30365,0,0,1,.6289,2.5186c1.0449-.8174.9336,1.3418,1.8906,1.0508-.6152,1.1865.5098,1.8505.62891,2.9384.51959-.2021-.28711-.8066,0-1.4697a.99445.99445,0,0,0,.63089.2109c-.1836-.7441-.0273-.5166-.209-1.2597h.8379c-.1113-.5889-.3066-1.0928-.4199-1.6797.2519-.5049.2578.9834.8398.8398.5196-.5996-.0566-2.2959.4219-2.9384.5898.5136-.8047,4.0254.6289,3.9873.0996.8652-.5664-.2022-.6289.6298.2051.5889.5586-.3046.8379.21-.1191-1.5264.8086-1.9824,0-3.1484a1.48244,1.48244,0,0,0-.4199.6289c-.6543.1806.7929-.9522.2109-1.4688.93751.0137.2676.4795.6289.8399.9883-.1319.89061-1.3496,1.0488-2.3076.38681,1.1113-.2031,2.3164-.2089,3.3564.205-.0049.1621-.2559.2089-.4199.2461.0351.17781.3838.211.6308.8066-.1328-.1406-1.4336.83981-.8398.11329-.7432-.74411-.5156-.62891-1.2598.3574-.0771.3945.1641.418.42,1.1055-1.1094-.2988-3.1456.41991-4.1993V5.457c.16409-.3828.22659.126.21089.4199-.1464,2.0411.3262,3.0147,0,4.4092A16.89166,16.89166,0,0,0,57.531,8.1875c.2832.9189-1.2871,1.7881-1.6797,2.7285.0215.4043.7832-.3262,1.0489.21-.0723.7568-.3203,1.0117,0,1.6797.3769.0263.4433-.2579.8398-.211a1.908,1.908,0,0,1-.8398,1.0498c.332.5889.7519-1.1318,1.2617-.4189-.6074-.6309.06051-1.7012.6289-2.3096-.2891.2705-.207.9111-.2109,1.4697.1679-.3164.60351-1.5468.6308-.2109.5352-.0234.416-.7021.4199-1.2588a1.30658,1.30658,0,0,0,1.0489,0c-.9278.6738-.5879,2.4326-1.6797,3.3584.084.5469.6269.6338.6308,1.2598.5372-.3721.55081-1.2686.8379-1.8897.4317-.1816.42,1.0684.63091.4199.18549.4053-1.03321,1.1983-1.04881,2.0997.5703-.9297,1.539-.3497,1.8886-1.2588,1.2305.8808-1.3574,1.0097-1.4707,1.8877.2793.3955.961-.2129.42191.6308.72849.1455,1.20309-.8115,1.25979-1.2597,1.084.1523-.4239.6543,0,1.4697.5371-.6875,1.8515-1.4561,1.0488-3.7783.6133.1894.0605.7724.4199.8388.5352-1.1435.5781-2.7812,1.6797-3.3584-.4141.7735-.6855,1.6934-1.0488,2.5196.0898.3115.26761-.084.6289,0-1.1328,1.042-1.1055,2.6113-1.2598,3.9882,3.72851-.2089,2.3496-5.6054,2.5196-7.7666a5.88337,5.88337,0,0,1,.41791,3.1485c.21679-.1377.21879-.4834.63089-.4199.0703,1.1357-.5801,1.7334.4199,1.6796-.3262.5137-1.1562.5225-1.25779,1.2588.59569.5371.26169-.8193.83789-.6298v.6298a1.06085,1.06085,0,0,0,.6308-.6298c.2168,1.1308-1.9863,1.6503-1.6796,3.5693,1.7714-1.4483,2.039-4.3994,3.5683-6.0889.2422.9473-1.1933,2.0215-1.4707,3.1494.4727.5938.48631-1.041,1.2617-.8388a14.3325,14.3325,0,0,1-2.3105,2.9384c1.498-.3916,1.789-1.9902,3.1504-2.5195-.4278-.7363.1211-1.1435-.4219-1.6797.68161.2598.1602-.6787.8398-.4189.1485.5234.2071.8623-.207,1.2597.3301.5889.75-1.1328,1.25781-.4209-.46091.379-1.03711.6426-1.25781,1.2598.1895.5733.46881-.6387.8379,0-.3926.4004-.0234.5283,0,1.0508-.4668-.1162-.2988.4004-.6309.418.4727-.0547.4961.5586.211,1.2597,1.4316-.458,1.4297-2.3486,2.5195-3.1474.48831.5937-.6601.8935-.6289,1.6797.2031-.0059.1621-.2579.209-.4209-.0879,1.1748-1.625,2.7119-2.7285,3.5683a1.19814,1.19814,0,0,1,.2109.8408c.4942-.0654.3887-.7295,1.0469-.6308a39.49783,39.49783,0,0,1,2.5195-4.1983c-.0254-.5195.2578-.3564.211,0a5.20373,5.20373,0,0,0-.8399,1.8897c-.6348.1357-.5859.9531-1.0488,1.2598.5215.3701.3047.3466,0,.8388.8027-.0469.9297-.623.6289-1.2588,1.0547.0957,1.0449-.0254,2.0996-.6299-.8027.7374-1.1895,1.8916-2.3086,2.3086.8828.5967,1.2754-1.0966,2.3086-1.0488,0,.6279-.4141.9981-1.0508,1.4697.4395.3555,1.5078-.4443,1.6797-1.0498.05471.6494.1113.5323,1.0488.209-1.41009,1.1787-3.6972,1.4805-4.82809,2.9404.97659,1.4209,2.56249-.6835,2.93949.419.7832-.1963.9629-.9961,1.8886-1.0498-.2968-.6162.541-1.6221,1.2618-1.8897-.0508.6504-.586.8164-.83989,1.2598.31249.3164.93949.3193.83989,1.0498-.4493.0977-.4004-.2998-.42-.6299-1.0625.0576-1.0742,1.167-2.0996,1.2598.3848.5059,1.2363-.2881,2.0996,0-1.9648.416-3.5488,1.4062-5.87889,1.0508.84179,1.3769-1.10151-.8408-1.05081-.8408-.8574.0039-.8144,1.2744-1.6777,2.0996-.0898.3476.7813-.0186.8379-.21.377-.0615.0137.8154-.418.6299.64261,1.1699,1.3887-.3535,2.0977-.4199a4.10657,4.10657,0,0,1-.8399,1.0488c.67.5195.8575-1.2344,1.8907-1.0488-.1153.7255-.8926.7871-1.0508,1.4697a1.77778,1.77778,0,0,1-1.2578-.21c-.07029.5039-1.2344,1.128-1.8907,1.6797,1.0606.4922,1.8965-1.039,2.9395-1.2607.0703.6435-1.6133.6074-.8379,1.2607-.8633.6768-2.9473.1328-3.3613,1.2588a4.0515,4.0515,0,0,1,1.6797-.4189c-.4121.7148-.1211.499.6308.4189.0371.459-.1738.667-.6308.6299a1.347,1.347,0,0,0,1.8886-.6299c.5801.7295-1.1171.9727-1.0488,1.8897.22461.7148.0645-.584.6309-.21-.3594.4101-.36529,1.1748-.6309,1.6797a11.09262,11.09262,0,0,1,2.5195-2.3096c-.5253,1.1533-2.0371,1.3203-2.0996,2.9395,1.3164.1679.4004-.8086.8399-1.2608.3496-.039.1484,1.4903.6289.6309.29491.0742.0195.3691-.209.4199,1.0391,1.0811,1.6641-.3291,2.5195-.6309-.6679,1.5498-1.39059,1.7979-2.9394,2.3106.2051.458,1.2109-.0293,1.4707-.2109-.08989,1.8818-4.2852-.6456-5.25,1.4697.5.9433,1.3555-.166,2.3105-.4199-.1562.6152-.6367.9033-1.0508,1.2607.3672.6201,1.1192-.1221,1.6797,0,.0645.4834-.6074.2324-.6289.6289a18.68229,18.68229,0,0,0,2.30861-1.4697c.64649.2099-.23441.5674-.41991.6308.1387.628.4492-.2011.8398,0-.4863.3067.4102.6641-.41989.6289,1.01559.5196,2.27739-.5175,3.35939-.6289-1.19139,1.8174-5.8711.1455-6.2988,2.7286,1.2675.0087,1.4531-1.0645,2.5195-1.2598-.4238.4853-.6973,1.1221-1.4707,1.2598,1.1543.3642,1.1562-1.2207,2.5215-1.0489-.1465.5518-.957.4424-1.0508,1.0489,1.3027-.167,2.6367-.3028,2.9395-1.4698,1.0058.9395-1.8047,1.3116-2.0997,2.3086.9043.1358.6582-.8799,1.4688-.8388a1.68467,1.68467,0,0,1-1.2578,1.0498c1.6719.4394,2.45311-.5205,3.7773-1.0498-.1308.8476-1.2636.6953-1.4707,1.4697-2.834-.3467-5.3984,1.2041-7.1367.6299.0586.4316.5606.4179.8398.6289.6993.0009.7168-.6826,1.4688-.6289.0898.4375-.1426.5547-.209.8388.6777.1885.2949-.6845.6309-.8388.1718,1.0664,1.0781.1523,1.67771.6289a3.24928,3.24928,0,0,1-1.67771.6299c.8008.082,1.2402.5595,2.0996,0,.5.3457-1.2813.9345-1.6817.4209.0625.4267.5684.4111.6309.8388,1.2227-.2431,2.1426-.9707,3.3574-.6299-.0918.1866-.1836.376-.4179.42a2.76781,2.76781,0,0,0,1.4687.4199c-.8359.4287-1.2148,1.9385-2.3086,1.4707.3086.6396,2.0332.5976,2.0996-.211.3321.3389.0821.6651,0,1.0498-1.5429-.4541-1.3105.3956-2.5195.6299a.92667.92667,0,0,0,.8398.42,4.012,4.012,0,0,1-1.2597.8388c.7675.4297,1.6484-.0283,2.7285-.4199-.8496.5518.6308.9092-.8379.8398.498.6202,1.26951-.2529,1.8867-.2089-.1348-.2139-.4824-.2178-.418-.6309.4161.0029.2657.5732.8379.4199a2.87327,2.87327,0,0,1-2.5175.8408c1.0859,1.1543,2.416-.7002,3.7793-.6298.1582.5322-1.4356.3515-.63089.8398a8.03835,8.03835,0,0,1-1.88871.6289c.6348.7656,4.2129-.5019,2.5196.4199-1.0176-.1045-2.5372.2979-2.9395-.4199a3.58144,3.58144,0,0,0-.8398.6309c-.4727-.1182.2539-.3282-.211-.6309-.5722-.1523-.4219.418-.8398.4199.0644.4522,1.1113-.2295.4199.42.1934.2343.3906.0654,1.0488.2099.0781.3574-.1621.3955-.4179.4199.0468.3028.6269.0733.6289.42.4687-.0313-.27149-.5293,0-1.0498h1.0507c.211.6318-.4687.373-.8398.4199.3809.3886,1.26561.2734,1.6777.6299.2598.6787-.6777.1601-.4199.8398-.4297-.251.4492-1.1396-.8379-.8398a.63323.63323,0,0,1,.209,1.0488c.1914.4453.8438-.3955,1.47071-.209-.07811.3574.16209.3955.41989.4199a4.9547,4.9547,0,0,1-3.1484,0c-.31249.0918.0801.2686,0,.6299-.9766-.456-1.6094-1.3242-2.9414-1.8896a3.07447,3.07447,0,0,1-2.0977,1.2597c.39461.5567,1.8262-.1103,2.9395-.4199-.4746.7158-1.4434.9365-2.0996,1.4688.0898.4697,1.0332.0849,1.46871.2099.80079.3633-.81831-.0156-.62891.4199.541.6621,1-.5234,1.8887-.209-.3145.2442-.5137.6055-1.05079.6299.21489.5,2.26949,1.1123,2.52149.21a3.78111,3.78111,0,0,0,2.72851.4189,9.63312,9.63312,0,0,1-3.77931,1.0498c.5332.3584.1699.7784.8399,1.2598.1035-.6269,1.6992-1.1162,2.7285-1.4687-.2637.9238-1.74809.6308-2.0996,1.4687a.58007.58007,0,0,0,.6308.4199c.47271-.1172-.2558-.3271.209-.6299.2461.0342.17771.3829.2109.6299.96881.1289,1.2071-.4707,2.0997-.4199-.9473.5928-1.4571,1.6221-3.1504,1.4697-.2207-.9863.7089.3448.8398-.4199-.1309-.499-1.291.0322-1.4687-.4189-.3067.1699,1.1523,1.4492.2109,1.0488a4.8828,4.8828,0,0,1,1.2578,1.6797,1.17622,1.17622,0,0,1,.8398-.21c-.0527.2276-.416.1426-.4199.4199-1.0586-.0869-1.3711-.7216-2.0996-.6308a1.54836,1.54836,0,0,0-.4199-2.0996c-.3789-.1797-.3574,1.3847-.6289,0H71.80636a1.24271,1.24271,0,0,0,1.88869.8408c-.2422.0801-.2422,1.0195,0,.4209.6562-.0654-.5332.6045.2109.6289-.4472.748-.7812-.9258-1.2597-.2109.041.2402.2109.1172.2109,0,.459.0927-.3984.9277-.6309.4199a5.293,5.293,0,0,0,5.459,2.7295c-1.9883,1.2617-4.7324-.4151-5.66989-2.0987-.24411.0342-.17581.3819-.209.6299-1.25391-1.1953-1.40621-2.5947-2.72851-3.5683.0059.2041.2559.1621.4199.208-1.1718.3349-.14839-.7481-1.0508-1.2588a4.268,4.268,0,0,0,.209,1.2588c-.26359.6328-.8554-.4658-.4199-.6289-.4766-.0586-.7871.0508-.8379.4209.7461-1.3496-2.084-1.5098-2.9394-2.5205-.627.0029.2968,1.5556-.6309,1.2597-.0937-1.2031.2266-1.667,0-2.5185-.8301-.3389-.9004.6133-.6289-.6309-.7012-.2109-.6875.292-.6289.8408-.3555.542.0059-1.3896-1.0508-.8408-.2285.0537-.1426.418-.41989.4199.13669.2139.48239.2178.41989.6309-.2578-.5977-1.3652.9287-.41989.8389-1.15821-.1377-1.14061,2.0429-2.93751,1.8896.4883.2803.4023,1.1367,1.2578,1.0498-.8418.5567-2.0801.7178-2.7285,1.4688.8633.5361,1.2344.625,1.2598,1.6806,1.2988-.1709,1.8652-1.0742,3.14841-1.2607-.35941,1.04-1.78321,1.0156-2.51951,1.6806.0742.9131.8711,1.96.6308,2.5186-.5605-.418-.6406-1.3203-.8398-2.0996-1.6289.3467-3.1817-.9502-4.6192-1.4688.0703,1.4327,1.7774,1.4717,2.3086,2.9385.6797.2598.16211-.6797.8399-.4199a.67187.67187,0,0,1-1.25979.4199c.14449.4903-.59371.2549-1.04881.6299a5.5234,5.5234,0,0,0-2.3086-3.3584c-.7988.544.5293.71.4199,1.2588-.9043-.0762-1.1758-.7832-1.2598-1.6787-.6601-.0996-.8593.2617-1.0488.6289.3555.0781.3965-.1631.418-.419.3965.0225.1465.6944.6308.6299-.1191.1963-.5839.3174-.2109.4199-.084.4639-1.2305.2803-.8379-.4199-.9492-.1777-1.0488.4903-1.6797.6299a3.462,3.462,0,0,0,.8379,2.9385c-.7988,1.0137.5137,3.1631,1.0508,4.1982-1.125-.2763-1.6387-2.9775-1.8887-4.8281a1.50575,1.50575,0,0,0-.6308-.4189c-.6582.039-.56839.8291-1.4688.6289a1.17626,1.17626,0,0,1,.209.8398c-.4297-.1191-1.5742.0635-.8398.419-.0557.4951-.9297.1298-.8389-.209a5.07608,5.07608,0,0,1-3.9893.6289c-.645.8252-2.0517.8877-2.519,1.8906a33.18888,33.18888,0,0,0,.6308,9.6563c1.0313,6.1347,2.0845,13.9589,3.358,19.7333,1.59761,7.23833,5.8505,7.19146,13.2255,7.7686,4.5118.35157,10.4922-.21582,13.8555,2.09864-20.5742.48926-42.0561.07031-62.97949.21a1.88073,1.88073,0,0,1,1.0498-1.46973c1.6157-.7539,9.7359-1.06445,13.01569-1.46875,5.4584-.67285,12.5747-.41211,15.3242-2.09961.476-3.26071-.2217-7.20121-.6294-10.49611-.9771-7.9258-.6284-17.709-4.1973-20.9941-.7134-3.6475-2.4673-.4375-4.4097-.6309.5181-.3906,1.4932-.3242,1.8897-.8379-.1084-.666-5.8023.3946-2.3101-.2109.3941-.2363,1.01221-.2481.8413-1.0498.9385,1.6719,2.5132-.6524,3.9888,0,.3877-.0303.1279-.71.4194-.8399-.374-.3916-.5341.1719-1.2597,0,.0185-.5712-.3501-.4218,0-.8388.7739.4277.7632.3447,1.8891.4199.4805-.3594.0777-1.6025.21-2.3096a23.49488,23.49488,0,0,0-4.19869,3.5684c.209-1.6777,1.76269-2.6641,2.519-3.1485-.28811-.541-1.28511-.0468-1.67971,0,.3511-1.4912,2.97171.0508,3.5694-1.4697-.5235-.0488-2.9551.0645-2.9385-.2099-1.1533-.211.0981-1.7286.2095-2.9385-.5928-.3047-1.3648,1.0078-1.89069,1.4697.33159.1592.315.666.84089.6299-.483.0771-.2002.918-.84089.8389.09089-.4034-.14351-.7579-.20851-.42-.4692-.0302.27151-.5283,0-1.0488-.2143.1358-.2177.4824-.6294.4199-.0864-.5058.38191-.458.2085-1.0498-.7265.5723.209,1.502-1.0498,1.4688.0064-.2041.2583-.1631.4204-.209-.0737-.2764-.3686-.3311-.4204-.6299-.8901.0654.2857,2.5859-1.0493,2.7285a8.5196,8.5196,0,0,0,.4194-2.7285c-1.4794-.5283-4.0605-1.249-4.8266.209-.2598.6377-.7222-.2266-1.26029,0a9.14723,9.14723,0,0,1,2.30909-1.0498c-.9507-.7988-2.61719-.8809-3.14939-2.0986.3711.1884.6128.5068,1.0503.6289.03319-.6875-.9399-.9239-.4209-1.4688,1.18509.4649,1.88279.2559,2.9399.6299.042-.3652.50689-.8564,1.05029-.21-.0918.3125-.2695-.083-.6308,0,.29051.9141,1.0844.0215,1.6797,0-.7124.6905.9023.1211,1.2587,0-.9184-.1855-2.9272-.0136-3.35789-1.2597.94389.5146,2.37209,1.373,3.56889.4209-.2837-.5039-2.2285,1.0957-2.3091-.4209,1.0703.5215,1.4731.1572,2.519-.21-.3754-.4287-.7753-.0586-.4209-.8398-2.4721-.0684-6.98429,1.2675-8.186.2099.8848.2598,1.5054.2735,1.6797-.6299.0586.462.3667.2754,1.25879.6299v-.4189c-1.27539-.793-1.01609.1582-2.93849-.4199a7.597,7.597,0,0,1-1.0503,1.6787c-.4922-.0664-.7871-.3311-1.4697-.21-.0962-.8603.4482.0859,1.0503-.21-.0308-.458-.5288-.4501-1.0503-.4199,1.2422-.1972,1.0522-.872,2.0991-.6299-.0029-.6953-1.186-.2138-1.4687-.6298-.8711.4101-1.314,1.3857-2.7295,1.0498a21.464,21.464,0,0,1,2.3091-1.0498c-.9498-.3135-2.3316-.8223-3.3584-.42a38.77544,38.77544,0,0,1,.4199,7.1387c-.7622-1.0801-.1406-2.7803-.4199-4.6191a2.46391,2.46391,0,0,0-.6294,1.6797c-.3955-.9776.7275-2.6602.4194-4.1993-.1323-.2187-1.1792-.2138-2.0991-.2089-.0156-.1895,1.0669-.4219,0-1.0499.5796-.6347.9497.7168,1.8896.42.1558-.1914.0054-.8438.2095-1.4698-.604.4668-2.5352.6944-2.0991.42.7895.0898.9565-.4444,1.2602-.8399a3.12828,3.12828,0,0,0-2.1006-.2109c.0245-.7891.9498-.1436.4195-1.0488.5776-.0313,1.0835-.0391.6294.4199.8452.0303.5566-.5381.4209-1.0498.5244.1748.8237.5752,1.4697.6299-.3477-1.167-1.2861-.4991-2.0991-1.2588.9477-.4746,1.6386-.2618,2.729.209.2646-.0811-.1392-.9893.4194-1.2598a17.31635,17.31635,0,0,0-3.3584.4199c.686-1.0625,3.0986-.3994,3.7793-1.4687-.0278-.4639-.8911-.0889-1.2602-.211.0341-.2441-.0464-.373-.21-.4199-.0088-.6377.4429-.8154.6299-1.2598-.3736-.3584-1.2715.5391-1.2603,1.2598-.8847.0361.0044-.3223,0-.6289-1.1167.7471-.7973,1.9062-2.3091,1.8896-.0542.4844-1.0634,1.8477-.6294,1.4698.647.2099-.455.3457-.4199.6289-.5595-.4385.5225-1.002.4199-1.6797-.2143-.4844-1.4057.0068-1.2602-.8399a5.12133,5.12133,0,0,0,2.9385-1.2587c-.2569-.8506-1.6519-.2413-2.3091-.21.0752-.9053,1.8774-.083,2.1006-.8399.3281.0733-.1846.3692.2085.42.9941-.6172,1.6147-1.6045,2.73-2.0996a.99149.99149,0,0,1-.2095-.6299c.417.8154,1.124.1084.6294-.6299.7895.8027,1.2046-.7471,1.8891-1.2598-.6172-.2422-1.2343.8789-1.6782,1.0498-.8657-.2373.8648-.6035,0-.8398.1377-.6289.4483.2012.8389,0-1.5933-.9951-4.2158-.9619-5.4585-2.3096,1.5762-.1299,3.0913,1.6748,4.8281,0,.8648.3379,1.8032-.4023,2.3101-1.0488-.3951-.4238-1.6255,1.5244-2.1001.4199.6382-.2656.7378-.5449.2109-1.0508.1094-.5996.3101.3389.4194.4209a4.59063,4.59063,0,0,1,1.6797-1.2597c-1.2256-.875-1.6167-1.0244-2.52.2099a4.74549,4.74549,0,0,1,.4209,1.2598c-.4482.0976-.4009-.3008-.4209-.6309-.3589-.0439-.5434.3594-.6294,0,.2022-.6367.8438-.8359,1.0503-1.4687-.5732-.626-.9004.7676-1.8896.4199.0517-.2275.4165-.1426.4199-.4199-.1924-.5703-.3902.5596-1.0493.2099-.0342.2442.0463.375.2099.42-.7221.6279-.7221-.7725,0-.8389-.4551-.3574-1.9214-.4453-1.2602-1.2607-1.2998-.3907-.9551.8642-2.0992.6308.3282-.3027.731-.5303.8404-1.0498a5.09323,5.09323,0,0,1-1.0503-1.0498c-1.1519,1.25-3.1055,1.2666-3.5689,3.5684,1.2178-1.5284-1.3144-2.4912-2.729-2.0996-.3027-.0469-.0727-.626-.4209-.6299-.0341-.4551.7456-.0957,1.0503-.209-.0517.2275-.4174.1426-.4194.4199.9131-.04.3818-.3662.4194-1.0498-1.3901.6699-.0561-1.3164-2.0991-.8398-.666-.1768.3721-.2774.6294-.21-.0649-.5547.7388-2.1318,2.1006-1.2598a1.36568,1.36568,0,0,0,.2095,1.0498c.2378-.041.1162-.2109,0-.2099.4936-.251,2.061-.1885,3.1484-.4209-1.3193-.5791-3.0679-.5537-4.1982-.8389.1543-.7695.8598-.5937,1.4697-.4199-.2407-1.3691-2.2329-.9863-3.3594-1.4697.9663-.7412,2.2803.7353,2.9395-.21-.9727,1.0293,1.0844.3125,1.8886,1.0498a1.94452,1.94452,0,0,0-1.2592-.8398c.4086-.5752.6362-.669,1.2592-.21-.1381.6289-.4487-.2012-.8393,0,.8349.6406,2.3852.1992,3.3579.6299a4.68823,4.68823,0,0,0-3.3579-1.8887c1.9458-.7939,2.6714,1.3428,4.6181,1.6787.2593-.6797-.6792-.1601-.4194-.8388.3994.0888.5278.4521,1.0498.4189-.3862-.874-1.9116-.6084-2.7295-1.0498.0308-.458.5288-.4512,1.0498-.4199-.8379-.8877-.7099-.4815-.6303-1.4688.062-.5.5688.2334.6303.419.2232-.6387,2.0894.1123,3.1499-.419-.0068-.2041-.2588-.1631-.4209-.2109.0342-.2451.3833-.1768.6294-.209-1.5449-.2168-.7729-.5283-2.519-.8398.1777-.7491.5171-.0254,1.2588-.21-.9053-.5791.3271-.4199.8418-.2109.1855-.0928.3745-.1836.4184-.42-1.4531-.4785-.8847-.8994-2.0981-1.8877.3369-.3242,1.6533.1553,1.4687,1.0489.4009.0986.9034-.6475.8404.2099.2661-.415-.126-.8164,1.0493-.6298-.0786-.6915-1.1157-.4229-1.0493-1.2598.5366-.8711.9165.4365,1.6787-.21a14.41588,14.41588,0,0,1-2.729-5.247c.3965.0224.1445.6933.6308.6289a4.09466,4.09466,0,0,1-.4209-3.3584,1.17886,1.17886,0,0,0,.8404.2089c.1259.8389-.8492,1.7618-.211,2.9395.232-.4473-.351-2.2744.8404-2.3096-.1934.8721-.6084,3.5489.6294,2.9395-.4517.3642-1.1407,1.4844,0,1.6797-.7837.5088.4418,1.874,1.0493,2.3095a1.4912,1.4912,0,0,0,.4204-.6298c.2466.0332.1767.3818.2099.6298a4.8041,4.8041,0,0,1,2.5191,0c-.1416-.7568-1.6919-.8193-1.2588-1.8906.395.5508.6899.2022,1.0488,1.0498.6416-.5205-.6704-.8554-.4194-1.6787-.2764.252-.3301.082-.6294,0,.0054-.2041.2573-.1631.4194-.2099-1.0337-.3184-.331-1.0665-2.0991-1.2598a3.12961,3.12961,0,0,1,1.8892-.4199c-.2574-.3028-.8018-.3184-1.0498-.6289.6757-.7159.9272-.2041,1.8891,0-.8877-.5752.6905-.75-1.0488-1.0508-.0059-.4951.3608-.6182.2095-1.2598a1.02717,1.02717,0,0,1,.4199,1.0498c.5454-.3818.6328.0908,1.2588-.2099.0786-2.5967-2.1421-2.8956-2.7285-4.8282.7685.083.3081,1.2461,1.2597.6299-.104,1.293.9839,1.3945,1.2588,2.3096a.9789.9789,0,0,1,.6294-.21c-.2407-.2666-1.1396-.709,0-.6299-.3057-.3925-1.1504-.248-1.0488-1.0498.5332.5577.5332-.4033,0-.4199.3686-.4892.8681.6582,1.4697.6299.1104-.7666-.9209-.9434-.4209-1.4688.4053.085.167.8135.8418.629.0869.4384-.1445.5556-.2109.8398.1875.2373.5068-.0498.6303.6289.0577-.1387-.1069-1.8437-.8403-1.8887a20.191,20.191,0,0,0,.21-3.3584c.3886-.1992.1289,1.2012.4194.419-.6084,1.8105.7105,2.4677.6294,4.1992.1836.6201.3149-.4873.84079-.21-.292.2686-.1294.9903-.41989,1.2588.772-.207.93989-1.0185,1.46869-1.4687.5855-.0948-.1635,1.1435.4209,1.0488.732-.6523-.5722-1.0342,0-1.6797-.7998-.3076-.0419.9385-.8393.6309.5268-.6924-.4229-.3018-.84029-.21.09809-.5713,1.01019-1.834-.21-1.8896-.1128-.3028.81839-.5118.21-.6289.23379-.6143.68209.2666.62939.6289.43261-.1123.0498-.9922.6293-.419-.1215-.5781-.5224-.8769-.6293-1.4707.2441.0342.3745-.0459.4194-.209a2.968,2.968,0,0,0,1.26021,1.8907c-.01751-.6377.48589-.3389.62939-1.4717a1.25256,1.25256,0,0,1-.2099,1.4717c.5366-.0987.855,1.0351,1.2602,1.6767a5.4861,5.4861,0,0,0,.2095-1.6767c-1.0786-.4034-.2363-1.4346-1.4697-1.6817-.0078-.6377-.1226-1.3808.6308-1.2598.4126,2.0127.8203,1.6885,1.6783,2.9415.1923-.4366.2168-1.5.4199-2.1006.7783.2978.4438.4912.8393,1.2588.3511-.295-.06979-1.5967-.6299-1.6788a1.36913,1.36913,0,0,0,.8409-1.0498c.2363.6397-.0855,1.7159.4194,2.5186.2129-.1367.2173-.4824.6304-.4199a.57428.57428,0,0,1-.4195.6299c.1358.2138.4825.2177.4195.6308.8559-.5703.10841-2.5273.41841-3.3594-.50531.1563-.62941-.7627-1.25881-1.0498.2256-.8486.75981.1211.8404.6299a1.47215,1.47215,0,0,0,.41841-.6299c.62749.003-.29591,1.5557.63089,1.2588-.3003,1.5811-.6636,2.6748-.21,3.3614.0664.0986.2466-.334.21-.4209a1.64033,1.64033,0,0,1,0,1.0498m17.4258,9.6562c.0429-.2539.2314-.1289.4189,0,.5371-.9766-.2998-2.8916-.2109-2.9394-.4151,1.2207-.6846,2.2812-.208,2.9394m23.7197,7.5576c-.7109.3438-1.9785,1.2305-1.8887,1.6797.5977-.5928,1.502-.8789,1.8887-1.6797m-.8379-.2109a2.2417,2.2417,0,0,0-1.8906,1.6797c.5234-.666,1.8437-.5352,1.8906-1.6797m-1.2598,8.8174c-1.1132.2392-2.1464-.4942-2.5195.2109.7129.3643.7949.4238,1.6797.8389.0254-.6045.8945-.3643.8398-1.0498m3.98831,20.7842c.52739.8525.41409.5136,1.46879.8388-.0293-.7402-.9414-.5976-1.46879-.8388M20.16336,60.46c-.04791.3964.23629.4638.20989.8398.4126.0635.416-.2832.6304-.4209-.1758.6738-.1802.4355.2085.8408.5576-.2129,1.1948-.3457,1.26021-1.0488-.33-.0215-.728.0283-.62941-.4209-.7919-.1611-1.0039.2559-1.67959.21m3.77879-3.7793c-.899-.8975-2.5342.1611-3.5689.4209a3.03113,3.03113,0,0,0,3.1494.4199c-1.1132.0029-1.269-.7715-1.8896,0,.0752-1.4414,1.5649-.1895,2.3091-.8408m1.8881-48.9141c-.2617.8018.18711,1.0107-.2094,1.6807.7827.2216.332-.7881,1.0503-.6289-1.0547.9316.2094,2.6181,1.0498,2.5175-.9497-1.334-.5323-2.8271-1.8907-3.5693m5.03911,1.8896c-.18751-.7324.68459-.3593.84029-.2089.0332-.6651.0069-1.2676-.4194-1.4707-.0098.5322-1.0312,1.8818-.42089,1.6796m-1.04881.8389c-.147-.9248,1.3857-1.2598.6294-2.0976.0132.8388-1.8399,1.3789-.6294,2.0976m-7.9776-.6289c.2696.2891.4336.0557,1.0489,0,.14451-.5644-.4341-.4053-.6294-.6299.04291.7412-.8902.3848-.4195.6299m-.8393.6289c.0454-.1621.1753-.2441.4184-.209.0367-.5254-.3212-.6562-.6293-.8388.1147.3046-.2452,1.083.2109,1.0478m3.5679.8408c.9497-.2158.4682-1.4599,0-1.8886a2.70788,2.70788,0,0,1,0,1.8886m4.1987-.6298c-.3018-.5391-.5654-1.1143-1.2603-1.2588-.0307.7402,1.06941,1.4355,1.2603,1.2588M30.45,14.0644c.1787-1.0029,1.9653-2.9316.8403-4.4082.2739.9043-.5962.6631-.8403,1.0499.3115.039.1919.5068.2095.8398.3027.4648.5126-.2647.6308.209-.3975.5205-1.5327,1.3984-.8403,2.3095m7.1382-2.9384c.5854.1455.8877-1.0449.4194-1.2598-.1201.4395-.521.5996-.4194,1.2598m-9.6573,2.0996c-.1933-1.627-1.5888-2.0498-2.31-3.1485V11.126c1.1406-.3516,1.4741,1.4912,2.31,2.0996m-3.7788-1.0508a2.40766,2.40766,0,0,0-1.2602-1.8887c-.0152,1.0664.9277,1.1719,1.2602,1.8887m10.0757.6309c-.272-.5743.8203-.8907,1.0513-1.2598-.4063-.084-.0191-.9619-.8404-.6299.0362.7559-1.04829,2.2266-.2109,1.8897m-11.9653-1.4698a1.88316,1.88316,0,0,0,.4194,1.4698c.251-.8741.7193.1621,1.2603.2099-.02979-1.0918-.9683-1.2715-1.6797-1.6797m3.7788,1.8897c.3149.0586.8838.9033,1.0493.4189-.7065-.8877-.4824-1.7129-1.6797-2.3086-.1997.3907.6294.7022,0,.8389.001-.1162-.1699-.2373-.2099,0,.539.5469,1.3266.291.8403,1.0508m11.5469-.4199c-2.0245,1.3935.9907-.084.2085-1.0508-1.17829-.0117-.9087,1.2656-.2085,1.0508m-16.5845,1.2587c.3144-.6933.5122.4366,1.0488.21-.0605-1.0156-.1509-1.1406-1.0488-2.0996-.1235.4375-.4419.6797-.6304,1.0508q.687-.05715.6304.6299c-.1182-.001-.2398.1689,0,.2089m27.0801,0c.0234-.3964.6933-.1445.6308-.6298-.5566-.2119-.0156-1.5254-1.0508-1.2598-.14639,1.4414.51961,1.0967.42,1.8896m-15.9541-1.0488c.9472-.622-.2344.6543.4194.8399-.1504-.5244.92431-.8633.21-1.2608-.104-.1445-1.1573.7432-.6294.4209m1.2588,1.0488c1.0024-.5478,1.101.1172,1.8906-.2089-.6494-.211.6015-.1993.4184-.6299-.3256-.0557-.1445-.461,0-.6309a3.87323,3.87323,0,0,0-2.309,1.4697m-10.4966.21c.3149-.0351.7754.0762.8403-.21-.3589-.0859.0444-.2705,0-.6298-.3057.1152-1.0854-.2452-1.0503.2099.2456.0352.229.333.21.6299m28.3403.8399c-.0137-.8243.3184-1.1582,0-1.6797-.2207.2187-.4316,1.499,0,1.6797m-31.69969-.42c.1074-.6836-1.0435-.4443-.4185-1.0498h-1.2612c.0366,1.0782.8496,2.2842,1.4712,2.0996-.3315.3125-.2339.9385.4194.8409.0044-.4952-.3618-.6192-.2109-1.2608a.91954.91954,0,0,1-.8379-.4189c.648-.0205-.6494-.8203,0-.8409.1812.3077.3135.6661.8379.6299m15.11569-.209c.20121,1.0079-.8491,1.378,0,1.8897.1924-.7422,1.8906-1.6582.8394-2.3106.2119.6319-.4668.3721-.8394.4209m13.2266,1.0489c.0332.0644.5488-1.0489.8398-1.2598-.9316.2764-1.2187.54-.8398,1.2598m-14.6963-.4199h1.0493a.98385.98385,0,0,1,.2109-.629c-.4672.1622-1.1396.1202-1.2602.629m4.4097.6298c.63721.0088,1.3803.1211,1.2588-.6298-.646-.1563-.4043.5771-1.0503.4199.062-.2481.8471-.793.2109-1.0489a7.57336,7.57336,0,0,1-.4194,1.2588m12.38421.8409c-.48821-.4932-.25-1.71-1.04881-1.8907-.0683.7725-.5176,1.1621-.6289,1.8907.6738-.1856.2871.6904.8379.6289-.1816-.6739.3242-.6573.6309-.8389-.0098.2227.0996.5322.20891.21m.83989-.8409c.041-.6005.0254-1.1455-.62889-1.0498.19329.3662-.00781,1.127.62889,1.0498m-14.0645.6309c.2891-.2695.3653-1.2559-.2099-1.2607-.148.5234-.2066.8632.2099,1.2607m10.4981.6289c.1933-.8887.3242-1.3711-.211-1.8896.1289.5703-.26749,1.666.211,1.8896m10.916.6299a1.931,1.931,0,0,0,.6289-2.5195c-1.56639.2753-.5078,1.7959-.6289,2.5195M32.33905,16.585c.6905.1015.8814-1.212.21-1.2608a1.78374,1.78374,0,0,0-.21,1.2608m-10.706.4189c-.6109-.1836-.2363-.3145-.211-.8398-.6601.1015-.4746-.6446-1.25869-.42.10349.6758.64939,1.9981,1.46969,1.2598m34.8491,1.2588c.2773.0039.1914.3691.418.4209.3066-.6289.86721-2.6826.2109-2.9395-.0801.837-1.55469,1.376-1.2598,1.8897.1016-.3731.2247.0918.42.2099.3613-.2685.0039-1.2558.6289-1.2587-.3672.7431.1406.5156.2109,1.2587a.57687.57687,0,0,0-.6289.419M17.85276,17.0039H19.114c.0176-.7285-1.1294-1.376-1.6806-.8398a.91822.91822,0,0,1,.4194.8398m49.54539,3.5693c1.459-.749,1.8574-1.7578,3.1504-2.9394.084-.5059-.3848-.4561-.2109-1.0488-1.668,1.0615-4.75,1.8261-4.4102,4.1972,1.0723.1533,1.92191-.957,2.0996-2.3086-.25969.6797.6797.1602.4199.8399-.5585.2099-.6914.8467-1.0488,1.2597m-40.727-2.3105c-.1075-.5225.0063-1.2656-.6299-1.2588a1.19906,1.19906,0,0,0,.6299,1.2588m21.6235.2109c.1152-.3056-.2461-1.0849.209-1.0498.0332.2461-.0371.5948.2109.6289.4336-.4316-.0019-1.0644-.6308-1.0488.09761.8262-.4395,1.0898.2109,1.4697m15.9551,2.7295a3.55734,3.55734,0,0,1,.6289-.8408c.2461.5498-.6484.9033.209.8408.4004-1.2451.97071-3.4638.6308-4.1992a3.07233,3.07233,0,0,0-1.4687,4.1992m-28.7622-3.1504v-.8388h-.8394a.97892.97892,0,0,0,.8394.8388M19.324,20.5732c-.0156-.1084.4438-.7871.4194-.8408-.5166-1.0586-2.164-1.9648-3.7788-2.3086.0806.9102.793,2.6748,1.2588,1.8897-.4546,1.164.3052,1.7822.6294,2.7285.896-.8877,1.7417.3838,2.73.6308-.04639-.3974.2363-.4638.21-.8408-.6792-.2597-.1602.6797-.83939.4209.687-1.0996-.5454-1.0576-.6294-1.6797m35.05659-1.6796c-.0351-.7374.709-.6905.8399-1.2598-.5664.0078-1.4102.8115-.8399,1.2598M38.847,18.0527c-.18559,1.3057-1.1119-.9726-1.2588.21.5268.417,2.311.5322,1.2588-.21m-18.89359.8409v-.8409H19.114c-.0991.6582.5279.5928.8394.8409m49.33349,1.0488c.5137-.4043,1.918-1.0117,1.2617-1.8897-.1191.7998-1.5039,1.4307-1.2617,1.8897m-33.3794-.8389c.5078.4365,1.3428-.2334.8403-.6299-.0576.4336-.9301.0498-.8403.6299m-11.9653,2.0996c-.57179-1.4717-1.6656-3.1465-2.9385-2.0996.8335,1.3633,2.34671,1.4424,2.9385,2.0996m17.2138.4199c.2471.1602.4678-1.0771.6309-.4199-.0283-.1142-1.1187,1.2969-.2109.8389a.21207.21207,0,0,1,0-.419c.3857.4444.7236.6084.4189,1.2598.1641.0459.4141.0049.4219.209,1.0234.1162,1.5781-2.4014.6289-1.2598-.0117-.2685-.2686-.29-.21-.6289.3975.0459.4639-.2363.8389-.2099.5586,1.0498.1094.1962.4219-.211.2441.3145.2597.8584.62891,1.0498.03119-.8799,1.03319-1.7988.209-2.3086-.46491.5157-2.14651-.1884-2.09871.8389-.2588-.4404-.581-.8184-.8408-1.2588a.98962.98962,0,0,1,.6309.21c-1.0762-1.9483-2.3135,1.7578-1.4698,2.3095m17.8438-.6298c.6719-.1778.957-1.8321.8398-2.0996a6.08319,6.08319,0,0,0-.8398,2.0996m2.3105,1.4687c.0352-.2441.33011-.2275.6289-.209.4961-.6181.3418-2.789,1.2598-2.3105a1.1727,1.1727,0,0,1,.2109-.8389c-.7832-.5762-1.5957.2676-2.31049.4199a1.1726,1.1726,0,0,0,.21089.8389c-1.373-.0732-.5136.9297-1.4707,1.0498.1485,1.8154.0157-.7187.8399.4199a1.33623,1.33623,0,0,1,.8398-1.2588c.0098.6397-.4433.8164-.62889,1.2588,1.293-.1816-.13671.5127.41989.6299M28.35036,19.9424c-.064.5547.43839.5429.83929.6308a.9262.9262,0,0,0-.4194-.8408c-.0464.1641-.1758.2442-.41989.21m28.76069,1.2607c.57231.0645.8574-1.2207.4199-1.4707.02541.2149-.9062.4258-.2109.6299.5332-.4336-.4414.2842-.209.8408m6.5078,0c-.4746.0977.4844-1.1396-.209-1.2607.0137.8535-.666,1.0156-.6308,1.8896.7461.3272.1269-.7119.6308-.6289-.0019.1153.17.2383.209,0m-24.7719.209v.8408c1.9501-.4902-.12159-1.9004-.6294-2.1006-.1216.9288,2.1401,2.0254.6294,1.2598m16.1625-1.0498a1.30633,1.30633,0,0,0-1.0488,0c-.2207.7969.6211,1.6006.8418,1.2607-.2832-.6904.0606-.3496-.6308-.6298.5253.0351.6582-.3233.8378-.6309m-18.6816,1.0498a1.18041,1.18041,0,0,1-.2109.8408c.5258.2764.6582-.8301.8403-.2109-.2925.5478-1.189.4902-1.0498,1.4697h.6304c-.2398-.6152-.12449-.7793.4194-1.0498.0864.5059-.3828.457-.2095,1.0498.7808.0801.5489-.8506,1.4698-.6289.1777-.8779-.5689-.832-.8404-1.2598.5225-.2734.8711.6153,1.0489,0-1.0079-.0888-.107-.873-.8379-1.0498-.0596.6944-.0664,1.2774-1.2603.8389m19.5234.4199h.8399c-.1172-.373-.1074-.8711-.4199-1.0498-.08989.4014-.4532.5274-.42,1.0498m16.16411.21c.5-.1299.97849-.2813,1.05079-.8389-.2813-.3506-1.1895-.0713-1.4707-.4209-.0215,1.0567-1.1016.1172-1.2578,1.2598.998.2558.8086-.8047,1.2578,0a9.54071,9.54071,0,0,1,1.0508-.8389c.1855.6738-.6914.2871-.63089.8389m-43.876.4199c.10309-.374.22559.0918.42089.2109-.10689-.5234.0069-1.2666-.6294-1.2607.1138.3066-.2451,1.085.20851,1.0498m19.52439.6299c.0645-.6357.6504-.749.42-1.6797h-.8379c.06251.6338-.2344,1.6338.4179,1.6797m11.336-.6299c.5547.0645.541-.4375.6308-.8389-.8691-.0556-.8457.2491-.6308.8389m7.76761-.6299c-.74221-.3662-.51571.1397-1.25981.21.5742-.3379-.3066-.7041-.4199-.21.2851.3858,1.63471,1.2129,1.67971,0m.83979,1.0508c.418-.0039.2676-.5732.8398-.4209-.58.2236-.3769,1.4805.209.8399-.5039-.126.627-.3243.211-1.0489-.3731.126-.8711-.6162-1.0489,0,.5997,0-.9121,1.1426-.2109.6299m-11.7559.209c.5918.0322.5254-.5938.8399-.8389-.6582-.0986-.9356.1826-.8399.8389m8.8184-.209c.6602-.6807.1563.5459.6289.6289.3125-.3691.877.1856,1.05081-.6289-.82031.4824-.65631-.5635-1.47071-.6299.373.5645-.9238.4053-.209.6299m-25.6128,0c-.33149-.0195-.16449-.5361-.6308-.4209.3491.915-.8755,2.9717.4209,3.3594.0307-.6582-.3311-1.1602-.21-1.4707.6387.0625.2895,1.1113.8408,1.2607-.3281-.2822.8589-1.874-.4209-2.3095-.0356.3134.0752.7753-.2099.8408-.4629-.4444.2695-.6221.2099-1.2598m7.3472-.4209c-.0625.2471-1.1113.5274-.4199.8399.0127-.128.03221-.2481.2119-.21v.6299h.4189c.0313-.2471.3731-.4756,0-.6299-.51659.6904.4297-.624-.2109-.6299m-1.88869.2109c-1.43071.1778-1.54981,1.5499-2.72851.419v1.2588a4.72155,4.72155,0,0,1,2.51851-.8389c-.01171.2686-.26951.2901-.20891.6309.3964-.0479.46191.2353.83791.208.55949-.3985.39449-1.7998-.209-1.4678.06049.502-1.07421.3779-.21-.21m3.98829,1.8877c.0078.6924-.0859,1.4864.6289,1.4698.25981-.6787-.6777-.1602-.418-.8389.7637.001.25781-1.0635.8379-.2109.4336-.4922.2188-1.6133-.4199-1.6787.0332.7949-.1699,2.1738-.6289,1.2587m.2109-1.8877c-.3789,2.6524.9043.7081,0,0m14.2754.21c-.1172.8799-1.7539-.5771-1.2597.6289.2363-.375,1.9023.2432,1.2597-.6289m-14.9062,1.6777c0-.374.5664-1.2197,0-1.4687-.1797.6553-.6153.9033,0,1.4687m26.0312-1.0488c-1.0781.2998-2.0683-.5781-2.7285,0,.584.3692,2.25391.7656,2.7285,0m-48.914.4199c-.6294-.0263-.66359-.832-1.6783,0,0-.1162-.1704-.2373-.2109,0a1.47841,1.47841,0,0,0,1.8892,0m8.1875,0c.541.1739,1.7558.1612,1.2597-.4199-.1841.4776-.9902-.4287-1.2597.4199m7.1381.6289c.1621-.1435.5469-1.25-.2099-1.0488a.671.671,0,0,0,.2099,1.0488m27.0806-.6289c-.6035-.042-1.0644.0528-1.25779.419a.7708.7708,0,0,0,1.25779-.419m.6289,1.6797a18.66238,18.66238,0,0,0,1.4707-1.6797,4.81482,4.81482,0,0,0-1.2598.419c.0918.8916-.38859.9746-.2109,1.2607m-55.84029-.6308v-.8379c-.3052.1133-1.086-.2461-1.0493.208.5932-.0322.4882.6318,1.0493.6299m31.70069-.209c-.5938.1738-.545-.2969-1.0508-.211.209.6504-1.1172.8164-.4199,1.2608.248-.5928,1.041-.6387,1.67961-.8408.08789-.4619-.62891-1.1573-.83981-.6299a1.50359,1.50359,0,0,1,.6309.4209m-7.3487.6299c.3863.1836.7364,1.1298,1.0489.2099-1.0347-.1279-.0904-.9326-.8394-1.2607.1738.5947-.29589.5449-.2095,1.0508m3.3594.4199c.2837.0654.4009.2978.8394.209-.4043-1.1143,1.6811-.8223,1.0483-1.4698-.56449.4854-1.8403.2588-1.8877,1.2608m3.9893,1.2588c-.5235.0332-.6504-.3291-1.0508-.419-.2354,1.3125-.61329,1.1856-.21,2.7285.0225-1.1123.1192-.247.419,0,.5156-.2793-.378-.6337.2109-.8398.5566-.0664-.1973,1.1758.6309.8398.1191-.3691-.2549-1.2334.20891-1.2597.51469.2793-.37891.6338.21.8408.39749-.3066-.06351-2.1016.83889-1.2607.1494-.6543-1.17389-.9034-.41989-1.4688.34759.0029.11709.5811.41989.6299.251-.6533.11911-1.8477-.83889-1.8906-.25881.6806.67869.1611.419.8408-.29891-.0498-.35361-.3457-.629-.4199-.04681.163-.00581.414-.20891.4199.0937.5703.1992.9834,0,1.2588m9.2353-.419c.0391-.3115.5078-.1924.8399-.2109-.0782-.9883-.2637-1.0547.4199-1.4697-.7129.1357-1.8496.9394-1.2598,1.6806m-17.0039-.2109c-.1289-.29-.8081-.0303-.8403-.4199.5644.1455.4067-.4336.6294-.6289a1.17913,1.17913,0,0,1-.8379-.21,2.57442,2.57442,0,0,0-.6309,1.8887c.6021-.5391,1.9229,1.7802,2.0996-.209-.6142.2793-1.0317-.0059-1.4687-.4209.373-.125.8711.6162,1.0488,0m-24.77149-.8389c.0703.7422.0122,1.0811.2095,1.2598.189-.3701.7734-.3477.8394-.8408-1.3042.3515.1958-.9756-.4195-.419-.2993.0811-.3535.252-.6294,0m21.83209.419c.79391.1425,1.1298.2578,1.2597-.6289-.46679.163-1.1382.1211-1.2597.6289m13.8574.8408c.02151-.7061.4179-1.1113-.211-1.4697-.3867.3828-.1132,1.1767.211,1.4697m20.5722-.21c.002-.417.57231-.2675.418-.8398-.9902.1396-2.5215,1.0078-1.88669-.4199-.72271.1953-1.90431,1.0254-1.67971,1.4697.2031-.2139.4141-.4248.6289-.6299.1543.7285-1.1094,1.1104-.4199,1.6787a1.1499,1.1499,0,0,1,.8398-.8398c.2735-.5215-.6172-.8701,0-1.0498,1.0938,1.3408,1.4981-.0684,2.0996.6308m-40.5166.21q.1443-.9873-.8413-.8408c-.0976.6582.5288.5927.8413.8408m-14.48629.4199a.9238.9238,0,0,0,.8394-.4199c-.5513.0615-.1646-.8154-.8394-.6299.2173.6856.5322.4443,0,1.0498m1.0503-.8408v.4209c.416.3486.2671-.0186.8394,0v-.4209c-.5723.0205-.4234-.3486-.8394,0m42.61669.2109c.0098-.1289.0293-.248.209-.2109.03121.2471-.0371.5967.209.6299.0508-.2998.3457-.3535.4199-.6299-.1152-.3906-1.6328-.2149-.8379.2109m-33.8003.8399c.0112-.1289.0313-.2491.21-.21,0,.1152.1699.2373.2099,0a12.37236,12.37236,0,0,0-1.4687-.8408c-.1846.6748.5444.4365.6294.8408-.1172-.001-.2383.1699,0,.21.0508-.2295.3457-.5049.4194-.21-.1157-.001-.2383.1699,0,.21m27.9214.8398h.6289c-.0762-.833.49221-1.2832-.209-1.6797a.98555.98555,0,0,1-.2109.6299c1.0762.1192-.6836.2217-.209,1.0498m4.1992,0c.6582.0293.7207-.539.83791-1.0498h-.83791c.125.669-.3945.6494,0,1.0498M9.66676,28.1299c-.3267-.7451.7124-.126.6294-.6289-.8316.1855-1.2832-.0459-1.6797.209.4009.0898.3799.5996,1.0503.4199m23.30219-.21c-.2729-.3662-1.333-.7666-1.2593.21.7422-.1846,1.0811.539,1.2593-.21m-6.9277.6299c.4785.0596.7895-.0498.8393-.4199-.2768-.002-.1909-.3672-.4204-.4199-.0024.4179-.5722.2675-.4189.8398m15.1147.4209c.5362-.2266.73441.9033,1.0498.21-.2441-.0362-.2285-.333-.2109-.6309-.47749-.0576-.7881.0508-.8389.4209M15.33426,30.0195v-.8388c.3022.2343.5131.2255.6303-.21a6.39083,6.39083,0,0,0-2.52.6289c.2451.0352.2285.333.21.6299a3.32077,3.32077,0,0,0,3.5688-1.2588,2.976,2.976,0,0,0-1.8891,1.0488m31.48969.6299a1.37469,1.37469,0,0,0,1.0508.21c.1562-.6455-.5781-.4033-.4219-1.0498.1641-.0459.4141-.0059.4219-.21-.9043-.2031-.582.8184-1.0508,1.0498m-21.8325,1.8887c.248.0312.4756.375.6294,0-.1626-.0459-.4131-.0049-.4199-.21,1.08-.3496.5546.9776.8403.4199.5322-.165-.5908-.7343,0-1.0488H25.201a1.17718,1.17718,0,0,1-.2095.8389m21.8325.4209c-.4902-.586.5586-1.6289-.6279-1.6797.333.5449-.4082,1.5254.6279,1.6797m-35.47749-.8399c-.2994-.6377-1.48-.2187-1.8897.209.1636.0479.2432.1758.21.4199.6748.1856.2871-.6914.8393-.6289-.3017.3077-.1611.6641.4209.6289-.4155-1.1103,1.0752-.1972.4195-.6289m56.88959,0c-.082-.4072.959-.3076.6309.209a1.784,1.784,0,0,1-1.2598-.209c-.1094.3096-.3105.5293-.4199.8399,1.1308.0849.8808-.5869,1.8906-.211-.1269-.373.6152-.8711,0-1.0488.1113.1973-1.51949-.1348-.8418.4199M2.52856,32.748c.3247-.6328-1.0869-.5517-1.0493-.2099.2002.1103.6958.9433.8393.4209-.2275-.0508-.5034-.3457-.2094-.4209.0463.164.1762.2441.4194.2099m14.6948.4209h.8403c.0254-.5253.4009-.6582-.2109-.8408-.0981.8819-.1631.1494-.6294.8408m6.50879-.2099c.1768.1963,1.3374.4482,1.4688,0-.626.0361-1.2842-.8067-1.4688,0m41.3555.4199c-.3418-.1328-1.6211-.7959-1.0489,0,.0469-.165.1758-.2441.42-.21-.5567.4229.6211.9102.6289.21m-33.378,1.0498c.34671-.2129.2276-.8916.42-1.2598-1.0459-.2607-.34129,1.8311-.42,1.2598m-29.18109.419c1.0117.0673.9033.3183,2.0991.4199.4297-.6905,1.6646-.5742,2.0996-1.2598-1.8633-.1484-2.1987.4844-3.3584.4209.0113-.2685.2686-.291.21-.6289-.4131.0625-.4165-.2842-.6294-.4209-.0034.3467-.583.1172-.6309.4209,1.3321-.2783.7466.8994.21,1.0479m40.72609-.8399c.2236.4863,1.5-.0986.8418-.4189-.0127.1279-.0313.248-.211.2109-.0468-.1641-.0049-.415-.2109-.4209-.0488.2988-.3438.3535-.4199.6289m-20.1529,0a.21308.21308,0,0,1,0,.4209c-.4506-.3193-.62739-.9121-1.4687-.8398.2065.6406,1.3979,1.3896,1.8896,1.0488-.2109.0908.0782-1.2608-.4209-.6299M5.888,35.0586c.6548.1475,1.9677-.1104,1.2588-.6299-.189.4395-1.1851.0742-1.2588.6299m3.9873-.4209c-.0254-.4629-.8897-.0879-1.2588-.209-.1455.5381,1.5879.8135,1.2588.209m3.1499,1.2598c-.918.1494-1.4302-.1094-1.6787-.6299-.9453.7881,2.0361,1.1269,1.6787.6299m-2.5191-.21c-.0366,1.0234,1.0523,1.1445,1.8897.8408-.5791-.332-1.3389-.4814-1.8897-.8408m53.74369.21c-.1289-.0118-.2481-.0303-.211-.21.30861-.4863.6661.4102.6309-.4199h-1.2598c-.0566.4306.81451.9726.8399.6299m0,1.0507c.2832.0655.3984.2979.8379.21-.2676-.8301.6133-.5088.6308-1.0508-.6757.1856-.289-.6914-.8398-.6289.17971.4883-.7344.9043-.209,1.0498a.21149.21149,0,0,1,.418,0c-.1289.2901-.8067.0313-.8379.4199m-7.7676,0c-.5371.1602-.96679.3077-1.2617-.2109.164-.0469.416-.0059.41991-.209h-.63091c-.16209.8106,1.2872,1.2168,1.4727.4199m2.5176,1.6797c.18361-1.0234-.35739-1.3232-1.0488-1.4697.0937.7461.7597.9189,1.0488,1.4697m-12.5957-.6308c-.0664.2841-.2979.4004-.208.8388-.3721-.3886-.6514.0557-.8418.4209.7539.0528.7695-.6308,1.4697-.6289.2266.5352-.9033.7344-.209,1.0489.1856-.4434.6387-.6211.6309-1.2598-.5176-.1826-.4727-.9307-1.2617-.8399.083.3614-.3106.5381,0,.6299.0517-.2275.3457-.5039.4199-.2099m13.4355.4199c.0117-.1289.0313-.249.211-.21v.6289c.6406.1524.7636-.2138,1.2597-.208.0625.4834-.6074.2324-.6308.6289.4394.1201.5996.5205,1.2597.42.03521-.6651-.5586-.7012-.4199-1.4698-.6348-.2412-2.0488-.6386-1.6797.21m-42.40619.2109c.2451.0352.2285.3311.2109.6289-.9682-.5683-.9033.8604-1.0503,1.0489.0586-.0733-1.144.5703-1.0488,1.2607.9497-.1006,1.2432-.8564,1.8882-1.2607-.1621-.0469-.4141-.0049-.4185-.209.8726-.1768.9883-1.1104,1.2588-1.8897-.478-.0586-.7886.0508-.8403.4209m-2.9385,2.0987a.92432.92432,0,0,0,.4194.8398c-.1543-.8662,1.3926-1.1133.8404-1.6797a1.48319,1.48319,0,0,1-1.2598.8399m53.95209.4199c1.1993-.0772,1.2286-.2529,2.1016,0-.1933-.8252-1.75-.8096-2.1016,0m-50.80269.2099a1.00353,1.00353,0,0,0,1.2588-.6298c-.6958.2138-.9111-.1202-1.2588.6298m40.93559-.4209a1.18125,1.18125,0,0,1-.8399-.2089c-.0312.2461.0371.5957-.209.6298.1993-.6845-1.332-.8183-.6308-.2099.0136-.1279.03121-.2481.2109-.211.1328.7481,1.3906.9258,1.4688,0m-47.02349.4209c.3159.9434,1.9834.5342,2.9385.8389-.0034-.625.02-1.2783-.6294-1.2598a4.90882,4.90882,0,0,1-2.3091.4209m38.416.21c-.23431-.0449-.32611-.2334-.41991-.4199.2481-.0332.5977.0351.63091-.211h-.83991c-.1679.7295.3125.8086.209,1.4698.6485.1572.25591-.7237,1.0508-.42-.0625.4278-.41989.5606-.63089.8399,1.39849.04.73439-.8486,1.89069-.21.3222-.3193.373-1.4384-.42-1.2588-.2148-.0253-.4238.9063-.6308.21,1.5176-.8652-.0391-.5322-.83989,0m-8.18551,1.2588c1.2119.2236.3838-1.9414,0-1.2588.6748.3369-.7388.7842,0,1.2588m24.98051-.4199c-.38481.0107-.711-1.0752-1.04891-.42.1993.1758.6778,1.1094,1.04891.42m-24.14161,0c-.3555,1.125,1.2187.3203,1.4707.8408-.2696-.5264.1054-.6572-.211-.8408-.3359.6074-.78509.2539-1.2597,0m-17.0049.6299a.98907.98907,0,0,1-.6294-.21c.1025.6621-.3789.7422-.21,1.4697.5943-.0351,1.44.1807,1.4697-.4199-.1635-.0459-.2441-.1758-.2099-.4189-.7783.1074-.5288.3574-.4204-.4209m37.998.6298c.8887.4082,2.2481.1983,2.3086-.8398-1.1367.3047-1.24609.8154-2.3086.8398m2.73051,0c.27729.003.18939.3682.418.42.02339-.2559.06249-.4971.41989-.42.2773.003.1933.3682.4199.42.7305-.4122-1.0977-1.3829-.6289-.8389.8008.3623-.8184-.0166-.62889.4189m-44.08691.21a.99137.99137,0,0,1-.21.6299c.7798.4228,1.31891-.2119,2.0996.2109.1866-.25.1724-1.5693-.6294-1.4697-.4697.6123-.5127,1.3115-1.2602.6289m-5.03909.21c-.6899-.3116.624-.3262.6294-.6289h-.8379a1.48713,1.48713,0,0,1-.4209.6289c0-.1163-.1699-.2383-.2099,0,.1294.0615.8076.5224.8393,0m12.17629.4199c.4848-.0645.2329.6074.6304.6299V43.875a.98466.98466,0,0,1-.6304-.21c.0849.7149.647.3457,0,.8399m4.40971-.21c.53409-.0244,1.07859-.039,1.04879-.6299-.6006-.042-1.145-.0263-1.04879.6299m20.78219.8399c-.3184-.5205-.3731-1.3057-1.0488-1.4698.1523.6416-.2149.7657-.211,1.2588.4668-.0908,1.1387.6494,1.2598.211m-34.84819-.8399a3.46089,3.46089,0,0,0-1.4697-.4199c.063.4131-.2837.417-.4209.6299.7334-.3858.8916-.0401,1.4712.2109.0464-.164.0044-.415.2085-.4209,0,.1162.1714.2383.2109,0m50.38329-.4199c-.3925.4111-.7695.0654-1.2597,0,.1679.7422,1.0508.7686,1.2597,1.4697.68171.1221.9766-.1435,1.4688-.2099-.0488.2998-.3457.3535-.418.6298a1.0262,1.0262,0,0,0,1.0488-.4199c-.8046-1.0967-2.1972-.3711-2.7285-1.0498.2793.0322,1.1563-.3301.6289-.4199m-1.8906.6299c.8067.5244,1.1465,1.5146,2.3125,1.6797-.3535-.8438-1.6699-1.8243-2.3125-1.6797m-7.34569,0c.875-.0352,1.03519.6435,1.88869.6299-.2403-.6602.3301-.5108.4199-.8399-1.3789.1504-1.6367-.5244-2.30859.21m7.13669-.21c-.916.0459-.8301,1.3623-.6289,1.4697.2715-.1953,1.0156-.4228.8379.42,1.4766-.1758-.3066-.8926.2109-1.2608-.3007-.4629-.5117.2656-.6289-.208.1622-.0469.2442-.1767.209-.4209m-42.8261.4209c-.2994.5069.124,2.4756.8403,1.8877-.521-.6416.3725-.5361,1.0493-1.2588-.3589-.3633-.8247.3086-.8394-.6289.26421.0449.4288.3252.42-.2109-.4927.0674-.7876.332-1.4702.2109m-3.9888.8389c.3115.3144,1.0859.0185,1.0503-.6309-.26809-.0107-.2905-.2685-.6294-.208.15231.5723-.4185.4219-.4209.8389m10.2881.4209c-1.1411-.2666-.37989-.7168-.63089-1.2598-1.69041.4834.939,2.3223,1.67969,1.6787-.36669-.1269-1.5693-1.3174-1.0488-.4189m34.84911-1.2598c-.375.1143-.87311.1065-1.05081.419.6992-.001.71681.6836,1.46881.6298.00969-.8222-.44341-.6503-.62891-.8408.12891-.0107.248-.0302.21091-.208m-47.6548.8389c1.2149-.1817-1.1089-1.1524-1.4712-.4199.4771.1533,1.6377-.378,1.4712.4199m-5.04,1.0488c.0571-.4326.9297-.0488.8403-.6279-.1636-.0488-.4141-.0069-.4199-.211.6596.0997.8584-.2617,1.0493-.6298-.6802.166-1.8267.9609-1.4697,1.4687m10.917-.209c-.3809-.2676-1.22219-1.2802-1.4698-.4189.3658.4199,1.8013.5215,1.4698.4189m26.0317-.4189c.5605-.1221,1.3125.6191,1.6797,0-.3945-.0508.1191-.3457-.209-.4209-.2734.6396-1.3652-.5723-1.4707.4209m-32.11959.6279a3.71939,3.71939,0,0,1,2.30909.4199c-.04739-.3965.2363-.4629.2109-.8388-.7168.3447-2.02-.794-2.52.4189m17.63329.8408c.3979.0459.4638-.2363.8403-.2099-.2241-.794-.10789-1.1299-.6294-1.2588-.6846.3447.3833,1.1387-.2109,1.4687m36.7402-.2099c-.0644-.5528.8125-.1651.6289-.8399-.6953.3047-1.0312-.0342-.4199-.4189H72.01536c.06449.4121-.28121.415-.41991.6279.9316-.5713,1.3203.2139,1.2617.6309m-41.5669-.211c.1216-.5615-.8647-1.0673-1.0503-.6289.4946.0645.3911.7285,1.0503.6289m28.7603-.4199c-.6934-.1074-1.0489-.3135-1.4707,0,.332.4248,1.1699.6055,1.4707,0m2.7285.6309c.75.3789.5644-.3594,1.6797,0,.05861-.4795-.0508-.7891-.42-.8399-.2285.4707-1.0312.3692-1.2597.8399m-46.395-.211a7.8325,7.8325,0,0,0-1.4698.4209c.7012,1.1582-.458.4883-.2094,2.0996a.92565.92565,0,0,1,.8403.419,1.915,1.915,0,0,0,1.4697-1.2598c-.4795-.2881-.7895.542-.8403,0,.6977-.6435,1.5659.1797,1.6782-1.0488-.6611-.6729-1.9058.6543-2.3076.21a1.90122,1.90122,0,0,0,.8389-.8409m10.91739,1.0508c-.2695-.0127-.2915-.2695-.6303-.2099a.98608.98608,0,0,1-.211.6289c.53321.0927,1.5196-.4141,1.0498-.6289-.0107.1279-.0307.248-.2085.2099M13.44456,51.2227c.9385-.3116.9199-.5752,1.6797-1.2598-1.4409.2871-.3125-.9375-.8394-1.6797a12.11658,12.11658,0,0,0-.8403,2.9395m2.1006.6298a7.40178,7.40178,0,0,1,2.0991.21c-.0796-1.0068.3633-.1787.6294-.8398.0874.5283,1.6191.6845,1.6797,0-.9981-.3145-1.5933-.9043-1.2588-1.6788.3877.0313.1279.711.4194.8389.5103.1358,1.64549-.1416,1.0494-.4199.14989.3408-.9898.3408-.8394,0,.5259.0371.5078-.4688.8394-.6289-2.1338-.9717-3.5938-.0918-4.6182,2.5185m12.8052-2.5185c-.05081.2988-.34521.3545-.41951.6289.5201.0312,1.0181.039,1.0494-.419-1.129-.164.604-.122.4194-.6298a9.28964,9.28964,0,0,0-1.6787.2089c0-.1162-.1709-.2373-.211,0,.2915.8204.5953-.2177.84041.211m.83929,1.2588c.3482-.6407.5366-.461.6309-1.0489.3301.0186.1631.5352.6294.419.54341-.5401-.1758-.8897-.6294-1.0488.0869.7275-1.1983,1.164-.6309,1.6787m-4.1982-1.2588a1.04962,1.04962,0,0,0,.8388,1.0488.779.779,0,0,0,0-1.0488c.1636-.0479.4156-.0069.4209-.211-.6416-.1513-.7651.2149-1.2597.211m34.2192.2099c.959-.3779,1.7813,2.0733,2.3086.21-1.0664.1123-.5683-.1787-.8398-.6309a1.87428,1.87428,0,0,0-1.4688.4209m-6.7187.8389c.4355-.873-1.14259-.7871-1.2598-.4199.4629.5683.69921.0576,1.2598.4199m-29.3902.6309c.2232.0869.4883,1.1504.21,1.0488-.4771-.1523-.063-1.1973-.83939-1.0488v1.0488a3.929,3.929,0,0,0,1.67969.21c-.4663-.501-.1679-1.7305-1.0503-1.2588m1.0503.6289c1.3701.2168.7764-1.4795,0-1.4698-.6206.5274-.1382.7041,0,1.4698m3.3579-.4199c.94.3701.75541-1.1104.211-1.0499a1.36563,1.36563,0,0,1-.211,1.0499m6.08841-.8399c.15679.6475-.72361.2559-.41991,1.0498,1.1411.0108.33591-1.3662,1.4697-.6299v-.4199c-.0117-.1279-.0307-.248-.2095-.21-.04.3106-.50829.1924-.84029.21m39.67679,0c-2.5.1445-1.6309,1.0967,0,0m-43.4546.8399a.57455.57455,0,0,0-.6309-.42c.3369.6485-1.3559,1.208-.4194,1.6797.0332-.248-.0366-.5967.21-.6299.1909,1.3184.852.8828.8403,1.6797.56981-.3535.9824.334,1.25881-.4199-.98291-.0264.22949-.3057,0-.8398-.42091-.0469-.85061.9365-1.25881.2099.1621-.0469.4131-.0058.4194-.2099-.16359-.0469-.415-.0049-.4194-.21.3965-.0459.4624.2363.8389.21.0253-.5254.4008-.6573-.2095-.8399a.92086.92086,0,0,1-.8394.4199c-.0034-.2773-.3686-.1923-.4209-.4199.2783-.0019.1924-.3672.4209-.4189-.0097.2216.0982.5332.21.209m1.8891.2099c.28371.0664.4009.2998.8394.21.0586-.4776-.0508-.7891-.4194-.8399.063.4131-.2842.417-.42.6299m22.042,0c1.002.377,1.1739-.2373,1.88871-.6299a3.92422,3.92422,0,0,0-1.88871.6299m-32.3296,0c-.1831.4326.5455.9424.6304.4199-.51409-.1582-.0449-.6259.21-.2099v-.4199c-.0122-.128-.0318-.2491-.21-.209a.57381.57381,0,0,1-.6304.4189m42.8277.4199c.8262.2686.5449-.5752.8379-.8388h-.418a.91577.91577,0,0,0-.4199.8388m0,.21c-.5235.0176-.9317-1.1455-1.2598-.6299.2813.2246.75,1.3272,1.2598.6299m2.7285.4199c-.5801-.2588-.7441-.9346-1.2598-1.2597.0586.5488.0723,1.0507-.6308.8398-.1387,1.291.8926.3144,1.26171.8408-.082.1074-1.02151.3096-.42191.418.7774-.4326.3555-.8926,1.0508-.8389m-33.37989,0c-.02541-.4658,1.36479-.5693.62939-1.0498-.1401.2998-1.2832.6485-.62939,1.0498m35.89939-.6299c-.5097-.6533-.9297-.1582-1.2617.42.8477.3964.6328-.5987,1.2617-.42m-44.5063,2.0996c.4404.0665.668,1.4092,1.2597.629-.3193-.1866-.8955-1.1797-1.2597-.629m1.6797.629c-.1304-.5694.2661-1.6651-.211-1.8887-.1572.2793-.75879-.7666-1.2592-.8399a1.59118,1.59118,0,0,0-.4195,1.4688,4.8234,4.8234,0,0,1,1.8897,1.2598m27.7094-1.6778c-.2753-.4092.51181.2637.8399.209-.1524-.5723.418-.4229.41991-.8398-.75191.124-1.01371-.2442-1.46871-.42-.2012.7608.9433.1758.8378.8399-.373-.1162-.86909-.1074-1.0488-.4199.0098-.2237-.0996-.5332-.209-.21-.0097.3828.4434,1.3437.6289.8408M18.48366,53.9521c.3711-.3515-.1856-.7031,0-1.4697-.7188.1201-2.4746-.5801-3.3594-.2099-.1294,1.1298,1.2104,1.1162,1.8906.8398-.582.8613,1.3052.3369,1.4688.6299-.357-.0479-.5191.2363,0,.2099m32.53949-1.4697c-.3652,1.0078,1.7617.6035,1.0508.21a.21377.21377,0,0,1-.4219,0c-.0215-.2354.3047-.3272,0-.4199-.0351.2441-.332.2285-.6289.2099m-31.27979.8389c-.0893.4014-.6006.3799-.4194,1.0508a11.15678,11.15678,0,0,1,1.67969.4189c.062-.4131-.2852-.415-.4209-.6289.4673.0898,1.1387.4824,1.2602-.21a10.66063,10.66063,0,0,0-2.09959-.6308m2.09959.2109c-.4052-.4853-1.22259-1.4472-1.88959-.6289.26709.291,1.02689.0899,1.05029.6289.5718.0186.4209-.3496.8393,0m34.4283,0c.0859-.4726,1.1504.0313,1.0488-.6289-.1621-.0478-.2441-.1767-.209-.4209-.5859-.0791-1.3594.7178-.8398,1.0498m18.0547-.4199c.6152-.3105.7793.2363,1.0488-.4199-.6035.0293-1.6367-.5821-2.0996,0,.5136.4726,1.6113-.3047,1.0508.4199m-62.14019.209c.5254-.2774.5103.9785.8394.2109-.5225-.1435.31-.6396.4194-.8398a3.91275,3.91275,0,0,0-1.2588.6289m15.53519-.209c.4087-.5498.1435.6777-.211.6299.939-.3887.5425.1885.211.6299a.78413.78413,0,0,0,1.0493,0c.1699-.9219-1.2778-2.1944-1.0493-1.2598M13.86546,54.3721c.1885-.3711.5068-.6133.6294-1.0508-.6792.2598-.1602-.6787-.8403-.418-.2119.208-.0786,1.1436.2109,1.4688m47.86479-.6299c-.3692-1.1485-1.04889-.7119-2.0997-.6299-.2773.5254.8301.6572.209.8398-.3691-.1904-.3476-.7734-.8398-.8398a8.84036,8.84036,0,0,0-1.2598.8398c.3945-.9677-1.3164.3692-1.8887.42-.1543.7148.7735.3466.8399.8388-.38479.3379-.7109-.1933-1.05079.4209.73239.0616-.01761.5674.41989.6289,2.0157-.7138,3.3672-2.0937,5.67-2.5185m-47.23539.2099c1.1294.1622-.605.1211-.4199.629.2153-.0235.4243.9072.6299.2099-.5689-.3164,1.0171-.2217,1.0498-.6289-.9053.2744-.2603-1-1.0498-.8408a.99179.99179,0,0,1-.21.6308m10.49659.21c-.2686-.3467-1.0186-1.2861-1.2593-.4199.3955.0439,1.0903.8418,1.2593.4199m2.0991.8398c.1724-.1533.563-1.4541-.21-1.2597.1216.3691-.2539,1.2334.21,1.2597m-9.23779-.4208c-.2524-.044-.1289-.2325,0-.419-.4932-.1484-1.3306-.4814-1.2588.419.791-.0206.9566.333,1.2588,0m6.92869.8408c-.021-1.3145-1.959-1.6963-2.30909-.42a10.308,10.308,0,0,1,2.30909.42m6.9282,0c.51271.1386.7666-1.0205,1.0494-.42.0244.2149-.9058.4239-.21.6299.3589-.2011.4595-.6591.6294-1.0507-.64009.1523-.7642-.2139-1.2588-.209.1733.5927-.2959.5429-.21,1.0498m17.0049-.6309c-.2109.6318.46681.3721.8379.4199v-.6298a1.18238,1.18238,0,0,0-.8379.2099m3.7774.8408c.5547.0625.541-.4384.6308-.8408-.2695-.0107-.291-.2685-.6308-.2099Zm13.0156-1.0507c.8379,1.0937,1.4922,1.0781,2.7285,1.6796-.8652-.8623-.3066-1.8066-2.7285-1.6796m-49.333.6298c-.4009-.0898-.3799-.5996-1.0503-.4199-.2495.624.8857.9024,1.0503.4199m20.15329.6309c.4419-.4395-.2768-.7891-.6304-1.0508.0245.5361.0396,1.0811.6304,1.0508m19.5234,1.0488c.3848.8418,1.6582.5596,2.7286,0-.0293.2481-.3731.4756,0,.6309.1132-.4951.9941-.1299.4199.209.9101-.3496,1.2109-1.3086,1.6797-2.0987-.2559-.0244-.49609-.0634-.42-.4209.2676.0118.2911.2696.63091.211V54.791c-2.01761.2432-3.13871,2.4346-5.03911,2.0996m12.1758-1.6797c.4395.1211.5996.5215,1.2598.4209-.0352-.3144.0762-.7754-.209-.8408-.0469.1641-.1777.2451-.4219.2109-.0742-.2177-.1933.2696-.6289.209m-55.84129,0c.3379.8887,2.1841.7071,2.7285.211-.9428.3017-1.6484-.7149-2.0991-.211.5278.3946-.3491.0244-.6294,0m16.79449.6309c.65911.0986.8569-.2617,1.0498-.6309a1.36683,1.36683,0,0,1-1.0498-.209c-.0201.5723.35.4219,0,.8399m3.5688.6289c.5049.5078.5557-.5088,1.4697-.21-.247-.5566.4024-1.2353,0-1.2588-.62839.8077-.9526.6153-1.4697,1.4688m10.0767-.8389v.6289c.5732.1524.4238-.417.8398-.4189a.92365.92365,0,0,0-.4199-.8399,1.18326,1.18326,0,0,0,.209.8399.98958.98958,0,0,1-.6289-.21m7.9775.8389c-.457-.3701,1.168.2041,1.2598-.6289-.7578.1035-.9161-.8418-2.0996-.8399.0468.3965-.2364.4629-.211.8399,1.084-.7041-.1719,1.1768,1.0508.6289m15.1152-.4189c-.3574.0859.043.2705,0,.6289-.3066.0029-.666-.8848-.6308,0,.832.0586,1.5449,1.3076,2.3105.4209-.7363-.667-1.9062-2.0088-2.7285-1.8907.4805.3711.6738.8799,1.0488.8409m-48.28509-.6299c-.1558.7988,1.3603.4541,1.0503-.211-.5933-.1738-.5445.2969-1.0503.211m1.2612,0c.1235,1.2978,1.74269.3633,1.88819-.211-.65669.044-1.54049-.1406-1.88819.211M30.24,56.4707c1.1167.2334.8491-.8984.4195-1.2598-.1202.4395-.521.5996-.4195,1.2598m-9.4472,0a1.41038,1.41038,0,0,0,1.4697-.6289c1.1108.2139-1.3814-.5332-1.4697.6289m14.0654.21a1.71005,1.71005,0,0,0,1.2588-.42c-.5518.0625-.16459-.8144-.8379-.6289-.0908.3994-.6011.3799-.4209,1.0489m19.1025-.8389c-.0176.5713.3516.4228,0,.8389a.92615.92615,0,0,0,.8418-.42c-.418-.0029-.2676-.5732-.8418-.4189m1.47071.4189c.44729-.7714-1.06831-.9463-.83981-.2089.3965-.0479.4629.2363.83981.2089m-40.7265,0c.913.0049,1.1616.3711,1.4697-.4189a1.87762,1.87762,0,0,0-1.4697.4189m3.3588-.2089c-.7529-.1241-1.0156.2431-1.4697.4189.0088-.2227-.0981-.5322-.2099-.21.2387.6143,1.3086.4786,1.6796-.2089m14.69539,1.0498c-.57869-.1094-1.0679-1.6241-1.4688-.6309.43511.0547.0562.9219.4194,1.0508.5201.0303,1.0181.0381,1.0494-.4199m14.2758-.8409c.0704.4893.2149.9053.6289,1.0498.043-.2529.2325-.1298.42,0a1.00164,1.00164,0,0,0-.6309-1.2587c-.0449.163-.1738.2431-.418.2089m-29.18209.6299H19.324c-.083-.3613.3115-.5381,0-.6299-.2993.335-1.3662-.3115-1.4712.6299m16.166.4199c1.0615-.1582.4263.5498.209.8399a2.5937,2.5937,0,0,1,1.2598,1.6797c.5732.0185.42281-.3496.8403,0,.1704-.7266-.3921-.8867,0-1.2598-.6601-.2412-.5102.3301-.8403.4199.1855-.6748-.6914-.2871-.6294-.8398.5366.5361,1.3188-.3467.8393,0-.1635-.0469-.414-.0068-.4184-.21.2768-.0019.1909-.3672.4184-.4189.48391-.0654.23291.6054.6304.6289-.0054-.4942.3613-.6182.21-1.2598-.731-.001-2.3291.4834-2.0992-.4199-.0024.418-.5732.2676-.4199.8398m9.2359-.4199c.2568.0244.498.0645.4199.4199.6777-.4218,1.168.6846,1.4707-.2089-.1543-.2217-.7998.1435-.83989-.6309-.52141-.0303-1.01951-.0381-1.05071.4199m9.2373.6309c.0937-.8311.9023.2529,1.0508-.6309-.2579-.0234-.4981-.0615-.42-.4199-.6758-.1846-.289.6924-.8398.6309-.0469-.1631-.0059-.4151-.209-.4209a.92094.92094,0,0,0,.418.8408m16.164,0c.002-.5088-.7343-1.3428-1.0488-.8408.3164.3134.3203.9414,1.0488.8408m4.8301,1.4687c-.8711-.7402-1.2168-2.0039-2.5195-2.3095.7597.9726.7715,3.0478,2.5195,2.3095m-19.3144-.8398c.2773-.3545,1.3242.2705,1.6796-.4199-.29489-.0547-.2382-.46-.41989-.6289-1.209.2187-.707.5214-1.47071.6289.3946.0498-.1191.3457.211.4199m15.955-.6289c-.3964-.0479-.4629.2363-.8398.209-.0234-.2559-.06249-.4961-.4199-.42-.2012.5928,1.3672,1.0362,1.2597.211m-23.9306.209c.2998.6269-.1739.7138.208,1.2597.6426.1534.6172-.3613,1.2597-.2099.125-.3731-.6152-.8711,0-1.0498v.4199c.3907.2002.7012-.6279.8399,0,.1113.3027-.8184.5127-.209.6299-.0898-.5801.7813-.1973.8379-.6299-.9238-.9756-1.875-.1777-2.9365-.4199M74.326,58.7803c-.918.1386-1.0665-1.5821-1.6797-1.0498.5918.1875,1.03511,1.6123,1.6797,1.0498m-29.81059.4209h.62989c.0586-.9698-.6885-1.1319-1.2598-1.4707-.1738.5937.29491.5439.211,1.0498.7773-.1075.5254-.3584.41891.4209M30.24,58.3603c-.2475.0333-.5962-.0361-.6294.21h1.25881c.147-.5215-.89741-.8887-1.04881-.4199.1621.0478.4131.0058.4194.2099m2.3091-.2099c.1924,1.1387,1.335,1.3232,1.8896,2.0996.5865-.5674-.5136-.377-.62929-.8408.20939.001.24949-.169.41839-.208.021.289.8193.8193.8403.4189-.477-.1533-.6274-.6328-.8403-1.0498-.52-.2725-1.0181.4678-1.0493,0-.1113-.3017.8193-.5127.21-.6299-.1822.3174-.3135-.0586-.8394.21m24.9819.6299a3.47124,3.47124,0,0,0-1.4707-.42c-.1582.9922-.7988.4073-1.0508,1.0489.918.1474.9356-.6055,1.6817-.6289-.04879.2998-.3457.3545-.4199.6289a2.70593,2.70593,0,0,0,1.8906-1.2588H57.74c-.1269.0127-.248.0322-.209.2099.2539.044.1289.2334,0,.42m-31.0708.2099c.0318.2793-.706.7813-.209.8399.3721-.5567,1.97121-.167,2.09921-1.4698-1.147.6758-.30131.337-1.89021.6299m5.8789.419c-.7373.0381-.6899-.708-1.25969-.8389-1.45021.71-2.04981.3106-2.729,1.8897.67619.0459.88819-.3711,1.67969-.21.083-.3613-.3111-.5381,0-.6299.25731.8496,1.7231.3106,1.8896-.2109a.21211.21211,0,0,0,.4194,0m37.9986,0v-.8389h-.8399c-.0996.6582.5274.5918.8399.8389m-20.36529.4209c.67189.0976,1.70509-.5157,1.25979-.8399-.1777.1602-1.082.1367-1.25979.8399m6.71879-.21c.1484,1.0918,1.498.4229,1.6797-.2109-1.1934-.7334-.8594.7812-1.6797.2109m-13.4365.6299c-.3682.5527-.876-.2813-.209-.4199-.2988-.0498-.3545-.3457-.6289-.4209-.06639.2842-.2998.4023-.211.8408.3125.3467,1.6768,1.0752,1.0489,0m27.9228.8389c-.123-.6807.1426-.9756.209-1.4688-.36909.1211-1.2344-.2539-1.2598.21,1-.1739.043.7939,1.0508,1.2588m-45.1362,0a10.24372,10.24372,0,0,1,1.8896-.418v-.8408c-.72649.3232-1.7314.3681-1.8896,1.2588m18.0552-.21c.2734.3682,1.331.7676,1.2578-.208-.6533.1475-.9024-1.1748-1.4688-.4209.5625.1631.83791.0693.211.6289m10.4951.21c-.7578-.4952-.5703.5644-1.2598,0,.3672.8242,1.7442.6357,2.5195,1.0507-.3203-.9345.8379-.8437.209-1.4687.2813.2725.6348.1279.8399-.2109-.625-.2872-2.5723.2021-2.3086.6289m-21.2031.2109c-.3179.3887-.0708-1.1074.20991-.6289-.51811-.4141-1.83351-.2813-1.88871.418.4786-.0586.7886.0517.8394.4199a8.58511,8.58511,0,0,1-1.8896-.209c-.1656.6133-.6348,2.0107-.4195,2.3086.81841-1.1719,2.3389-1.3213,3.1485-2.3086m-1.8882,3.5684a3.29373,3.29373,0,0,0,.4194-2.0987c-.7476.0918-.9199.7588-1.4697,1.0498.1953.2237.7739.0645.62941.6289-.793.4014-1.12891-1.2734-1.25881-.2099a3.25653,3.25653,0,0,0,1.6797.6299m-4.8291-2.7286c-.1485-.7011-1.2315-1.5566-1.6797-1.2607.3432-.1523.9131.4189.4194.4209-.3149-.2461-.5137-.6074-1.0493-.6289-.647.4727-1.6528.585-2.0991,1.2588.1523-.6904-.4175-.3213-.4195,0,.9585.4726,3.3682.0683,4.8282.2099m0-1.0507c-.0601.4795.0508.79.4194.8408-.03519-.2842,1.0679-.4199.4194-.6299-.1821.6201-.1655-.6348-.8388-.2109m1.67921.8408c.74659-.0928.91889-.7598,1.47019-1.0508-.4409-.3721-1.9546.498-1.47019,1.0508m14.90429,1.4697c-.3457-.293.4004-1.2685.4199-1.8906a2.89217,2.89217,0,0,0-2.0986-.209c-.1045,1.123-1.2735,3.0527-.6294,3.5684a4.28331,4.28331,0,0,1,2.3081-1.4688m-9.8662-.6299c-.3614-.084-.5376.3106-.6294,0,.1157-.1328.8525-.6347.2099-.8398a3.60515,3.60515,0,0,1-.8393.6289,2.78176,2.78176,0,0,0,.4194,1.4707c.5786-.8584,1.2114,1.3281,1.6787,0-.9453.1816-.9717-.3516-.41839-.6299a.57377.57377,0,0,1-.42091-.6299m1.0502,1.0498c.1866-.4443.6382-.6211.6294-1.2607H33.59836a1.48421,1.48421,0,0,0,.84029,1.2607m11.3355-.6299c-.5117-.4306-.0879-.4921-.4199-1.2597-.3223.3193-.3731,1.4385.4199,1.2597m0,.419c-.498-.1309-.9766-.2822-1.04879-.8389a.98226.98226,0,0,0-.62891.209c-.0489-.1621-.0078-.4131-.211-.4199.17291.5947-.2968.5439-.2109,1.0498,1.1191-.0879,1.5723.417,2.0996,0m1.4717.8398h1.0488c-.0488-.3964.2363-.4629.209-.8398-.6504.0508-.8164.585-1.2578.8398m-2.73049.21c.52639.0352.65719-.3223.83889-.6289-.4336.124-1.37889-.2598-1.4688.209.3672.5097,1.127-.3545.62991.4199m-2.52051.21a.7534.7534,0,0,1,1.0508.2099c-.0469-.3965.2373-.4629.209-.8398-.6426-.1367-1.7129.3623-1.2598.6299"/></g></g></svg>